<?xml version="1.0" encoding="utf-8"?>
<!-- Generator: Adobe Illustrator 18.1.1, SVG Export Plug-In . SVG Version: 6.00 Build 0)  -->
<svg version="1.1" id="Layer_1" xmlns="http://www.w3.org/2000/svg" xmlns:xlink="http://www.w3.org/1999/xlink" x="0px" y="0px"
	 viewBox="0 0 399.6 336.6" enable-background="new 0 0 399.6 336.6" xml:space="preserve">
<g>
	<g>
		<path fill-rule="evenodd" clip-rule="evenodd" fill="#DB7979" d="M376.3,140.8l-29.1,161.3c-1.7,9.6-5.9,18.4-12.2,24.7
			c-6,6-13.7,9.7-23.1,9.7H87.7c-9.4,0-17.2-3.7-23.1-9.7c-6.3-6.3-10.5-15.2-12.2-24.7L23.3,140.8L22,134h7h341.6h7L376.3,140.8
			L376.3,140.8z M335.8,300.1l27.9-154.5H35.9l27.9,154.5c1.3,7.3,4.4,13.9,9,18.6c3.9,3.9,8.9,6.2,14.9,6.2h224.2
			c6,0,11-2.4,14.9-6.2C331.4,314.1,334.4,307.4,335.8,300.1z"/>
		<path fill-rule="evenodd" clip-rule="evenodd" fill="#DB7979" d="M330.7,140.6l-21.4,161.3c-1.2,9.4-4.3,18.1-8.8,24.3
			c-4.7,6.4-10.9,10.3-18.6,10.3H117.7c-7.7,0-13.9-4-18.6-10.3c-4.6-6.3-7.6-15-8.8-24.3L68.9,140.6L68,134h6.6H325h6.6
			L330.7,140.6L330.7,140.6z M297.9,300.4l20.5-154.8H81.2l20.5,154.8c1,7.5,3.3,14.3,6.7,19c2.5,3.4,5.6,5.6,9.2,5.6h164.3
			c3.6,0,6.7-2.1,9.2-5.6C294.6,314.7,296.9,307.9,297.9,300.4z"/>
		<path fill-rule="evenodd" clip-rule="evenodd" fill="#DB7979" d="M281.4,140.3l-12.9,161.3c-0.7,9-2.5,17.4-5.2,23.5
			c-3.1,7.1-7.7,11.4-13.7,11.4H150c-6,0-10.6-4.4-13.7-11.4c-2.7-6.1-4.5-14.5-5.2-23.5l-12.9-161.3l-0.5-6.3h6.3h151.7h6.3
			L281.4,140.3L281.4,140.3z M256.9,300.7l12.4-155.1H130.3l12.4,155.1c0.6,7.9,2.1,14.9,4.2,19.8c1.2,2.8,2.3,4.5,3.1,4.5h99.5
			c0.8,0,1.9-1.7,3.1-4.5C254.8,315.6,256.3,308.5,256.9,300.7z"/>
		<path fill-rule="evenodd" clip-rule="evenodd" fill="#DB7979" d="M232.1,140l-4.5,161.3c-0.2,8.7-0.8,16.7-1.7,22.4
			c-1.2,8-4,12.9-8.7,12.9h-34.8c-4.7,0-7.5-4.9-8.7-12.9c-0.9-5.7-1.5-13.7-1.7-22.4L167.5,140l-0.2-6h6h53h6L232.1,140L232.1,140z
			 M216,301l4.4-155.4h-41.1l4.4,155.4c0.2,8.2,0.8,15.7,1.6,20.9c0.6,4.1,28,8,29.2,0C215.2,316.7,215.8,309.2,216,301z"/>
		<rect x="35.1" y="179" fill-rule="evenodd" clip-rule="evenodd" fill="#DB7979" width="329.3" height="11.6"/>
		<rect x="43.2" y="217.2" fill-rule="evenodd" clip-rule="evenodd" fill="#DB7979" width="313.3" height="11.7"/>
		<rect x="48.1" y="254.8" fill-rule="evenodd" clip-rule="evenodd" fill="#DB7979" width="303.4" height="11.7"/>
		<rect x="52.4" y="292.5" fill-rule="evenodd" clip-rule="evenodd" fill="#DB7979" width="294.8" height="11.7"/>
	</g>
	<path fill-rule="evenodd" clip-rule="evenodd" fill="#E94947" d="M17.2,97.3h365.1c9.5,0,17.2,7.8,17.2,17.2v19.7
		c0,9.5-7.8,17.2-17.2,17.2H17.2c-9.5,0-17.2-7.8-17.2-17.2v-19.7C0,105,7.8,97.3,17.2,97.3z"/>
	<path fill="#603913" d="M222.5,9.9c0-5.5-4.4-9.9-9.9-9.9h-25.7c-5.5,0-9.9,4.4-9.9,9.9v112.8c0,5.5,4.4,9.9,9.9,9.9h25.7
		c5.5,0,9.9-4.4,9.9-9.9V9.9z"/>
	<path fill="#F7941E" d="M188.9,104.9c0-6,4.9-10.9,10.9-10.9s10.9,4.9,10.9,10.9c0,6-4.9,10.9-10.9,10.9S188.9,110.9,188.9,104.9"
		/>
</g>
</svg>
