<?xml version="1.0" encoding="utf-8"?>
<!-- Generator: Adobe Illustrator 21.1.0, SVG Export Plug-In . SVG Version: 6.00 Build 0)  -->
<svg version="1.1" id="Layer_1" xmlns="http://www.w3.org/2000/svg" xmlns:xlink="http://www.w3.org/1999/xlink" x="0px" y="0px"
	 viewBox="0 0 3829 584" style="enable-background:new 0 0 3829 584;" xml:space="preserve">
<style type="text/css">
	.st0{fill:#2C9765;}
	.st1{fill:#68BB71;}
	.st2{fill:#1E8656;}
	.st3{fill:#2DAD58;}
	.st4{fill:#2F2F2F;}
	.st5{fill:#7E5425;}
	.st6{fill:#A47A4F;}
	.st7{fill:#4EB360;}
	.st8{fill:#139556;}
	.st9{fill:#8BC67A;}
	.st10{fill:#38AF58;}
	.st11{fill:#FFFFFF;}
	.st12{fill:#C76E19;}
	.st13{fill:#BE976B;}
	.st14{fill:#B1523C;}
	.st15{fill:#E5E7E7;}
	.st16{fill:#B31D33;}
	.st17{fill:#808184;}
	.st18{fill:#F18F1A;}
	.st19{fill:#2DB07A;}
	.st20{fill:#12916E;}
	.st21{fill:#E43952;}
	.st22{fill:#4B8F7D;}
	.st23{fill:#D3E1DB;}
	.st24{fill:#AC1D3E;}
	.st25{fill:#405159;}
	.st26{fill:#83C037;}
	.st27{fill:#023F42;}
	.st28{fill:#E3582B;}
	.st29{fill:#734B29;}
	.st30{fill:#F9DBB1;}
	.st31{fill:#E51E46;}
	.st32{fill:#F0AA43;}
	.st33{fill:#DBC9AC;}
	.st34{fill:#EEB38B;}
	.st35{fill:#BF513C;}
	.st36{fill:#F4AA15;}
	.st37{fill:#FBECD8;}
	.st38{fill:#E4582C;}
	.st39{fill:#1BA8C1;}
	.st40{fill-rule:evenodd;clip-rule:evenodd;fill:#D08492;}
	.st41{fill-rule:evenodd;clip-rule:evenodd;fill:#947C9C;}
	.st42{fill:#6B98BF;}
	.st43{fill:#A17524;}
	.st44{fill:#A07B60;}
	.st45{fill:#F4CE41;}
	.st46{fill:#6B5D50;}
	.st47{fill:#D3966B;}
	.st48{fill:#D6800F;}
	.st49{fill:#F4A73C;}
	.st50{fill:#9C5724;}
	.st51{fill:#F09A9B;}
	.st52{fill:#D5D58B;}
	.st53{fill:#7EA590;}
	.st54{fill:#EEB720;}
	.st55{fill:#2C7782;}
	.st56{fill:#5E8DA4;}
	.st57{fill:#5679A1;}
	.st58{fill:#D0D1D3;}
	.st59{fill:#B27522;}
	.st60{fill:#8D5D25;}
	.st61{fill:#EC6C1B;}
	.st62{fill:#9C3324;}
	.st63{fill:#934556;}
	.st64{fill:#A0202D;}
	.st65{fill:#E24B2B;}
	.st66{fill:#9F7350;}
	.st67{fill:#A0C629;}
	.st68{fill:#55535C;}
	.st69{fill:#AB5E2E;}
	.st70{fill:#AD7021;}
	.st71{fill:#79B579;}
	.st72{fill:#CD5A2A;}
	.st73{fill:#436067;}
	.st74{fill:#5C4847;}
	.st75{fill:#977B47;}
	.st76{fill:#525E84;}
	.st77{fill:#6C7A86;}
	.st78{fill:#065A7F;}
	.st79{fill:#4A5E83;}
	.st80{fill:#836884;}
	.st81{fill:#218956;}
	.st82{fill:#A26769;}
	.st83{fill:#F8D588;}
	.st84{fill:#E14436;}
	.st85{fill:#5E9D44;}
	.st86{fill:#74BD60;}
	.st87{fill:#108A66;}
	.st88{fill:#EB7272;}
	.st89{fill:#AEBABD;}
	.st90{fill:#6D5D76;}
	.st91{fill:#EC8F26;}
	.st92{fill:#03603F;}
	.st93{fill:#AF302F;}
	.st94{fill:#AF4923;}
	.st95{fill:#E73F3A;}
	.st96{fill:#EA5A19;}
	.st97{fill:#458C66;}
	.st98{fill:#F4AC17;}
	.st99{fill:#5B4875;}
	.st100{fill:#E95E57;}
	.st101{fill:#CC6C15;}
	.st102{fill:#6E4420;}
	.st103{fill:#C72829;}
	.st104{fill:#F8E398;}
	.st105{fill:#557583;}
	.st106{fill:#B32049;}
	.st107{fill:#E14345;}
	.st108{fill:#BA1F44;}
	.st109{fill:#CA2235;}
	.st110{fill:#94B424;}
	.st111{fill:#5F7D8A;}
	.st112{fill:#A3C9E3;}
	.st113{fill:#8484AB;}
	.st114{fill:#5A6A8A;}
	.st115{fill:#F9E79F;}
	.st116{fill:#D2883D;}
	.st117{fill:#F5B755;}
	.st118{fill:#F4A540;}
	.st119{fill:#885D3C;}
	.st120{fill:#F5F5BC;}
	.st121{fill:#F1D046;}
	.st122{fill:#E0C49E;}
	.st123{fill:#F8EFE7;}
	.st124{fill:#8AC88F;}
	.st125{fill:#366650;}
	.st126{fill:#D1CFDE;}
	.st127{fill:#DEDED9;}
	.st128{fill:#6D6E71;}
	.st129{fill:#F6C480;}
	.st130{fill:#E3925E;}
	.st131{fill:#70BFDA;}
	.st132{fill:#D79951;}
	.st133{fill:#C3A66B;}
	.st134{fill:#A0884E;}
	.st135{fill:#8E5F26;}
	.st136{fill:#645244;}
</style>
<ellipse class="st0" cx="2642.1" cy="345.4" rx="60.8" ry="65.7"/>
<ellipse class="st1" cx="2642.1" cy="345.4" rx="31.1" ry="33.6"/>
<path class="st2" d="M2642.1,279.7C2642.1,279.7,2642.1,279.7,2642.1,279.7l-0.1,131.4c0,0,0,0,0.1,0c33.6,0,60.8-29.4,60.8-65.7
	C2702.9,309.1,2675.7,279.7,2642.1,279.7z"/>
<path class="st3" d="M2642.1,311.8C2642.1,311.8,2642.1,311.8,2642.1,311.8l-0.1,67.1c0,0,0,0,0.1,0c17.2,0,31.1-15,31.1-33.6
	C2673.2,326.8,2659.3,311.8,2642.1,311.8z"/>
<rect x="-12" y="466" class="st4" width="3841" height="158"/>
<rect x="-12.2" y="463" class="st5" width="1242.2" height="32"/>
<rect x="782.7" y="338.8" class="st6" width="17.4" height="38.1"/>
<path class="st5" d="M2570.3,400.6c3.6,10,11.1,17.9,21.7,16.3C2581.4,418.5,2573.8,410.6,2570.3,400.6h-6.3v220h1265v-220H2570.3z"
	/>
<path class="st7" d="M798,301.6c0,24.6,17.6,44.5-7.1,44.5c-24.7,0-44.7-19.9-44.7-44.5c0-24.6,20-44.5,44.7-44.5
	C815.6,257.1,798,277,798,301.6z"/>
<path class="st8" d="M790.9,257.1C790.9,257.1,790.9,257.1,790.9,257.1l-0.1,89c0,0,0,0,0.1,0c24.7,0,44.7-19.9,44.7-44.5
	C835.6,277,815.6,257.1,790.9,257.1z"/>
<ellipse class="st9" cx="790.9" cy="301.6" rx="22.8" ry="22.7"/>
<path class="st10" d="M790.9,278.8C790.9,278.8,790.9,278.9,790.9,278.8l-0.1,45.5c0,0,0,0,0.1,0c12.6,0,22.8-10.2,22.8-22.7
	C813.7,289,803.5,278.8,790.9,278.8z"/>
<rect x="810.6" y="310.6" class="st11" width="80.2" height="48.6"/>
<rect x="1019" y="332.3" class="st12" width="51.4" height="33.8"/>
<polygon class="st13" points="574.7,423.6 356.1,423.6 354.9,381 445.5,341.4 "/>
<rect x="810.4" y="319.2" class="st14" width="80.5" height="5.9"/>
<rect x="243.7" y="330.1" class="st15" width="61.3" height="37.1"/>
<rect x="243.7" y="336.6" class="st14" width="61.3" height="4.5"/>
<rect x="493.8" y="320" class="st15" width="72.5" height="43.9"/>
<polygon class="st16" points="573.9,327.7 487.4,327.7 487.4,303.6 566.6,303.6 "/>
<rect x="493.8" y="327.7" class="st17" width="72.5" height="5.3"/>
<rect x="974.1" y="312.9" class="st15" width="63.9" height="38.7"/>
<rect x="974.1" y="319.8" class="st14" width="63.9" height="4.7"/>
<rect x="807.1" y="286.5" class="st18" width="86.3" height="33.3"/>
<path class="st19" d="M400.6,393.9c3.3-9.4,6.5-20.3,6.5-30.9c0-28.5-6.6-53.6-27-70.5c-20.5,16.9-33.5,42.4-33.5,70.9
	c0,10.5,1.8,20.6,5,30L400.6,393.9z"/>
<path class="st20" d="M408.5,393.5c3.3-9.4,5-19.5,5-30c0-28.5-13-54-33.5-70.9v101H408.5z"/>
<path class="st7" d="M430.2,407.8c1.9-5.5-6.1-10.5-6.1-16.7c0-16.7,1.4-32.6-10.6-42.5c-12,9.9-19.6,24.9-19.6,41.6
	c0,6.2,1,12.1,3,17.6H430.2z"/>
<path class="st20" d="M430.2,407.8c1.9-5.5,3-11.4,3-17.6c0-16.7-7.6-31.7-19.6-41.6v59.2H430.2z"/>
<path class="st19" d="M941.7,349.7c3.2-9.3-10.7-19.5-10.7-29.9c0-28.3,2.8-53.4-17.5-70.2c-20.3,16.8-33.2,42.1-33.2,70.4
	c0,10.4,1.8,20.5,5,29.8H941.7z"/>
<path class="st20" d="M941.7,349.7c3.2-9.3,5-19.4,5-29.8c0-28.3-12.9-53.6-33.2-70.4v100.1H941.7z"/>
<path class="st7" d="M1092.2,367.7c2.1-6.1-13.7-11.2-13.7-18c0-18.4,8.5-36.2-4.7-47.1c-13.2,10.9-21.6,27.3-21.6,45.7
	c0,6.8,1.1,13.3,3.3,19.4H1092.2z"/>
<circle class="st21" cx="595.1" cy="155.6" r="5.6"/>
<polygon class="st11" points="641.5,362 549,362 566.9,211 623.8,211 "/>
<rect x="834.5" y="329.9" class="st22" width="31.3" height="20.2"/>
<polygon class="st23" points="595.4,362 641.5,362 623.8,211 595.4,211 "/>
<rect x="576.3" y="146" class="st11" width="37.8" height="51.5"/>
<polygon class="st24" points="595.1,142.5 574.1,142.5 574.1,149.5 595.1,149.5 616,149.5 616,142.5 "/>
<path class="st20" d="M1092.2,367.7c2.1-6.1,3.2-12.6,3.2-19.4c0-18.4-8.4-34.8-21.6-45.7v65.1H1092.2z"/>
<path class="st7" d="M1124,381.7c1.7-4.9-11.1-8.6-11.1-14c0-14.7,7-29.3-3.6-38.1c-10.6,8.7-17.3,21.9-17.3,36.6
	c0,5.4,0.9,10.6,2.6,15.5H1124z"/>
<path class="st25" d="M603.4,359.2v-13.8c0-4.7-3.8-8.5-8.5-8.5c-4.7,0-8.5,3.8-8.5,8.5v13.8h-37.1v5.9h92.2v-5.9H603.4z"/>
<path class="st20" d="M1124,381.7c1.7-4.9,2.6-10.1,2.6-15.5c0-14.7-6.7-27.9-17.3-36.6v52.1H1124z"/>
<path class="st26" d="M1205.7,445.3c-67.2-70.3-161.9-114.1-266.8-114.1c-104.9,0-199.6,43.8-266.8,114.1H1205.7z"/>
<path class="st26" d="M456.9,432c-44.9-47-108.2-76.3-178.4-76.3c-70.2,0-133.5,29.3-178.4,76.3H456.9z"/>
<polygon class="st27" points="657,428.7 485.3,428.7 536.4,365.1 601.1,365.1 "/>
<rect x="268.5" y="291.6" class="st14" width="13" height="24.1"/>
<rect x="267.3" y="291.6" class="st28" width="15.3" height="6.2"/>
<polygon class="st13" points="624.1,428.7 405.6,428.7 438.5,378.5 520.4,344 "/>
<polygon class="st13" points="208.7,425 74.7,425 94.9,392.9 145.1,370.9 "/>
<polygon class="st13" points="789.5,413.6 637.5,411.1 663.1,345.4 722.8,359.1 "/>
<polygon class="st29" points="686.6,363.9 748.3,415.4 696.4,419.6 675.2,391.8 "/>
<polygon class="st12" points="725.2,428.5 552.9,428.7 577.5,380.8 613.3,352.4 686.6,363.9 "/>
<rect x="237.8" y="310.6" class="st28" width="74.3" height="26.1"/>
<polygon class="st29" points="923.1,417.7 798,413.6 846.5,365.1 885.4,376.9 "/>
<polygon class="st29" points="1180.5,428.9 1048,425.2 1082.8,376.9 1172.8,402.6 "/>
<polygon class="st12" points="970.2,423.5 883.7,423.5 908.7,388.2 943.1,381.7 "/>
<polygon class="st30" points="1033.2,368 946.7,368 971.7,350.9 1006.1,347.8 "/>
<path class="st7" d="M182.8,412.2c2.8-8-18.5-17-18.5-26c0-24.3,11.7-45.7-5.8-60.1c-17.4,14.4-28.5,36.2-28.5,60.5
	c0,9,1.5,17.6,4.3,25.6H182.8z"/>
<path class="st20" d="M182.8,412.2c2.8-8,4.3-16.6,4.3-25.6c0-24.3-11.1-46.1-28.5-60.5v86.1H182.8z"/>
<path class="st7" d="M253.3,412.2c4.3-12.5-22.3-26-22.3-40c0-38,11.7-71.9-15.5-94.4c-27.2,22.5-44.6,56.4-44.6,94.4
	c0,14,2.4,27.4,6.7,40H253.3z"/>
<path class="st20" d="M253.3,412.2c4.3-12.5,6.7-26,6.7-40c0-38-17.3-71.9-44.6-94.4v134.4H253.3z"/>
<polygon class="st29" points="299,419.2 213.5,419.2 240.5,379.5 258.4,386.1 "/>
<polygon class="st12" points="241.3,419.2 176.1,419.2 201.3,384.6 232.3,391.5 "/>
<polygon class="st30" points="371.2,386.3 335.9,379.5 328.8,377.1 360.1,363 "/>
<polygon class="st12" points="320.4,376 290,376 300.9,363 315.5,370.7 "/>
<polygon class="st31" points="560.1,268.4 630.5,268.4 626.7,235.4 564,235.4 "/>
<polygon class="st24" points="595.4,268.4 630.5,268.4 629.5,259.2 626.7,235.4 595.4,235.4 "/>
<polygon class="st31" points="552.9,329.4 637.7,329.4 633.8,296.4 556.8,296.4 "/>
<polygon class="st24" points="595.4,329.4 637.7,329.4 633.8,296.4 595.4,296.4 "/>
<ellipse class="st32" cx="595.4" cy="283" rx="9" ry="9"/>
<circle class="st27" cx="595.4" cy="283" r="4.9"/>
<ellipse class="st32" cx="595.2" cy="223.9" rx="9" ry="9"/>
<ellipse class="st27" cx="595.2" cy="223.9" rx="4.9" ry="4.9"/>
<polygon class="st31" points="574.1,142.5 595.1,128.8 616,142.5 "/>
<polygon class="st33" points="415.3,413.8 418.9,420.7 448.8,425.2 481.8,381 520.4,344 438.5,378.5 "/>
<polygon class="st34" points="615.7,428.5 613.3,352.4 577.5,380.8 555.3,417.9 "/>
<circle class="st11" cx="509.7" cy="397.7" r="7.9"/>
<ellipse class="st11" cx="390.6" cy="400.5" rx="7.9" ry="7.9"/>
<circle class="st11" cx="267.5" cy="403.5" r="5.8"/>
<circle class="st11" cx="555.3" cy="399.9" r="7.9"/>
<circle class="st11" cx="593.4" cy="397.7" r="7.9"/>
<circle class="st11" cx="710.7" cy="399.9" r="7.9"/>
<ellipse class="st11" cx="754.1" cy="400.5" rx="7.9" ry="7.9"/>
<circle class="st11" cx="532.1" cy="393.9" r="5.1"/>
<circle class="st11" cx="655.5" cy="386.3" r="5.1"/>
<circle class="st11" cx="517.6" cy="375.8" r="3.7"/>
<circle class="st11" cx="850.1" cy="391.4" r="5.3"/>
<circle class="st11" cx="880.3" cy="400.5" r="5.3"/>
<rect x="854.1" y="266" class="st28" width="13" height="20.5"/>
<rect x="852.8" y="266" class="st35" width="15.3" height="6.2"/>
<rect x="967.4" y="291.5" class="st28" width="77.3" height="28.3"/>
<rect x="576.3" y="149.5" class="st36" width="37.8" height="19.4"/>
<path class="st27" d="M595.4,173.7c-3.9,0-7.1,3.2-7.1,7.1v17.3h14.1v-17.3C602.5,176.9,599.3,173.7,595.4,173.7z"/>
<rect x="566.9" y="192.7" class="st31" width="56.9" height="18.3"/>
<rect x="595.4" y="192.7" class="st24" width="28.4" height="18.3"/>
<circle class="st37" cx="595.2" cy="159.2" r="6.8"/>
<ellipse class="st38" cx="595.2" cy="159.2" rx="3.7" ry="3.7"/>
<path class="st39" d="M1230,463.5v-39c-8.6,0-16-4.7-20-11.7c-4.1,6.9-11.5,11.7-20,11.7c-8.6,0-16-4.7-20-11.7
	c-4.1,6.9-11.5,11.7-20,11.7c-8.6,0-16-4.7-20-11.7c-4,6.9-11.5,11.7-20,11.7s-16-4.7-20-11.7c-4.1,6.9-11.5,11.7-20,11.7
	c-8.6,0-16-4.7-20-11.7c-4.1,6.9-11.5,11.7-20,11.7c-8.6,0-16-4.7-20-11.7c-4.1,6.9-11.5,11.7-20,11.7c-8.6,0-16-4.7-20-11.7
	c-4,6.9-11.5,11.7-20,11.7c-8.6,0-16-4.7-20-11.7c-4.1,6.9-11.5,11.7-20,11.7c-8.6,0-16-4.7-20-11.7c-4.1,6.9-11.5,11.7-20,11.7
	c-8.6,0-16-4.7-20-11.7c-4.1,6.9-11.5,11.7-20,11.7c-8.6,0-16-4.7-20-11.7c-4.1,6.9-11.5,11.7-20,11.7c-8.6,0-16-4.7-20-11.7
	c-4.1,6.9-11.5,11.7-20,11.7c-8.6,0-16-4.7-20-11.7c-4.1,6.9-11.5,11.7-20,11.7c-8.6,0-16-4.7-20-11.7c-4.1,6.9-11.5,11.7-20,11.7
	c-8.6,0-16-4.7-20-11.7c-4.1,6.9-11.5,11.7-20,11.7c-8.6,0-16-4.7-20-11.7c-4,6.9-11.5,11.7-20,11.7c-8.6,0-16-4.7-20-11.7
	c-4.1,6.9-11.5,11.7-20,11.7c-8.6,0-16-4.7-20-11.7c-4.1,6.9-11.5,11.7-20,11.7c-8.6,0-16-4.7-20-11.7c-4,6.9-11.5,11.7-20,11.7
	c-8.6,0-16-4.7-20-11.7c-4.1,6.9-11.5,11.7-20,11.7c-8.6,0-16-4.7-20-11.7c-4.1,6.9-11.5,11.7-20,11.7c-8.6,0-16-4.7-20-11.7
	c-4,6.9-11.5,11.7-20,11.7c-8.6,0-16-4.7-20-11.7c-4.1,6.9-11.5,11.7-20,11.7c-8.6,0-16-4.7-20-11.7c-4.1,6.9-11.5,11.7-20,11.7
	c-8.6,0-16-4.7-20-11.7c-4.1,6.9-11.5,11.7-20,11.7c-8.6,0-16-4.7-20-11.7c-4,6.9-11.5,11.7-20,11.7c-8.6,0-16-4.7-20-11.7
	c-4.1,6.9-11.5,11.7-20,11.7c-8.6,0-16-4.7-20-11.7c-4,6.9-11.5,11.7-20,11.7c-8.6,0-16-4.7-20-11.7c-4.1,6.9-11.5,11.7-20,11.7
	c-8.6,0-16-4.7-20-11.7c-4,6.9-11.5,11.7-20,11.7c-8.6,0-16-4.7-20-11.7c-4.1,6.9-11.5,11.7-20,11.7v39H1230z"/>
<circle class="st11" cx="250.1" cy="418.8" r="4.7"/>
<circle class="st11" cx="189.4" cy="403.2" r="6.3"/>
<circle class="st11" cx="976" cy="421" r="5.8"/>
<circle class="st11" cx="1057.1" cy="421" r="5.8"/>
<g>
	<path class="st40" d="M702.8,258.2L702.8,258.2c-3.9-10.2-16.4-15-27.1-13.5c7.9-4.6,21-5.8,27.1,1.2v0.1c6.2-7,19.2-5.8,27.1-1.2
		C719.2,243.3,706.6,248.1,702.8,258.2L702.8,258.2z"/>
</g>
<g>
	<path class="st41" d="M405.3,284.9L405.3,284.9c-3.9-10.2-16.4-15-27.1-13.5c7.9-4.6,21-5.8,27.1,1.2v0.1c6.2-7,19.2-5.8,27.1-1.2
		C421.8,270,409.2,274.7,405.3,284.9L405.3,284.9z"/>
</g>
<g>
	<path class="st41" d="M513.9,249.6L513.9,249.6c-3.9-10.2-16.4-15-27.1-13.5c7.9-4.6,21-5.8,27.1,1.2v0.1c6.2-7,19.2-5.8,27.1-1.2
		C530.3,234.7,517.8,239.4,513.9,249.6L513.9,249.6z"/>
</g>
<polygon class="st42" points="1910.4,412.3 2031.2,181.6 2151.9,412.3 "/>
<rect x="2588.2" y="368.5" class="st43" width="4.8" height="46"/>
<rect x="1936.9" y="158.1" class="st44" width="50.4" height="98.3"/>
<rect x="1264.3" y="316.6" class="st45" width="119.1" height="90.1"/>
<rect x="1868.2" y="275.9" class="st46" width="119.1" height="131.8"/>
<rect x="1919.6" y="241.8" class="st47" width="84.9" height="165.6"/>
<rect x="1404.2" y="317.6" class="st48" width="119.1" height="90.1"/>
<rect x="2265.2" y="392.7" class="st32" width="221.6" height="35.8"/>
<rect x="1740.7" y="188.9" class="st49" width="149.5" height="222.6"/>
<rect x="1738.5" y="180.1" class="st50" width="154" height="11.9"/>
<polygon class="st51" points="1420.6,212.1 1383.4,254.6 1383.4,407.7 1457.8,407.7 1457.8,254.6 "/>
<rect x="1569.7" y="192.2" class="st52" width="78.1" height="214.5"/>
<rect x="1578.6" y="207.8" class="st53" width="60.2" height="24.4"/>
<rect x="1579.6" y="256.4" class="st53" width="60.2" height="24.4"/>
<rect x="1580.6" y="305.1" class="st53" width="60.2" height="24.4"/>
<rect x="1581.6" y="353.8" class="st53" width="60.2" height="24.4"/>
<rect x="1569.2" y="192.2" class="st6" width="79" height="5.5"/>
<rect x="1637.9" y="258.5" class="st11" width="105.5" height="148"/>
<rect x="1501.9" y="248.3" class="st54" width="88.6" height="158.4"/>
<rect x="1514.5" y="264.5" class="st55" width="13.6" height="35.7"/>
<rect x="1539.3" y="264.5" class="st56" width="13.6" height="35.7"/>
<rect x="1564.4" y="264.5" class="st56" width="13.6" height="35.7"/>
<rect x="1514.3" y="317.6" class="st56" width="13.6" height="40.8"/>
<rect x="1539.1" y="317.6" class="st55" width="13.6" height="40.8"/>
<rect x="1564.2" y="317.6" class="st56" width="13.6" height="40.8"/>
<polygon class="st42" points="2036.8,406.8 2128.6,231.3 2220.4,406.8 "/>
<polygon class="st57" points="2220.4,406.8 2128.6,231.3 2179.7,405.9 "/>
<polygon class="st11" points="2111.9,263.3 2145.4,263.3 2128.6,231.3 "/>
<polygon class="st58" points="2145.4,263.3 2128.6,231.3 2138,263.3 "/>
<rect x="1501.9" y="248.3" class="st59" width="88.6" height="6.2"/>
<rect x="1475.3" y="382.5" class="st60" width="12.6" height="24"/>
<rect x="1738.4" y="149.7" class="st61" width="154" height="30.8"/>
<rect x="2182.9" y="270.9" class="st51" width="92" height="141.8"/>
<rect x="2201.4" y="349.8" class="st15" width="59.9" height="63"/>
<rect x="2206.2" y="356.7" class="st28" width="50.2" height="56"/>
<rect x="2206.2" y="356.7" class="st62" width="50.2" height="7"/>
<rect x="2206.2" y="370.7" class="st62" width="50.2" height="7"/>
<rect x="2206.2" y="384.8" class="st62" width="50.2" height="7"/>
<rect x="2206.2" y="398.8" class="st62" width="50.2" height="7"/>
<rect x="2182.9" y="270.9" class="st63" width="92" height="5.8"/>
<polygon class="st28" points="2284.5,270.9 2174.8,270.9 2184.1,242 2275.2,242 "/>
<polygon class="st64" points="1747.4,311.4 1632.1,311.4 1632.1,252.8 1747.3,252.8 "/>
<path class="st65" d="M1732.2,246.6v64.8c0,7.3,4.3,13.2,9.5,13.2s9.5-5.9,9.5-13.2v-64.8H1732.2z"/>
<path class="st65" d="M1707.2,246.6v64.8c0,7.3,4.3,13.2,9.5,13.2c5.3,0,9.5-5.9,9.5-13.2v-64.8H1707.2z"/>
<path class="st65" d="M1682.2,246.6v64.8c0,7.3,4.3,13.2,9.5,13.2c5.3,0,9.5-5.9,9.5-13.2v-64.8H1682.2z"/>
<path class="st65" d="M1657.1,246.6v64.8c0,7.3,4.3,13.2,9.5,13.2c5.3,0,9.5-5.9,9.5-13.2v-64.8H1657.1z"/>
<path class="st65" d="M1632.1,246.6v64.8c0,7.3,4.3,13.2,9.5,13.2c5.3,0,9.5-5.9,9.5-13.2v-64.8H1632.1z"/>
<rect x="1961.2" y="241.8" class="st66" width="43.2" height="165.6"/>
<polygon class="st67" points="1383.4,339.8 1254.8,339.8 1264.3,306.8 1383.4,306.8 "/>
<path class="st68" d="M1779.4,200.4c-10.1,0-18.3,11.4-18.3,25.4v51.4h36.7v-51.4C1797.8,211.8,1789.5,200.4,1779.4,200.4z"/>
<path class="st68" d="M1850.5,197.9c-10.1,0-18.3,11.4-18.3,25.4v57.2h36.7v-57.2C1868.8,209.3,1860.6,197.9,1850.5,197.9z"/>
<rect x="1826.2" y="261.9" class="st69" width="48.6" height="18.9"/>
<path class="st46" d="M1961.3,311.3c-12.5,0-22.6,14-22.6,31.3v70.5h45.2v-70.5C1983.8,325.4,1973.7,311.3,1961.3,311.3z"/>
<path class="st11" d="M1979.3,196.1c0,13.2-7.7,24-17.3,24c-9.6,0-17.3-10.7-17.3-24c0-13.2,7.7-24,17.3-24
	C1971.6,172.2,1979.3,182.9,1979.3,196.1z"/>
<path class="st49" d="M1974.7,196.1c0,9.7-5.7,17.6-12.7,17.6c-7,0-12.7-7.9-12.7-17.6c0-9.7,5.7-17.6,12.7-17.6
	C1969.1,178.6,1974.7,186.4,1974.7,196.1z"/>
<path class="st70" d="M1964.3,196.1c0,1.7-1,3.1-2.2,3.1c-1.2,0-2.2-1.4-2.2-3.1c0-1.7,1-3.1,2.2-3.1
	C1963.3,193.1,1964.3,194.4,1964.3,196.1z"/>
<polygon class="st11" points="2466,378.8 2502.7,338.2 2539.3,378.8 "/>
<rect x="1653.4" y="334.4" class="st71" width="76.6" height="60.1"/>
<rect x="1738.4" y="237.8" class="st72" width="154" height="4.8"/>
<rect x="1662.3" y="346.1" class="st73" width="55.9" height="36.8"/>
<rect x="2123.5" y="381.3" class="st13" width="11.2" height="26.2"/>
<polygon class="st57" points="2151.9,412.3 2031.2,181.6 2094.8,412.3 "/>
<path class="st74" d="M1961.3,311.3L1961.3,311.3l0,100.2h22.6v-68.9C1983.8,325.4,1973.7,311.3,1961.3,311.3z"/>
<rect x="2318.9" y="384.1" class="st43" width="4.6" height="45.3"/>
<rect x="2409.6" y="384.1" class="st43" width="4.6" height="45.3"/>
<rect x="2500.4" y="384.1" class="st43" width="4.6" height="45.3"/>
<rect x="1230" y="405" class="st43" width="1335" height="24.4"/>
<rect x="1264.3" y="339.8" class="st75" width="119.1" height="6.6"/>
<rect x="1274.2" y="358.4" class="st76" width="16.8" height="29.8"/>
<rect x="1300.9" y="358.4" class="st77" width="16.8" height="29.8"/>
<rect x="1327.6" y="358.4" class="st77" width="16.8" height="29.8"/>
<rect x="1354.3" y="358.4" class="st77" width="16.8" height="29.8"/>
<ellipse class="st11" cx="1420.6" cy="251.4" rx="9.4" ry="13.1"/>
<path class="st78" d="M1425.7,251.4c0,3.9-2.3,7.1-5.1,7.1c-2.8,0-5.1-3.2-5.1-7.1c0-3.9,2.3-7.1,5.1-7.1
	C1423.4,244.3,1425.7,247.5,1425.7,251.4z"/>
<rect x="1399.2" y="281.3" class="st79" width="15.2" height="27.1"/>
<rect x="1426.8" y="281.3" class="st80" width="15.2" height="27.1"/>
<rect x="1399.2" y="321.4" class="st80" width="15.2" height="27.1"/>
<rect x="1426.8" y="321.4" class="st79" width="15.2" height="27.1"/>
<rect x="1399.2" y="361.5" class="st79" width="15.2" height="27.1"/>
<rect x="1426.8" y="361.5" class="st80" width="15.2" height="27.1"/>
<path class="st3" d="M1517.1,339c0,28.2-16.5,51-36.8,51c-20.3,0-36.8-22.8-36.8-51c0-28.2,16.5-51,36.8-51
	C1500.6,287.9,1517.1,310.8,1517.1,339z"/>
<path class="st81" d="M1480.3,287.9C1480.3,287.9,1480.2,287.9,1480.3,287.9l0,102c0,0,0,0,0,0c20.3,0,36.8-22.8,36.8-51
	C1517.1,310.8,1500.6,287.9,1480.3,287.9z"/>
<path class="st1" d="M1499.1,339c0,14.4-8.4,26.1-18.8,26.1c-10.4,0-18.8-11.7-18.8-26.1c0-14.4,8.4-26.1,18.8-26.1
	C1490.7,312.9,1499.1,324.6,1499.1,339z"/>
<path class="st3" d="M1480.3,312.9C1480.3,312.9,1480.2,312.9,1480.3,312.9l0,52.1c0,0,0,0,0,0c10.4,0,18.8-11.7,18.8-26.1
	C1499.1,324.6,1490.7,312.9,1480.3,312.9z"/>
<rect x="1756" y="261.9" class="st69" width="48.6" height="18.9"/>
<polygon class="st82" points="1383.4,262.3 1420.6,221.3 1457.8,262.3 1457.8,254.6 1420.6,212.1 1383.4,254.1 "/>
<path class="st83" d="M1466.1,253.8l-45-51.2l-46.8,52.5c-1.3,1.5-1.5,4.2-0.5,6c1.1,1.8,3,2.1,4.3,0.7l42.6-47.8l41.5,46.5
	c1.3,1.5,3.3,1.2,4.3-0.7C1467.7,258,1467.5,255.3,1466.1,253.8z"/>
<ellipse class="st11" cx="1769.2" cy="254.2" rx="5.8" ry="8"/>
<path class="st84" d="M1792.5,253.2c0,5-2.9,9-6.4,9c-3.6,0-6.4-4-6.4-9c0-5,2.9-9,6.4-9C1789.6,244.2,1792.5,248.2,1792.5,253.2z"
	/>
<ellipse class="st11" cx="1833.6" cy="254.2" rx="5.8" ry="8"/>
<path class="st11" d="M1872.8,253.2c0,4.4-2.6,8-5.8,8c-3.2,0-5.8-3.6-5.8-8c0-4.4,2.6-8,5.8-8
	C1870.2,245.2,1872.8,248.8,1872.8,253.2z"/>
<path class="st84" d="M1856.9,254.2c0,5-2.9,9-6.4,9c-3.6,0-6.4-4-6.4-9c0-5,2.9-9,6.4-9C1854,245.2,1856.9,249.2,1856.9,254.2z"/>
<rect x="1960.9" y="182.3" class="st70" width="2.2" height="13.8"/>
<rect x="1961.7" y="194.6" class="st70" width="12.2" height="3.1"/>
<rect x="1936.9" y="231.3" class="st46" width="50.4" height="12.9"/>
<rect x="1936.8" y="156.5" class="st46" width="50.4" height="12.9"/>
<polygon class="st67" points="1929.5,161.8 1962.1,59.3 1994.6,161.8 "/>
<polygon class="st85" points="1962.1,161.8 1994.6,161.8 1962.1,59 "/>
<rect x="1919.6" y="241.8" class="st47" width="84.9" height="12.4"/>
<rect x="1940" y="393.2" class="st66" width="45.9" height="13.3"/>
<path class="st86" d="M1943.3,406.5c2.4-9.6-9.7-20.2-9.7-30.9c0-29,3.8-54.5-11.1-71.7c-14.9,17.2-24.4,43.1-24.4,72.1
	c0,10.7,1.3,20.9,3.7,30.5H1943.3z"/>
<path class="st87" d="M1922.6,303.9L1922.6,303.9v102.6h20.7c2.4-9.6,3.7-19.8,3.7-30.5C1947,347,1937.5,321.1,1922.6,303.9z"/>
<rect x="1976.7" y="297" class="st88" width="103.8" height="33.5"/>
<rect x="1980.5" y="330.5" class="st89" width="96.6" height="77.4"/>
<rect x="2040" y="346.7" class="st90" width="29.8" height="41.6"/>
<rect x="2044.3" y="352.7" class="st91" width="21.2" height="29.5"/>
<path class="st86" d="M2161.3,371.2c0,25.2-14.6,45.6-32.7,45.6c-18.1,0-32.7-20.4-32.7-45.6c0-25.2,14.6-45.6,32.7-45.6
	C2146.7,325.7,2161.3,346.1,2161.3,371.2z"/>
<path class="st92" d="M2123.9,398.8c0,24.8-14.5,44.9-32.4,44.9s-32.4-20.1-32.4-44.9c0-24.8,14.5-44.9,32.4-44.9
	S2123.9,374,2123.9,398.8z"/>
<rect x="1584.7" y="144" class="st93" width="10.7" height="21.6"/>
<rect x="1582.7" y="235" class="st28" width="14.7" height="5.5"/>
<rect x="2238.9" y="218.6" class="st94" width="13.4" height="23.4"/>
<rect x="2236.4" y="213.7" class="st28" width="18.3" height="9.7"/>
<polygon class="st95" points="1647.7,164.6 1569.7,164.6 1560.6,192.2 1656.8,192.2 "/>
<polygon class="st96" points="1599.6,248.3 1492.9,248.3 1501.9,216 1590.6,216 "/>
<rect x="1601.9" y="202.5" class="st52" width="10.7" height="180"/>
<rect x="1705.7" y="371" class="st97" width="9" height="7.4"/>
<polygon class="st11" points="2009.1,223.7 2053.2,223.7 2031.2,181.6 "/>
<polygon class="st58" points="2053.2,223.7 2031.2,181.6 2042.8,223.7 "/>
<rect x="1991.1" y="346.7" class="st90" width="29.8" height="41.6"/>
<rect x="1995.4" y="352.7" class="st98" width="21.2" height="29.5"/>
<rect x="1980.5" y="330.5" class="st99" width="100.2" height="8.3"/>
<path class="st66" d="M1941.8,275.9c0,5.3-3.1,9.7-7,9.7c-3.8,0-7-4.3-7-9.7c0-5.4,3.1-9.7,7-9.7
	C1938.7,266.2,1941.8,270.5,1941.8,275.9z"/>
<path class="st47" d="M1998.1,275.9c0,5.3-3.1,9.7-7,9.7c-3.8,0-7-4.3-7-9.7c0-5.4,3.1-9.7,7-9.7
	C1994.9,266.2,1998.1,270.5,1998.1,275.9z"/>
<path class="st11" d="M1783,123.1c0,6.1-5,11.1-11.1,11.1c-6.1,0-11.1-5-11.1-11.1c0-6.1,5-11.1,11.1-11.1
	C1778,112,1783,117,1783,123.1z"/>
<path class="st100" d="M1779.4,197.9c-11.6,0-20.9,13-20.9,29v1.1h41.9v-1.1C1800.3,210.8,1791,197.9,1779.4,197.9z"/>
<path class="st100" d="M1850.5,195.7c-11.3,0-20.5,12.7-20.5,28.4v1.1h41v-1.1C1871,208.4,1861.8,195.7,1850.5,195.7z"/>
<rect x="1758.5" y="227.4" class="st100" width="41.9" height="7.7"/>
<rect x="1830" y="224.6" class="st100" width="41" height="7.4"/>
<polygon class="st50" points="1744.9,191.9 1779.4,124.9 1813.9,191.9 "/>
<polygon class="st50" points="1816,191.9 1850.5,124.9 1885,191.9 "/>
<polygon class="st49" points="1753.5,193.9 1779.4,143 1805.3,193.9 "/>
<polygon class="st49" points="1824.5,193.9 1850.5,143 1876.5,193.9 "/>
<path class="st101" d="M1783,167.8c0,3.2-1.9,5.8-4.2,5.8c-2.3,0-4.2-2.6-4.2-5.8c0-3.2,1.9-5.8,4.2-5.8
	C1781.2,161.9,1783,164.5,1783,167.8z"/>
<path class="st101" d="M1855.2,165.6c0,3.2-1.9,5.8-4.2,5.8c-2.3,0-4.2-2.6-4.2-5.8c0-3.2,1.9-5.8,4.2-5.8
	C1853.3,159.8,1855.2,162.4,1855.2,165.6z"/>
<rect x="1763.5" y="310.6" class="st102" width="34.3" height="94.2"/>
<rect x="1756" y="297" class="st68" width="118.8" height="49.7"/>
<rect x="1756" y="297" class="st103" width="13.2" height="49.7"/>
<rect x="1769.2" y="297" class="st104" width="13.2" height="49.7"/>
<rect x="1782.5" y="297" class="st103" width="13.2" height="49.7"/>
<rect x="1795.7" y="297" class="st104" width="13.2" height="49.7"/>
<rect x="1808.9" y="297" class="st103" width="13.2" height="49.7"/>
<rect x="1822.2" y="297" class="st104" width="13.2" height="49.7"/>
<rect x="1835.4" y="297" class="st103" width="13.2" height="49.7"/>
<rect x="1848.6" y="297" class="st104" width="13.2" height="49.7"/>
<rect x="1861.9" y="297" class="st103" width="13.2" height="49.7"/>
<rect x="1756" y="346.7" class="st103" width="119.1" height="8.5"/>
<rect x="2192.9" y="285.6" class="st37" width="30" height="41.7"/>
<rect x="2197.1" y="291.4" class="st105" width="21.6" height="30.1"/>
<rect x="2235.2" y="285.6" class="st37" width="30" height="41.7"/>
<rect x="2239.4" y="291.4" class="st105" width="21.6" height="30.1"/>
<rect x="2206.2" y="289.4" class="st37" width="3.8" height="36.6"/>
<rect x="2248.3" y="288.2" class="st37" width="3.8" height="36.6"/>
<rect x="2004.1" y="349.7" class="st90" width="3.8" height="35.9"/>
<rect x="2053.7" y="349.5" class="st90" width="3.8" height="35.9"/>
<rect x="1976.7" y="293.4" class="st106" width="104" height="12.3"/>
<rect x="1547.6" y="381.6" class="st5" width="5.8" height="36.1"/>
<rect x="1631.4" y="382.5" class="st5" width="5.8" height="36.1"/>
<rect x="1715.9" y="382.9" class="st5" width="5.8" height="36.1"/>
<polygon class="st15" points="2502.7,378.8 2539.3,378.8 2502.7,338.2 2502.7,338.2 "/>
<polygon class="st11" points="2284.5,381.4 2321.2,340.8 2357.8,381.4 "/>
<polygon class="st15" points="2321.2,381.4 2357.8,381.4 2321.2,340.8 2321.2,340.8 "/>
<polygon class="st11" points="1513.9,383 1550.5,342.4 1587.2,383 "/>
<polygon class="st15" points="1550.5,383 1587.2,383 1550.5,342.4 1550.5,342.4 "/>
<polygon class="st11" points="1597.6,383 1634.3,342.4 1670.9,383 "/>
<polygon class="st15" points="1634.3,383 1670.9,383 1634.3,342.4 1634.3,342.4 "/>
<polygon class="st107" points="2375.3,380.4 2411.9,339.8 2448.6,380.4 "/>
<polygon class="st108" points="2411.9,380.4 2448.6,380.4 2411.9,339.8 2411.9,339.8 "/>
<path class="st3" d="M1289.2,404.7c0-19.2-11.2-34.7-25-34.7c-13.8,0-24.9,15.5-25,34.7H1289.2z"/>
<path class="st81" d="M1303.4,404.7c0-10.9-6.4-19.7-14.2-19.7s-14.2,8.8-14.2,19.7H1303.4z"/>
<rect x="2284.5" y="381.4" class="st11" width="73.3" height="5.5"/>
<rect x="1597.6" y="383" class="st11" width="73.3" height="5.5"/>
<rect x="1513.9" y="383" class="st11" width="73.3" height="5.5"/>
<rect x="2375.3" y="380.4" class="st107" width="73.3" height="5.5"/>
<rect x="2466" y="378.8" class="st11" width="73.3" height="5.5"/>
<path class="st109" d="M1779.6,197.9V228h20.7v-1.1C1800.3,211,1791.1,198.1,1779.6,197.9z"/>
<path class="st109" d="M1850.8,195.7v29.4h20.2V224C1871,208.5,1861.9,195.9,1850.8,195.7z"/>
<path class="st110" d="M1804.6,254.2L1804.6,254.2l-48.6,0v0c-1.7,0-3.1,1.9-3.1,4.3c0,2.4,1.4,4.3,3.1,4.3v0h48.6v0
	c1.7,0,3.1-1.9,3.1-4.3C1807.7,256.1,1806.3,254.2,1804.6,254.2z"/>
<path class="st110" d="M1874.8,254.2L1874.8,254.2l-48.6,0v0c-1.7,0-3.1,1.9-3.1,4.3c0,2.4,1.4,4.3,3.1,4.3v0h48.6v0
	c1.7,0,3.1-1.9,3.1-4.3C1877.9,256.1,1876.5,254.2,1874.8,254.2z"/>
<rect x="1662.3" y="346.1" class="st111" width="55.9" height="15.2"/>
<polygon class="st107" points="1681.6,383 1718.2,342.4 1754.9,383 "/>
<polygon class="st108" points="1718.2,383 1754.9,383 1718.2,342.4 1718.2,342.4 "/>
<rect x="1681.6" y="383" class="st107" width="73.3" height="5.5"/>
<polygon class="st112" points="3520.3,175.6 3451.7,300 3429.5,275.5 "/>
<polygon class="st113" points="3816.7,402 3657.4,215.2 3608.5,297.2 3520.3,175.6 3388.9,404 3523.1,401.7 3522.9,402 "/>
<polygon class="st114" points="3406.5,241.9 3314.4,364 3233.8,220.5 3204,244.6 3067.4,403 3238.5,404 3364.2,404 3532.6,402.7 "/>
<polygon class="st113" points="3196.7,220.5 3067.4,400.5 3214.9,401.4 3214.9,220.5 "/>
<path class="st3" d="M3185.2,319c0,31.2-23.4,56.5-52.3,56.5c-28.9,0-52.3-25.3-52.3-56.5c0-31.2,23.4-56.4,52.3-56.4
	C3161.8,262.6,3185.2,287.9,3185.2,319z"/>
<path class="st81" d="M3133,262.6C3132.9,262.6,3132.9,262.6,3133,262.6l-0.1,112.9c0,0,0,0,0.1,0c28.9,0,52.3-25.3,52.3-56.5
	C3185.2,287.9,3161.8,262.6,3133,262.6z"/>
<path class="st1" d="M3159.7,319c0,15.9-12,28.9-26.7,28.9c-14.7,0-26.7-12.9-26.7-28.9c0-15.9,12-28.8,26.7-28.8
	C3147.7,290.2,3159.7,303.1,3159.7,319z"/>
<path class="st3" d="M3133,290.2C3132.9,290.2,3132.9,290.2,3133,290.2l-0.1,57.7c0,0,0,0,0.1,0c14.8,0,26.7-12.9,26.7-28.9
	C3159.7,303.1,3147.7,290.2,3133,290.2z"/>
<rect x="3177.3" y="387.5" class="st43" width="3.5" height="19.8"/>
<rect x="3262.4" y="388.5" class="st43" width="4.8" height="19.8"/>
<path class="st3" d="M3240.8,347.9c0,21.9-16.5,39.7-36.8,39.7c-20.3,0-36.8-17.8-36.8-39.7c0-21.9,16.5-39.7,36.8-39.7
	C3224.3,308.2,3240.8,326,3240.8,347.9z"/>
<path class="st81" d="M3204,308.2C3204,308.2,3204,308.2,3204,308.2l0,79.4c0,0,0,0,0,0c20.3,0,36.8-17.8,36.8-39.7
	C3240.8,326,3224.3,308.2,3204,308.2z"/>
<path class="st1" d="M3222.8,347.9c0,11.2-8.4,20.3-18.8,20.3c-10.4,0-18.8-9.1-18.8-20.3c0-11.2,8.4-20.3,18.8-20.3
	C3214.4,327.6,3222.8,336.7,3222.8,347.9z"/>
<polygon class="st112" points="3143.2,413 2996.3,194.3 2935,285.5 2834.6,136.2 2649,412.6 2849.6,412.6 2849.4,413 "/>
<polygon class="st113" points="2996.3,194.3 3089.2,414 3158.1,412.8 "/>
<path class="st81" d="M3176.3,348.1c-22.8,0-41.3,20.1-41.3,44.9h82.7C3217.6,368.2,3199.1,348.1,3176.3,348.1z"/>
<polygon class="st114" points="3442,386.5 3441.5,346.1 3500.7,313.2 3559.4,345.1 3582.7,320.9 3635.5,371 3686.7,343.9 
	3752.1,378.3 3752.1,403.4 3450.2,410 "/>
<path class="st3" d="M3259,333.3c-30.4,0-55,26.8-55,59.7h110.1C3314.1,360,3289.4,333.3,3259,333.3z"/>
<rect x="3613.5" y="377.9" class="st43" width="4.8" height="29.1"/>
<polygon class="st115" points="3454.5,335.2 3512.3,267.1 3570.2,335.2 "/>
<rect x="3457.5" y="335.2" class="st116" width="109.8" height="42.5"/>
<polygon class="st117" points="3512.3,335.2 3570.2,335.2 3512.3,267.1 3512.3,267.1 "/>
<rect x="3269.7" y="337" class="st118" width="109.8" height="42.5"/>
<rect x="3269.7" y="340.9" class="st119" width="109.8" height="3.9"/>
<rect x="3457.5" y="339.8" class="st119" width="109.8" height="3.9"/>
<path class="st120" d="M3465.2,87.9c0,25.9-19.3,46.8-43.2,46.8c-23.8,0-43.2-21-43.2-46.8c0-25.9,19.3-46.9,43.2-46.9
	C3445.9,41,3465.2,62,3465.2,87.9z"/>
<path class="st121" d="M3450.2,87.9c0,16.9-12.6,30.6-28.2,30.6c-15.6,0-28.2-13.7-28.2-30.6c0-16.9,12.6-30.6,28.2-30.6
	C3437.6,57.3,3450.2,70.9,3450.2,87.9z"/>
<rect x="3290.7" y="349.1" class="st119" width="23.6" height="25.7"/>
<rect x="3294.7" y="353.4" class="st122" width="15.7" height="17"/>
<rect x="3333" y="349.1" class="st119" width="23.6" height="25.7"/>
<rect x="3337" y="353.4" class="st11" width="15.7" height="17"/>
<rect x="3479.4" y="348.3" class="st119" width="23.6" height="25.6"/>
<rect x="3107.5" y="388.5" class="st43" width="4.3" height="19.8"/>
<rect x="3483.3" y="352.5" class="st123" width="15.8" height="17.2"/>
<rect x="3521.7" y="348.3" class="st119" width="23.6" height="25.6"/>
<rect x="3525.6" y="352.5" class="st122" width="15.8" height="17.2"/>
<polygon class="st11" points="2906.6,308.5 2846.6,355 2858.7,370.8 "/>
<polygon class="st113" points="2899.2,295.8 2834.6,136.2 2935,285.5 "/>
<rect x="3139.3" y="385.5" class="st43" width="3.5" height="19.8"/>
<polygon class="st113" points="2724.9,397.6 2801.9,313.7 2847.8,355.1 2858.7,369.9 2906.6,307.6 2956.1,359.3 3004,369.9 
	3004,398.6 "/>
<path class="st81" d="M2827.2,369.6c-14.4,0-26.1,12.7-26.1,28.3h52.1C2853.3,382.3,2841.6,369.6,2827.2,369.6z"/>
<path class="st124" d="M3132.7,392.9c2.7-8.4,4.1-17.3,4.1-26.6c0-25.3-10.6-47.9-27.4-62.9c-16.7,15-27.4,37.6-27.4,62.9
	c0,9.3,1.5,18.3,4.1,26.6H3132.7z"/>
<path class="st125" d="M3109.5,303.4L3109.5,303.4l0,89.6h23.2c2.7-8.4,4.1-17.3,4.1-26.6C3136.8,341,3126.2,318.4,3109.5,303.4z"/>
<path class="st124" d="M3150.5,392.9c1.8-5.6-4.1-11.9-4.1-18.1c0-16.9,6.1-31.6-5-41.5c-11.1,10-18.2,25.1-18.2,41.9
	c0,6.2,1,12.2,2.7,17.7L3150.5,392.9z"/>
<path class="st125" d="M3141.4,333.3L3141.4,333.3l0,59.7h15.5c1.8-5.6,2.7-11.5,2.7-17.7C3159.6,358.4,3152.5,343.3,3141.4,333.3z"
	/>
<polygon class="st11" points="2724.9,397.6 2801.9,313.7 2718.5,367.8 "/>
<path class="st3" d="M2718,359.6c-19.5,0-35.3,17.2-35.3,38.4h70.7C2753.3,376.7,2737.5,359.6,2718,359.6z"/>
<polygon class="st113" points="2967.1,366.6 3012.5,290.2 3057.9,312.1 3080.7,346 3083.7,388.9 "/>
<path class="st125" d="M3048.2,338.9c-30.4,0-55,26.8-55,59.7h110.1C3103.2,365.6,3078.5,338.9,3048.2,338.9z"/>
<polygon class="st126" points="3658.6,214.9 3592.6,275.7 3608.5,300 "/>
<polygon class="st11" points="2777.6,221.1 2777.6,221.1 2796.9,214.5 2819.8,226.3 2846.6,211.3 2859.5,219.9 2884.8,210.9 
	2834.6,136.2 "/>
<polygon class="st127" points="2867.3,217.1 2884.8,210.9 2834.6,136.2 "/>
<polygon class="st11" points="3007.7,242.9 3021.5,238.8 3023.5,234.8 2996.3,194.3 2968.2,236.1 2979.5,237.6 2987.8,244.3 
	2999.6,233.3 "/>
<polygon class="st127" points="2996.3,194.3 3016.1,240.4 3021.5,238.8 3024.8,232.2 "/>
<polygon class="st127" points="3527.3,236.7 3536,245 3548.4,227.8 3563.1,234.6 3563.1,234.6 3520.3,175.6 3483.5,238.4 
	3487.1,240.3 3508.8,238.5 3518,228.3 "/>
<polygon class="st11" points="3484,236.6 3520.3,175.6 3471,229.8 "/>
<path class="st128" d="M3248,151.9c-6.5,0-11.8,5.7-11.8,12.8c0,7.1,5.3,12.8,11.8,12.8c6.5,0,11.8-5.7,11.8-12.8
	C3259.7,157.6,3254.5,151.9,3248,151.9z M3248,170.6c-3,0-5.5-2.7-5.5-6c0-3.3,2.5-6,5.5-6c3.1,0,5.5,2.7,5.5,6
	C3253.5,167.9,3251,170.6,3248,170.6z"/>
<path class="st128" d="M3214.9,173.3c-8.4,0-15.2,7.4-15.2,16.5c0,9.1,6.8,16.5,15.2,16.5c8.4,0,15.2-7.4,15.2-16.5
	C3230.1,180.7,3223.3,173.3,3214.9,173.3z M3214.9,198.2c-4.3,0-7.8-3.8-7.8-8.4c0-4.7,3.5-8.4,7.8-8.4c4.3,0,7.8,3.8,7.8,8.4
	C3222.6,194.4,3219.2,198.2,3214.9,198.2z"/>
<ellipse class="st128" cx="3219.4" cy="135.4" rx="8.3" ry="9"/>
<path class="st11" d="M3266.6,126.4c0,4.1-3.1,7.4-6.8,7.4s-6.8-3.3-6.8-7.4c0-4.1,3.1-7.4,6.8-7.4S3266.6,122.3,3266.6,126.4z"/>
<polygon class="st113" points="3194.3,226.3 3215.2,231.2 3225.2,226.7 3237.9,228.9 3231.1,214.9 3199.8,214.9 3194.3,224 "/>
<polygon class="st113" points="3406.5,236 3352.7,318.2 3335.7,300 "/>
<polygon class="st58" points="3427,264.8 3404.3,236 3378,261.5 3384.3,266.7 3397.4,265.5 3410.3,269.8 "/>
<polygon class="st11" points="3406.5,236 3378.8,260.5 3386.4,266.7 "/>
<polygon class="st115" points="3266.7,337 3324.5,268.9 3382.4,337 "/>
<polygon class="st117" points="3324.5,337 3382.4,337 3324.5,268.9 3324.5,269 "/>
<rect x="3266.7" y="336.5" class="st115" width="115.7" height="5.1"/>
<rect x="3454.5" y="334.6" class="st115" width="115.7" height="5.2"/>
<rect x="0" y="525" class="st11" width="77" height="24"/>
<rect x="161" y="525" class="st11" width="77" height="24"/>
<rect x="320" y="525" class="st11" width="77" height="24"/>
<rect x="482" y="526" class="st11" width="77" height="24"/>
<rect x="655" y="525" class="st11" width="77" height="24"/>
<rect x="816" y="525" class="st11" width="77" height="24"/>
<rect x="981" y="526" class="st11" width="77" height="24"/>
<rect x="1150" y="526" class="st11" width="77" height="24"/>
<rect x="1324" y="526" class="st11" width="77" height="24"/>
<rect x="1514" y="525" class="st11" width="77" height="24"/>
<rect x="1682" y="526" class="st11" width="77" height="24"/>
<rect x="1843" y="526" class="st11" width="77" height="24"/>
<rect x="2002" y="526" class="st11" width="77" height="24"/>
<rect x="2164" y="527" class="st11" width="77" height="24"/>
<rect x="2337" y="526" class="st11" width="77" height="24"/>
<rect x="2663" y="527" class="st11" width="77" height="24"/>
<rect x="2832" y="527" class="st11" width="77" height="24"/>
<rect x="3006" y="527" class="st11" width="77" height="24"/>
<rect x="3196" y="526" class="st11" width="77" height="24"/>
<rect x="3390" y="527" class="st11" width="77" height="24"/>
<rect x="3559" y="527" class="st11" width="77" height="24"/>
<rect x="3733" y="527" class="st11" width="77" height="24"/>
<rect x="1229.4" y="427.8" class="st5" width="1335.5" height="84.2"/>
<rect x="1229" y="426" class="st4" width="1344" height="158"/>
<path class="st39" d="M2471,463.5v-39c-8.6,0-16-4.7-20-11.7c-4.1,6.9-11.5,11.7-20,11.7c-8.6,0-16-4.7-20-11.7
	c-4.1,6.9-11.5,11.7-20,11.7c-8.6,0-16-4.7-20-11.7c-4,6.9-11.5,11.7-20,11.7c-8.6,0-16-4.7-20-11.7c-4.1,6.9-11.5,11.7-20,11.7
	s-16-4.7-20-11.7c-4.1,6.9-11.5,11.7-20,11.7c-8.6,0-16-4.7-20-11.7c-4.1,6.9-11.5,11.7-20,11.7c-8.6,0-16-4.7-20-11.7
	c-4,6.9-11.5,11.7-20,11.7c-8.6,0-16-4.7-20-11.7c-4.1,6.9-11.5,11.7-20,11.7c-8.6,0-16-4.7-20-11.7c-4.1,6.9-11.5,11.7-20,11.7
	s-16-4.7-20-11.7c-4.1,6.9-11.5,11.7-20,11.7c-8.6,0-16-4.7-20-11.7c-4.1,6.9-11.5,11.7-20,11.7c-8.6,0-16-4.7-20-11.7
	c-4.1,6.9-11.5,11.7-20,11.7c-8.6,0-16-4.7-20-11.7c-4.1,6.9-11.5,11.7-20,11.7c-8.6,0-16-4.7-20-11.7c-4.1,6.9-11.5,11.7-20,11.7
	s-16-4.7-20-11.7c-4.1,6.9-11.5,11.7-20,11.7c-8.6,0-16-4.7-20-11.7c-4,6.9-11.5,11.7-20,11.7c-8.6,0-16-4.7-20-11.7
	c-4.1,6.9-11.5,11.7-20,11.7c-8.6,0-16-4.7-20-11.7c-4.1,6.9-11.5,11.7-20,11.7c-8.6,0-16-4.7-20-11.7c-4,6.9-11.5,11.7-20,11.7
	c-8.6,0-16-4.7-20-11.7c-4.1,6.9-11.5,11.7-20,11.7c-8.6,0-16-4.7-20-11.7c-4.1,6.9-11.5,11.7-20,11.7c-8.6,0-16-4.7-20-11.7
	c-4,6.9-11.5,11.7-20,11.7c-8.6,0-16-4.7-20-11.7c-4.1,6.9-11.5,11.7-20,11.7c-8.6,0-16-4.7-20-11.7c-4.1,6.9-11.5,11.7-20,11.7
	c-8.6,0-16-4.7-20-11.7c-4.1,6.9-11.5,11.7-20,11.7c-8.6,0-16-4.7-20-11.7c-4,6.9-11.5,11.7-20,11.7c-8.6,0-16-4.7-20-11.7
	c-4.1,6.9-11.5,11.7-20,11.7c-8.6,0-16-4.7-20-11.7c-4,6.9-11.5,11.7-20,11.7c-8.6,0-16-4.7-20-11.7c-4.1,6.9-11.5,11.7-20,11.7
	c-8.6,0-16-4.7-20-11.7c-4,6.9-11.5,11.7-20,11.7c-8.6,0-16-4.7-20-11.7c-4.1,6.9-11.5,11.7-20,11.7v39H2471z"/>
<polygon class="st129" points="2303.5,439.1 2259.4,439.1 2259.4,426.9 2309,426.9 "/>
<polygon class="st130" points="1497.5,440.6 1453.1,440.6 1453.1,428.2 1503,428.2 "/>
<polygon class="st129" points="2230.6,438.6 2186.5,438.6 2186.5,426.4 2236,426.4 "/>
<polygon class="st131" points="1885.4,444.7 1976.8,444.7 1976.8,427.2 1874.1,427.2 "/>
<path class="st39" d="M2567.1,417.8c-4.2,4.1-9.9,6.7-16.2,6.7c-8.6,0-16-4.7-20-11.7c-4.1,6.9-11.5,11.7-20,11.7
	c-8.6,0-16-4.7-20-11.7c-4,6.9-11.5,11.7-20,11.7c-8.6,0-16-4.7-20-11.7c-4.1,6.9-11.5,11.7-20,11.7s-16-4.7-20-11.7
	c-4.1,6.9-11.5,11.7-20,11.7c-8.6,0-16-4.7-20-11.7c-4.1,6.9-11.5,11.7-20,11.7c-8.6,0-16-4.7-20-11.7c-4,6.9-11.5,11.7-20,11.7
	c-8.6,0-16-4.7-20-11.7c-4.1,6.9-11.5,11.7-20,11.7c-8.6,0-16-4.7-20-11.7c-4.1,6.9-11.5,11.7-20,11.7c-8.6,0-16-4.7-20-11.7
	c-4.1,6.9-11.5,11.7-20,11.7c-8.6,0-16-4.7-20-11.7c-4.1,6.9-11.5,11.7-20,11.7c-8.6,0-16-4.7-20-11.7c-4.1,6.9-11.5,11.7-20,11.7
	c-8.6,0-16-4.7-20-11.7c-4.1,6.9-11.5,11.7-20,11.7c-8.6,0-16-4.7-20-11.7c-4.1,6.9-11.5,11.7-20,11.7c-8.6,0-16-4.7-20-11.7
	c-4.1,6.9-11.5,11.7-20,11.7c-8.6,0-16-4.7-20-11.7c-4,6.9-11.5,11.7-20,11.7c-8.6,0-16-4.7-20-11.7c-4.1,6.9-11.5,11.7-20,11.7
	c-8.6,0-16-4.7-20-11.7c-4.1,6.9-11.5,11.7-20,11.7c-8.6,0-16-4.7-20-11.7c-4,6.9-11.5,11.7-20,11.7c-8.6,0-16-4.7-20-11.7
	c-4.1,6.9-11.5,11.7-20,11.7c-8.6,0-16-4.7-20-11.7c-4.1,6.9-11.5,11.7-20,11.7c-8.6,0-16-4.7-20-11.7c-4,6.9-11.5,11.7-20,11.7
	c-8.6,0-16-4.7-20-11.7c-4.1,6.9-11.5,11.7-20,11.7c-8.6,0-16-4.7-20-11.7c-4.1,6.9-11.5,11.7-20,11.7c-8.6,0-16-4.7-20-11.7
	c-4.1,6.9-11.5,11.7-20,11.7c-8.6,0-16-4.7-20-11.7c-4.1,6.9-11.5,11.7-20,11.7c-8.6,0-16-4.7-20-11.7c-4.1,6.9-11.5,11.7-20,11.7
	c-8.6,0-16-4.7-20-11.7c-4,6.9-11.5,11.7-20,11.7c-8.6,0-16-4.7-20-11.7c-4.1,6.9-11.5,11.7-20,11.7c-8.6,0-16-4.7-20-11.7
	c-4,6.9-11.5,11.7-20,11.7c-8.6,0-16-4.7-20-11.7c-4.1,6.9-11.5,11.7-20,11.7v39H2591V441C2577.1,442.9,2568.3,430,2567.1,417.8z"/>
<rect x="2563" y="418" class="st5" width="1266" height="242"/>
<polygon class="st132" points="2795.9,421.5 2763.6,421.5 2771.4,411.6 2786.5,410.4 "/>
<rect x="2563" y="398" class="st5" width="1266" height="53.7"/>
<path class="st124" d="M3640.4,392.7c2.8-8.8-20.6-18.1-20.6-27.9c0-26.6,13.7-50.5-3.8-66.3c-17.6,15.8-28.8,39.6-28.8,66.2
	c0,9.8,1.5,19.2,4.3,28H3640.4z"/>
<path class="st125" d="M3615.9,298.5L3615.9,298.5l0,94.2h24.4c2.8-8.8,4.3-18.2,4.3-28C3644.7,338.1,3633.5,314.3,3615.9,298.5z"/>
<path class="st124" d="M3649.8,347.9L3649.8,347.9L3649.8,347.9c-8.3,7.5-13.6,18.7-13.6,31.2c0,4.6,0.7,9.1,2,13.2l11.5,0v0h11.5
	c1.3-4.1,2-8.6,2-13.2C3663.4,366.5,3658.1,355.3,3649.8,347.9z"/>
<rect x="3778.4" y="382.5" class="st43" width="4.8" height="19.8"/>
<path class="st86" d="M3779,347.4c-22.7,0-41.2,20-41.2,44.7h82.4C3820.2,367.4,3801.8,347.4,3779,347.4z"/>
<polygon class="st133" points="3727.2,415.6 3625.7,415.6 3653.4,373.9 3693.2,385.3 "/>
<polygon class="st133" points="3749,415.7 3705,415.7 3722.8,398.2 3736.5,400.2 "/>
<polygon class="st134" points="3640.9,415.7 3613.6,415.7 3621.5,402 3631,398.4 "/>
<polygon class="st134" points="3727,415.6 3693.1,385.3 3700,415.6 "/>
<rect x="3459.2" y="378.1" class="st119" width="9.3" height="57.4"/>
<rect x="3491.6" y="378.1" class="st119" width="6.9" height="57.4"/>
<rect x="3526.3" y="378.1" class="st119" width="7" height="57.4"/>
<rect x="3558.1" y="378.1" class="st119" width="9.3" height="57.4"/>
<rect x="3491.6" y="391.1" class="st119" width="37" height="4.5"/>
<rect x="3491.6" y="401.6" class="st119" width="37" height="4.5"/>
<rect x="3269.7" y="379.4" class="st119" width="9.4" height="58.3"/>
<rect x="3306.6" y="379.9" class="st119" width="6.9" height="57.4"/>
<rect x="3341.3" y="379.9" class="st119" width="7" height="57.4"/>
<rect x="3371" y="379.9" class="st119" width="9.3" height="57.4"/>
<rect x="3306.6" y="392.9" class="st119" width="37" height="4.5"/>
<rect x="3306.6" y="403.4" class="st119" width="37" height="4.5"/>
<polygon class="st135" points="2842.1,421.4 2789.8,421.5 2797.3,409.3 2828.7,403.6 "/>
<polygon class="st132" points="3126.3,416.5 3080.1,416.6 3091.3,402.3 3109.5,405.6 "/>
<polygon class="st135" points="3206.7,416.8 3179.3,416.8 3186.8,404.6 3196.2,403.3 "/>
<rect x="3459.2" y="378.1" class="st136" width="108.1" height="7.5"/>
<rect x="3271" y="379.9" class="st136" width="109.9" height="7.5"/>
<rect x="3494.8" y="411.9" class="st119" width="37" height="4.5"/>
<rect x="3309.7" y="413.7" class="st119" width="37" height="4.5"/>
<path class="st86" d="M2615.7,387.2c2.9-11.6-11.7-24.4-11.7-37.3c0-35.1,4.6-65.9-13.4-86.7c-18,20.8-29.5,52.1-29.5,87.2
	c0,12.9,1.6,25.3,4.5,36.9H2615.7z"/>
<path class="st87" d="M2590.6,263.2L2590.6,263.2v124.1h25.1c2.9-11.6,4.5-24,4.5-36.9C2620.1,315.3,2608.6,283.9,2590.6,263.2z"/>
</svg>