<svg xmlns="http://www.w3.org/2000/svg" xmlns:xlink="http://www.w3.org/1999/xlink" viewBox="0 0 3841 768">
  <defs>
    <style>
      .cls-1 {
        isolation: isolate;
      }

      .cls-2 {
        fill: #a47a4f;
      }

      .cls-3 {
        fill: #4eb360;
      }

      .cls-4 {
        fill: #139556;
      }

      .cls-5 {
        fill: #8bc67a;
      }

      .cls-6 {
        fill: #38af58;
      }

      .cls-7 {
        fill: #fff;
      }

      .cls-8 {
        fill: #c76e19;
      }

      .cls-9 {
        fill: #be976b;
      }

      .cls-10 {
        fill: #b1523c;
      }

      .cls-11 {
        fill: #e5e7e7;
      }

      .cls-12 {
        fill: #b31d33;
      }

      .cls-13 {
        fill: #808184;
      }

      .cls-14 {
        fill: #f18f1a;
      }

      .cls-15 {
        fill: #2db07a;
      }

      .cls-16 {
        fill: #12916e;
      }

      .cls-17 {
        fill: #e43952;
      }

      .cls-18 {
        fill: #4b8f7d;
      }

      .cls-19 {
        fill: #d3e1db;
      }

      .cls-20 {
        fill: #ac1d3e;
      }

      .cls-21 {
        fill: #405159;
      }

      .cls-22 {
        fill: #83c037;
      }

      .cls-23 {
        fill: #023f42;
      }

      .cls-24 {
        fill: #e3582b;
      }

      .cls-25 {
        fill: #734b29;
      }

      .cls-26 {
        fill: #f9dbb1;
      }

      .cls-27 {
        fill: #ed82a6;
      }

      .cls-28 {
        fill: #e51e46;
      }

      .cls-29 {
        fill: #f0aa43;
      }

      .cls-30 {
        fill: #dbc9ac;
      }

      .cls-31 {
        fill: #eeb38b;
      }

      .cls-32 {
        fill: #bf513c;
      }

      .cls-33 {
        fill: #f4aa15;
      }

      .cls-34 {
        fill: #fbecd8;
      }

      .cls-35 {
        fill: #e4582c;
      }

      .cls-36 {
        fill: #1ba8c1;
      }

      .cls-37 {
        fill: #7e5425;
      }

      .cls-38 {
        fill: #d08492;
      }

      .cls-38, .cls-39 {
        fill-rule: evenodd;
      }

      .cls-39 {
        fill: #947c9c;
      }

      .cls-40 {
        fill: #6b98bf;
      }

      .cls-41 {
        fill: #a07b60;
      }

      .cls-42 {
        fill: #f4ce41;
      }

      .cls-43 {
        fill: #6b5d50;
      }

      .cls-44 {
        fill: #d3966b;
      }

      .cls-45 {
        fill: #d6800f;
      }

      .cls-46 {
        fill: #f4a73c;
      }

      .cls-47 {
        fill: #9c5724;
      }

      .cls-48 {
        fill: #f09a9b;
      }

      .cls-49 {
        fill: #d5d58b;
      }

      .cls-50 {
        fill: #7ea590;
      }

      .cls-51 {
        fill: #eeb720;
      }

      .cls-52 {
        fill: #2c7782;
      }

      .cls-53 {
        fill: #5e8da4;
      }

      .cls-54 {
        fill: #5679a1;
      }

      .cls-55 {
        fill: #d0d1d3;
      }

      .cls-56 {
        fill: #b27522;
      }

      .cls-57 {
        fill: #8d5d25;
      }

      .cls-58 {
        fill: #ec6c1b;
      }

      .cls-59 {
        fill: #9c3324;
      }

      .cls-60 {
        fill: #934556;
      }

      .cls-61 {
        fill: #a0202d;
      }

      .cls-62 {
        fill: #e24b2b;
      }

      .cls-63 {
        fill: #9f7350;
      }

      .cls-64 {
        fill: #a0c629;
      }

      .cls-65 {
        fill: #55535c;
      }

      .cls-66 {
        fill: #ab5e2e;
      }

      .cls-67 {
        fill: #ad7021;
      }

      .cls-68 {
        fill: #79b579;
      }

      .cls-69 {
        fill: #cd5a2a;
      }

      .cls-70 {
        fill: #436067;
      }

      .cls-71 {
        fill: #5c4847;
      }

      .cls-72 {
        fill: #a17524;
      }

      .cls-73 {
        fill: #977b47;
      }

      .cls-74 {
        fill: #525e84;
      }

      .cls-75 {
        fill: #6c7a86;
      }

      .cls-76 {
        fill: #065a7f;
      }

      .cls-77 {
        fill: #4a5e83;
      }

      .cls-78 {
        fill: #836884;
      }

      .cls-79 {
        fill: #2dad58;
      }

      .cls-80 {
        fill: #218956;
      }

      .cls-81 {
        fill: #68bb71;
      }

      .cls-82 {
        fill: #a26769;
      }

      .cls-83 {
        fill: #f8d588;
      }

      .cls-84 {
        fill: #e14436;
      }

      .cls-85 {
        fill: #5e9d44;
      }

      .cls-86 {
        fill: #cbda2f;
      }

      .cls-87 {
        fill: #74bd60;
      }

      .cls-88 {
        fill: #108a66;
      }

      .cls-89 {
        fill: #eb7272;
      }

      .cls-90 {
        fill: #aebabd;
      }

      .cls-91 {
        fill: #6d5d76;
      }

      .cls-92 {
        fill: #ec8f26;
      }

      .cls-93 {
        fill: #03603f;
      }

      .cls-94 {
        fill: #af302f;
      }

      .cls-95 {
        fill: #af4923;
      }

      .cls-96 {
        fill: #e73f3a;
      }

      .cls-97 {
        fill: #ea5a19;
      }

      .cls-98 {
        fill: #458c66;
      }

      .cls-99 {
        fill: #f4ac17;
      }

      .cls-100 {
        fill: #5b4875;
      }

      .cls-101 {
        fill: #f6cd5a;
      }

      .cls-102 {
        fill: #f5f4b8;
      }

      .cls-103 {
        fill: #e95e57;
      }

      .cls-104 {
        fill: #cc6c15;
      }

      .cls-105 {
        fill: #6e4420;
      }

      .cls-106 {
        fill: #c72829;
      }

      .cls-107 {
        fill: #f8e398;
      }

      .cls-108 {
        fill: #557583;
      }

      .cls-109 {
        fill: #b32049;
      }

      .cls-110 {
        fill: #e14345;
      }

      .cls-111 {
        fill: #ba1f44;
      }

      .cls-112 {
        fill: #ca2235;
      }

      .cls-113 {
        fill: #94b424;
      }

      .cls-114 {
        fill: #5f7d8a;
      }

      .cls-115 {
        fill: #a3c9e3;
      }

      .cls-116 {
        fill: #8484ab;
      }

      .cls-117 {
        fill: #5a6a8a;
      }

      .cls-118 {
        fill: #2c9765;
      }

      .cls-119 {
        fill: #1e8656;
      }

      .cls-120 {
        fill: #8ac88f;
      }

      .cls-121 {
        fill: #366650;
      }

      .cls-122 {
        fill: #f9e79f;
      }

      .cls-123 {
        fill: #d2883d;
      }

      .cls-124 {
        fill: #885d3c;
      }

      .cls-125 {
        fill: #645244;
      }

      .cls-126 {
        fill: #f5b755;
      }

      .cls-127 {
        fill: #f4a540;
      }

      .cls-128 {
        fill: #f5f5bc;
      }

      .cls-129 {
        fill: #f1d046;
      }

      .cls-130 {
        fill: #e0c49e;
      }

      .cls-131 {
        fill: #f8efe7;
      }

      .cls-132 {
        fill: #d79951;
      }

      .cls-133 {
        fill: #8e5f26;
      }

      .cls-134 {
        fill: #d1cfde;
      }

      .cls-135 {
        fill: #deded9;
      }

      .cls-136 {
        fill: #6d6e71;
      }

      .cls-137 {
        fill: #c3a66b;
      }

      .cls-138 {
        fill: #a0884e;
      }

      .cls-139 {
        fill: #2f2f2f;
      }

      .cls-140 {
        fill: url(#linear-gradient);
      }

      .cls-141, .cls-144, .cls-146 {
        fill: #d6d6d6;
        mix-blend-mode: multiply;
      }

      .cls-141 {
        opacity: 0.2;
      }

      .cls-142 {
        fill: url(#linear-gradient-2);
      }

      .cls-143 {
        fill: url(#linear-gradient-3);
      }

      .cls-144 {
        opacity: 0.25;
      }

      .cls-145 {
        fill: url(#linear-gradient-4);
      }

      .cls-146 {
        opacity: 0.15;
      }

      .cls-147 {
        fill: url(#linear-gradient-5);
      }

      .cls-148 {
        fill: url(#linear-gradient-6);
      }

      .cls-149 {
        fill: url(#linear-gradient-7);
      }

      .cls-150 {
        fill: url(#linear-gradient-8);
      }

      .cls-151 {
        fill: url(#linear-gradient-9);
      }

      .cls-152 {
        fill: url(#linear-gradient-10);
      }

      .cls-153 {
        fill: url(#linear-gradient-11);
      }

      .cls-154 {
        fill: url(#linear-gradient-12);
      }

      .cls-155 {
        fill: url(#linear-gradient-13);
      }

      .cls-156 {
        fill: url(#linear-gradient-14);
      }

      .cls-157 {
        fill: url(#linear-gradient-15);
      }

      .cls-158 {
        fill: url(#linear-gradient-16);
      }

      .cls-159 {
        fill: #0c5f95;
      }

      .cls-160 {
        fill: #f6c480;
      }

      .cls-161 {
        fill: #e3925e;
      }

      .cls-162 {
        fill: #70bfda;
      }

      .cls-163 {
        fill: #ea6e90;
      }
    </style>
    <linearGradient id="linear-gradient" x1="2649.77" y1="371.11" x2="2649.77" y2="396.02" gradientUnits="userSpaceOnUse">
      <stop offset="0.23" stop-color="#fafaff"/>
      <stop offset="1" stop-color="#e6e6e6"/>
    </linearGradient>
    <linearGradient id="linear-gradient-2" x1="2483.17" y1="354.45" x2="2483.17" y2="384.16" xlink:href="#linear-gradient"/>
    <linearGradient id="linear-gradient-3" x1="3316.97" y1="278.72" x2="3316.97" y2="324.87" xlink:href="#linear-gradient"/>
    <linearGradient id="linear-gradient-4" x1="3147.74" y1="309.31" x2="3147.74" y2="346.02" xlink:href="#linear-gradient"/>
    <linearGradient id="linear-gradient-5" x1="2920.74" y1="278.31" x2="2920.74" y2="315.02" xlink:href="#linear-gradient"/>
    <linearGradient id="linear-gradient-6" x1="2123.74" y1="293.31" x2="2123.74" y2="330.02" xlink:href="#linear-gradient"/>
    <linearGradient id="linear-gradient-7" x1="1851.74" y1="260.31" x2="1851.74" y2="297.02" xlink:href="#linear-gradient"/>
    <linearGradient id="linear-gradient-8" x1="1662.97" y1="294.72" x2="1662.97" y2="340.87" xlink:href="#linear-gradient"/>
    <linearGradient id="linear-gradient-9" x1="1223.97" y1="239.72" x2="1223.97" y2="285.87" xlink:href="#linear-gradient"/>
    <linearGradient id="linear-gradient-10" x1="1418.74" y1="282.31" x2="1418.74" y2="319.02" xlink:href="#linear-gradient"/>
    <linearGradient id="linear-gradient-11" x1="402.74" y1="365.31" x2="402.74" y2="402.02" xlink:href="#linear-gradient"/>
    <linearGradient id="linear-gradient-12" x1="736.74" y1="226.31" x2="736.74" y2="263.02" xlink:href="#linear-gradient"/>
    <linearGradient id="linear-gradient-13" x1="153.74" y1="307.31" x2="153.74" y2="344.02" xlink:href="#linear-gradient"/>
    <linearGradient id="linear-gradient-14" x1="340.97" y1="229.72" x2="340.97" y2="275.87" xlink:href="#linear-gradient"/>
    <linearGradient id="linear-gradient-15" x1="985.97" y1="274.72" x2="985.97" y2="320.87" xlink:href="#linear-gradient"/>
    <linearGradient id="linear-gradient-16" x1="402.97" y1="360.72" x2="402.97" y2="406.87" xlink:href="#linear-gradient"/>
  </defs>
  <title>website bg</title>
  <g class="cls-1">
    <g id="Layer_1" data-name="Layer 1">
      <g>
        <rect class="cls-2" x="794.66" y="484.83" width="17.37" height="38.08"/>
        <path class="cls-3" d="M810,447.58c0,24.57,17.59,44.48-7.1,44.48a44.48,44.48,0,1,1,0-89C827.57,403.1,810,423,810,447.58Z"/>
        <path class="cls-4" d="M802.89,403.1h-.05v89h.05a44.48,44.48,0,1,0,0-89Z"/>
        <ellipse class="cls-5" cx="802.89" cy="447.58" rx="22.84" ry="22.73"/>
        <path class="cls-6" d="M802.89,424.85h-.05V470.3h.05a22.73,22.73,0,1,0,0-45.46Z"/>
        <rect class="cls-7" x="822.63" y="456.59" width="80.19" height="48.6"/>
        <rect class="cls-8" x="1031.03" y="478.29" width="51.43" height="33.84"/>
        <polygon class="cls-9" points="586.68 569.57 368.15 569.57 366.89 527.01 457.5 487.37 586.68 569.57"/>
        <rect class="cls-10" x="822.37" y="465.2" width="80.45" height="5.88"/>
        <rect class="cls-11" x="255.74" y="476.07" width="61.28" height="37.14"/>
        <rect class="cls-10" x="255.74" y="482.64" width="61.28" height="4.49"/>
        <rect class="cls-11" x="505.83" y="465.97" width="72.47" height="43.92"/>
        <polygon class="cls-12" points="585.91 473.75 499.44 473.75 499.44 449.62 578.57 449.62 585.91 473.75"/>
        <rect class="cls-13" x="505.83" y="473.75" width="72.47" height="5.31"/>
        <rect class="cls-11" x="986.12" y="458.92" width="63.92" height="38.74"/>
        <rect class="cls-10" x="986.12" y="465.78" width="63.92" height="4.68"/>
        <rect class="cls-14" x="819.1" y="432.48" width="86.26" height="33.3"/>
        <path class="cls-15" d="M412.58,539.86c3.26-9.41,6.48-20.33,6.48-30.85,0-28.53-6.56-53.6-27-70.51a91.94,91.94,0,0,0-28.44,101Z"/>
        <path class="cls-16" d="M420.49,539.48a92,92,0,0,0-28.45-101v101Z"/>
        <path class="cls-3" d="M442.2,553.81c1.91-5.52-6.05-10.48-6.05-16.65,0-16.72,1.37-32.61-10.62-42.52a53.87,53.87,0,0,0-16.66,59.18Z"/>
        <path class="cls-16" d="M442.2,553.81a53.88,53.88,0,0,0-16.67-59.18v59.18Z"/>
        <path class="cls-15" d="M953.69,495.73c3.23-9.33-10.72-19.51-10.72-29.95,0-28.3,2.79-53.43-17.49-70.2a91.14,91.14,0,0,0-28.21,100.15Z"/>
        <path class="cls-16" d="M953.69,495.73a91.18,91.18,0,0,0-28.21-100.15V495.73Z"/>
        <path class="cls-3" d="M1104.23,513.72c2.1-6.07-13.68-11.22-13.68-18,0-18.39,8.53-36.18-4.66-47.08a59.23,59.23,0,0,0-18.33,65.08Z"/>
        <circle class="cls-17" cx="607.05" cy="301.63" r="5.61"/>
        <polygon class="cls-7" points="653.49 507.97 560.99 507.97 578.95 357 635.83 357 653.49 507.97"/>
        <rect class="cls-18" x="846.48" y="475.95" width="31.32" height="20.25"/>
        <polygon class="cls-19" points="607.39 507.97 653.49 507.97 635.83 357 607.39 357 607.39 507.97"/>
        <rect class="cls-7" x="588.33" y="292.01" width="37.78" height="51.46"/>
        <polygon class="cls-20" points="607.06 288.48 586.1 288.48 586.1 295.53 607.06 295.53 628.01 295.53 628.01 288.48 607.06 288.48"/>
        <path class="cls-16" d="M1104.23,513.72a59.25,59.25,0,0,0-18.33-65.08v65.08Z"/>
        <path class="cls-3" d="M1136,527.75c1.68-4.85-11.1-8.6-11.1-14,0-14.71,7-29.33-3.56-38.05a47.39,47.39,0,0,0-14.67,52.07Z"/>
        <path class="cls-21" d="M615.41,505.19v-13.8a8.51,8.51,0,0,0-17,0v13.8H561.32v5.91h92.17v-5.91Z"/>
        <path class="cls-16" d="M1136,527.75a47.42,47.42,0,0,0-14.67-52.07v52.07Z"/>
        <path class="cls-22" d="M1217.69,591.3a368.94,368.94,0,0,0-533.58,0Z"/>
        <path class="cls-22" d="M468.93,578a246.7,246.7,0,0,0-356.78,0Z"/>
        <polygon class="cls-23" points="668.96 574.69 497.29 574.69 548.38 511.1 613.1 511.1 668.96 574.69"/>
        <rect class="cls-10" x="280.5" y="437.55" width="12.95" height="24.13"/>
        <rect class="cls-24" x="279.26" y="437.55" width="15.32" height="6.17"/>
        <polygon class="cls-9" points="636.12 574.69 417.58 574.69 450.47 524.46 532.37 489.98 636.12 574.69"/>
        <polygon class="cls-9" points="220.69 568.87 86.68 568.87 106.86 538.06 157.07 516.92 220.69 568.87"/>
        <polygon class="cls-9" points="801.54 559.59 649.55 557.09 675.09 491.39 734.77 505.07 801.54 559.59"/>
        <polygon class="cls-25" points="698.57 509.89 760.26 561.45 708.38 565.64 687.18 537.76 698.57 509.89"/>
        <polygon class="cls-8" points="737.17 574.5 564.86 574.69 589.54 526.8 625.33 498.41 698.57 509.89 737.17 574.5"/>
        <rect class="cls-24" x="249.77" y="456.59" width="74.3" height="26.05"/>
        <polygon class="cls-25" points="935.08 563.71 809.98 559.59 858.52 511.1 897.36 522.91 935.08 563.71"/>
        <polygon class="cls-25" points="1192.5 574.91 1060.02 571.17 1094.82 522.91 1184.76 548.6 1192.5 574.91"/>
        <polygon class="cls-8" points="982.19 569.46 895.67 569.46 920.73 534.24 955.09 527.75 982.19 569.46"/>
        <polygon class="cls-26" points="1045.2 513.97 958.68 513.97 983.74 496.93 1018.11 493.79 1045.2 513.97"/>
        <path class="cls-3" d="M194.79,558.23c2.78-8-18.47-17-18.47-26,0-24.32,11.65-45.7-5.78-60.12a78.35,78.35,0,0,0-24.25,86.08Z"/>
        <path class="cls-16" d="M194.79,558.23a78.37,78.37,0,0,0-24.25-86.08v86.08Z"/>
        <path class="cls-3" d="M265.34,558.23c4.34-12.52-22.34-26-22.34-40,0-38,11.7-71.89-15.51-94.4a122.29,122.29,0,0,0-37.84,134.37Z"/>
        <path class="cls-16" d="M265.34,558.23a122.34,122.34,0,0,0-37.85-134.37V558.23Z"/>
        <polygon class="cls-25" points="311 565.24 225.55 565.24 252.46 525.49 270.43 532.12 311 565.24"/>
        <polygon class="cls-8" points="253.25 565.24 188.13 565.24 213.34 530.58 244.27 537.5 253.25 565.24"/>
        <polygon class="cls-26" points="383.15 532.33 347.88 525.49 340.76 523.08 372.14 509.01 383.15 532.33"/>
        <polygon class="cls-8" points="332.43 522 302.01 522 312.92 509.01 327.47 516.67 332.43 522"/>
        <circle class="cls-27" cx="512.95" cy="301.43" r="24.2"/>
        <polygon class="cls-28" points="572.12 414.36 642.54 414.36 638.68 381.39 576.04 381.39 572.12 414.36"/>
        <polygon class="cls-20" points="607.39 414.36 642.54 414.36 641.47 405.17 638.68 381.39 607.39 381.39 607.39 414.36"/>
        <polygon class="cls-28" points="564.86 475.41 649.68 475.41 645.82 442.43 568.78 442.43 564.86 475.41"/>
        <polygon class="cls-20" points="607.39 475.41 649.68 475.41 645.82 442.43 607.39 442.43 607.39 475.41"/>
        <ellipse class="cls-29" cx="607.39" cy="428.97" rx="9.01" ry="9.02"/>
        <circle class="cls-23" cx="607.39" cy="428.97" r="4.9"/>
        <circle class="cls-29" cx="607.24" cy="369.87" r="9.01"/>
        <circle class="cls-23" cx="607.24" cy="369.87" r="4.9"/>
        <polygon class="cls-28" points="586.1 288.48 607.06 274.79 628.01 288.48 586.1 288.48"/>
        <polygon class="cls-30" points="427.35 559.78 430.92 566.66 460.82 571.17 493.8 527.04 532.37 489.98 450.47 524.46 427.35 559.78"/>
        <polygon class="cls-31" points="627.71 574.5 625.33 498.41 589.54 526.8 567.28 563.9 627.71 574.5"/>
        <circle class="cls-7" cx="521.67" cy="543.71" r="7.91"/>
        <circle class="cls-7" cx="402.6" cy="546.52" r="7.91"/>
        <circle class="cls-7" cx="279.55" cy="549.48" r="5.77"/>
        <circle class="cls-7" cx="567.28" cy="545.9" r="7.91"/>
        <circle class="cls-7" cx="605.4" cy="543.71" r="7.91"/>
        <circle class="cls-7" cx="722.68" cy="545.9" r="7.91"/>
        <circle class="cls-7" cx="766.1" cy="546.52" r="7.91"/>
        <circle class="cls-7" cx="544.1" cy="539.86" r="5.14"/>
        <circle class="cls-7" cx="667.46" cy="532.33" r="5.14"/>
        <circle class="cls-7" cx="529.59" cy="521.8" r="3.69"/>
        <circle class="cls-7" cx="862.14" cy="537.4" r="5.29"/>
        <circle class="cls-7" cx="892.26" cy="546.52" r="5.29"/>
        <rect class="cls-24" x="866.06" y="412" width="12.95" height="20.48"/>
        <rect class="cls-32" x="864.82" y="412" width="15.32" height="6.17"/>
        <rect class="cls-24" x="979.42" y="437.52" width="77.33" height="28.26"/>
        <rect class="cls-33" x="588.33" y="295.53" width="37.78" height="19.38"/>
        <path class="cls-23" d="M607.4,319.71a7.08,7.08,0,0,0-7.08,7.07V344.1h14.15V326.78A7.07,7.07,0,0,0,607.4,319.71Z"/>
        <rect class="cls-28" x="578.95" y="338.69" width="56.89" height="18.32"/>
        <rect class="cls-20" x="607.39" y="338.69" width="28.44" height="18.32"/>
        <circle class="cls-34" cx="607.22" cy="305.22" r="6.84"/>
        <circle class="cls-35" cx="607.22" cy="305.22" r="3.74"/>
        <path class="cls-36" d="M1250.59,596.5v-39a23.38,23.38,0,0,1-20.16-11.66,23.28,23.28,0,0,1-40.35,0,23.28,23.28,0,0,1-40.35,0,23.27,23.27,0,0,1-40.34,0,23.29,23.29,0,0,1-40.36,0,23.28,23.28,0,0,1-40.35,0,23.28,23.28,0,0,1-40.35,0,23.27,23.27,0,0,1-40.34,0,23.29,23.29,0,0,1-40.36,0,23.28,23.28,0,0,1-40.35,0,23.28,23.28,0,0,1-40.35,0,23.28,23.28,0,0,1-40.35,0,23.28,23.28,0,0,1-40.34,0,23.28,23.28,0,0,1-40.35,0,23.28,23.28,0,0,1-40.34,0,23.28,23.28,0,0,1-40.35,0,23.28,23.28,0,0,1-40.35,0,23.27,23.27,0,0,1-40.34,0,23.29,23.29,0,0,1-40.36,0,23.28,23.28,0,0,1-40.34,0,23.28,23.28,0,0,1-40.35,0,23.28,23.28,0,0,1-40.35,0,23.28,23.28,0,0,1-40.34,0,23.28,23.28,0,0,1-40.35,0,23.28,23.28,0,0,1-40.35,0,23.28,23.28,0,0,1-40.35,0,23.28,23.28,0,0,1-40.35,0,23.28,23.28,0,0,1-40.35,0,23.28,23.28,0,0,1-40.34,0,23.28,23.28,0,0,1-40.35,0,23.28,23.28,0,0,1-40.34,0A23.4,23.4,0,0,1-.2,557.51v39Z"/>
        <circle class="cls-7" cx="262.08" cy="564.83" r="4.74"/>
        <circle class="cls-7" cx="201.39" cy="549.24" r="6.34"/>
        <circle class="cls-7" cx="988.01" cy="567.03" r="5.83"/>
        <circle class="cls-7" cx="1069.06" cy="567.03" r="5.83"/>
        <rect class="cls-37" x="-0.2" y="571" width="1250.79" height="28.59"/>
        <path class="cls-38" d="M714.77,404.21v-.08c-3.86-10.14-16.44-14.91-27.13-13.44,7.89-4.59,21-5.8,27.13,1.22V392c6.16-7,19.25-5.81,27.13-1.22-10.69-1.47-23.27,3.3-27.13,13.44Z"/>
        <path class="cls-39" d="M417.33,430.87v-.08c-3.86-10.14-16.44-14.91-27.13-13.44,7.89-4.59,21-5.8,27.13,1.22v.08c6.15-7,19.25-5.81,27.13-1.22-10.68-1.47-23.26,3.3-27.13,13.44Z"/>
        <path class="cls-39" d="M525.89,395.58v-.08c-3.86-10.14-16.44-14.91-27.13-13.44,7.89-4.59,21-5.8,27.13,1.22v.08c6.15-7,19.25-5.81,27.13-1.22-10.69-1.47-23.26,3.3-27.13,13.44Z"/>
      </g>
      <g>
        <polygon class="cls-40" points="1922.45 576.42 2043.16 410.86 2163.87 576.42 1922.45 576.42"/>
        <rect class="cls-41" x="1948.85" y="393.99" width="50.41" height="70.53"/>
        <rect class="cls-42" x="1276.27" y="507.72" width="119.11" height="64.65"/>
        <rect class="cls-43" x="1880.18" y="478.53" width="119.12" height="94.61"/>
        <rect class="cls-44" x="1931.63" y="454.03" width="84.85" height="118.89"/>
        <rect class="cls-45" x="1416.24" y="508.48" width="119.12" height="64.64"/>
        <rect class="cls-29" x="2277.17" y="546.59" width="221.57" height="25.66"/>
        <rect class="cls-46" x="1752.71" y="416.09" width="149.52" height="159.79"/>
        <rect class="cls-47" x="1750.49" y="409.74" width="153.97" height="8.51"/>
        <polygon class="cls-48" points="1432.62 432.73 1395.38 463.2 1395.38 573.16 1469.84 573.16 1469.84 463.2 1432.62 432.73"/>
        <rect class="cls-49" x="1581.66" y="418.41" width="78.08" height="154"/>
        <rect class="cls-50" x="1590.58" y="429.62" width="60.24" height="17.52"/>
        <rect class="cls-50" x="1591.6" y="464.56" width="60.24" height="17.53"/>
        <rect class="cls-50" x="1592.61" y="499.5" width="60.24" height="17.52"/>
        <rect class="cls-50" x="1593.63" y="534.44" width="60.23" height="17.52"/>
        <rect class="cls-2" x="1581.17" y="418.41" width="79.05" height="3.92"/>
        <rect class="cls-7" x="1649.87" y="466.05" width="105.54" height="106.2"/>
        <rect class="cls-51" x="1513.93" y="458.74" width="88.65" height="113.68"/>
        <rect class="cls-52" x="1526.52" y="470.36" width="13.6" height="25.62"/>
        <rect class="cls-53" x="1551.27" y="470.36" width="13.6" height="25.62"/>
        <rect class="cls-53" x="1576.39" y="470.36" width="13.6" height="25.62"/>
        <rect class="cls-53" x="1526.34" y="508.48" width="13.6" height="29.29"/>
        <rect class="cls-52" x="1551.09" y="508.48" width="13.6" height="29.29"/>
        <rect class="cls-53" x="1576.21" y="508.48" width="13.6" height="29.29"/>
        <polygon class="cls-40" points="2048.81 572.46 2140.62 446.53 2232.44 572.46 2048.81 572.46"/>
        <polygon class="cls-54" points="2232.44 572.46 2140.62 446.53 2191.72 571.84 2232.44 572.46"/>
        <polygon class="cls-7" points="2123.88 469.51 2157.38 469.51 2140.62 446.53 2123.88 469.51"/>
        <polygon class="cls-55" points="2157.38 469.51 2140.62 446.53 2149.99 469.51 2157.38 469.51"/>
        <rect class="cls-56" x="1513.93" y="458.74" width="88.65" height="4.42"/>
        <rect class="cls-57" x="1487.27" y="555.06" width="12.62" height="17.19"/>
        <rect class="cls-58" x="1750.4" y="387.93" width="153.97" height="22.08"/>
        <rect class="cls-48" x="2194.86" y="474.93" width="91.98" height="101.82"/>
        <rect class="cls-11" x="2213.39" y="531.54" width="59.9" height="45.22"/>
        <rect class="cls-24" x="2218.24" y="536.52" width="50.18" height="40.23"/>
        <rect class="cls-59" x="2218.24" y="536.52" width="50.18" height="5.03"/>
        <rect class="cls-59" x="2218.24" y="546.59" width="50.18" height="5.04"/>
        <rect class="cls-59" x="2218.24" y="556.66" width="50.18" height="5.04"/>
        <rect class="cls-59" x="2218.24" y="566.73" width="50.18" height="5.04"/>
        <rect class="cls-60" x="2194.86" y="474.93" width="91.98" height="4.2"/>
        <polygon class="cls-24" points="2296.49 474.93 2186.75 474.93 2196.07 454.17 2287.18 454.17 2296.49 474.93"/>
        <polygon class="cls-61" points="1759.37 504 1644.1 504 1644.1 461.96 1759.27 461.92 1759.37 504"/>
        <path class="cls-62" d="M1744.23,457.48V504a9.53,9.53,0,0,0,19.05,0V457.48Z"/>
        <path class="cls-62" d="M1719.2,457.48V504a9.52,9.52,0,0,0,19,0V457.48Z"/>
        <path class="cls-62" d="M1694.17,457.48V504a9.52,9.52,0,0,0,19,0V457.48Z"/>
        <path class="cls-62" d="M1669.13,457.48V504a9.52,9.52,0,0,0,19,0V457.48Z"/>
        <path class="cls-62" d="M1644.1,457.48V504a9.52,9.52,0,0,0,19,0V457.48Z"/>
        <rect class="cls-63" x="1973.25" y="454.03" width="43.24" height="118.89"/>
        <polygon class="cls-64" points="1395.38 524.39 1266.78 524.39 1276.27 500.67 1395.38 500.67 1395.38 524.39"/>
        <path class="cls-65" d="M1791.41,424.35a18.3,18.3,0,0,0-18.34,18.26v36.92h36.69V442.61A18.3,18.3,0,0,0,1791.41,424.35Z"/>
        <path class="cls-65" d="M1862.48,422.51a18.3,18.3,0,0,0-18.34,18.26v41.09h36.69V440.76A18.31,18.31,0,0,0,1862.48,422.51Z"/>
        <rect class="cls-66" x="1838.18" y="468.5" width="48.59" height="13.58"/>
        <path class="cls-43" d="M1973.26,504a22.54,22.54,0,0,0-22.59,22.47V577h45.17V526.43A22.54,22.54,0,0,0,1973.26,504Z"/>
        <path class="cls-7" d="M1991.34,421.28a17.28,17.28,0,1,1-17.28-17.2A17.24,17.24,0,0,1,1991.34,421.28Z"/>
        <ellipse class="cls-46" cx="1974.06" cy="421.28" rx="12.68" ry="12.62"/>
        <path class="cls-67" d="M1976.29,421.28a2.24,2.24,0,1,1-2.23-2.22A2.23,2.23,0,0,1,1976.29,421.28Z"/>
        <polygon class="cls-7" points="2478.02 536.62 2514.68 507.48 2551.35 536.62 2478.02 536.62"/>
        <rect class="cls-68" x="1665.4" y="520.54" width="76.57" height="43.11"/>
        <rect class="cls-69" x="1750.4" y="383.82" width="153.97" height="4.84"/>
        <rect class="cls-70" x="1674.34" y="528.89" width="55.9" height="26.41"/>
        <rect class="cls-9" x="2135.49" y="554.14" width="11.19" height="18.77"/>
        <polygon class="cls-54" points="2163.87 576.42 2043.16 410.86 2106.83 576.42 2163.87 576.42"/>
        <path class="cls-71" d="M1973.26,504h0v71.92h22.59V526.43A22.54,22.54,0,0,0,1973.26,504Z"/>
        <rect class="cls-72" x="2330.85" y="540.41" width="4.6" height="32.51"/>
        <rect class="cls-72" x="2421.63" y="540.41" width="4.6" height="32.51"/>
        <rect class="cls-72" x="2512.38" y="540.41" width="4.61" height="32.51"/>
        <rect class="cls-72" x="2286.84" y="559.18" width="288.05" height="13.74"/>
        <rect class="cls-73" x="1276.27" y="524.39" width="119.11" height="4.71"/>
        <rect class="cls-74" x="1286.2" y="537.76" width="16.79" height="21.41"/>
        <rect class="cls-75" x="1312.92" y="537.76" width="16.79" height="21.41"/>
        <rect class="cls-75" x="1339.63" y="537.76" width="16.79" height="21.41"/>
        <rect class="cls-75" x="1366.35" y="537.76" width="16.79" height="21.41"/>
        <circle class="cls-7" cx="1432.61" cy="460.95" r="9.41"/>
        <path class="cls-76" d="M1437.72,460.95a5.1,5.1,0,1,1-5.1-5.11A5.1,5.1,0,0,1,1437.72,460.95Z"/>
        <rect class="cls-77" x="1411.18" y="482.41" width="15.23" height="19.48"/>
        <rect class="cls-78" x="1438.82" y="482.41" width="15.23" height="19.48"/>
        <rect class="cls-78" x="1411.18" y="511.18" width="15.23" height="19.48"/>
        <rect class="cls-77" x="1438.82" y="511.18" width="15.23" height="19.48"/>
        <rect class="cls-77" x="1411.18" y="539.95" width="15.23" height="19.48"/>
        <rect class="cls-78" x="1438.82" y="539.95" width="15.23" height="19.48"/>
        <ellipse class="cls-79" cx="1492.28" cy="523.79" rx="36.81" ry="36.63"/>
        <path class="cls-80" d="M1492.28,487.16h0v73.25h0a36.63,36.63,0,1,0,0-73.26Z"/>
        <ellipse class="cls-81" cx="1492.28" cy="523.79" rx="18.81" ry="18.72"/>
        <path class="cls-79" d="M1492.28,505.07h0V542.5h0a18.72,18.72,0,1,0,0-37.44Z"/>
        <rect class="cls-66" x="1768.01" y="468.5" width="48.6" height="13.58"/>
        <polygon class="cls-82" points="1395.38 468.78 1432.62 439.36 1469.84 468.78 1469.84 463.27 1432.62 432.73 1395.38 462.85 1395.38 468.78"/>
        <path class="cls-83" d="M1478.13,462.64l-45-36.77-46.76,37.66a3.07,3.07,0,0,0,3.86,4.79L1432.82,434l41.45,33.39a3.07,3.07,0,0,0,3.86-4.79Z"/>
        <circle class="cls-7" cx="1781.23" cy="462.91" r="5.76"/>
        <circle class="cls-84" cx="1798.06" cy="462.23" r="6.44"/>
        <circle class="cls-7" cx="1845.58" cy="462.91" r="5.76"/>
        <circle class="cls-7" cx="1879.03" cy="462.23" r="5.76"/>
        <circle class="cls-84" cx="1862.48" cy="462.91" r="6.45"/>
        <rect class="cls-67" x="1972.94" y="411.36" width="2.24" height="9.92"/>
        <rect class="cls-67" x="1973.74" y="420.16" width="12.21" height="2.23"/>
        <rect class="cls-43" x="1948.85" y="446.53" width="50.44" height="9.25"/>
        <rect class="cls-43" x="1948.84" y="392.8" width="50.44" height="9.25"/>
        <polygon class="cls-64" points="1941.52 396.59 1974.06 323.06 2006.6 396.59 1941.52 396.59"/>
        <polygon class="cls-85" points="1974.08 396.59 2006.6 396.59 1974.08 322.83 1974.08 396.59"/>
        <circle class="cls-86" cx="1974.47" cy="312.79" r="6.11"/>
        <rect class="cls-44" x="1931.63" y="454.03" width="84.85" height="8.88"/>
        <rect class="cls-63" x="1951.97" y="562.7" width="45.87" height="9.55"/>
        <path class="cls-87" d="M1955.34,572.25c2.38-6.87-9.66-14.5-9.66-22.16,0-20.81,3.83-39.13-11.08-51.46a67,67,0,0,0-20.74,73.62Z"/>
        <path class="cls-88" d="M1934.61,498.63h0v73.62h20.74a67,67,0,0,0-20.74-73.62Z"/>
        <rect class="cls-89" x="1988.68" y="493.64" width="103.81" height="24.08"/>
        <rect class="cls-90" x="1992.5" y="517.71" width="96.63" height="55.59"/>
        <rect class="cls-91" x="2051.95" y="529.33" width="29.84" height="29.84"/>
        <rect class="cls-92" x="2056.3" y="533.67" width="21.16" height="21.17"/>
        <path class="cls-87" d="M2173.33,547a32.7,32.7,0,1,1-32.71-32.7A32.71,32.71,0,0,1,2173.33,547Z"/>
        <path class="cls-93" d="M2135.88,566.72a32.36,32.36,0,1,1-32.36-32.2A32.28,32.28,0,0,1,2135.88,566.72Z"/>
        <rect class="cls-94" x="1596.72" y="383.82" width="10.7" height="15.5"/>
        <rect class="cls-24" x="1594.74" y="381.04" width="14.67" height="5.54"/>
        <rect class="cls-95" x="2250.92" y="437.36" width="13.39" height="16.81"/>
        <rect class="cls-24" x="2248.44" y="433.9" width="18.35" height="6.93"/>
        <polygon class="cls-96" points="1659.74 398.63 1581.66 398.63 1572.6 418.41 1668.8 418.41 1659.74 398.63"/>
        <polygon class="cls-97" points="1611.63 458.74 1504.87 458.74 1513.93 435.55 1602.58 435.55 1611.63 458.74"/>
        <rect class="cls-49" x="1613.91" y="425.87" width="10.67" height="129.19"/>
        <rect class="cls-98" x="1717.71" y="546.78" width="9.03" height="5.3"/>
        <polygon class="cls-7" points="2021.14 441.06 2065.18 441.06 2043.16 410.86 2021.14 441.06"/>
        <polygon class="cls-55" points="2065.18 441.06 2043.16 410.86 2054.78 441.06 2065.18 441.06"/>
        <rect class="cls-91" x="2003.1" y="529.33" width="29.84" height="29.84"/>
        <rect class="cls-99" x="2007.45" y="533.67" width="21.16" height="21.17"/>
        <rect class="cls-100" x="1992.5" y="517.71" width="100.22" height="5.97"/>
        <circle class="cls-63" cx="1946.81" cy="478.53" r="6.96"/>
        <path class="cls-44" d="M2010.06,478.53a7,7,0,1,1-7-7A7,7,0,0,1,2010.06,478.53Z"/>
        <path class="cls-7" d="M1528.28,306.18H1414.66a13.42,13.42,0,1,0,0,26.84h113.62a13.42,13.42,0,1,0,0-26.84Z"/>
        <path class="cls-7" d="M1589.77,329H1476.15a13.42,13.42,0,1,0,0,26.84h113.62a13.42,13.42,0,1,0,0-26.84Z"/>
        <path class="cls-7" d="M1746.74,258H1643.6a12.18,12.18,0,0,0,0,24.37h103.14a12.18,12.18,0,0,0,0-24.37Z"/>
        <path class="cls-7" d="M2238.63,265.35H2085.3a18.11,18.11,0,0,0,0,36.22h153.33a18.11,18.11,0,0,0,0-36.22Z"/>
        <path class="cls-7" d="M2325.1,294.68H2171.77a18.11,18.11,0,1,0,0,36.22H2325.1a18.11,18.11,0,0,0,0-36.22Z"/>
        <circle class="cls-7" cx="2388.95" cy="314.92" r="19.03"/>
        <path class="cls-7" d="M1795,269.13A11.08,11.08,0,1,1,1783.91,258,11.08,11.08,0,0,1,1795,269.13Z"/>
        <rect class="cls-37" x="1239.36" y="571.01" width="1335.53" height="28.4"/>
        <circle class="cls-101" cx="1895.56" cy="269.02" r="17.51"/>
        <path class="cls-102" d="M1895.56,231.35A37.67,37.67,0,1,0,1933.23,269,37.67,37.67,0,0,0,1895.56,231.35Zm0,66.75A29.08,29.08,0,1,1,1924.65,269,29.08,29.08,0,0,1,1895.56,298.1Z"/>
        <path class="cls-103" d="M1791.41,422.5a20.89,20.89,0,0,0-20.94,20.84v.8h41.88v-.8A20.89,20.89,0,0,0,1791.41,422.5Z"/>
        <path class="cls-103" d="M1862.47,420.92A20.44,20.44,0,0,0,1842,441.31v.79h41v-.79A20.44,20.44,0,0,0,1862.47,420.92Z"/>
        <rect class="cls-103" x="1770.47" y="443.69" width="41.88" height="5.54"/>
        <rect class="cls-103" x="1841.98" y="441.73" width="40.99" height="5.33"/>
        <polygon class="cls-47" points="1756.89 418.25 1791.41 370.15 1825.92 418.25 1756.89 418.25"/>
        <polygon class="cls-47" points="1827.96 418.25 1862.48 370.15 1896.99 418.25 1827.96 418.25"/>
        <polygon class="cls-46" points="1765.48 419.65 1791.41 383.13 1817.33 419.65 1765.48 419.65"/>
        <polygon class="cls-46" points="1836.55 419.65 1862.48 383.13 1888.51 419.65 1836.55 419.65"/>
        <path class="cls-104" d="M1795,400.89a4.17,4.17,0,1,1-4.17-4.18A4.17,4.17,0,0,1,1795,400.89Z"/>
        <path class="cls-104" d="M1867.16,399.34a4.17,4.17,0,1,1-4.17-4.17A4.17,4.17,0,0,1,1867.16,399.34Z"/>
        <rect class="cls-105" x="1775.48" y="503.4" width="34.27" height="67.62"/>
        <rect class="cls-65" x="1768.01" y="493.64" width="118.77" height="35.7"/>
        <rect class="cls-106" x="1768.01" y="493.64" width="13.23" height="35.7"/>
        <rect class="cls-107" x="1781.24" y="493.64" width="13.23" height="35.7"/>
        <rect class="cls-106" x="1794.47" y="493.64" width="13.23" height="35.7"/>
        <rect class="cls-107" x="1807.7" y="493.64" width="13.23" height="35.7"/>
        <rect class="cls-106" x="1820.93" y="493.64" width="13.23" height="35.7"/>
        <rect class="cls-107" x="1834.16" y="493.64" width="13.23" height="35.7"/>
        <rect class="cls-106" x="1847.4" y="493.64" width="13.23" height="35.7"/>
        <rect class="cls-107" x="1860.63" y="493.64" width="13.23" height="35.7"/>
        <rect class="cls-106" x="1873.86" y="493.64" width="13.23" height="35.7"/>
        <rect class="cls-106" x="1768.01" y="529.33" width="119.08" height="6.1"/>
        <rect class="cls-34" x="2204.89" y="485.48" width="29.95" height="29.95"/>
        <rect class="cls-108" x="2209.05" y="489.64" width="21.62" height="21.63"/>
        <rect class="cls-34" x="2247.22" y="485.48" width="29.95" height="29.95"/>
        <rect class="cls-108" x="2251.38" y="489.64" width="21.62" height="21.63"/>
        <rect class="cls-34" x="2218.24" y="488.23" width="3.83" height="26.26"/>
        <rect class="cls-34" x="2260.28" y="487.33" width="3.83" height="26.26"/>
        <rect class="cls-91" x="2016.13" y="531.53" width="3.8" height="25.74"/>
        <rect class="cls-91" x="2065.72" y="531.38" width="3.8" height="25.74"/>
        <rect class="cls-109" x="1988.68" y="491.1" width="104.04" height="8.83"/>
        <rect class="cls-37" x="1559.62" y="554.38" width="5.83" height="25.92"/>
        <rect class="cls-37" x="1643.36" y="555.06" width="5.83" height="25.91"/>
        <rect class="cls-37" x="1727.91" y="555.31" width="5.83" height="25.91"/>
        <polygon class="cls-11" points="2514.68 536.62 2551.35 536.62 2514.68 507.48 2514.68 507.48 2514.68 536.62"/>
        <polygon class="cls-7" points="2296.49 538.44 2333.15 509.3 2369.82 538.44 2296.49 538.44"/>
        <polygon class="cls-11" points="2333.15 538.44 2369.82 538.44 2333.15 509.3 2333.15 509.3 2333.15 538.44"/>
        <polygon class="cls-7" points="1525.87 555.37 1562.54 526.23 1599.2 555.37 1525.87 555.37"/>
        <polygon class="cls-11" points="1562.53 555.37 1599.2 555.37 1562.54 526.23 1562.53 526.23 1562.53 555.37"/>
        <polygon class="cls-7" points="1609.61 555.37 1646.28 526.23 1682.94 555.37 1609.61 555.37"/>
        <polygon class="cls-11" points="1646.27 555.37 1682.94 555.37 1646.28 526.23 1646.27 526.23 1646.27 555.37"/>
        <polygon class="cls-110" points="2387.26 537.76 2423.93 508.62 2460.59 537.76 2387.26 537.76"/>
        <polygon class="cls-111" points="2423.92 537.76 2460.59 537.76 2423.93 508.62 2423.92 508.62 2423.92 537.76"/>
        <path class="cls-79" d="M1301.23,571a25,25,0,0,0-49.91,0Z"/>
        <path class="cls-80" d="M1315.4,571a14.17,14.17,0,0,0-28.34,0Z"/>
        <rect class="cls-7" x="2296.49" y="538.44" width="73.33" height="3.94"/>
        <rect class="cls-7" x="1609.61" y="555.37" width="73.33" height="3.94"/>
        <rect class="cls-7" x="1525.87" y="555.37" width="73.33" height="3.94"/>
        <rect class="cls-110" x="2387.27" y="537.76" width="73.32" height="3.94"/>
        <rect class="cls-7" x="2478.02" y="536.62" width="73.32" height="3.94"/>
        <path class="cls-112" d="M1791.64,422.53v21.61h20.7v-.8A20.87,20.87,0,0,0,1791.64,422.53Z"/>
        <path class="cls-112" d="M1862.77,421v21.09H1883v-.78A20.38,20.38,0,0,0,1862.77,421Z"/>
        <path class="cls-113" d="M1816.6,462.93v0H1768v0a3.11,3.11,0,0,0,0,6.23v0h48.6v0a3.11,3.11,0,0,0,0-6.23Z"/>
        <path class="cls-113" d="M1886.78,462.93v0h-48.6v0a3.11,3.11,0,0,0,0,6.23v0h48.6v0a3.11,3.11,0,1,0,0-6.23Z"/>
        <rect class="cls-114" x="1674.34" y="528.89" width="55.9" height="10.95"/>
        <polygon class="cls-110" points="1693.58 555.37 1730.24 526.23 1766.9 555.37 1693.58 555.37"/>
        <polygon class="cls-111" points="1730.23 555.37 1766.9 555.37 1730.24 526.23 1730.23 526.23 1730.23 555.37"/>
        <rect class="cls-110" x="1693.57" y="555.37" width="73.33" height="3.94"/>
      </g>
      <g>
        <polygon class="cls-115" points="3497.44 372.57 3431.31 483.14 3409.84 461.31 3497.44 372.57"/>
        <polygon class="cls-116" points="3783.31 567.42 3629.68 406.62 3582.47 477.19 3497.44 372.57 3370.65 569.13 3500.13 567.18 3499.91 567.42 3783.31 567.42"/>
        <polygon class="cls-117" points="3387.68 431.19 3298.8 538.23 3221.09 412.44 3192.35 433.56 3060.61 572.44 3225.59 573.3 3346.83 573.3 3509.35 572.13 3387.68 431.19"/>
        <polygon class="cls-116" points="3185.26 412.44 3060.61 572.44 3202.82 573.19 3202.82 412.44 3185.26 412.44"/>
        <ellipse class="cls-79" cx="3123.82" cy="500.02" rx="50.4" ry="50.16"/>
        <path class="cls-80" d="M3123.82,449.87h-.06V550.18h.06a50.16,50.16,0,1,0,0-100.32Z"/>
        <path class="cls-81" d="M3149.58,500a25.76,25.76,0,1,1-25.76-25.62A25.7,25.7,0,0,1,3149.58,500Z"/>
        <path class="cls-79" d="M3123.82,474.39h-.06v51.25h.06a25.63,25.63,0,1,0,0-51.27Z"/>
        <ellipse class="cls-118" cx="2650.35" cy="520.73" rx="58.67" ry="58.38"/>
        <path class="cls-119" d="M2650.35,462.36h-.07V579.12h.07a58.38,58.38,0,1,0,0-116.76Z"/>
        <ellipse class="cls-81" cx="2650.35" cy="520.73" rx="29.98" ry="29.83"/>
        <path class="cls-79" d="M2650.35,490.9h-.07v59.65h.07a29.83,29.83,0,1,0,0-59.67Z"/>
        <path class="cls-79" d="M3227.81,525.65a35.47,35.47,0,1,1-35.47-35.29A35.37,35.37,0,0,1,3227.81,525.65Z"/>
        <path class="cls-80" d="M3192.35,490.37h0v70.58h0a35.29,35.29,0,1,0,0-70.58Z"/>
        <path class="cls-81" d="M3210.47,525.65a18.12,18.12,0,1,1-18.12-18A18.09,18.09,0,0,1,3210.47,525.65Z"/>
        <polygon class="cls-115" points="3133.65 583.48 2991.95 389.14 2932.82 470.24 2836.05 337.53 2656.95 583.19 2850.47 583.19 2850.26 583.48 3133.65 583.48"/>
        <path class="cls-7" d="M3090.54,318.6H2943.42a17.38,17.38,0,0,0,0,34.76h147.11a17.38,17.38,0,0,0,0-34.76Z"/>
        <path class="cls-7" d="M3304.41,269.55H3155a17.65,17.65,0,0,0,0,35.3h149.4a17.65,17.65,0,0,0,0-35.3Z"/>
        <polygon class="cls-116" points="2991.95 389.14 3081.63 581.36 3148.09 580.33 2991.95 389.14"/>
        <path class="cls-80" d="M3165.64,525.88a39.86,39.86,0,0,0-39.86,39.86h79.72A39.86,39.86,0,0,0,3165.64,525.88Z"/>
        <path class="cls-79" d="M3245.43,512.65a53.09,53.09,0,0,0-53.09,53.09h106.17A53.09,53.09,0,0,0,3245.43,512.65Z"/>
        <polygon class="cls-117" points="3421.93 555.48 3421.47 522.03 3478.52 494.84 3535.16 521.26 3557.63 501.17 3608.56 542.69 3657.91 520.2 3721.03 548.68 3721.03 569.45 3429.83 574.93 3421.93 555.48"/>
        <path class="cls-120" d="M2624.58,568.66a72.45,72.45,0,0,0-22.41-79.57,72.38,72.38,0,0,0-22.41,79.57Z"/>
        <path class="cls-121" d="M2602.17,489.08h0v79.57h22.42a72.45,72.45,0,0,0-22.41-79.57Z"/>
        <path class="cls-120" d="M3613.24,565.52c2.71-7.81-19.87-16.08-19.87-24.8,0-23.65,13.25-44.89-3.71-58.91a76.15,76.15,0,0,0-23.58,83.71Z"/>
        <path class="cls-121" d="M3589.66,481.8h0v83.71h23.58a76.2,76.2,0,0,0-23.58-83.71Z"/>
        <rect class="cls-37" x="2541.94" y="570.87" width="1298.62" height="28.13"/>
        <polygon class="cls-122" points="3433.97 514.35 3489.76 453.89 3545.54 514.35 3433.97 514.35"/>
        <rect class="cls-123" x="3436.82" y="514.35" width="105.87" height="37.74"/>
        <rect class="cls-124" x="3436.82" y="552.09" width="9.07" height="51.76"/>
        <rect class="cls-124" x="3468.55" y="552.09" width="6.73" height="51.76"/>
        <rect class="cls-124" x="3502.47" y="552.09" width="6.88" height="51.76"/>
        <rect class="cls-124" x="3533.62" y="552.09" width="9.07" height="51.76"/>
        <rect class="cls-125" x="3436.82" y="552.09" width="105.87" height="6.77"/>
        <polygon class="cls-126" points="3489.75 514.35 3545.54 514.35 3489.76 453.89 3489.75 453.91 3489.75 514.35"/>
        <rect class="cls-124" x="3468.55" y="563.82" width="36.27" height="4.02"/>
        <rect class="cls-124" x="3468.55" y="573.32" width="36.27" height="4.02"/>
        <rect class="cls-124" x="3471.62" y="582.58" width="36.27" height="4.02"/>
        <rect class="cls-127" x="3255.67" y="515.96" width="105.87" height="37.74"/>
        <rect class="cls-124" x="3255.67" y="553.7" width="9.07" height="51.76"/>
        <rect class="cls-124" x="3287.4" y="553.7" width="6.73" height="51.76"/>
        <rect class="cls-124" x="3321.32" y="553.7" width="6.88" height="51.76"/>
        <rect class="cls-124" x="3352.47" y="553.7" width="9.07" height="51.76"/>
        <rect class="cls-124" x="3255.67" y="519.44" width="105.87" height="3.48"/>
        <rect class="cls-124" x="3436.82" y="518.46" width="105.87" height="3.48"/>
        <rect class="cls-125" x="3255.67" y="553.7" width="105.87" height="6.77"/>
        <rect class="cls-124" x="3287.4" y="565.43" width="36.27" height="4.02"/>
        <rect class="cls-124" x="3287.4" y="574.93" width="36.27" height="4.02"/>
        <rect class="cls-124" x="3290.47" y="584.19" width="36.27" height="4.03"/>
        <path class="cls-128" d="M3444.27,317.69a41.63,41.63,0,1,1-41.63-41.63A41.63,41.63,0,0,1,3444.27,317.69Z"/>
        <path class="cls-129" d="M3429.83,317.69a27.19,27.19,0,1,1-27.2-27.19A27.19,27.19,0,0,1,3429.83,317.69Z"/>
        <rect class="cls-124" x="3276" y="526.71" width="22.8" height="22.79"/>
        <rect class="cls-130" x="3279.85" y="530.56" width="15.1" height="15.1"/>
        <rect class="cls-124" x="3316.8" y="526.71" width="22.8" height="22.79"/>
        <rect class="cls-7" x="3320.65" y="530.56" width="15.1" height="15.1"/>
        <rect class="cls-124" x="3457.95" y="526.02" width="22.8" height="22.79"/>
        <rect class="cls-131" x="3461.71" y="529.78" width="15.29" height="15.28"/>
        <rect class="cls-124" x="3498.75" y="526.02" width="22.8" height="22.79"/>
        <rect class="cls-130" x="3502.51" y="529.78" width="15.29" height="15.28"/>
        <path class="cls-7" d="M3621.84,317.69H3513.29a15.81,15.81,0,1,0,0,31.62h108.55a15.81,15.81,0,1,0,0-31.62Z"/>
        <polygon class="cls-132" points="2798.68 591.08 2767.49 591.11 2775.09 582.25 2789.63 581.19 2798.68 591.08"/>
        <polygon class="cls-133" points="2843.23 590.95 2792.8 591.11 2800.06 580.24 2830.3 575.17 2843.23 590.95"/>
        <polygon class="cls-132" points="3117.41 586.64 3072.78 586.68 3083.66 574 3101.14 576.94 3117.41 586.64"/>
        <polygon class="cls-133" points="3194.87 586.89 3168.47 586.89 3175.73 576.02 3184.78 574.93 3194.87 586.89"/>
        <polygon class="cls-7" points="2905.43 490.66 2847.61 532.02 2859.24 546.03 2905.43 490.66"/>
        <polygon class="cls-116" points="2898.3 479.39 2836.05 337.53 2932.82 470.24 2898.3 479.39"/>
        <polygon class="cls-116" points="2730.16 569.83 2804.43 495.24 2848.72 532.1 2859.24 545.19 2905.43 489.83 2953.2 535.82 2999.44 545.19 2999.44 570.74 2730.16 569.83"/>
        <path class="cls-80" d="M2828.92,545a25.15,25.15,0,0,0-25.15,25.14h50.29A25.15,25.15,0,0,0,2828.92,545Z"/>
        <path class="cls-120" d="M3123.56,565.67a72.45,72.45,0,0,0-22.41-79.58,72.39,72.39,0,0,0-22.41,79.58Z"/>
        <path class="cls-121" d="M3101.15,486.1h0v79.58h22.42a72.45,72.45,0,0,0-22.41-79.58Z"/>
        <path class="cls-120" d="M3140.71,565.67c1.71-4.95-3.92-10.54-3.92-16.06,0-15,5.87-28-4.87-36.92a48.24,48.24,0,0,0-14.93,53Z"/>
        <path class="cls-121" d="M3131.92,512.69h0v53h14.94a48.28,48.28,0,0,0-14.93-53Z"/>
        <path class="cls-120" d="M3622.33,525.62h0a35.92,35.92,0,0,0-11.12,39.48l11.12,0v0h11.13a36,36,0,0,0-11.12-39.48Z"/>
        <polygon class="cls-7" points="2730.16 569.83 2804.43 495.24 2724 543.36 2730.16 569.83"/>
        <path class="cls-79" d="M2723.51,536a34.09,34.09,0,0,0-34.09,34.09h68.17A34.09,34.09,0,0,0,2723.51,536Z"/>
        <polygon class="cls-116" points="2963.8 542.28 3007.6 474.43 3051.43 493.83 3073.41 523.99 3076.34 562.08 2963.8 542.28"/>
        <path class="cls-121" d="M3042,517.65a53.09,53.09,0,0,0-53.09,53.09h106.17A53.09,53.09,0,0,0,3042,517.65Z"/>
        <polygon class="cls-134" points="3630.86 407.44 3567.14 457.27 3582.47 477.19 3630.86 407.44"/>
        <path class="cls-87" d="M3747,525.2a39.72,39.72,0,0,0-39.72,39.72h79.44A39.72,39.72,0,0,0,3747,525.2Z"/>
        <polygon class="cls-7" points="2781.03 412.99 2781.03 412.99 2799.61 407.14 2821.75 417.58 2847.61 404.3 2860.04 411.89 2884.43 403.89 2836.05 337.53 2781.03 412.99"/>
        <polygon class="cls-135" points="2867.59 409.41 2884.43 403.89 2836.05 337.53 2867.59 409.41"/>
        <polygon class="cls-7" points="3003.03 432.38 3016.32 428.7 3018.24 425.2 2991.95 389.14 2964.84 426.32 2975.74 427.63 2983.81 433.56 2995.2 423.83 3003.03 432.38"/>
        <polygon class="cls-135" points="2991.95 389.14 3011.08 430.14 3016.32 428.7 3019.51 422.88 2991.95 389.14"/>
        <polygon class="cls-135" points="3504.16 425.12 3512.58 432.23 3524.5 417.4 3538.68 423.31 3538.68 423.31 3497.44 372.57 3461.98 426.58 3465.39 428.17 3486.36 426.66 3495.18 417.87 3504.16 425.12"/>
        <polygon class="cls-7" points="3462.45 426.81 3497.44 372.57 3449.86 420.76 3462.45 426.81"/>
        <path class="cls-136" d="M3234.77,351.46a11.35,11.35,0,1,0,11.34,11.35A11.34,11.34,0,0,0,3234.77,351.46Zm0,16.68a5.32,5.32,0,1,1,5.32-5.32A5.32,5.32,0,0,1,3234.77,368.13Z"/>
        <path class="cls-136" d="M3202.82,370.49a14.67,14.67,0,1,0,14.67,14.67A14.66,14.66,0,0,0,3202.82,370.49Zm0,22.16a7.49,7.49,0,1,1,7.49-7.49A7.49,7.49,0,0,1,3202.82,392.65Z"/>
        <circle class="cls-136" cx="3207.21" cy="336.87" r="8.01"/>
        <circle class="cls-7" cx="3246.11" cy="328.85" r="6.59"/>
        <polygon class="cls-116" points="3178.93 417.65 3202.82 421.99 3214.32 418 3228.78 419.89 3221.09 407.44 3185.26 407.44 3178.93 415.56 3178.93 417.65"/>
        <polygon class="cls-116" points="3387.68 426.19 3335.75 499.3 3319.4 483.14 3387.68 426.19"/>
        <polygon class="cls-55" points="3409.84 451.86 3387.68 426.19 3362.14 448.87 3368.26 453.54 3381.01 452.41 3393.53 456.27 3409.84 451.86"/>
        <polygon class="cls-7" points="3387.68 426.19 3360.96 448.02 3368.26 453.54 3387.68 426.19"/>
        <polygon class="cls-122" points="3252.82 515.96 3308.62 455.51 3364.39 515.96 3252.82 515.96"/>
        <polygon class="cls-126" points="3308.6 515.96 3364.39 515.96 3308.62 455.51 3308.6 455.52 3308.6 515.96"/>
        <rect class="cls-122" x="3252.82" y="515.56" width="111.57" height="4.51"/>
        <rect class="cls-122" x="3433.97" y="513.86" width="111.57" height="4.6"/>
        <polygon class="cls-137" points="3696.83 585.82 3599 585.85 3625.64 548.82 3664.08 558.86 3696.83 585.82"/>
        <polygon class="cls-137" points="3718.07 585.87 3675.58 585.91 3692.8 570.39 3705.96 572.12 3718.07 585.87"/>
        <polygon class="cls-138" points="3613.64 585.91 3587.3 585.91 3594.88 573.75 3604.11 570.57 3613.64 585.91"/>
        <polygon class="cls-138" points="3696.83 585.82 3664.08 558.86 3670.82 585.85 3696.83 585.82"/>
      </g>
      <rect class="cls-139" y="600" width="3841" height="168"/>
      <rect class="cls-7" x="12" y="671" width="77" height="24"/>
      <rect class="cls-7" x="173" y="671" width="77" height="24"/>
      <rect class="cls-7" x="332" y="671" width="77" height="24"/>
      <rect class="cls-7" x="494" y="672" width="77" height="24"/>
      <rect class="cls-7" x="667" y="671" width="77" height="24"/>
      <rect class="cls-7" x="828" y="671" width="77" height="24"/>
      <rect class="cls-7" x="993" y="672" width="77" height="24"/>
      <rect class="cls-7" x="1162" y="672" width="77" height="24"/>
      <rect class="cls-7" x="1336" y="672" width="77" height="24"/>
      <rect class="cls-7" x="1526" y="671" width="77" height="24"/>
      <rect class="cls-7" x="1694" y="672" width="77" height="24"/>
      <rect class="cls-7" x="1855" y="672" width="77" height="24"/>
      <rect class="cls-7" x="2014" y="672" width="77" height="24"/>
      <rect class="cls-7" x="2176" y="673" width="77" height="24"/>
      <rect class="cls-7" x="2349" y="672" width="77" height="24"/>
      <rect class="cls-7" x="2510" y="672" width="77" height="24"/>
      <rect class="cls-7" x="2675" y="673" width="77" height="24"/>
      <rect class="cls-7" x="2844" y="673" width="77" height="24"/>
      <rect class="cls-7" x="3018" y="673" width="77" height="24"/>
      <rect class="cls-7" x="3208" y="672" width="77" height="24"/>
      <rect class="cls-7" x="3402" y="673" width="77" height="24"/>
      <rect class="cls-7" x="3571" y="673" width="77" height="24"/>
      <rect class="cls-7" x="3745" y="673" width="77" height="24"/>
      <g>
        <g>
          <path class="cls-140" d="M2665.35,379.33c0-.16,0-.33,0-.49a6,6,0,0,0-6-5.92,6.05,6.05,0,0,0-5.1,2.77,5.65,5.65,0,0,0-11-.31,5,5,0,0,0-3.73-1.63,4.75,4.75,0,0,0-4.89,4.59c0,.06,0,.12,0,.18a6,6,0,0,0,.7,12.07,6.33,6.33,0,0,0,3.57-1.09,6.74,6.74,0,0,0,6.5,6.52,6.43,6.43,0,0,0,5.53-3.31,6.3,6.3,0,0,0,5.25,2.75,6.12,6.12,0,0,0,6.24-5.9,5,5,0,0,0,2.84.89,5.58,5.58,0,0,0,.12-11.13Z"/>
          <path class="cls-141" d="M2669.48,381.62c.27,2.88-2.4,5.21-5,5.21a4.85,4.85,0,0,1-2.73-.85c0,3.1-2.71,5.18-6,5.18a6.08,6.08,0,0,1-5-2.62,6.18,6.18,0,0,1-5.32,3.14,6,6,0,0,1-6.25-5.65,7.63,7.63,0,0,1-3.91,1.65c-2.87.11-5.52-2-5.43-6a5.86,5.86,0,0,0-.73,2.83,6.15,6.15,0,0,0,6.24,6.05,6.33,6.33,0,0,0,3.57-1.09,6.74,6.74,0,0,0,6.5,6.52,6.43,6.43,0,0,0,5.53-3.31,6.3,6.3,0,0,0,5.25,2.75,6.12,6.12,0,0,0,6.24-5.9,5,5,0,0,0,2.84.89,5.42,5.42,0,0,0,5.25-5.57A5.76,5.76,0,0,0,2669.48,381.62Z"/>
          <path class="cls-141" d="M2643.22,375.38a5,5,0,0,0-3.73-1.63s4.23.5,4.34,5.81C2643.83,379.56,2644.53,377.06,2643.22,375.38Z"/>
          <path class="cls-141" d="M2654.25,375.69a5.53,5.53,0,0,0-5.54-4.58s4.59.12,4.91,7.18C2653.62,378.28,2653.68,376.27,2654.25,375.69Z"/>
          <path class="cls-141" d="M2665.35,379.33c0-.16,0-.33,0-.49a6,6,0,0,0-6-5.92s5.14.77,4.22,6.93C2663.57,379.85,2663.5,379.25,2665.35,379.33Z"/>
        </g>
        <g>
          <path class="cls-142" d="M2502.56,364.25c0-.19,0-.39,0-.59a7.29,7.29,0,0,0-7.5-7.06,7.61,7.61,0,0,0-6.35,3.31,7.1,7.1,0,0,0-13.72-.37,6.37,6.37,0,0,0-4.65-1.94c-3.36,0-6.09,2.45-6.09,5.48,0,.07,0,.14,0,.21a7.21,7.21,0,1,0,.87,14.39,8.12,8.12,0,0,0,4.44-1.3,8.23,8.23,0,0,0,8.09,7.78,8.06,8.06,0,0,0,6.89-4,7.94,7.94,0,0,0,6.53,3.29c4.25,0,7.71-3.14,7.76-7a6.43,6.43,0,0,0,3.54,1.06,6.64,6.64,0,0,0,.14-13.27Z"/>
          <path class="cls-141" d="M2507.7,367c.34,3.43-3,6.22-6.25,6.22a6.23,6.23,0,0,1-3.4-1c-.06,3.7-3.37,6.17-7.46,6.17a7.65,7.65,0,0,1-6.28-3.12,7.76,7.76,0,0,1-6.61,3.75c-4.12,0-7.48-2.62-7.77-6.74a9.73,9.73,0,0,1-4.86,2c-3.57.12-6.87-2.34-6.76-7.13a6.77,6.77,0,0,0-.91,3.37,7.51,7.51,0,0,0,7.77,7.22,8.12,8.12,0,0,0,4.44-1.3,8.23,8.23,0,0,0,8.09,7.78,8.06,8.06,0,0,0,6.89-4,7.94,7.94,0,0,0,6.53,3.29c4.25,0,7.71-3.14,7.76-7a6.43,6.43,0,0,0,3.54,1.06,6.59,6.59,0,0,0,6.53-6.64A6.68,6.68,0,0,0,2507.7,367Z"/>
          <path class="cls-141" d="M2475,359.54a6.37,6.37,0,0,0-4.65-1.94s5.27.59,5.4,6.93C2475.77,364.53,2476.65,361.55,2475,359.54Z"/>
          <path class="cls-141" d="M2488.74,359.92a6.8,6.8,0,0,0-6.89-5.47s5.71.14,6.12,8.56C2488,363,2488,360.6,2488.74,359.92Z"/>
          <path class="cls-141" d="M2502.56,364.25c0-.19,0-.39,0-.59a7.29,7.29,0,0,0-7.5-7.06s6.39.92,5.25,8.27C2500.33,364.88,2500.25,364.16,2502.56,364.25Z"/>
        </g>
      </g>
      <g>
        <g>
          <path class="cls-143" d="M3349.36,293.94c0-.3.05-.61.05-.91,0-6.05-5.61-11-12.53-11a13,13,0,0,0-10.6,5.14c-.82-4.8-5.65-8.49-11.51-8.49-5.62,0-10.31,3.4-11.41,7.91a11,11,0,0,0-7.76-3c-5.62,0-10.17,3.81-10.17,8.51,0,.11,0,.22,0,.33-6.48.63-11.52,5.37-11.52,11.14,0,6.19,5.81,11.22,13,11.22a14.34,14.34,0,0,0,7.42-2,13.34,13.34,0,0,0,13.51,12.08,14,14,0,0,1,22.41-1c7.1,0,12.87-4.88,13-10.93a11.31,11.31,0,0,0,5.91,1.65c6,0,10.91-4.62,10.91-10.31S3355.27,294.07,3349.36,293.94Z"/>
          <path class="cls-144" d="M3357.93,298.2c.57,5.33-5,9.65-10.43,9.65a11,11,0,0,1-5.67-1.57c-.09,5.75-5.63,9.58-12.45,9.58a13.56,13.56,0,0,0-21.53,1c-6.88,0-12.5-4.06-13-10.47-2,1.21-4.75,2.94-8.12,3-6,.2-11.47-3.64-11.29-11.07a10,10,0,0,0-1.51,5.24c0,6.19,5.81,11.22,13,11.22a14.34,14.34,0,0,0,7.42-2,13.34,13.34,0,0,0,13.51,12.08,14,14,0,0,1,22.41-1c7.1,0,12.87-4.88,13-10.93a11.31,11.31,0,0,0,5.91,1.65c6,0,10.91-4.62,10.91-10.31A9.88,9.88,0,0,0,3357.93,298.2Z"/>
          <path class="cls-144" d="M3303.36,286.63a11,11,0,0,0-7.76-3s8.8.92,9,10.76C3304.62,294.37,3306.08,289.75,3303.36,286.63Z"/>
          <path class="cls-144" d="M3326.27,287.21c-.82-4.8-5.65-8.49-11.51-8.49,0,0,9.54.21,10.21,13.3C3325,292,3325.09,288.28,3326.27,287.21Z"/>
          <path class="cls-144" d="M3349.36,293.94c0-.3.05-.61.05-.91,0-6.05-5.61-11-12.53-11,0,0,10.67,1.43,8.76,12.84C3345.64,294.91,3345.5,293.8,3349.36,293.94Z"/>
        </g>
        <g>
          <path class="cls-145" d="M3171,321.42c0-.24,0-.48,0-.73a8.87,8.87,0,0,0-9-8.71,9.06,9.06,0,0,0-7.62,4.08,8.47,8.47,0,0,0-16.48-.46,7.54,7.54,0,0,0-5.58-2.4,7.06,7.06,0,0,0-7.31,6.77c0,.09,0,.18,0,.27a8.91,8.91,0,0,0,1,17.79,9.57,9.57,0,0,0,5.34-1.61,10,10,0,0,0,9.72,9.61,9.63,9.63,0,0,0,8.27-4.88,9.45,9.45,0,0,0,7.84,4.06,9.09,9.09,0,0,0,9.32-8.69,7.59,7.59,0,0,0,4.25,1.31,8.21,8.21,0,0,0,.17-16.4Z"/>
          <path class="cls-146" d="M3177.19,324.8c.41,4.24-3.58,7.68-7.5,7.68a7.32,7.32,0,0,1-4.08-1.25c-.07,4.57-4,7.62-9,7.62a9.11,9.11,0,0,1-7.54-3.85,9.27,9.27,0,0,1-7.94,4.63c-4.94,0-9-3.23-9.33-8.33-1.45,1-3.42,2.34-5.84,2.43-4.29.16-8.25-2.9-8.12-8.8a8.55,8.55,0,0,0-1.09,4.17,9.13,9.13,0,0,0,9.33,8.92,9.57,9.57,0,0,0,5.34-1.61,10,10,0,0,0,9.72,9.61,9.63,9.63,0,0,0,8.27-4.88,9.45,9.45,0,0,0,7.84,4.06,9.09,9.09,0,0,0,9.32-8.69,7.59,7.59,0,0,0,4.25,1.31,8,8,0,0,0,7.84-8.2A8.4,8.4,0,0,0,3177.19,324.8Z"/>
          <path class="cls-146" d="M3137.95,315.6a7.54,7.54,0,0,0-5.58-2.4s6.33.73,6.49,8.56C3138.86,321.76,3139.91,318.08,3137.95,315.6Z"/>
          <path class="cls-146" d="M3154.43,316.06a8.23,8.23,0,0,0-8.28-6.75s6.86.17,7.34,10.58C3153.5,319.88,3153.58,316.91,3154.43,316.06Z"/>
          <path class="cls-146" d="M3171,321.42c0-.24,0-.48,0-.73a8.87,8.87,0,0,0-9-8.71s7.68,1.14,6.3,10.21C3168.35,322.19,3168.25,321.31,3171,321.42Z"/>
        </g>
        <g>
          <path class="cls-147" d="M2944,290.42c0-.24,0-.48,0-.73a8.87,8.87,0,0,0-9-8.71,9.06,9.06,0,0,0-7.62,4.08,8.47,8.47,0,0,0-16.48-.46,7.54,7.54,0,0,0-5.58-2.4,7.06,7.06,0,0,0-7.31,6.77c0,.09,0,.18,0,.27a8.91,8.91,0,0,0,1,17.79,9.57,9.57,0,0,0,5.34-1.61,10,10,0,0,0,9.72,9.61,9.63,9.63,0,0,0,8.27-4.88,9.45,9.45,0,0,0,7.84,4.06,9.09,9.09,0,0,0,9.32-8.69,7.59,7.59,0,0,0,4.25,1.31,8.21,8.21,0,0,0,.17-16.4Z"/>
          <path class="cls-146" d="M2950.19,293.8c.41,4.24-3.58,7.68-7.5,7.68a7.32,7.32,0,0,1-4.08-1.25c-.07,4.57-4,7.62-9,7.62a9.11,9.11,0,0,1-7.54-3.85,9.27,9.27,0,0,1-7.94,4.63c-4.94,0-9-3.23-9.33-8.33-1.45,1-3.42,2.34-5.84,2.43-4.29.16-8.25-2.9-8.12-8.8a8.55,8.55,0,0,0-1.09,4.17,9.13,9.13,0,0,0,9.33,8.92,9.57,9.57,0,0,0,5.34-1.61,10,10,0,0,0,9.72,9.61,9.63,9.63,0,0,0,8.27-4.88,9.45,9.45,0,0,0,7.84,4.06,9.09,9.09,0,0,0,9.32-8.69,7.59,7.59,0,0,0,4.25,1.31,8,8,0,0,0,7.84-8.2A8.4,8.4,0,0,0,2950.19,293.8Z"/>
          <path class="cls-146" d="M2910.95,284.6a7.54,7.54,0,0,0-5.58-2.4s6.33.73,6.49,8.56C2911.86,290.76,2912.91,287.08,2910.95,284.6Z"/>
          <path class="cls-146" d="M2927.43,285.06a8.23,8.23,0,0,0-8.28-6.75s6.86.17,7.34,10.58C2926.5,288.88,2926.58,285.91,2927.43,285.06Z"/>
          <path class="cls-146" d="M2944,290.42c0-.24,0-.48,0-.73a8.87,8.87,0,0,0-9-8.71s7.68,1.14,6.3,10.21C2941.35,291.19,2941.25,290.31,2944,290.42Z"/>
        </g>
        <g>
          <path class="cls-148" d="M2147,305.42c0-.24,0-.48,0-.73a8.87,8.87,0,0,0-9-8.71,9.06,9.06,0,0,0-7.62,4.08,8.47,8.47,0,0,0-16.48-.46,7.54,7.54,0,0,0-5.58-2.4,7.06,7.06,0,0,0-7.31,6.77c0,.09,0,.18,0,.27a8.91,8.91,0,0,0,1,17.79,9.57,9.57,0,0,0,5.34-1.61,10,10,0,0,0,9.72,9.61,9.63,9.63,0,0,0,8.27-4.88,9.45,9.45,0,0,0,7.84,4.06,9.09,9.09,0,0,0,9.32-8.69,7.59,7.59,0,0,0,4.25,1.31,8.21,8.21,0,0,0,.17-16.4Z"/>
          <path class="cls-146" d="M2153.19,308.8c.41,4.24-3.58,7.68-7.5,7.68a7.32,7.32,0,0,1-4.08-1.25c-.07,4.57-4,7.62-9,7.62a9.11,9.11,0,0,1-7.54-3.85,9.27,9.27,0,0,1-7.94,4.63c-4.94,0-9-3.23-9.33-8.33-1.45,1-3.42,2.34-5.84,2.43-4.29.16-8.25-2.9-8.12-8.8a8.55,8.55,0,0,0-1.09,4.17,9.13,9.13,0,0,0,9.33,8.92,9.57,9.57,0,0,0,5.34-1.61,10,10,0,0,0,9.72,9.61,9.63,9.63,0,0,0,8.27-4.88,9.45,9.45,0,0,0,7.84,4.06,9.09,9.09,0,0,0,9.32-8.69,7.59,7.59,0,0,0,4.25,1.31,8,8,0,0,0,7.84-8.2A8.4,8.4,0,0,0,2153.19,308.8Z"/>
          <path class="cls-146" d="M2113.95,299.6a7.54,7.54,0,0,0-5.58-2.4s6.33.73,6.49,8.56C2114.86,305.76,2115.91,302.08,2113.95,299.6Z"/>
          <path class="cls-146" d="M2130.43,300.06a8.23,8.23,0,0,0-8.28-6.75s6.86.17,7.34,10.58C2129.5,303.88,2129.58,300.91,2130.43,300.06Z"/>
          <path class="cls-146" d="M2147,305.42c0-.24,0-.48,0-.73a8.87,8.87,0,0,0-9-8.71s7.68,1.14,6.3,10.21C2144.35,306.19,2144.25,305.31,2147,305.42Z"/>
        </g>
        <g>
          <path class="cls-149" d="M1875,272.42c0-.24,0-.48,0-.73a8.87,8.87,0,0,0-9-8.71,9.06,9.06,0,0,0-7.62,4.08,8.47,8.47,0,0,0-16.48-.46,7.54,7.54,0,0,0-5.58-2.4,7.06,7.06,0,0,0-7.31,6.77c0,.09,0,.18,0,.27a8.91,8.91,0,0,0,1,17.79,9.57,9.57,0,0,0,5.34-1.61,10,10,0,0,0,9.72,9.61,9.63,9.63,0,0,0,8.27-4.88,9.45,9.45,0,0,0,7.84,4.06,9.09,9.09,0,0,0,9.32-8.69,7.59,7.59,0,0,0,4.25,1.31,8.21,8.21,0,0,0,.17-16.4Z"/>
          <path class="cls-146" d="M1881.19,275.8c.41,4.24-3.58,7.68-7.5,7.68a7.32,7.32,0,0,1-4.08-1.25c-.07,4.57-4,7.62-9,7.62a9.11,9.11,0,0,1-7.54-3.85,9.27,9.27,0,0,1-7.94,4.63c-4.94,0-9-3.23-9.33-8.33-1.45,1-3.42,2.34-5.84,2.43-4.29.16-8.25-2.9-8.12-8.8a8.55,8.55,0,0,0-1.09,4.17,9.13,9.13,0,0,0,9.33,8.92,9.57,9.57,0,0,0,5.34-1.61,10,10,0,0,0,9.72,9.61,9.63,9.63,0,0,0,8.27-4.88,9.45,9.45,0,0,0,7.84,4.06,9.09,9.09,0,0,0,9.32-8.69,7.59,7.59,0,0,0,4.25,1.31,8,8,0,0,0,7.84-8.2A8.4,8.4,0,0,0,1881.19,275.8Z"/>
          <path class="cls-146" d="M1841.95,266.6a7.54,7.54,0,0,0-5.58-2.4s6.33.73,6.49,8.56C1842.86,272.76,1843.91,269.08,1841.95,266.6Z"/>
          <path class="cls-146" d="M1858.43,267.06a8.23,8.23,0,0,0-8.28-6.75s6.86.17,7.34,10.58C1857.5,270.88,1857.58,267.91,1858.43,267.06Z"/>
          <path class="cls-146" d="M1875,272.42c0-.24,0-.48,0-.73a8.87,8.87,0,0,0-9-8.71s7.68,1.14,6.3,10.21C1872.35,273.19,1872.25,272.31,1875,272.42Z"/>
        </g>
        <g>
          <path class="cls-150" d="M1695.36,309.94c0-.3.05-.61.05-.91,0-6.05-5.61-11-12.53-11a13,13,0,0,0-10.6,5.14c-.82-4.8-5.65-8.49-11.51-8.49-5.62,0-10.31,3.4-11.41,7.91a11,11,0,0,0-7.76-3c-5.62,0-10.17,3.81-10.17,8.51,0,.11,0,.22,0,.33-6.48.63-11.52,5.37-11.52,11.14,0,6.19,5.81,11.22,13,11.22a14.34,14.34,0,0,0,7.42-2,13.34,13.34,0,0,0,13.51,12.08,13.67,13.67,0,0,0,11.5-6.14,13.6,13.6,0,0,0,10.91,5.1c7.1,0,12.87-4.88,13-10.93a11.31,11.31,0,0,0,5.91,1.65c6,0,10.91-4.62,10.91-10.31S1701.27,310.07,1695.36,309.94Z"/>
          <path class="cls-144" d="M1703.93,314.2c.57,5.33-5,9.65-10.43,9.65a11,11,0,0,1-5.67-1.57c-.09,5.75-5.63,9.58-12.45,9.58a13.12,13.12,0,0,1-10.48-4.85,13.18,13.18,0,0,1-11,5.83c-6.88,0-12.5-4.06-13-10.47-2,1.21-4.75,2.94-8.12,3-6,.2-11.47-3.64-11.29-11.07a10,10,0,0,0-1.51,5.24c0,6.19,5.81,11.22,13,11.22a14.34,14.34,0,0,0,7.42-2,13.34,13.34,0,0,0,13.51,12.08,13.67,13.67,0,0,0,11.5-6.14,13.6,13.6,0,0,0,10.91,5.1c7.1,0,12.87-4.88,13-10.93a11.31,11.31,0,0,0,5.91,1.65c6,0,10.91-4.62,10.91-10.31A9.88,9.88,0,0,0,1703.93,314.2Z"/>
          <path class="cls-144" d="M1649.36,302.63a11,11,0,0,0-7.76-3s8.8.92,9,10.76C1650.62,310.37,1652.08,305.75,1649.36,302.63Z"/>
          <path class="cls-144" d="M1672.27,303.21c-.82-4.8-5.65-8.49-11.51-8.49,0,0,9.54.21,10.21,13.3C1671,308,1671.09,304.28,1672.27,303.21Z"/>
          <path class="cls-144" d="M1695.36,309.94c0-.3.05-.61.05-.91,0-6.05-5.61-11-12.53-11,0,0,10.67,1.43,8.76,12.84C1691.64,310.91,1691.5,309.8,1695.36,309.94Z"/>
        </g>
        <path class="cls-151" d="M1256.36,254.94c0-.3.05-.61.05-.91,0-6.05-5.61-11-12.53-11a13,13,0,0,0-10.6,5.14c-.82-4.8-5.65-8.49-11.51-8.49-5.62,0-10.31,3.4-11.41,7.91a11,11,0,0,0-7.76-3c-5.62,0-10.17,3.81-10.17,8.51,0,.11,0,.22,0,.33-6.48.63-11.52,5.37-11.52,11.14,0,6.19,5.81,11.22,13,11.22a14.34,14.34,0,0,0,7.42-2,13.34,13.34,0,0,0,13.51,12.08,13.67,13.67,0,0,0,11.5-6.14,13.6,13.6,0,0,0,10.91,5.1c7.1,0,12.87-4.88,13-10.93a11.31,11.31,0,0,0,5.91,1.65c6,0,10.91-4.62,10.91-10.31S1262.27,255.07,1256.36,254.94Z"/>
        <path class="cls-144" d="M1264.93,259.2c.57,5.33-5,9.65-10.43,9.65a11,11,0,0,1-5.67-1.57c-.09,5.75-5.63,9.58-12.45,9.58a13.12,13.12,0,0,1-10.48-4.85,13.18,13.18,0,0,1-11,5.83c-6.88,0-12.5-4.06-13-10.47-2,1.21-4.75,2.94-8.12,3-6,.2-11.47-3.64-11.29-11.07a10,10,0,0,0-1.51,5.24c0,6.19,5.81,11.22,13,11.22a14.34,14.34,0,0,0,7.42-2,13.34,13.34,0,0,0,13.51,12.08,13.67,13.67,0,0,0,11.5-6.14,13.6,13.6,0,0,0,10.91,5.1c7.1,0,12.87-4.88,13-10.93a11.31,11.31,0,0,0,5.91,1.65c6,0,10.91-4.62,10.91-10.31A9.88,9.88,0,0,0,1264.93,259.2Z"/>
        <g>
          <path class="cls-152" d="M1442,294.42c0-.24,0-.48,0-.73a8.87,8.87,0,0,0-9-8.71,9.06,9.06,0,0,0-7.62,4.08,8.47,8.47,0,0,0-16.48-.46,7.54,7.54,0,0,0-5.58-2.4,7.06,7.06,0,0,0-7.31,6.77c0,.09,0,.18,0,.27a8.91,8.91,0,0,0,1,17.79,9.57,9.57,0,0,0,5.34-1.61,10,10,0,0,0,9.72,9.61,9.63,9.63,0,0,0,8.27-4.88,9.45,9.45,0,0,0,7.84,4.06,9.09,9.09,0,0,0,9.32-8.69,7.59,7.59,0,0,0,4.25,1.31,8.21,8.21,0,0,0,.17-16.4Z"/>
          <path class="cls-146" d="M1448.19,297.8c.41,4.24-3.58,7.68-7.5,7.68a7.32,7.32,0,0,1-4.08-1.25c-.07,4.57-4,7.62-9,7.62a9.11,9.11,0,0,1-7.54-3.85,9.27,9.27,0,0,1-7.94,4.63c-4.94,0-9-3.23-9.33-8.33-1.45,1-3.42,2.34-5.84,2.43-4.29.16-8.25-2.9-8.12-8.8a8.55,8.55,0,0,0-1.09,4.17,9.13,9.13,0,0,0,9.33,8.92,9.57,9.57,0,0,0,5.34-1.61,10,10,0,0,0,9.72,9.61,9.63,9.63,0,0,0,8.27-4.88,9.45,9.45,0,0,0,7.84,4.06,9.09,9.09,0,0,0,9.32-8.69,7.59,7.59,0,0,0,4.25,1.31,8,8,0,0,0,7.84-8.2A8.4,8.4,0,0,0,1448.19,297.8Z"/>
          <path class="cls-146" d="M1408.95,288.6a7.54,7.54,0,0,0-5.58-2.4s6.33.73,6.49,8.56C1409.86,294.76,1410.91,291.08,1408.95,288.6Z"/>
          <path class="cls-146" d="M1425.43,289.06a8.23,8.23,0,0,0-8.28-6.75s6.86.17,7.34,10.58C1424.5,292.88,1424.58,289.91,1425.43,289.06Z"/>
          <path class="cls-146" d="M1442,294.42c0-.24,0-.48,0-.73a8.87,8.87,0,0,0-9-8.71s7.68,1.14,6.3,10.21C1439.35,295.19,1439.25,294.31,1442,294.42Z"/>
        </g>
        <g>
          <path class="cls-153" d="M426,377.42c0-.24,0-.48,0-.73a8.87,8.87,0,0,0-9-8.71,9.06,9.06,0,0,0-7.62,4.08,8.47,8.47,0,0,0-16.48-.46,7.54,7.54,0,0,0-5.58-2.4,7.06,7.06,0,0,0-7.31,6.77c0,.09,0,.18,0,.27a8.91,8.91,0,0,0,1,17.79,9.57,9.57,0,0,0,5.34-1.61,10,10,0,0,0,9.72,9.61,9.63,9.63,0,0,0,8.27-4.88,9.45,9.45,0,0,0,7.84,4.06,9.09,9.09,0,0,0,9.32-8.69,7.59,7.59,0,0,0,4.25,1.31,8.21,8.21,0,0,0,.17-16.4Z"/>
          <path class="cls-146" d="M432.19,380.8c.41,4.24-3.58,7.68-7.5,7.68a7.32,7.32,0,0,1-4.08-1.25c-.07,4.57-4,7.62-9,7.62a9.11,9.11,0,0,1-7.54-3.85,9.27,9.27,0,0,1-7.94,4.63c-4.94,0-9-3.23-9.33-8.33-1.45,1-3.42,2.34-5.84,2.43-4.29.16-8.25-2.9-8.12-8.8a8.55,8.55,0,0,0-1.09,4.17,9.13,9.13,0,0,0,9.33,8.92,9.57,9.57,0,0,0,5.34-1.61,10,10,0,0,0,9.72,9.61,9.63,9.63,0,0,0,8.27-4.88,9.45,9.45,0,0,0,7.84,4.06,9.09,9.09,0,0,0,9.32-8.69,7.59,7.59,0,0,0,4.25,1.31,8,8,0,0,0,7.84-8.2A8.4,8.4,0,0,0,432.19,380.8Z"/>
          <path class="cls-146" d="M392.95,371.6a7.54,7.54,0,0,0-5.58-2.4s6.33.73,6.49,8.56C393.86,377.76,394.91,374.08,392.95,371.6Z"/>
          <path class="cls-146" d="M409.43,372.06a8.23,8.23,0,0,0-8.28-6.75s6.86.17,7.34,10.58C408.5,375.88,408.58,372.91,409.43,372.06Z"/>
          <path class="cls-146" d="M426,377.42c0-.24,0-.48,0-.73a8.87,8.87,0,0,0-9-8.71s7.68,1.14,6.3,10.21C423.35,378.19,423.25,377.31,426,377.42Z"/>
        </g>
        <g>
          <path class="cls-154" d="M760,238.42c0-.24,0-.48,0-.73a8.87,8.87,0,0,0-9-8.71,9.06,9.06,0,0,0-7.62,4.08,8.47,8.47,0,0,0-16.48-.46,7.54,7.54,0,0,0-5.58-2.4,7.06,7.06,0,0,0-7.31,6.77c0,.09,0,.18,0,.27a8.91,8.91,0,0,0,1,17.79,9.57,9.57,0,0,0,5.34-1.61,10,10,0,0,0,9.72,9.61,9.63,9.63,0,0,0,8.27-4.88,9.45,9.45,0,0,0,7.84,4.06,9.09,9.09,0,0,0,9.32-8.69,7.59,7.59,0,0,0,4.25,1.31,8.21,8.21,0,0,0,.17-16.4Z"/>
          <path class="cls-146" d="M766.19,241.8c.41,4.24-3.58,7.68-7.5,7.68a7.32,7.32,0,0,1-4.08-1.25c-.07,4.57-4,7.62-9,7.62a9.11,9.11,0,0,1-7.54-3.85,9.27,9.27,0,0,1-7.94,4.63c-4.94,0-9-3.23-9.33-8.33-1.45,1-3.42,2.34-5.84,2.43-4.29.16-8.25-2.9-8.12-8.8a8.55,8.55,0,0,0-1.09,4.17,9.13,9.13,0,0,0,9.33,8.92,9.57,9.57,0,0,0,5.34-1.61,10,10,0,0,0,9.72,9.61,9.63,9.63,0,0,0,8.27-4.88,9.45,9.45,0,0,0,7.84,4.06,9.09,9.09,0,0,0,9.32-8.69,7.59,7.59,0,0,0,4.25,1.31,8,8,0,0,0,7.84-8.2A8.4,8.4,0,0,0,766.19,241.8Z"/>
          <path class="cls-146" d="M726.95,232.6a7.54,7.54,0,0,0-5.58-2.4s6.33.73,6.49,8.56C727.86,238.76,728.91,235.08,726.95,232.6Z"/>
          <path class="cls-146" d="M743.43,233.06a8.23,8.23,0,0,0-8.28-6.75s6.86.17,7.34,10.58C742.5,236.88,742.58,233.91,743.43,233.06Z"/>
          <path class="cls-146" d="M760,238.42c0-.24,0-.48,0-.73a8.87,8.87,0,0,0-9-8.71s7.68,1.14,6.3,10.21C757.35,239.19,757.25,238.31,760,238.42Z"/>
        </g>
        <g>
          <path class="cls-155" d="M177,319.42c0-.24,0-.48,0-.73a8.87,8.87,0,0,0-9-8.71,9.06,9.06,0,0,0-7.62,4.08,8.47,8.47,0,0,0-16.48-.46,7.54,7.54,0,0,0-5.58-2.4,7.06,7.06,0,0,0-7.31,6.77c0,.09,0,.18,0,.27a8.91,8.91,0,0,0,1,17.79,9.57,9.57,0,0,0,5.34-1.61,10,10,0,0,0,9.72,9.61,9.63,9.63,0,0,0,8.27-4.88,9.45,9.45,0,0,0,7.84,4.06,9.09,9.09,0,0,0,9.32-8.69,7.59,7.59,0,0,0,4.25,1.31,8.21,8.21,0,0,0,.17-16.4Z"/>
          <path class="cls-146" d="M183.19,322.8c.41,4.24-3.58,7.68-7.5,7.68a7.32,7.32,0,0,1-4.08-1.25c-.07,4.57-4,7.62-9,7.62a9.11,9.11,0,0,1-7.54-3.85,9.27,9.27,0,0,1-7.94,4.63c-4.94,0-9-3.23-9.33-8.33-1.45,1-3.42,2.34-5.84,2.43-4.29.16-8.25-2.9-8.12-8.8a8.55,8.55,0,0,0-1.09,4.17,9.13,9.13,0,0,0,9.33,8.92,9.57,9.57,0,0,0,5.34-1.61,10,10,0,0,0,9.72,9.61,9.63,9.63,0,0,0,8.27-4.88,9.45,9.45,0,0,0,7.84,4.06,9.09,9.09,0,0,0,9.32-8.69,7.59,7.59,0,0,0,4.25,1.31,8,8,0,0,0,7.84-8.2A8.4,8.4,0,0,0,183.19,322.8Z"/>
          <path class="cls-146" d="M143.95,313.6a7.54,7.54,0,0,0-5.58-2.4s6.33.73,6.49,8.56C144.86,319.76,145.91,316.08,143.95,313.6Z"/>
          <path class="cls-146" d="M160.43,314.06a8.23,8.23,0,0,0-8.28-6.75s6.86.17,7.34,10.58C159.5,317.88,159.58,314.91,160.43,314.06Z"/>
          <path class="cls-146" d="M177,319.42c0-.24,0-.48,0-.73a8.87,8.87,0,0,0-9-8.71s7.68,1.14,6.3,10.21C174.35,320.19,174.25,319.31,177,319.42Z"/>
        </g>
        <path class="cls-156" d="M373.36,244.94c0-.3.05-.61.05-.91,0-6.05-5.61-11-12.53-11a13,13,0,0,0-10.6,5.14c-.82-4.8-5.65-8.49-11.51-8.49-5.62,0-10.31,3.4-11.41,7.91a11,11,0,0,0-7.76-3c-5.62,0-10.17,3.81-10.17,8.51,0,.11,0,.22,0,.33-6.48.63-11.52,5.37-11.52,11.14,0,6.19,5.81,11.22,13,11.22a14.34,14.34,0,0,0,7.42-2,13.34,13.34,0,0,0,13.51,12.08,13.67,13.67,0,0,0,11.5-6.14,13.6,13.6,0,0,0,10.91,5.1c7.1,0,12.87-4.88,13-10.93a11.31,11.31,0,0,0,5.91,1.65c6,0,10.91-4.62,10.91-10.31S379.27,245.07,373.36,244.94Z"/>
        <path class="cls-157" d="M1018.36,289.94c0-.3.05-.61.05-.91,0-6.05-5.61-11-12.53-11a13,13,0,0,0-10.6,5.14c-.82-4.8-5.65-8.49-11.51-8.49-5.62,0-10.31,3.4-11.41,7.91a11,11,0,0,0-7.76-3c-5.62,0-10.17,3.81-10.17,8.51,0,.11,0,.22,0,.33-6.48.63-11.52,5.37-11.52,11.14,0,6.19,5.81,11.22,13,11.22a14.34,14.34,0,0,0,7.42-2,13.34,13.34,0,0,0,13.51,12.08,13.67,13.67,0,0,0,11.5-6.14,13.6,13.6,0,0,0,10.91,5.1c7.1,0,12.87-4.88,13-10.93a11.31,11.31,0,0,0,5.91,1.65c6,0,10.91-4.62,10.91-10.31S1024.27,290.07,1018.36,289.94Z"/>
        <path class="cls-158" d="M435.36,375.94c0-.3.05-.61.05-.91,0-6.05-5.61-11-12.53-11a13,13,0,0,0-10.6,5.14c-.82-4.8-5.65-8.49-11.51-8.49-5.62,0-10.31,3.4-11.41,7.91a11,11,0,0,0-7.76-3c-5.62,0-10.17,3.81-10.17,8.51,0,.11,0,.22,0,.33-6.48.63-11.52,5.37-11.52,11.14,0,6.19,5.81,11.22,13,11.22a14.34,14.34,0,0,0,7.42-2,13.34,13.34,0,0,0,13.51,12.08,13.67,13.67,0,0,0,11.5-6.14,13.6,13.6,0,0,0,10.91,5.1c7.1,0,12.87-4.88,13-10.93a11.31,11.31,0,0,0,5.91,1.65c6,0,10.91-4.62,10.91-10.31S441.27,376.07,435.36,375.94Z"/>
      </g>
      <path class="cls-159" d="M2625.31,603H1282.93c-11.2,0-20.27,39.36-20.27,88s9.08,88,20.27,88H2625.31c11.2,0,20.28-39.4,20.28-88S2636.51,603,2625.31,603Z"/>
      <path class="cls-7" d="M2246.78,598.23V532.05c20.83,18.76,35.21,41.49,37.8,66.18Z"/>
      <polygon class="cls-160" points="2284.51 612.65 2240.4 612.65 2240.4 603.92 2289.95 603.92 2284.51 612.65"/>
      <polygon class="cls-161" points="1478.49 613.73 1434.09 613.73 1434.09 604.81 1483.98 604.81 1478.49 613.73"/>
      <path class="cls-7" d="M1475.19,602.35V539.89c-19.77,17.72-33.43,39.16-35.88,62.46Z"/>
      <polygon class="cls-160" points="2211.59 612.28 2167.48 612.28 2167.48 603.56 2217.03 603.56 2211.59 612.28"/>
      <path class="cls-7" d="M2175.62,598.23V532.05c20.83,18.76,35.22,41.5,37.8,66.18Z"/>
      <polygon class="cls-162" points="1866.36 616.66 1957.79 616.66 1957.79 604.12 1855.07 604.12 1866.36 616.66"/>
      <path class="cls-163" d="M1916.18,598.2v-83c26.28,23.54,44.42,52,47.69,83Z"/>
      <polygon class="cls-7" points="1862.93 600.42 1906.47 591.5 1906.47 515.17 1862.93 600.42"/>
    </g>
  </g>
</svg>
