<svg version="1.1" id="Layer_1" xmlns="http://www.w3.org/2000/svg" xmlns:xlink="http://www.w3.org/1999/xlink" viewBox="0 0 17 52">
<g>
	<path fill-rule="evenodd" clip-rule="evenodd" fill="#E3EEF0" d="M2.769,51.392C2.068,38.796-4.086,28.247,5.625,21.564
		L5.454,5.762c2.029,0,4.061,0,6.096,0l-0.176,15.803c9.711,6.683,3.56,17.231,2.861,29.827c-0.01,0.164-0.042,0.318-0.087,0.467
		H2.855C2.809,51.71,2.777,51.556,2.769,51.392L2.769,51.392z"/>
	<path fill-rule="evenodd" clip-rule="evenodd" fill="#D7E4E5" d="M2.769,51.392C2.068,38.796-4.086,28.247,5.625,21.564
		L5.454,5.762h1.191l0.15,16.395c-9.37,7.019-3.971,16.712-2.951,29.702h-0.99C2.806,51.71,2.777,51.556,2.769,51.392L2.769,51.392z
		"/>
	<path fill-rule="evenodd" clip-rule="evenodd" fill="#CA6E33" d="M5.533,12.86c1.979,0.892,3.959,0.892,5.94,0l-0.099,8.704
		c9.711,6.683,3.56,17.231,2.861,29.827c-0.01,0.164-0.042,0.318-0.087,0.467H2.855c-0.046-0.148-0.078-0.303-0.086-0.467
		C2.068,38.796-4.086,28.247,5.625,21.564C5.594,18.661,5.562,15.762,5.533,12.86L5.533,12.86z"/>
	<path fill-rule="evenodd" clip-rule="evenodd" fill="#B8653B" d="M14.173,51.778c-0.009,0.027-0.02,0.053-0.029,0.08h-0.151
		C14.051,51.831,14.113,51.806,14.173,51.778L14.173,51.778z M2.855,51.858L2.855,51.858c-0.048-0.148-0.078-0.303-0.086-0.467
		C2.122,39.786-3.152,29.919,3.621,23.209c-4.226,6.657,0.235,15.985,0.821,26.511c0.053,0.957,0.812,1.668,1.915,2.139H2.855
		L2.855,51.858z M5.616,20.834L5.616,20.834v-0.086C5.625,20.778,5.627,20.807,5.616,20.834L5.616,20.834z"/>
	<path fill-rule="evenodd" clip-rule="evenodd" fill="#E4B493" d="M12.135,24.276c1.55,1.056,2.387,4.078,2.848,7.234h-1.943
		C13.25,29.024,12.673,26.053,12.135,24.276L12.135,24.276z"/>
	<path fill-rule="evenodd" clip-rule="evenodd" fill="#B8653B" d="M2.769,51.394C2.068,38.798-4.086,28.247,5.625,21.564l-0.005-0.6
		l-0.011-0.893L5.606,19.77l-0.013-1.191l-0.002-0.157l-0.048-4.355l-0.001-0.131l-0.01-1.074c0.392,0.176,0.786,0.32,1.182,0.426
		l0.081,8.87c-9.37,7.021-3.971,16.712-2.951,29.702h-0.99c-0.014-0.039-0.025-0.08-0.035-0.121l-0.002-0.008
		c-0.013-0.051-0.022-0.107-0.032-0.164l0,0C2.777,51.509,2.772,51.45,2.769,51.394L2.769,51.394z"/>
	<path fill-rule="evenodd" clip-rule="evenodd" fill="#A55C45" d="M5.326,6.44c0,0.582,6.357,0.578,6.368,0
		c0.036-2.044,0-4.094,0-6.144c-2.124,0-4.247,0-6.368,0C5.326,2.347,5.323,4.396,5.326,6.44L5.326,6.44z"/>
	<path fill-rule="evenodd" clip-rule="evenodd" fill="#D1A795" d="M8.509,0.142c1.758,0,3.185,0.069,3.185,0.157
		c0,0.086-1.427,0.156-3.185,0.156s-3.183-0.07-3.183-0.156C5.326,0.211,6.751,0.142,8.509,0.142L8.509,0.142z"/>
	<path fill-rule="evenodd" clip-rule="evenodd" fill="#FFCB00" d="M5.325,5.613c1.26,0.294,5.135,0.293,6.38-0.005l0.002-0.545
		c-1.239,0.3-5.122,0.302-6.382,0.007V5.613L5.325,5.613z"/>
</g>
</svg>
