<svg version="1.1" id="Layer_1" xmlns="http://www.w3.org/2000/svg" xmlns:xlink="http://www.w3.org/1999/xlink" viewBox="0 0 39.257 55.135">
<g>
  <polygon fill-rule="evenodd" clip-rule="evenodd" fill="#F1918C" points="0,0 39.257,0 39.257,55.135 0,55.135 0,0   "/>
  <path fill-rule="evenodd" clip-rule="evenodd" fill="#80211F" d="M11.24,5.28c2.487-1.192,5.665-1.623,8.388-1.623
    c2.722,0,5.9,0.431,8.387,1.623h11.242v6.994H28.764c-2.56,1.508-6.229,2.021-9.136,2.021c-2.908,0-6.576-0.514-9.137-2.021H0V5.28
    H11.24L11.24,5.28z"/>
  <path fill-rule="evenodd" clip-rule="evenodd" fill="#E20613" d="M0,5.76h11.353c2.028-0.996,4.984-1.623,8.275-1.623
    c3.29,0,6.248,0.627,8.274,1.623h11.354v6.034H28.631c-2.008,1.225-5.293,2.02-9.003,2.02s-6.992-0.795-9.004-2.02H0V5.76L0,5.76z"
    />
  <polygon fill-rule="evenodd" clip-rule="evenodd" fill="#E35A6B" points="5.797,16.051 33.457,16.051 33.457,20.225 5.797,20.225 
    5.797,16.051  "/>
  <polygon fill-rule="evenodd" clip-rule="evenodd" fill="#E35A6B" points="5.797,21.28 33.457,21.28 33.457,25.455 5.797,25.455 
    5.797,21.28   "/>
  <path fill-rule="evenodd" clip-rule="evenodd" fill="#F1918C" d="M19.628,7.448c1.93,0,3.493,0.685,3.493,1.527
    s-1.563,1.526-3.493,1.526s-3.492-0.684-3.492-1.526S17.698,7.448,19.628,7.448L19.628,7.448z"/>
  <path fill-rule="evenodd" clip-rule="evenodd" fill="#C11B21" d="M26.207,9.696c-0.593,1.79-3.312,3.143-6.579,3.143
    c-3.264,0-5.987-1.353-6.58-3.143c1.418,1.044,3.834,1.731,6.58,1.731C22.372,11.428,24.793,10.74,26.207,9.696L26.207,9.696z"/>
  <path fill-rule="evenodd" clip-rule="evenodd" fill="#C11B21" d="M26.207,8.255c-0.593-1.789-3.312-3.144-6.579-3.144
    c-3.264,0-5.987,1.354-6.58,3.144c1.418-1.045,3.834-1.732,6.58-1.732C22.372,6.522,24.793,7.21,26.207,8.255L26.207,8.255z"/>
  <path fill-rule="evenodd" clip-rule="evenodd" fill="#F7BDA7" d="M0,6.69h9.863C9.026,7.37,8.55,8.149,8.55,8.976
    c0,0.671,0.314,1.309,0.877,1.889H0V6.69L0,6.69z M29.394,6.69L29.394,6.69h9.863v4.174h-9.428c0.564-0.58,0.875-1.218,0.875-1.889
    C30.704,8.149,30.229,7.37,29.394,6.69L29.394,6.69z"/>
  <polygon fill-rule="evenodd" clip-rule="evenodd" fill="#E20613" points="0,51.564 39.257,51.564 39.257,53.37 0,53.37 0,51.564  
    "/>
  <path fill-rule="evenodd" clip-rule="evenodd" fill="#009540" d="M22.12,41.577l0.116-0.07l0.006-0.007l0.01-0.005l0.007-0.005
    l0.01-0.005l0.008-0.006l0.008-0.005l0.093-0.053l0.01-0.007l0.008-0.004l0.008-0.006l0.01-0.004l0.008-0.005l0.1-0.054
    l0.006-0.004c-0.316,0.004-0.616-0.022-0.882-0.079c0.053-0.458,0.148-0.84,0.285-1.154c-0.217,0.127-0.435,0.229-0.639,0.302
    c-0.194-0.413-0.312-0.785-0.367-1.121c-0.107,0.154-0.23,0.315-0.371,0.477c-1.301-0.919-2.621-3.423-1.238-5.296
    c0.426,0.63,1.877,1.529,2.122,2.864c0.734-0.861,2.003-1.261,2.496-1.678c0.428,1.141,0.096,2.249-0.536,3.117
    c1.098-0.34,2.411-0.021,3.064-0.114c-0.23,1.196-1.137,1.953-2.174,2.349c0.537,0.103,0.985,0.402,1.363,0.766l0.047,0.046
    l0.094,0.092l0.044,0.048h0.003l0.041,0.048l0.046,0.047l0.038,0.044l0.005,0.006l0.043,0.047l0.082,0.099l0.042,0.05l0.008,0.009
    l0.031,0.038l0.04,0.05l0.039,0.048l0.005,0.004l0.033,0.046l0.021,0.024l0.019,0.023l0.038,0.045v0.002l0.038,0.048l0.01,0.02
    l0.025,0.028l0.031,0.038l0.004,0.008l0.035,0.046l0.014,0.014l0.023,0.033l0.025,0.031l0.008,0.014l0.035,0.044l0.007,0.008
    l0.027,0.036l0.02,0.025l0.015,0.017l0.033,0.042v0.002l0.031,0.039l0.017,0.019l0.046,0.057v0.003l0.034,0.037l0.011,0.014
    l0.018,0.023l0.026,0.028l0.006,0.007l0.03,0.033l0.008,0.009l0.023,0.023l0.022,0.022l0.008,0.01l0.027,0.029l0.005,0.003
    l0.028,0.024l0.013,0.018l0.015,0.01l0.03,0.025c-2.013,1.174-4.361-0.407-5.135-1.8C22.027,41.639,22.075,41.607,22.12,41.577
    L22.12,41.577z"/>
  <path fill-rule="evenodd" clip-rule="evenodd" fill="#E20613" d="M22.395,39.731c2.219,2.733,3.063,4.639,1.968,6.316
    c-2.246,3.436-9.788,3.587-11.531,1.441c-1.739-2.145-0.079-9.331,3.666-10.918C18.394,35.769,20.124,36.932,22.395,39.731
    L22.395,39.731z"/>
  <path fill-rule="evenodd" clip-rule="evenodd" fill="#D4121D" d="M22.395,39.731c2.219,2.733,3.063,4.639,1.968,6.316
    c-2.246,3.436-9.788,3.587-11.531,1.441c-0.302-0.373-0.502-0.898-0.604-1.518c0.118,0.314,0.268,0.592,0.45,0.814
    c1.738,2.146,7.965,1.268,10.004-1.999c1.867-2.996-2.662-7.813-5.393-8.439C18.89,36.128,20.442,37.326,22.395,39.731
    L22.395,39.731z"/>
  <path fill-rule="evenodd" clip-rule="evenodd" fill="#F7B895" d="M18.61,37.111c0.107,0.131,0.014,0.388-0.213,0.573
    c-0.229,0.184-0.498,0.225-0.606,0.091c-0.107-0.132-0.013-0.39,0.216-0.572C18.233,37.021,18.505,36.978,18.61,37.111
    L18.61,37.111z"/>
  <path fill-rule="evenodd" clip-rule="evenodd" fill="#F7B895" d="M20.385,39.296c0.107,0.133,0.008,0.39-0.214,0.572
    c-0.228,0.186-0.498,0.226-0.607,0.094c-0.107-0.134-0.012-0.39,0.216-0.573C20.006,39.206,20.277,39.164,20.385,39.296
    L20.385,39.296z"/>
  <path fill-rule="evenodd" clip-rule="evenodd" fill="#F7B895" d="M21.954,41.231c0.109,0.133,0.015,0.391-0.217,0.574
    c-0.224,0.183-0.494,0.225-0.602,0.093c-0.109-0.134-0.013-0.39,0.215-0.573C21.578,41.14,21.849,41.1,21.954,41.231L21.954,41.231
    z"/>
  <path fill-rule="evenodd" clip-rule="evenodd" fill="#F7B895" d="M23.694,43.377c0.109,0.131,0.012,0.389-0.216,0.572
    c-0.225,0.184-0.497,0.225-0.604,0.092c-0.108-0.133-0.013-0.388,0.216-0.573C23.318,43.285,23.587,43.243,23.694,43.377
    L23.694,43.377z"/>
  <path fill-rule="evenodd" clip-rule="evenodd" fill="#F7B895" d="M22.252,46.246c0.107,0.132,0.01,0.387-0.216,0.572
    c-0.228,0.184-0.5,0.226-0.605,0.093c-0.109-0.132-0.012-0.391,0.215-0.573C21.871,46.155,22.144,46.112,22.252,46.246
    L22.252,46.246z"/>
  <path fill-rule="evenodd" clip-rule="evenodd" fill="#F7B895" d="M19.17,47.096c0.106,0.132,0.009,0.39-0.218,0.573
    s-0.496,0.226-0.603,0.092c-0.11-0.133-0.013-0.391,0.216-0.573C18.79,47.003,19.061,46.963,19.17,47.096L19.17,47.096z"/>
  <path fill-rule="evenodd" clip-rule="evenodd" fill="#F7B895" d="M20.68,44.31c0.107,0.132,0.013,0.39-0.217,0.574
    c-0.224,0.184-0.494,0.224-0.604,0.091c-0.108-0.133-0.011-0.391,0.215-0.573C20.302,44.218,20.574,44.176,20.68,44.31L20.68,44.31
    z"/>
  <path fill-rule="evenodd" clip-rule="evenodd" fill="#F7B895" d="M17.599,45.159c0.109,0.132,0.012,0.391-0.218,0.573
    c-0.224,0.184-0.496,0.226-0.604,0.092c-0.107-0.132-0.011-0.388,0.215-0.571C17.221,45.067,17.491,45.028,17.599,45.159
    L17.599,45.159z"/>
  <path fill-rule="evenodd" clip-rule="evenodd" fill="#F7B895" d="M16.598,47.621c0.107,0.132,0.015,0.387-0.216,0.573
    c-0.225,0.183-0.494,0.225-0.602,0.091c-0.109-0.132-0.015-0.39,0.214-0.573C16.222,47.528,16.492,47.487,16.598,47.621
    L16.598,47.621z"/>
  <path fill-rule="evenodd" clip-rule="evenodd" fill="#F7B895" d="M15.971,38.501c0.105,0.134,0.009,0.391-0.217,0.573
    c-0.228,0.187-0.499,0.226-0.606,0.094c-0.105-0.134-0.01-0.39,0.216-0.573S15.86,38.37,15.971,38.501L15.971,38.501z"/>
  <path fill-rule="evenodd" clip-rule="evenodd" fill="#F7B895" d="M17.54,40.437c0.108,0.133,0.01,0.39-0.217,0.574
    c-0.226,0.183-0.496,0.225-0.604,0.093c-0.107-0.134-0.012-0.389,0.215-0.572C17.16,40.346,17.433,40.306,17.54,40.437
    L17.54,40.437z"/>
  <path fill-rule="evenodd" clip-rule="evenodd" fill="#F7B895" d="M19.11,42.374c0.105,0.132,0.01,0.389-0.216,0.572
    c-0.228,0.184-0.497,0.226-0.605,0.092c-0.107-0.132-0.012-0.388,0.216-0.573C18.729,42.281,19,42.24,19.11,42.374L19.11,42.374z"
    />
  <path fill-rule="evenodd" clip-rule="evenodd" fill="#F7B895" d="M14.457,41.288c0.107,0.134,0.012,0.389-0.216,0.574
    c-0.225,0.184-0.496,0.223-0.605,0.092c-0.107-0.134-0.008-0.391,0.217-0.573C14.078,41.196,14.351,41.155,14.457,41.288
    L14.457,41.288z"/>
  <path fill-rule="evenodd" clip-rule="evenodd" fill="#F7B895" d="M16.028,43.224c0.107,0.133,0.01,0.39-0.215,0.572
    c-0.228,0.183-0.5,0.226-0.607,0.094c-0.105-0.133-0.009-0.39,0.217-0.572C15.647,43.134,15.921,43.092,16.028,43.224
    L16.028,43.224z"/>
  <path fill-rule="evenodd" clip-rule="evenodd" fill="#F7B895" d="M14.394,46.355c0.108,0.135,0.01,0.391-0.215,0.574
    c-0.228,0.184-0.5,0.226-0.605,0.093c-0.109-0.133-0.013-0.39,0.213-0.572C14.016,46.266,14.286,46.225,14.394,46.355
    L14.394,46.355z"/>
  <path fill-rule="evenodd" clip-rule="evenodd" fill="#F7B895" d="M13.46,43.749c0.104,0.131,0.01,0.389-0.218,0.572
    c-0.225,0.183-0.497,0.226-0.604,0.092c-0.108-0.132-0.011-0.388,0.215-0.572C13.079,43.657,13.353,43.614,13.46,43.749
    L13.46,43.749z"/>
</g>
</svg>
