<svg version="1.1" id="Layer_1" xmlns="http://www.w3.org/2000/svg" xmlns:xlink="http://www.w3.org/1999/xlink" viewBox="0 0 600 800">
<polygon fill="#C7DEF2" points="560.203,144.116 560.203,94.169 552.834,94.169 552.834,84.81 548.698,84.81 548.698,94.169 
  531.785,94.169 531.785,75.141 529.485,75.141 529.485,94.169 527.448,94.169 527.448,75.141 525.148,75.141 525.148,94.169 
  515.369,94.169 515.369,131.759 461.693,131.759 461.693,101.981 437.254,90.99 429.1,90.99 429.1,69.414 397.528,58.418 
  376.146,72.162 376.146,86.866 365.957,86.866 356.79,97.862 356.79,115.592 320.889,115.592 320.889,89.47 317.925,89.47 
  317.925,115.592 311.858,115.592 311.858,77.518 308.893,77.518 308.893,115.592 299.189,115.592 299.189,146.926 288.316,146.926 
  288.316,130.325 288.314,130.325 262.957,108.285 237.598,130.325 237.598,146.926 226.722,146.926 226.722,53.697 222.943,53.697 
  222.943,40.456 202.191,34.991 181.44,40.456 181.44,53.697 177.659,53.697 177.659,92.171 170.062,92.171 170.062,81.259 
  161.066,81.259 161.066,70.442 117.894,70.442 117.894,81.259 108.899,81.259 108.899,92.171 101.302,92.171 101.302,155.233 
  57.638,155.233 57.638,36.067 28.856,10 0,36.067 0,800 57.638,800 101.302,800 177.659,800 226.722,800 233.866,800 248.239,800 
  255.77,800 270.144,800 277.672,800 292.048,800 299.189,800 356.79,800 358.785,800 461.676,800 461.693,800 515.369,800 
  559.199,800 560.203,800 600,800 600,170.896 "/>
</svg>
