<?xml version="1.0" encoding="utf-8"?>
<!-- Generator: Adobe Illustrator 21.1.0, SVG Export Plug-In . SVG Version: 6.00 Build 0)  -->
<svg version="1.1" id="Layer_1" xmlns="http://www.w3.org/2000/svg" xmlns:xlink="http://www.w3.org/1999/xlink" x="0px" y="0px"
	 viewBox="0 0 2000 800" style="enable-background:new 0 0 2000 800;" xml:space="preserve">
<style type="text/css">
	.st0{fill:#80B4C9;}
	.st1{fill:#79A7BD;}
	.st2{fill:#FFFFFF;}
	.st3{fill:#98BC2A;}
	.st4{fill:#B8E332;}
	.st5{fill:#F2F2F2;}
	.st6{fill:url(#SVGID_1_);}
	.st7{fill:#7B7B7B;}
	.st8{fill:#299B4A;}
	.st9{fill:#5F4325;}
	.st10{fill:#1E4B1F;}
	.st11{fill:#2BB34B;}
	.st12{fill:#213228;}
	.st13{fill:#E35D53;}
	.st14{fill:#CC443D;}
	.st15{fill:#00A990;}
	.st16{fill:#D4CCC6;}
	.st17{fill:#0BB39F;stroke:#213228;stroke-width:10;stroke-miterlimit:10;}
	.st18{fill:#C1BAB5;}
</style>
<g>
	<polygon class="st0" points="209.2,443 402,87.8 606.1,443 	"/>
	<polygon class="st1" points="606.1,443 402,87.8 402,443 	"/>
	<polygon class="st2" points="343.4,195.8 368.9,184.8 363.7,226.6 390.1,194.5 402,251.5 423.8,183.6 473.9,213 458.5,186.2 
		402,87.8 	"/>
</g>
<g>
	<polygon class="st0" points="471.4,443 653.7,169.2 846.8,443 	"/>
	<polygon class="st1" points="846.8,443 653.7,169.2 653.7,443 	"/>
	<polygon class="st2" points="598.3,252.5 622.5,244 617.5,276.2 642.5,251.4 653.7,295.4 674.4,243 721.8,265.7 707.2,245 
		653.7,169.2 	"/>
</g>
<g>
	<polygon class="st0" points="2.5,446.6 184.9,172.8 377.9,446.6 	"/>
	<polygon class="st1" points="377.9,446.6 184.9,172.8 184.9,446.6 	"/>
	<polygon class="st2" points="129.4,256.1 153.6,247.6 148.6,279.8 173.6,255.1 184.9,299 205.5,246.7 252.9,269.3 238.3,248.7 
		184.9,172.8 	"/>
</g>
<path class="st3" d="M1029.3,802.1V381.5c-37.8-22.9-81.5-27.1-120.1-27.1c-23.4,0-77,8.7-112.4,21.8c-20.7-0.4-39.2,0.4-48.8,1.5
	c-39.6,4.6-83.7,15.1-122.3,26.5c-0.1,0-3.9,0.5-6.6,0.2c0.7,0.1-0.8-0.4-2.9-1.1c-55-16-117.6-28.5-173.3-34.9
	c-14-1.6-40.9-2.8-71.1-2.2c-51.6-19-129.7-31.6-163.8-31.7c-67-0.1-122.9,0.3-205.3,36.1v431.4H1029.3z"/>
<g>
	<g>
		<path class="st4" d="M730.3,802.1V487.9c-1.1-0.2-2.2-0.4-3.2-0.6c-1.9-0.3-3.9-0.7-5.8-1c-0.9-0.1-1.5-0.2-1.8-0.3
			c-0.2,0-0.3,0-0.5-0.1c-16.1-1.8-32.3-2.3-48.4-4.1c-9.6-1.1-19.3-2.2-28.7-4.6c-9.2-2.4-18.1-6.1-26.8-9.8
			c-9.1-3.8-12.5-5.5-20.4-8.2c-8.3-2.7-16.6-4.2-25.2-5.7c-1.3-0.2-2.5-0.6-3.7-1.1c-3.1-0.2-6.5-0.4-2.6-0.3
			c-11.2-0.4-25.6-10.1-25.6-21c0-10.6,14.5-17.9,25.6-17.9c-5.9,0,6.3-0.4,7.7-0.4c1.3,0,4.2-0.2,5.5-0.3c-1.2-0.1-1.4-1.1,3-1.6
			c0.8-0.1,5.1-0.8,5.4-0.9c9.4-1.5,20.6-2.3,29.7-5c2.4-0.7,1.9-0.5,4.6-0.8l-4.5-1.4c-55-16-116.1-28.1-171.9-34.5
			c-14-1.6-40.9-2.8-71.1-2.2c-51.6-19-129.7-31.6-163.8-31.7c-67-0.1-117.4,8-205.3,44.3v423.2H730.3z"/>
	</g>
</g>
<g>
	<g>
		<g>
			<path class="st5" d="M591,465c70.5,14.4,137.5,48.7,17.4,117.3C396.6,703.4,211,768.6,93,802.1h741.1
				c33.9-38.2,66.3-78.4,83.4-104.7c79.8-122.6-11.9-192.5-161.7-227.5c-149.7-35-197.5-35-210.5-44.3
				c-11.4-8.1,61.9-18.9,80.8-21.5h-7.5c-19.2,1.2-60.6,4.5-115.6,13.3C433.4,428.5,520.4,450.6,591,465z"/>
			<linearGradient id="SVGID_1_" gradientUnits="userSpaceOnUse" x1="520.0323" y1="212.4953" x2="520.0323" y2="852.7872">
				<stop  offset="0" style="stop-color:#000000"/>
				<stop  offset="0.2198" style="stop-color:#262626"/>
				<stop  offset="0.5604" style="stop-color:#000000"/>
				<stop  offset="0.7912" style="stop-color:#262626"/>
				<stop  offset="1" style="stop-color:#000000"/>
			</linearGradient>
			<path class="st6" d="M591,465c70.5,14.4,137.5,48.7,17.4,117.3C396.6,703.4,211,768.6,93,802.1h741.1
				c33.9-38.2,66.3-78.4,83.4-104.7c79.8-122.6-11.9-192.5-161.7-227.5c-149.7-35-197.5-35-210.5-44.3
				c-11.4-8.1,61.9-18.9,80.8-21.5h-7.5c-19.2,1.2-60.6,4.5-115.6,13.3C433.4,428.5,520.4,450.6,591,465z"/>
		</g>
		<path class="st7" d="M591,465c70.5,14.4,137.5,48.7,17.4,117.3C396.6,703.4,211,768.6,93,802.1h741.1
			c33.9-38.2,66.3-78.4,83.4-104.7c79.8-122.6-11.9-192.5-161.7-227.5c-149.7-35-197.5-35-210.5-44.3c-11.4-8.1,61.9-18.9,80.8-21.5
			h-7.5c-19.2,1.2-60.6,4.5-115.6,13.3C433.4,428.5,520.4,450.6,591,465z"/>
		<g>
			<g>
				<path class="st2" d="M521.9,435.4c7.6,2.5,15.7,4.3,24,6.1c33.5,6.9,71.7,14.7,113.7,24.1c20.9,5,42.7,10.7,64.7,18.7
					c21.7,8.1,44.8,17.9,61.9,35.6c17.6,17.2,21.8,46.4,6.6,68c-13.7,22-34,40.6-55.2,58.6c-70.3,56.7-155,107.2-246,155.7h19.7
					c85.9-47.9,159.8-97.6,229.4-153.8c21.3-18,39.9-37.2,53.8-59.6c15.6-22,11.3-52.5-6.9-70c-17.5-18.1-40.9-27.8-62.7-36
					c-22.1-8-44-13.7-64.9-18.7c-42.1-9.3-80.3-17-113.8-23.8c-8.4-1.8-16.4-3.6-23.9-6c-3.6-1.3-7.6-2.5-10-4.9
					c-2.6-2.9,2.6-5.2,5.4-6.5c13.5-5.3,26.9-7.4,38.7-9.6c34.4-5.8,57.8-8.3,68.2-9.3h-2.9c-11.5,1-33.9,3.3-65.5,8.5
					c-11.8,2.2-25.2,4.2-38.9,9.5c-2.5,1.2-9,3.6-5.8,8C514.3,433,518.2,434.1,521.9,435.4z"/>
			</g>
		</g>
	</g>
</g>
<g>
	<polygon class="st8" points="29.4,473.7 109.1,473.7 66.5,376.6 	"/>
	<rect x="59.9" y="473.7" class="st9" width="13.2" height="9.9"/>
	<polygon class="st10" points="66.5,473.7 109.1,473.7 66.5,376.6 	"/>
</g>
<g>
	<polygon class="st8" points="218.2,496.9 268.9,496.9 241.8,435.1 	"/>
	<rect x="237.6" y="496.9" class="st9" width="8.4" height="6.3"/>
	<polygon class="st10" points="241.8,496.9 268.9,496.9 241.8,435.1 	"/>
</g>
<g>
	<polygon class="st8" points="409.7,553.3 501.4,553.3 452.3,441.5 	"/>
	<rect x="444.7" y="553.3" class="st9" width="15.2" height="11.4"/>
	<polygon class="st10" points="452.3,553.3 501.4,553.3 452.3,441.6 	"/>
</g>
<g>
	<ellipse class="st11" cx="353.6" cy="441.4" rx="48.4" ry="45"/>
	<polygon class="st9" points="350.3,525.7 350.7,477.3 327.4,451.7 327.4,451.7 350.3,469.3 353.8,449.3 358.2,470.9 383.8,453.7 
		358.2,477.3 357.9,525.7 	"/>
</g>
<g>
	<ellipse class="st11" cx="109.5" cy="560.1" rx="47.6" ry="50"/>
	<polygon class="st9" points="106.3,653.8 106.6,600 83.7,571.6 83.7,571.6 106.3,591.2 109.7,568.9 114,592.9 139.1,573.8 114,600 
		113.7,653.8 	"/>
</g>
<g>
	<polygon class="st8" points="163.1,431.3 194,431.3 177.5,393.7 	"/>
	<rect x="174.9" y="431.3" class="st9" width="5.1" height="3.8"/>
	<polygon class="st10" points="177.5,431.3 194,431.3 177.5,393.7 	"/>
</g>
<g>
	<polygon class="st8" points="159.5,363.4 190.4,363.4 173.9,325.7 	"/>
	<rect x="171.3" y="363.4" class="st9" width="5.1" height="3.8"/>
	<polygon class="st10" points="173.9,363.4 190.4,363.4 173.9,325.7 	"/>
</g>
<g>
	<polygon class="st8" points="273,439.3 303.9,439.3 287.4,401.7 	"/>
	<rect x="284.8" y="439.3" class="st9" width="5.1" height="3.8"/>
	<polygon class="st10" points="287.4,439.3 303.9,439.3 287.4,401.7 	"/>
</g>
<g>
	<ellipse class="st11" cx="303.9" cy="375.8" rx="21.2" ry="20.1"/>
	<polygon class="st9" points="302.5,413.5 302.6,391.8 292.4,380.4 292.4,380.4 302.5,388.3 304,379.3 305.9,389 317.1,381.3 
		305.9,391.8 305.8,413.5 	"/>
</g>
<g>
	<ellipse class="st11" cx="118.7" cy="382.5" rx="29.5" ry="26.9"/>
	<polygon class="st9" points="116.7,433 116.9,404 102.7,388.7 102.7,388.7 116.7,399.3 118.8,387.3 121.5,400.2 137.1,389.9 
		121.5,404 121.3,433 	"/>
</g>
<g>
	<polygon class="st8" points="963.9,479.9 1014.6,479.9 987.4,418.1 	"/>
	<rect x="983.2" y="479.9" class="st9" width="8.4" height="6.3"/>
	<polygon class="st10" points="987.4,479.9 1014.6,479.9 987.4,418.1 	"/>
</g>
<g>
	<polygon class="st8" points="908.8,414.3 939.7,414.3 923.1,376.7 	"/>
	<rect x="920.6" y="414.3" class="st9" width="5.1" height="3.8"/>
	<polygon class="st10" points="923.1,414.3 939.7,414.3 923.1,376.7 	"/>
</g>
<g>
	<polygon class="st8" points="905.1,346.3 936,346.3 919.5,308.7 	"/>
	<rect x="916.9" y="346.3" class="st9" width="5.1" height="3.8"/>
	<polygon class="st10" points="919.5,346.3 936,346.3 919.5,308.7 	"/>
</g>
<g>
	<ellipse class="st11" cx="842.8" cy="384.2" rx="21.2" ry="20.1"/>
	<polygon class="st9" points="841.4,421.9 841.5,400.3 831.3,388.8 831.3,388.8 841.4,396.7 842.9,387.8 844.8,397.4 856,389.8 
		844.8,400.3 844.7,421.9 	"/>
</g>
<path class="st12" d="M604.6,630.5c0,4.6-3.9,8.3-8.8,8.3H582c-4.8,0-8.8-3.7-8.8-8.3v-27.7c0-4.6,3.9-8.3,8.8-8.3h13.9
	c4.8,0,8.8,3.7,8.8,8.3V630.5z"/>
<path class="st12" d="M703.6,630.5c0,4.6,3.9,8.3,8.8,8.3h13.9c4.8,0,8.8-3.7,8.8-8.3v-27.7c0-4.6-3.9-8.3-8.8-8.3h-13.9
	c-4.8,0-8.8,3.7-8.8,8.3V630.5z"/>
<g>
	<polygon class="st13" points="731.7,542.1 740.5,535.4 736.4,530.5 727.6,537.2 	"/>
	<ellipse class="st13" cx="744.1" cy="528.4" rx="10.4" ry="9.8"/>
</g>
<g>
	<polygon class="st13" points="576.6,542.1 567.7,535.4 571.8,530.5 580.7,537.2 	"/>
	<ellipse class="st13" cx="564.2" cy="528.4" rx="10.4" ry="9.8"/>
</g>
<path class="st14" d="M732.3,543.7c-1.1-14.5-5.1-39.8-16.1-52.1c-9.8-11-45.9-14.9-61.5-14.9c-15.7,0-52.6,3.9-62.4,14.9
	c-11,12.3-15,37.6-16.1,52.1c0.6-0.2,79.4,0,79.4,0S730.6,543.2,732.3,543.7z"/>
<path class="st15" d="M588.3,540.6c0.1-2.6,2.7-31.8,13.3-43.7c7.3-8.2,37.3-11.8,52.7-11.8c15.5,0,45.4,3.6,52.7,11.8
	c10.6,11.9,13.1,41.1,13.3,43.7C721.7,540.9,586.1,541,588.3,540.6z"/>
<path class="st14" d="M674.5,539.9c19.4,0.7,38.8,4.6,58.2,8.3c0-0.7-0.2-2.6-0.4-5.3c-3.6-1.1-24.3-10.7-78-10.7
	c-53.8,0-74.5,9.6-78.1,10.7c-0.2,2.9-0.3,4.9-0.4,5.4c-1.5,0.5-2.9,1.1-4.3,1.8C604.9,541,639.9,538.8,674.5,539.9z"/>
<path class="st13" d="M750.4,570.9c-0.3-10.5-7.6-19.4-17.7-22.5c0,0,0-0.1,0-0.1c-19.4-3.7-38.8-7.6-58.2-8.3
	c-34.6-1.2-69.6,1.1-103,10.2c-7.8,4-13.2,11.8-13.4,20.8l0,0v30.9l96.2,2.7l0,0h0h0l0,0l96.2-2.7L750.4,570.9L750.4,570.9z"/>
<path class="st16" d="M755,597.6H654.3h-0.1H553.5c-2.7,0-4.9,2.1-4.9,4.7v9.8c0,2.6,2.2,4.7,4.9,4.7h100.7h0.1H755
	c2.7,0,4.9-2.1,4.9-4.7v-9.8C759.9,599.7,757.7,597.6,755,597.6z"/>
<ellipse class="st17" cx="725.3" cy="570.5" rx="14.1" ry="13.4"/>
<ellipse class="st17" cx="586.4" cy="570.5" rx="14.1" ry="13.4"/>
<g>
	<path class="st12" d="M624.5,563.4h29.8h0.1h29.8c1.6,0,2.9-1.2,2.9-2.7c0-1.5-1.3-2.7-2.9-2.7h-29.8h-0.1h-29.8
		c-1.6,0-2.9,1.2-2.9,2.7C621.6,562.2,622.9,563.4,624.5,563.4z"/>
	<path class="st12" d="M684.1,567.2h-29.8h-0.1h-29.8c-1.6,0-2.9,1.2-2.9,2.7c0,1.5,1.3,2.7,2.9,2.7h29.8h0.1h29.8
		c1.6,0,2.9-1.2,2.9-2.7C686.9,568.4,685.7,567.2,684.1,567.2z"/>
	<path class="st12" d="M684.1,576.5h-29.8h-0.1h-29.8c-1.6,0-2.9,1.2-2.9,2.7c0,1.5,1.3,2.7,2.9,2.7h29.8h0.1h29.8
		c1.6,0,2.9-1.2,2.9-2.7C686.9,577.7,685.7,576.5,684.1,576.5z"/>
</g>
<path class="st18" d="M682.5,594.6h-28.2h-0.1H626c-2.7,0-4.9,2.1-4.9,4.7v15.2c0,2.6,2.2,4.7,4.9,4.7h28.2h0.1h28.2
	c2.7,0,4.9-2.1,4.9-4.7v-15.2C687.4,596.7,685.2,594.6,682.5,594.6z"/>
<path class="st3" d="M2065.4,806.4V392.6c-38.7-22.5-83.4-26.7-123-26.7c-23.9,0-78.8,8.6-115.1,21.4c-21.2-0.4-40.1,0.4-49.9,1.5
	c-40.5,4.5-85.7,14.9-125.2,26.1c-0.1,0-3.9,0.5-6.7,0.2c0.7,0.1-0.8-0.4-3-1c-56.3-15.7-120.3-28-177.4-34.3
	c-14.3-1.6-41.8-2.7-72.8-2.1c-52.8-18.7-132.8-31.1-167.6-31.2c-68.6-0.1-125.8,0.3-210.2,35.5v424.5H2065.4z"/>
<g>
	<polygon class="st8" points="1060,566.1 1124.6,566.1 1090,485.1 	"/>
	<rect x="1084.7" y="566.1" class="st9" width="10.7" height="8.3"/>
	<polygon class="st10" points="1090,566.1 1124.6,566.1 1090,485.1 	"/>
</g>
<g>
	<polygon class="st8" points="1238.1,521 1288.8,521 1261.6,459.2 	"/>
	<rect x="1257.5" y="521" class="st9" width="8.4" height="6.3"/>
	<polygon class="st10" points="1261.7,521 1288.8,521 1261.7,459.2 	"/>
</g>
<g>
	<polygon class="st8" points="1137.9,758.4 1229.6,758.4 1180.5,646.6 	"/>
	<rect x="1173" y="758.4" class="st9" width="15.2" height="11.4"/>
	<polygon class="st10" points="1180.6,758.4 1229.6,758.4 1180.6,646.7 	"/>
</g>
<g>
	<ellipse class="st11" cx="1353.9" cy="477.7" rx="40.7" ry="38.4"/>
	<polygon class="st9" points="1351.2,549.8 1351.5,508.4 1331.9,486.6 1331.9,486.6 1351.2,501.7 1354.1,484.5 1357.8,503 
		1379.3,488.3 1357.8,508.4 1357.5,549.8 	"/>
</g>
<g>
	<ellipse class="st11" cx="1014.6" cy="605.7" rx="55.4" ry="55.9"/>
	<polygon class="st9" points="1010.9,710.4 1011.3,650.3 984.7,618.5 984.7,618.5 1010.9,640.4 1014.9,615.5 1019.9,642.3 
		1049.1,621 1019.9,650.3 1019.5,710.4 	"/>
</g>
<g>
	<polygon class="st8" points="1183,455.5 1213.9,455.5 1197.3,417.8 	"/>
	<rect x="1194.8" y="455.5" class="st9" width="5.1" height="3.8"/>
	<polygon class="st10" points="1197.3,455.5 1213.9,455.5 1197.3,417.8 	"/>
</g>
<g>
	<polygon class="st8" points="1179.3,387.5 1210.2,387.5 1193.7,349.8 	"/>
	<rect x="1191.1" y="387.5" class="st9" width="5.1" height="3.8"/>
	<polygon class="st10" points="1193.7,387.5 1210.2,387.5 1193.7,349.8 	"/>
</g>
<g>
	<polygon class="st8" points="1292.8,463.4 1323.7,463.4 1307.2,425.8 	"/>
	<rect x="1304.7" y="463.4" class="st9" width="5.1" height="3.8"/>
	<polygon class="st10" points="1307.2,463.4 1323.7,463.4 1307.2,425.8 	"/>
</g>
<g>
	<ellipse class="st11" cx="1323.7" cy="399.9" rx="21.2" ry="20.1"/>
	<polygon class="st9" points="1322.3,437.6 1322.5,415.9 1312.3,404.5 1312.3,404.5 1322.3,412.4 1323.9,403.4 1325.8,413.1 
		1337,405.4 1325.8,415.9 1325.6,437.6 	"/>
</g>
<g>
	<ellipse class="st11" cx="1117" cy="425.3" rx="21.2" ry="20.1"/>
	<polygon class="st9" points="1115.6,463.1 1115.7,441.4 1105.5,430 1105.5,430 1115.6,437.9 1117.1,428.9 1119,438.5 1130.2,430.9 
		1119,441.4 1118.9,463.1 	"/>
</g>
</svg>
