<?xml version="1.0" encoding="utf-8"?>
<svg version="1.1" id="Layer_1" xmlns="http://www.w3.org/2000/svg" xmlns:xlink="http://www.w3.org/1999/xlink" x="0px" y="0px"
	 viewBox="0 0 5550.4 800" style="enable-background:new 0 0 5550.4 800;" xml:space="preserve">
<style type="text/css">
	.st0{fill:none;}
	.st1{fill:#A47A4F;}
	.st2{fill:#4EB360;}
	.st3{fill:#139556;}
	.st4{fill:#8BC67A;}
	.st5{fill:#38AF58;}
	.st6{fill:#FFFFFF;}
	.st7{fill:#C76E19;}
	.st8{fill:#BE976B;}
	.st9{fill:#B1523C;}
	.st10{fill:#E5E7E7;}
	.st11{fill:#B31D33;}
	.st12{fill:#808184;}
	.st13{fill:#F18F1A;}
	.st14{fill:#2DB07A;}
	.st15{fill:#12916E;}
	.st16{fill:#E43952;}
	.st17{fill:#4B8F7D;}
	.st18{fill:#D3E1DB;}
	.st19{fill:#AC1D3E;}
	.st20{fill:#405159;}
	.st21{fill:#83C037;}
	.st22{fill:#023F42;}
	.st23{fill:#E3582B;}
	.st24{fill:#734B29;}
	.st25{fill:#F9DBB1;}
	.st26{fill:#ED82A6;}
	.st27{fill:#E51E46;}
	.st28{fill:#F0AA43;}
	.st29{fill:#DBC9AC;}
	.st30{fill:#EEB38B;}
	.st31{fill:#BF513C;}
	.st32{fill:#F4AA15;}
	.st33{fill:#FBECD8;}
	.st34{fill:#E4582C;}
	.st35{fill:#1BA8C1;}
	.st36{fill:#7E5425;}
	.st37{fill-rule:evenodd;clip-rule:evenodd;fill:#D08492;}
	.st38{fill-rule:evenodd;clip-rule:evenodd;fill:#947C9C;}
	.st39{fill:#6B98BF;}
	.st40{fill:#A07B60;}
	.st41{fill:#F4CE41;}
	.st42{fill:#6B5D50;}
	.st43{fill:#D3966B;}
	.st44{fill:#D6800F;}
	.st45{fill:#F4A73C;}
	.st46{fill:#9C5724;}
	.st47{fill:#F09A9B;}
	.st48{fill:#D5D58B;}
	.st49{fill:#7EA590;}
	.st50{fill:#EEB720;}
	.st51{fill:#2C7782;}
	.st52{fill:#5E8DA4;}
	.st53{fill:#5679A1;}
	.st54{fill:#D0D1D3;}
	.st55{fill:#B27522;}
	.st56{fill:#8D5D25;}
	.st57{fill:#EC6C1B;}
	.st58{fill:#9C3324;}
	.st59{fill:#934556;}
	.st60{fill:#A0202D;}
	.st61{fill:#E24B2B;}
	.st62{fill:#9F7350;}
	.st63{fill:#A0C629;}
	.st64{fill:#55535C;}
	.st65{fill:#AB5E2E;}
	.st66{fill:#AD7021;}
	.st67{fill:#79B579;}
	.st68{fill:#CD5A2A;}
	.st69{fill:#436067;}
	.st70{fill:#5C4847;}
	.st71{fill:#A17524;}
	.st72{fill:#977B47;}
	.st73{fill:#525E84;}
	.st74{fill:#6C7A86;}
	.st75{fill:#065A7F;}
	.st76{fill:#4A5E83;}
	.st77{fill:#836884;}
	.st78{fill:#2DAD58;}
	.st79{fill:#218956;}
	.st80{fill:#68BB71;}
	.st81{fill:#A26769;}
	.st82{fill:#F8D588;}
	.st83{fill:#E14436;}
	.st84{fill:#5E9D44;}
	.st85{fill:#CBDA2F;}
	.st86{fill:#74BD60;}
	.st87{fill:#108A66;}
	.st88{fill:#EB7272;}
	.st89{fill:#AEBABD;}
	.st90{fill:#6D5D76;}
	.st91{fill:#EC8F26;}
	.st92{fill:#03603F;}
	.st93{fill:#AF302F;}
	.st94{fill:#AF4923;}
	.st95{fill:#E73F3A;}
	.st96{fill:#EA5A19;}
	.st97{fill:#458C66;}
	.st98{fill:#F4AC17;}
	.st99{fill:#5B4875;}
	.st100{fill:#E95E57;}
	.st101{fill:#CC6C15;}
	.st102{fill:#6E4420;}
	.st103{fill:#C72829;}
	.st104{fill:#F8E398;}
	.st105{fill:#557583;}
	.st106{fill:#B32049;}
	.st107{fill:#E14345;}
	.st108{fill:#BA1F44;}
	.st109{fill:#CA2235;}
	.st110{fill:#94B424;}
	.st111{fill:#5F7D8A;}
	.st112{fill:#A3C9E3;}
	.st113{fill:#8484AB;}
	.st114{fill:#5A6A8A;}
	.st115{fill:#2C9765;}
	.st116{fill:#1E8656;}
	.st117{fill:#8AC88F;}
	.st118{fill:#366650;}
	.st119{fill:#F9E79F;}
	.st120{fill:#D2883D;}
	.st121{fill:#885D3C;}
	.st122{fill:#645244;}
	.st123{fill:#F5B755;}
	.st124{fill:#F4A540;}
	.st125{fill:#E0C49E;}
	.st126{fill:#F8EFE7;}
	.st127{fill:#D79951;}
	.st128{fill:#8E5F26;}
	.st129{fill:#D1CFDE;}
	.st130{fill:#DEDED9;}
	.st131{fill:#C3A66B;}
	.st132{fill:#A0884E;}
	.st133{fill:#2F2F2F;}
	.st134{fill:#0C5F95;}
	.st135{fill:#F6C480;}
	.st136{fill:#E3925E;}
	.st137{fill:#70BFDA;}
	.st138{fill:#EA6E90;}
	.st139{font-family:'Impact';}
	.st140{font-size:24px;}
	.st141{letter-spacing:1;}
</style>
<style>

    .event-literature:hover {
        opacity: 0.5;
    }
</style>
<script type="text/ecmascript"> 
<![CDATA[
  function buttonClick(evt)
  {
    alert('Click');
  }
]]></script> 

<polygon class="st0" points="5.6,1022.7 5551,1022.7 5551,-587.1 "/>
<polyline class="st0" points="4.2,-587.1 5.2,525.2 5.6,1022.7 5531,1022.7 5531,-581.3 "/>
<path class="st0" d="M4.2,580.4c0,0,60.7-243.1,141.5-295.6S285.8,388,285.8,388l0,0c0,0,108.3-251.9,210.8-226.8
	S641,412.7,664.1,433.7c23.1,21,73.6-148.8,138.6-150.9c65-2.1,350.9,253.6,361,161.4c10.1-92.2,417.3-92.3,574,70.2
	S4.2,580.4,4.2,580.4v29.3"/>
<g>
	<rect x="1151.8" y="482.2" class="st1" width="25.1" height="74"/>
	<path class="st2" d="M1173.9,409.8c0,47.8,25.4,86.5-10.2,86.5c-35.7,0-64.6-38.7-64.6-86.5c0-47.8,28.9-86.4,64.6-86.4
		C1199.3,323.3,1173.9,362,1173.9,409.8z"/>
	<path class="st3" d="M1163.6,323.3C1163.6,323.3,1163.6,323.3,1163.6,323.3l-0.1,172.9c0,0,0.1,0,0.1,0c35.7,0,64.6-38.7,64.6-86.5
		C1228.2,362,1199.3,323.3,1163.6,323.3z"/>
	<path class="st4" d="M1196.6,409.8c0,24.4-14.8,44.2-33,44.2c-18.2,0-33-19.8-33-44.2c0-24.4,14.8-44.2,33-44.2
		C1181.9,365.6,1196.6,385.4,1196.6,409.8z"/>
	<path class="st5" d="M1163.6,365.6C1163.6,365.6,1163.6,365.6,1163.6,365.6l-0.1,88.3c0,0,0.1,0,0.1,0c18.2,0,33-19.8,33-44.2
		C1196.6,385.4,1181.9,365.6,1163.6,365.6z"/>
	<rect x="1192.1" y="427.3" class="st6" width="115.8" height="94.5"/>
	<rect x="1493.1" y="469.5" class="st7" width="74.3" height="65.8"/>
	<polygon class="st8" points="851.4,646.9 535.8,646.9 534,564.2 664.9,487.1 	"/>
	<rect x="1191.8" y="444" class="st9" width="116.2" height="11.4"/>
	<rect x="373.5" y="465.2" class="st10" width="88.5" height="72.2"/>
	<rect x="373.5" y="477.9" class="st9" width="88.5" height="8.7"/>
	<rect x="734.7" y="445.5" class="st10" width="104.7" height="85.4"/>
	<polygon class="st11" points="850.3,460.6 725.4,460.6 725.4,413.7 839.7,413.7 	"/>
	<rect x="734.7" y="460.6" class="st12" width="104.7" height="10.3"/>
	<rect x="1428.2" y="431.8" class="st10" width="92.3" height="75.3"/>
	<rect x="1428.2" y="445.2" class="st9" width="92.3" height="9.1"/>
	<rect x="1187.1" y="380.4" class="st13" width="124.6" height="64.7"/>
	<path class="st14" d="M600,589.1c4.7-18.3,9.4-39.5,9.4-60c0-55.5-9.5-104.2-39-137.1C540.8,425,522,474.6,522,530
		c0,20.5,2.6,40.1,7.3,58.4L600,589.1z"/>
	<path class="st15" d="M611.4,588.4c4.7-18.3,7.3-37.9,7.3-58.4c0-55.5-18.8-105-48.4-137.9v196.3H611.4z"/>
	<path class="st2" d="M642.8,616.3c2.8-10.7-8.7-20.4-8.7-32.4c0-32.5,2-63.4-15.3-82.7c-17.3,19.3-28.3,48.3-28.3,80.8
		c0,12,1.5,23.5,4.3,34.2H642.8z"/>
	<path class="st15" d="M642.8,616.3c2.8-10.7,4.3-22.2,4.3-34.2c0-32.5-11-61.5-28.3-80.8v115H642.8z"/>
	<path class="st14" d="M1381.4,503.4c4.7-18.1-15.5-37.9-15.5-58.2c0-55,4-103.8-25.3-136.4c-29.3,32.6-48,81.8-48,136.8
		c0,20.3,2.5,39.8,7.2,57.9H1381.4z"/>
	<path class="st15" d="M1381.4,503.4c4.7-18.1,7.2-37.6,7.2-57.9c0-55-18.7-104.1-48-136.8v194.7H1381.4z"/>
	<path class="st2" d="M1598.8,538.3c3-11.8-19.8-21.8-19.8-35c0-35.7,12.3-70.3-6.7-91.5c-19,21.2-31.2,53.1-31.2,88.9
		c0,13.2,1.7,25.8,4.7,37.6H1598.8z"/>
	<path class="st16" d="M888.9,126.1c0,6-3.6,10.9-8.1,10.9c-4.5,0-8.1-4.9-8.1-10.9c0-6,3.6-10.9,8.1-10.9
		C885.3,115.2,888.9,120.1,888.9,126.1z"/>
	<polygon class="st6" points="947.9,527.2 814.3,527.2 840.2,233.7 922.4,233.7 	"/>
	<rect x="1226.6" y="464.9" class="st17" width="45.2" height="39.4"/>
	<polygon class="st18" points="881.3,527.2 947.9,527.2 922.4,233.7 881.3,233.7 	"/>
	<rect x="853.8" y="107.4" class="st6" width="54.6" height="100"/>
	<polygon class="st19" points="880.8,100.6 850.6,100.6 850.6,114.3 880.8,114.3 911.1,114.3 911.1,100.6 	"/>
	<path class="st15" d="M1598.8,538.3c3-11.8,4.7-24.4,4.7-37.6c0-35.7-12.1-67.7-31.2-88.9v126.5H1598.8z"/>
	<path class="st2" d="M1644.7,565.6c2.4-9.4-16-16.7-16-27.3c0-28.6,10.1-57-5.1-74c-15.2,16.9-24.9,42.5-24.9,71.1
		c0,10.5,1.3,20.7,3.8,30.1H1644.7z"/>
	<path class="st20" d="M892.9,521.8v-26.8c0-9.1-5.5-16.5-12.3-16.5c-6.8,0-12.3,7.4-12.3,16.5v26.8h-53.5v11.5h133.1v-11.5H892.9z"
		/>
	<path class="st15" d="M1644.7,565.6c2.4-9.4,3.8-19.6,3.8-30.1c0-28.6-9.7-54.2-24.9-71.1v101.2H1644.7z"/>
	<path class="st21" d="M1762.7,689.1c-97-136.7-233.7-221.8-385.3-221.8c-151.5,0-288.3,85.1-385.3,221.8H1762.7z"/>
	<path class="st21" d="M681.4,663.3C616.5,571.9,525.1,515,423.8,515c-101.3,0-192.7,56.9-257.6,148.3H681.4z"/>
	<polygon class="st22" points="970.2,656.8 722.3,656.8 796.1,533.2 889.6,533.2 	"/>
	<rect x="409.3" y="390.3" class="st9" width="18.7" height="46.9"/>
	<rect x="407.5" y="390.3" class="st23" width="22.1" height="12"/>
	<polygon class="st8" points="922.8,656.8 607.2,656.8 654.7,559.2 773,492.2 	"/>
	<polygon class="st8" points="322.9,645.5 129.4,645.5 158.5,585.6 231,544.6 	"/>
	<polygon class="st8" points="1161.7,627.5 942.2,622.6 979.1,494.9 1065.3,521.5 	"/>
	<polygon class="st24" points="1013,530.9 1102.1,631.1 1027.2,639.2 996.5,585.1 	"/>
	<polygon class="st7" points="1068.7,656.5 819.9,656.8 855.5,563.8 907.2,508.6 1013,530.9 	"/>
	<rect x="364.9" y="427.3" class="st23" width="107.3" height="50.6"/>
	<polygon class="st24" points="1354.5,635.5 1173.9,627.5 1244,533.2 1300.1,556.2 	"/>
	<polygon class="st24" points="1726.3,657.3 1535,650 1585.2,556.2 1715.1,606.1 	"/>
	<polygon class="st7" points="1422.6,646.7 1297.6,646.7 1333.8,578.2 1383.4,565.6 	"/>
	<polygon class="st25" points="1513.6,538.8 1388.6,538.8 1424.8,505.7 1474.4,499.6 	"/>
	<path class="st2" d="M285.5,624.8c4-15.6-26.7-33-26.7-50.5c0-47.3,16.8-88.8-8.3-116.9c-25.2,28-41.2,70.3-41.2,117.5
		c0,17.4,2.2,34.2,6.2,49.8H285.5z"/>
	<path class="st15" d="M285.5,624.8c4-15.6,6.2-32.3,6.2-49.8c0-47.3-16-89.5-41.2-117.5v167.3H285.5z"/>
	<path class="st2" d="M387.4,624.8c6.3-24.3-32.3-50.5-32.3-77.7c0-73.8,16.9-139.7-22.4-183.5c-39.3,43.7-64.3,109.7-64.3,183.5
		c0,27.2,3.4,53.3,9.7,77.7H387.4z"/>
	<path class="st15" d="M387.4,624.8c6.3-24.3,9.7-50.5,9.7-77.7c0-73.8-25-139.7-64.3-183.5v261.2H387.4z"/>
	<polygon class="st24" points="453.3,638.5 329.9,638.5 368.8,561.2 394.7,574.1 	"/>
	<polygon class="st7" points="369.9,638.5 275.9,638.5 312.3,571.1 356.9,584.6 	"/>
	<polygon class="st25" points="557.5,574.5 506.6,561.2 496.3,556.5 541.6,529.2 	"/>
	<polygon class="st7" points="484.3,554.4 440.3,554.4 456.1,529.2 477.1,544.1 	"/>
	<ellipse class="st26" cx="744.9" cy="125.7" rx="35" ry="47"/>
	<polygon class="st27" points="830.4,345.2 932.1,345.2 926.5,281.1 836.1,281.1 	"/>
	<polygon class="st19" points="881.3,345.2 932.1,345.2 930.5,327.4 926.5,281.1 881.3,281.1 	"/>
	<polygon class="st27" points="819.9,463.9 942.4,463.9 936.8,399.8 825.6,399.8 	"/>
	<polygon class="st19" points="881.3,463.9 942.4,463.9 936.8,399.8 881.3,399.8 	"/>
	<ellipse class="st28" cx="881.3" cy="373.6" rx="13" ry="17.5"/>
	<ellipse class="st22" cx="881.3" cy="373.6" rx="7.1" ry="9.5"/>
	<ellipse class="st28" cx="881.1" cy="258.8" rx="13" ry="17.5"/>
	<ellipse class="st22" cx="881.1" cy="258.8" rx="7.1" ry="9.5"/>
	<polygon class="st27" points="850.6,100.6 880.8,74 911.1,100.6 	"/>
	<polygon class="st29" points="621.3,627.9 626.5,641.2 669.7,650 717.3,564.2 773,492.2 654.7,559.2 	"/>
	<polygon class="st30" points="910.7,656.5 907.2,508.6 855.5,563.8 823.4,635.9 	"/>
	<ellipse class="st6" cx="757.5" cy="596.6" rx="11.4" ry="15.4"/>
	<ellipse class="st6" cx="585.6" cy="602.1" rx="11.4" ry="15.4"/>
	<ellipse class="st6" cx="407.9" cy="607.8" rx="8.3" ry="11.2"/>
	<ellipse class="st6" cx="823.4" cy="600.9" rx="11.4" ry="15.4"/>
	<ellipse class="st6" cx="878.5" cy="596.6" rx="11.4" ry="15.4"/>
	<ellipse class="st6" cx="1047.8" cy="600.9" rx="11.4" ry="15.4"/>
	<ellipse class="st6" cx="1110.5" cy="602.1" rx="11.4" ry="15.4"/>
	<ellipse class="st6" cx="789.9" cy="589.1" rx="7.4" ry="10"/>
	<ellipse class="st6" cx="968.1" cy="574.5" rx="7.4" ry="10"/>
	<ellipse class="st6" cx="769" cy="554" rx="5.3" ry="7.2"/>
	<ellipse class="st6" cx="1249.2" cy="584.4" rx="7.6" ry="10.3"/>
	<ellipse class="st6" cx="1292.7" cy="602.1" rx="7.6" ry="10.3"/>
	<rect x="1254.9" y="340.6" class="st23" width="18.7" height="39.8"/>
	<rect x="1253.1" y="340.6" class="st31" width="22.1" height="12"/>
	<rect x="1418.6" y="390.2" class="st23" width="111.7" height="54.9"/>
	<rect x="853.8" y="114.3" class="st32" width="54.6" height="37.7"/>
	<path class="st22" d="M881.3,161.2c-5.6,0-10.2,6.2-10.2,13.7v33.7h20.4V175C891.5,167.4,887,161.2,881.3,161.2z"/>
	<rect x="840.2" y="198.1" class="st27" width="82.2" height="35.6"/>
	<rect x="881.3" y="198.1" class="st19" width="41.1" height="35.6"/>
	<ellipse class="st33" cx="881.1" cy="133.1" rx="9.9" ry="13.3"/>
	<ellipse class="st34" cx="881.1" cy="133.1" rx="5.4" ry="7.3"/>
	<path class="st35" d="M1810.2,699.2v-75.8c-12.5,0-23.2-9.2-29.1-22.7c-5.9,13.5-16.7,22.7-29.2,22.7c-12.5,0-23.2-9.2-29.1-22.7
		c-5.9,13.5-16.7,22.7-29.1,22.7c-12.5,0-23.3-9.2-29.1-22.7c-5.9,13.5-16.7,22.7-29.1,22.7c-12.5,0-23.2-9.2-29.1-22.7
		c-5.9,13.5-16.7,22.7-29.1,22.7c-12.5,0-23.2-9.2-29.1-22.7c-5.9,13.5-16.7,22.7-29.1,22.7c-12.5,0-23.2-9.2-29.1-22.7
		c-5.9,13.5-16.7,22.7-29.1,22.7c-12.4,0-23.2-9.2-29.1-22.7c-5.9,13.5-16.7,22.7-29.1,22.7c-12.5,0-23.2-9.2-29.1-22.7
		c-5.9,13.5-16.7,22.7-29.2,22.7c-12.5,0-23.2-9.2-29.1-22.7c-5.9,13.5-16.7,22.7-29.1,22.7c-12.5,0-23.2-9.2-29.1-22.7
		c-5.9,13.5-16.7,22.7-29.1,22.7c-12.5,0-23.2-9.2-29.1-22.7c-5.9,13.5-16.7,22.7-29.2,22.7c-12.5,0-23.2-9.2-29.1-22.7
		c-5.9,13.5-16.7,22.7-29.1,22.7c-12.5,0-23.2-9.2-29.1-22.7c-5.9,13.5-16.7,22.7-29.1,22.7c-12.5,0-23.2-9.2-29.1-22.7
		c-5.9,13.5-16.7,22.7-29.1,22.7c-12.5,0-23.2-9.2-29.1-22.7c-5.9,13.5-16.7,22.7-29.2,22.7c-12.5,0-23.2-9.2-29.1-22.7
		c-5.9,13.5-16.7,22.7-29.1,22.7c-12.5,0-23.2-9.2-29.1-22.7c-5.9,13.5-16.7,22.7-29.1,22.7c-12.5,0-23.2-9.2-29.1-22.7
		c-5.9,13.5-16.7,22.7-29.1,22.7c-12.5,0-23.2-9.2-29.1-22.7c-5.9,13.5-16.7,22.7-29.1,22.7c-12.5,0-23.2-9.2-29.1-22.7
		c-5.9,13.5-16.7,22.7-29.1,22.7c-12.5,0-23.2-9.2-29.1-22.7c-5.9,13.5-16.7,22.7-29.1,22.7c-12.5,0-23.2-9.2-29.1-22.7
		c-5.9,13.5-16.7,22.7-29.1,22.7c-12.5,0-23.2-9.2-29.1-22.7c-5.9,13.5-16.7,22.7-29.1,22.7c-12.5,0-23.2-9.2-29.1-22.7
		c-5.9,13.5-16.7,22.7-29.1,22.7c-12.5,0-23.2-9.2-29.1-22.7c-5.9,13.5-16.7,22.7-29.1,22.7c-12.5,0-23.2-9.2-29.1-22.7
		c-5.9,13.5-16.7,22.7-29.1,22.7c-12.5,0-23.2-9.2-29.1-22.7c-5.9,13.5-16.7,22.7-29.1,22.7c-12.5,0-23.2-9.2-29.1-22.7
		c-5.9,13.5-16.7,22.7-29.1,22.7c-12.5,0-23.2-9.2-29.1-22.7c-5.9,13.5-16.7,22.7-29.1,22.7c-12.5,0-23.2-9.2-29.1-22.7
		c-5.9,13.5-16.7,22.7-29.1,22.7c-12.5,0-23.2-9.2-29.1-22.7c-5.9,13.5-16.7,22.7-29.1,22.7v75.8H1810.2z"/>
	<path class="st6" d="M389.5,637.7c0,5.1-3.1,9.2-6.9,9.2c-3.8,0-6.8-4.1-6.8-9.2c0-5.1,3.1-9.2,6.8-9.2
		C386.4,628.5,389.5,632.6,389.5,637.7z"/>
	<ellipse class="st6" cx="295" cy="607.4" rx="9.2" ry="12.3"/>
	<ellipse class="st6" cx="1431" cy="641.9" rx="8.4" ry="11.3"/>
	<ellipse class="st6" cx="1548" cy="641.9" rx="8.4" ry="11.3"/>
	<rect x="3.9" y="649.7" class="st36" width="1806.3" height="55.6"/>
	<g>
		<path class="st37" d="M1036.4,325.5v-0.2c-5.6-19.7-23.7-29-39.2-26.1c11.4-8.9,30.3-11.3,39.2,2.4v0.2
			c8.9-13.6,27.8-11.3,39.2-2.4C1060.1,296.5,1042,305.8,1036.4,325.5L1036.4,325.5z"/>
	</g>
	<g>
		<path class="st38" d="M606.8,377.3v-0.2c-5.6-19.7-23.7-29-39.2-26.1c11.4-8.9,30.3-11.3,39.2,2.4v0.2
			c8.9-13.6,27.8-11.3,39.2-2.4C630.6,348.3,612.4,357.6,606.8,377.3L606.8,377.3z"/>
	</g>
	<g>
		<path class="st38" d="M763.6,308.7v-0.2c-5.6-19.7-23.7-29-39.2-26.1c11.4-8.9,30.3-11.3,39.2,2.4v0.2
			c8.9-13.6,27.8-11.3,39.2-2.4C787.4,279.7,769.2,289,763.6,308.7L763.6,308.7z"/>
	</g>
</g>
<polygon class="st39" points="2780.4,621.1 2954.7,274.1 3129.1,621.1 "/>
<rect x="2818.5" y="238.7" class="st40" width="72.8" height="147.8"/>
<g id="event-literature"><rect x="1847.3" y="477.1" class="st41" width="172" height="135.5"/></g>
<rect x="2719.4" y="415.9" class="st42" width="172" height="198.3"/>
<rect x="2793.7" y="364.6" class="st43" width="122.5" height="249.2"/>
<rect x="2049.4" y="478.7" class="st44" width="172" height="135.5"/>
<rect x="3292.7" y="558.6" class="st28" width="320" height="53.8"/>
<rect x="2535.3" y="285.1" class="st45" width="215.9" height="334.9"/>
<rect x="2532.1" y="271.8" class="st46" width="222.3" height="17.8"/>
<polygon class="st47" points="2073,319.9 2019.3,383.8 2019.3,614.3 2126.8,614.3 2126.8,383.8 "/>
<rect x="2288.3" y="289.9" class="st48" width="112.8" height="322.8"/>
<rect x="2301.2" y="313.4" class="st49" width="87" height="36.7"/>
<rect x="2302.6" y="386.7" class="st49" width="87" height="36.7"/>
<rect x="2304.1" y="459.9" class="st49" width="87" height="36.7"/>
<rect x="2305.6" y="533.1" class="st49" width="87" height="36.7"/>
<rect x="2287.6" y="289.9" class="st1" width="114.2" height="8.2"/>
<rect x="2386.8" y="389.8" class="st6" width="152.4" height="222.6"/>
<rect x="2190.5" y="374.5" class="st50" width="128" height="238.3"/>
<rect x="2208.6" y="398.8" class="st51" width="19.6" height="53.7"/>
<rect x="2244.4" y="398.8" class="st52" width="19.6" height="53.7"/>
<rect x="2280.7" y="398.8" class="st52" width="19.6" height="53.7"/>
<rect x="2208.4" y="478.7" class="st52" width="19.6" height="61.4"/>
<rect x="2244.1" y="478.7" class="st51" width="19.6" height="61.4"/>
<rect x="2280.4" y="478.7" class="st52" width="19.6" height="61.4"/>
<polygon class="st39" points="2962.9,612.8 3095.5,348.9 3228.1,612.8 "/>
<polygon class="st53" points="3228.1,612.8 3095.5,348.9 3169.3,611.5 "/>
<polygon class="st6" points="3071.3,397 3119.7,397 3095.5,348.9 "/>
<polygon class="st54" points="3119.7,397 3095.5,348.9 3109,397 "/>
<rect x="2190.5" y="374.5" class="st55" width="128" height="9.3"/>
<rect x="2152" y="576.4" class="st56" width="18.2" height="36"/>
<rect x="2531.9" y="226" class="st57" width="222.3" height="46.3"/>
<rect x="3173.8" y="408.4" class="st47" width="132.8" height="213.4"/>
<rect x="3200.6" y="527.1" class="st10" width="86.5" height="94.8"/>
<rect x="3207.6" y="537.5" class="st23" width="72.5" height="84.3"/>
<rect x="3207.6" y="537.5" class="st58" width="72.5" height="10.6"/>
<rect x="3207.6" y="558.6" class="st58" width="72.5" height="10.6"/>
<rect x="3207.6" y="579.7" class="st58" width="72.5" height="10.6"/>
<rect x="3207.6" y="600.8" class="st58" width="72.5" height="10.6"/>
<rect x="3173.8" y="408.4" class="st59" width="132.8" height="8.8"/>
<polygon class="st23" points="3320.6,408.4 3162.1,408.4 3175.5,364.9 3307.1,364.9 "/>
<polygon class="st60" points="2544.9,469.3 2378.4,469.3 2378.4,381.2 2544.8,381.1 "/>
<path class="st61" d="M2523,371.8v97.6c0,11,6.2,19.8,13.8,19.8c7.6,0,13.8-8.9,13.8-19.8v-97.6H2523z"/>
<path class="st61" d="M2486.9,371.8v97.6c0,11,6.1,19.8,13.8,19.8c7.6,0,13.7-8.9,13.7-19.8v-97.6H2486.9z"/>
<path class="st61" d="M2450.7,371.8v97.6c0,11,6.1,19.8,13.7,19.8c7.6,0,13.7-8.9,13.7-19.8v-97.6H2450.7z"/>
<path class="st61" d="M2414.6,371.8v97.6c0,11,6.2,19.8,13.7,19.8c7.6,0,13.7-8.9,13.7-19.8v-97.6H2414.6z"/>
<path class="st61" d="M2378.4,371.8v97.6c0,11,6.2,19.8,13.8,19.8c7.6,0,13.7-8.9,13.7-19.8v-97.6H2378.4z"/>
<rect x="2853.8" y="364.6" class="st62" width="62.4" height="249.2"/>
<polygon class="st63" points="2019.3,512.1 1833.6,512.1 1847.3,462.3 2019.3,462.3 "/>
<path class="st64" d="M2591.2,302.4c-14.6,0-26.5,17.1-26.5,38.3V418h53v-77.4C2617.7,319.5,2605.8,302.4,2591.2,302.4z"/>
<path class="st64" d="M2693.8,298.5c-14.6,0-26.5,17.1-26.5,38.3v86.1h53v-86.1C2720.3,315.7,2708.4,298.5,2693.8,298.5z"/>
<rect x="2658.7" y="394.9" class="st65" width="70.2" height="28.5"/>
<path class="st42" d="M2853.8,469.2c-18,0-32.6,21.1-32.6,47.1v106h65.2v-106C2886.4,490.3,2871.8,469.2,2853.8,469.2z"/>
<path class="st6" d="M2879.9,295.9c0,19.9-11.2,36.1-24.9,36.1c-13.8,0-25-16.2-25-36.1c0-19.9,11.2-36,25-36
	C2868.7,259.9,2879.9,276,2879.9,295.9z"/>
<path class="st45" d="M2873.2,295.9c0,14.6-8.2,26.5-18.3,26.5c-10.1,0-18.3-11.8-18.3-26.5c0-14.6,8.2-26.5,18.3-26.5
	C2865.1,269.5,2873.2,281.3,2873.2,295.9z"/>
<path class="st66" d="M2858.2,295.9c0,2.6-1.4,4.7-3.2,4.7c-1.8,0-3.2-2.1-3.2-4.7s1.4-4.7,3.2-4.7
	C2856.7,291.3,2858.2,293.4,2858.2,295.9z"/>
<polygon class="st6" points="3582.7,537.7 3635.7,476.6 3688.6,537.7 "/>
<rect x="2409.2" y="504" class="st67" width="110.6" height="90.4"/>
<rect x="2531.9" y="217.4" class="st68" width="222.3" height="10.1"/>
<rect x="2422.1" y="521.5" class="st69" width="80.7" height="55.4"/>
<rect x="3088.1" y="574.4" class="st8" width="16.2" height="39.4"/>
<polygon class="st53" points="3129.1,621.1 2954.7,274.1 3046.7,621.1 "/>
<path class="st70" d="M2853.8,469.2L2853.8,469.2l0,150.8h32.6V516.3C2886.4,490.3,2871.8,469.2,2853.8,469.2z"/>
<rect x="3370.2" y="545.7" class="st71" width="6.6" height="68.1"/>
<rect x="3501.3" y="545.7" class="st71" width="6.6" height="68.1"/>
<rect x="3632.3" y="545.7" class="st71" width="6.7" height="68.1"/>
<rect x="3306.6" y="585" class="st71" width="416" height="28.8"/>

<g class="event-literature">
    <rect x="1847.3" y="512.1" class="st72" width="172" height="9.9"/>
    <rect x="1861.6" y="540.1" class="st73" width="24.3" height="44.9"/>
    <rect x="1900.2" y="540.1" class="st74" width="24.2" height="44.9"/>
    <rect x="1938.8" y="540.1" class="st74" width="24.3" height="44.9"/>
    <rect x="1977.3" y="540.1" class="st74" width="24.2" height="44.9"/>
</g>

<ellipse class="st6" cx="2073" cy="379.1" rx="13.6" ry="19.7"/>
<path class="st75" d="M2080.4,379.1c0,5.9-3.3,10.7-7.4,10.7c-4.1,0-7.4-4.8-7.4-10.7c0-5.9,3.3-10.7,7.4-10.7
	C2077.1,368.4,2080.4,373.2,2080.4,379.1z"/>
<rect x="2042.1" y="424.1" class="st76" width="22" height="40.8"/>
<rect x="2082" y="424.1" class="st77" width="22" height="40.8"/>
<rect x="2042.1" y="484.4" class="st77" width="22" height="40.8"/>
<rect x="2082" y="484.4" class="st76" width="22" height="40.8"/>
<rect x="2042.1" y="544.7" class="st76" width="22" height="40.8"/>
<rect x="2082" y="544.7" class="st77" width="22" height="40.8"/>
<path class="st78" d="M2212.4,510.8c0,42.4-23.8,76.8-53.2,76.8c-29.4,0-53.2-34.4-53.2-76.8c0-42.4,23.8-76.8,53.2-76.8
	C2188.6,434,2212.4,468.4,2212.4,510.8z"/>
<path class="st79" d="M2159.2,434C2159.2,434,2159.2,434,2159.2,434l-0.1,153.5c0,0,0,0,0.1,0c29.4,0,53.2-34.4,53.2-76.8
	C2212.4,468.4,2188.6,434,2159.2,434z"/>
<path class="st80" d="M2186.4,510.8c0,21.7-12.2,39.2-27.2,39.2c-15,0-27.2-17.6-27.2-39.2c0-21.7,12.2-39.2,27.2-39.2
	C2174.2,471.6,2186.4,489.1,2186.4,510.8z"/>
<path class="st78" d="M2159.2,471.6C2159.2,471.6,2159.2,471.6,2159.2,471.6l-0.1,78.5c0,0,0,0,0.1,0c15,0,27.2-17.6,27.2-39.2
	C2186.4,489.1,2174.2,471.6,2159.2,471.6z"/>
<rect x="2557.4" y="394.9" class="st65" width="70.2" height="28.5"/>
<polygon class="st81" points="2019.3,395.5 2073,333.8 2126.8,395.5 2126.8,384 2073,319.9 2019.3,383.1 "/>
<path class="st82" d="M2138.8,382.6l-64.9-77.1l-67.5,78.9c-1.9,2.2-2.2,6.3-0.7,9.1c1.5,2.8,4.3,3.2,6.2,1l61.5-71.8l59.9,70
	c1.9,2.2,4.7,1.8,6.2-1C2141,388.9,2140.7,384.9,2138.8,382.6z"/>
<ellipse class="st6" cx="2576.5" cy="383.2" rx="8.3" ry="12.1"/>
<path class="st83" d="M2610.1,381.8c0,7.5-4.2,13.5-9.3,13.5c-5.1,0-9.3-6-9.3-13.5c0-7.5,4.2-13.5,9.3-13.5
	C2605.9,368.3,2610.1,374.3,2610.1,381.8z"/>
<ellipse class="st6" cx="2669.4" cy="383.2" rx="8.3" ry="12.1"/>
<path class="st6" d="M2726,381.8c0,6.7-3.7,12.1-8.3,12.1c-4.6,0-8.3-5.4-8.3-12.1c0-6.7,3.7-12.1,8.3-12.1
	C2722.3,369.7,2726,375.1,2726,381.8z"/>
<path class="st83" d="M2703.1,383.2c0,7.5-4.2,13.5-9.3,13.5c-5.1,0-9.3-6-9.3-13.5c0-7.5,4.2-13.5,9.3-13.5
	C2698.9,369.7,2703.1,375.7,2703.1,383.2z"/>
<rect x="2853.3" y="275.1" class="st66" width="3.2" height="20.8"/>
<rect x="2854.5" y="293.6" class="st66" width="17.6" height="4.7"/>
<rect x="2818.5" y="348.9" class="st42" width="72.8" height="19.4"/>
<rect x="2818.5" y="236.3" class="st42" width="72.8" height="19.4"/>
<polygon class="st63" points="2807.9,244.2 2854.9,90.1 2901.9,244.2 "/>
<polygon class="st84" points="2855,244.2 2901.9,244.2 2855,89.6 "/>
<path class="st85" d="M2864.4,68.5c0,7.1-4,12.8-8.8,12.8c-4.9,0-8.8-5.7-8.8-12.8c0-7.1,4-12.8,8.8-12.8
	C2860.4,55.7,2864.4,61.5,2864.4,68.5z"/>
<rect x="2793.7" y="364.6" class="st43" width="122.5" height="18.6"/>
<rect x="2823" y="592.4" class="st62" width="66.2" height="20"/>
<path class="st86" d="M2827.9,612.4c3.4-14.4-13.9-30.4-13.9-46.5c0-43.6,5.5-82-16-107.9c-21.5,25.8-35.3,64.8-35.3,108.4
	c0,16.1,1.9,31.5,5.3,45.9H2827.9z"/>
<path class="st87" d="M2798,458.1L2798,458.1v154.3h29.9c3.4-14.4,5.3-29.8,5.3-45.9C2833.2,522.9,2819.5,483.9,2798,458.1z"/>
<rect x="2876.1" y="447.6" class="st88" width="149.9" height="50.5"/>
<rect x="2881.6" y="498.1" class="st89" width="139.6" height="116.5"/>
<rect x="2967.4" y="522.4" class="st90" width="43.1" height="62.6"/>
<rect x="2973.7" y="531.5" class="st91" width="30.6" height="44.4"/>
<path class="st86" d="M3142.7,559.4c0,37.9-21.2,68.6-47.2,68.6c-26.1,0-47.2-30.7-47.2-68.6c0-37.9,21.1-68.5,47.2-68.5
	C3121.5,490.8,3142.7,521.5,3142.7,559.4z"/>
<path class="st92" d="M3088.6,600.8c0,37.3-20.9,67.5-46.7,67.5c-25.8,0-46.7-30.2-46.7-67.5c0-37.3,20.9-67.5,46.7-67.5
	C3067.7,533.3,3088.6,563.5,3088.6,600.8z"/>
<rect x="2310" y="217.4" class="st93" width="15.5" height="32.5"/>
<rect x="2307.2" y="211.6" class="st23" width="21.2" height="11.6"/>
<rect x="3254.7" y="329.6" class="st94" width="19.3" height="35.2"/>
<rect x="3251.2" y="322.4" class="st23" width="26.5" height="14.5"/>
<polygon class="st95" points="2401,248.5 2288.3,248.5 2275.2,289.9 2414.1,289.9 "/>
<polygon class="st96" points="2331.6,374.5 2177.4,374.5 2190.5,325.9 2318.5,325.9 "/>
<rect x="2334.8" y="305.6" class="st48" width="15.4" height="270.8"/>
<rect x="2484.7" y="559" class="st97" width="13" height="11.1"/>
<polygon class="st6" points="2922.9,337.4 2986.5,337.4 2954.7,274.1 "/>
<polygon class="st54" points="2986.5,337.4 2954.7,274.1 2971.5,337.4 "/>
<rect x="2896.9" y="522.4" class="st90" width="43.1" height="62.6"/>
<rect x="2903.2" y="531.5" class="st98" width="30.6" height="44.4"/>
<rect x="2881.6" y="498.1" class="st99" width="144.7" height="12.5"/>
<path class="st62" d="M2825.6,415.9c0,8-4.5,14.6-10.1,14.6c-5.5,0-10-6.5-10-14.6c0-8.1,4.5-14.6,10-14.6
	C2821.1,401.3,2825.6,407.9,2825.6,415.9z"/>
<path class="st43" d="M2906.9,415.9c0,8-4.5,14.6-10.1,14.6c-5.5,0-10-6.5-10-14.6c0-8.1,4.5-14.6,10-14.6
	C2902.4,401.3,2906.9,407.9,2906.9,415.9z"/>
<rect x="1794" y="609.8" class="st36" width="1928.6" height="59.5"/>
<path class="st100" d="M2591.2,298.5c-16.7,0-30.2,19.6-30.2,43.7v1.7h60.5v-1.7C2621.4,318.1,2607.9,298.5,2591.2,298.5z"/>
<path class="st100" d="M2693.8,295.2c-16.3,0-29.6,19.1-29.6,42.7v1.6h59.2v-1.6C2723.4,314.3,2710.1,295.2,2693.8,295.2z"/>
<rect x="2560.9" y="342.9" class="st100" width="60.5" height="11.6"/>
<rect x="2664.2" y="338.8" class="st100" width="59.2" height="11.2"/>
<polygon class="st46" points="2541.3,289.6 2591.2,188.8 2641,289.6 "/>
<polygon class="st46" points="2644,289.6 2693.8,188.8 2743.6,289.6 "/>
<polygon class="st45" points="2553.7,292.5 2591.2,216 2628.6,292.5 "/>
<polygon class="st45" points="2656.4,292.5 2693.8,216 2731.4,292.5 "/>
<path class="st101" d="M2596.4,253.2c0,4.8-2.7,8.7-6,8.7c-3.3,0-6-3.9-6-8.7c0-4.8,2.7-8.8,6-8.8
	C2593.7,244.5,2596.4,248.4,2596.4,253.2z"/>
<path class="st101" d="M2700.6,249.9c0,4.8-2.7,8.8-6,8.8c-3.3,0-6-3.9-6-8.8c0-4.8,2.7-8.7,6-8.7
	C2697.9,241.2,2700.6,245.1,2700.6,249.9z"/>
<rect x="2568.2" y="468.1" class="st102" width="49.5" height="141.7"/>
<rect x="2557.4" y="447.6" class="st64" width="171.5" height="74.8"/>
<rect x="2557.4" y="447.6" class="st103" width="19.1" height="74.8"/>
<rect x="2576.5" y="447.6" class="st104" width="19.1" height="74.8"/>
<rect x="2595.6" y="447.6" class="st103" width="19.1" height="74.8"/>
<rect x="2614.7" y="447.6" class="st104" width="19.1" height="74.8"/>
<rect x="2633.8" y="447.6" class="st103" width="19.1" height="74.8"/>
<rect x="2652.9" y="447.6" class="st104" width="19.1" height="74.8"/>
<rect x="2672" y="447.6" class="st103" width="19.1" height="74.8"/>
<rect x="2691.1" y="447.6" class="st104" width="19.1" height="74.8"/>
<rect x="2710.2" y="447.6" class="st103" width="19.1" height="74.8"/>
<rect x="2557.4" y="522.4" class="st103" width="172" height="12.8"/>
<rect x="3188.3" y="430.5" class="st33" width="43.3" height="62.8"/>
<rect x="3194.3" y="439.2" class="st105" width="31.2" height="45.3"/>
<rect x="3249.4" y="430.5" class="st33" width="43.3" height="62.8"/>
<rect x="3255.4" y="439.2" class="st105" width="31.2" height="45.3"/>
<rect x="3207.6" y="436.3" class="st33" width="5.5" height="55"/>
<rect x="3268.3" y="434.4" class="st33" width="5.5" height="55"/>
<rect x="2915.7" y="527" class="st90" width="5.5" height="54"/>
<rect x="2987.3" y="526.7" class="st90" width="5.5" height="54"/>
<rect x="2876.1" y="442.3" class="st106" width="150.2" height="18.5"/>
<rect x="2256.4" y="574.9" class="st36" width="8.4" height="54.3"/>
<rect x="2377.4" y="576.4" class="st36" width="8.4" height="54.3"/>
<rect x="2499.5" y="576.9" class="st36" width="8.4" height="54.3"/>
<polygon class="st10" points="3635.7,537.7 3688.6,537.7 3635.7,476.6 3635.7,476.6 "/>
<polygon class="st6" points="3320.6,541.5 3373.5,480.4 3426.5,541.5 "/>
<polygon class="st10" points="3373.5,541.5 3426.5,541.5 3373.5,480.4 3373.5,480.4 "/>
<polygon class="st6" points="2207.7,577 2260.7,515.9 2313.6,577 "/>
<polygon class="st10" points="2260.7,577 2313.6,577 2260.7,515.9 2260.7,515.9 "/>
<polygon class="st6" points="2328.6,577 2381.6,515.9 2434.5,577 "/>
<polygon class="st10" points="2381.6,577 2434.5,577 2381.6,515.9 2381.6,515.9 "/>
<polygon class="st107" points="3451.7,540.1 3504.6,479 3557.5,540.1 "/>
<polygon class="st108" points="3504.6,540.1 3557.5,540.1 3504.6,479 3504.6,479 "/>
<path class="st78" d="M1883.3,609.8c-0.1-28.8-16.2-52.2-36-52.2c-19.9,0-36,23.3-36,52.2H1883.3z"/>
<path class="st79" d="M1903.8,609.8c0-16.4-9.2-29.6-20.5-29.6s-20.4,13.3-20.5,29.6H1903.8z"/>
<rect x="3320.6" y="541.5" class="st6" width="105.9" height="8.3"/>
<rect x="2328.6" y="577" class="st6" width="105.9" height="8.3"/>
<rect x="2207.7" y="577" class="st6" width="105.9" height="8.3"/>
<rect x="3451.7" y="540.1" class="st107" width="105.9" height="8.3"/>
<rect x="3582.7" y="537.7" class="st6" width="105.9" height="8.3"/>
<path class="st109" d="M2591.5,298.6v45.3h29.9v-1.7C2621.4,318.2,2608,298.8,2591.5,298.6z"/>
<path class="st109" d="M2694.2,295.3v44.2h29.2v-1.6C2723.4,314.5,2710.4,295.5,2694.2,295.3z"/>
<path class="st110" d="M2627.6,383.3L2627.6,383.3l-70.2,0v0c-2.5,0-4.5,2.9-4.5,6.5c0,3.6,2,6.5,4.5,6.5v0h70.2v0
	c2.5,0,4.5-2.9,4.5-6.5C2632.1,386.2,2630,383.3,2627.6,383.3z"/>
<path class="st110" d="M2728.9,383.3L2728.9,383.3l-70.2,0v0c-2.5,0-4.5,2.9-4.5,6.5c0,3.6,2,6.5,4.5,6.5v0h70.2v0
	c2.5,0,4.5-2.9,4.5-6.5C2733.4,386.2,2731.4,383.3,2728.9,383.3z"/>
<rect x="2422.1" y="521.5" class="st111" width="80.7" height="22.9"/>
<polygon class="st107" points="2449.9,577 2502.8,515.9 2555.8,577 "/>
<polygon class="st108" points="2502.8,577 2555.8,577 2502.8,515.9 2502.8,515.9 "/>
<rect x="2449.9" y="577" class="st107" width="105.9" height="8.3"/>
<polygon class="st112" points="5054.9,193.8 4959.4,425.6 4928.4,379.8 "/>
<polygon class="st113" points="5467.7,602.3 5245.8,265.2 5177.7,413.1 5054.9,193.8 4871.8,605.9 5058.7,601.8 5058.4,602.3 "/>
<polygon class="st114" points="4896.4,316.7 4768,541.1 4655.8,277.4 4614.3,321.7 4424,612.8 4662.3,614.6 4837.4,614.6 
	5072.1,612.1 "/>
<polygon class="st113" points="4604,277.4 4424,612.8 4629.4,614.4 4629.4,277.4 "/>
<path class="st78" d="M4588.1,461c0,58.1-32.6,105.1-72.8,105.1s-72.8-47.1-72.8-105.1c0-58.1,32.6-105.1,72.8-105.1
	S4588.1,402.9,4588.1,461z"/>
<path class="st79" d="M4515.3,355.9C4515.3,355.9,4515.3,355.9,4515.3,355.9l-0.1,210.3c0,0,0.1,0,0.1,0
	c40.2,0,72.8-47.1,72.8-105.1C4588.1,402.9,4555.5,355.9,4515.3,355.9z"/>
<path class="st80" d="M4552.5,461c0,29.7-16.7,53.7-37.2,53.7c-20.5,0-37.2-24.1-37.2-53.7c0-29.7,16.7-53.7,37.2-53.7
	C4535.9,407.3,4552.5,431.3,4552.5,461z"/>
<path class="st78" d="M4515.3,407.3C4515.3,407.3,4515.3,407.3,4515.3,407.3l-0.1,107.4c0,0,0.1,0,0.1,0c20.5,0,37.2-24.1,37.2-53.7
	C4552.5,431.3,4535.9,407.3,4515.3,407.3z"/>
<path class="st115" d="M3916.3,504.4c0,67.6-37.9,122.4-84.7,122.4c-46.8,0-84.7-54.8-84.7-122.4c0-67.6,37.9-122.4,84.7-122.4
	C3878.4,382,3916.3,436.8,3916.3,504.4z"/>
<path class="st116" d="M3831.6,382C3831.5,382,3831.5,382,3831.6,382l-0.1,244.7c0,0,0.1,0,0.1,0c46.8,0,84.7-54.8,84.7-122.4
	C3916.3,436.8,3878.4,382,3831.6,382z"/>
<path class="st80" d="M3874.9,504.4c0,34.5-19.4,62.5-43.3,62.5c-23.9,0-43.3-28-43.3-62.5c0-34.5,19.4-62.5,43.3-62.5
	C3855.5,441.9,3874.9,469.9,3874.9,504.4z"/>
<path class="st78" d="M3831.6,441.9C3831.5,441.9,3831.5,441.9,3831.6,441.9l-0.1,125.1c0,0,0.1,0,0.1,0c23.9,0,43.3-28,43.3-62.5
	C3874.9,469.9,3855.5,441.9,3831.6,441.9z"/>
<path class="st78" d="M4665.5,514.7c0,40.9-22.9,74-51.2,74c-28.3,0-51.2-33.1-51.2-74c0-40.9,22.9-74,51.2-74
	C4642.6,440.8,4665.5,473.9,4665.5,514.7z"/>
<path class="st79" d="M4614.3,440.8C4614.3,440.8,4614.2,440.8,4614.3,440.8l-0.1,147.9c0,0,0,0,0.1,0c28.3,0,51.2-33.1,51.2-74
	C4665.5,473.9,4642.6,440.8,4614.3,440.8z"/>
<path class="st80" d="M4640.4,514.7c0,20.9-11.7,37.8-26.2,37.8c-14.5,0-26.2-17-26.2-37.8c0-20.9,11.7-37.8,26.2-37.8
	C4628.7,476.9,4640.4,493.9,4640.4,514.7z"/>
<polygon class="st112" points="4529.5,635.9 4324.9,228.6 4239.5,398.6 4099.7,120.4 3841.1,635.3 4120.6,635.3 4120.3,635.9 "/>
<polygon class="st113" points="4324.9,228.6 4454.4,631.5 4550.4,629.3 "/>
<path class="st79" d="M4575.7,515.2c-31.8,0-57.6,37.4-57.6,83.6h115.1C4633.3,552.6,4607.5,515.2,4575.7,515.2z"/>
<path class="st78" d="M4690.9,487.5c-42.3,0-76.7,49.8-76.7,111.3h153.3C4767.6,537.3,4733.3,487.5,4690.9,487.5z"/>
<polygon class="st114" points="4945.8,577.2 4945.2,507.1 5027.5,450.1 5109.3,505.5 5141.8,463.4 5215.3,550.4 5286.6,503.3 
	5377.7,563 5377.7,606.5 4957.2,618 "/>
<path class="st117" d="M3794.4,604.9c3.7-15.6,5.7-32.2,5.7-49.6c0-47.1-14.8-89.2-38.1-117.2c-23.3,27.9-38.1,70-38.1,117.2
	c0,17.4,2,34.1,5.7,49.6H3794.4z"/>
<path class="st118" d="M3762,438.1L3762,438.1l0,166.8h32.4c3.7-15.6,5.7-32.2,5.7-49.6C3800.1,508.1,3785.3,466,3762,438.1z"/>
<path class="st117" d="M5222.1,598.3c3.9-16.4-28.7-33.7-28.7-52c0-49.6,19.1-94.1-5.4-123.5c-24.5,29.4-40.1,73.7-40.1,123.3
	c0,18.3,2.1,35.9,6,52.2H5222.1z"/>
<path class="st118" d="M5188,422.8L5188,422.8l0,175.5h34.1c3.9-16.4,6-33.9,6-52.2C5228.1,496.5,5212.5,452.2,5188,422.8z"/>
<rect x="3675" y="609.5" class="st36" width="1875.3" height="59"/>
<polygon class="st119" points="4963.2,491 5043.8,364.3 5124.3,491 "/>
<rect x="4967.3" y="491" class="st120" width="152.9" height="79.1"/>
<rect x="4967.3" y="570.1" class="st121" width="13.1" height="108.5"/>
<rect x="5013.1" y="570.1" class="st121" width="9.7" height="108.5"/>
<rect x="5062.1" y="570.1" class="st121" width="9.9" height="108.5"/>
<rect x="5107.1" y="570.1" class="st121" width="13.1" height="108.5"/>
<rect x="4967.3" y="570.1" class="st122" width="152.9" height="14.2"/>
<polygon class="st123" points="5043.8,491 5124.3,491 5043.8,364.3 5043.8,364.3 "/>
<rect x="5013.1" y="594.7" class="st121" width="52.4" height="8.4"/>
<rect x="5013.1" y="614.6" class="st121" width="52.4" height="8.4"/>
<rect x="5017.6" y="634" class="st121" width="52.4" height="8.4"/>
<rect x="4705.7" y="494.4" class="st124" width="152.9" height="79.1"/>
<rect x="4705.7" y="573.5" class="st121" width="13.1" height="108.5"/>
<rect x="4751.5" y="573.5" class="st121" width="9.7" height="108.5"/>
<rect x="4800.5" y="573.5" class="st121" width="9.9" height="108.5"/>
<rect x="4845.5" y="573.5" class="st121" width="13.1" height="108.5"/>
<rect x="4705.7" y="501.7" class="st121" width="152.9" height="7.3"/>
<rect x="4967.3" y="499.6" class="st121" width="152.9" height="7.3"/>
<rect x="4705.7" y="573.5" class="st122" width="152.9" height="14.2"/>
<rect x="4751.5" y="598.1" class="st121" width="52.4" height="8.4"/>
<rect x="4751.5" y="618" class="st121" width="52.4" height="8.4"/>
<rect x="4756" y="637.4" class="st121" width="52.4" height="8.4"/>
<rect x="4735.1" y="516.9" class="st121" width="32.9" height="47.8"/>
<rect x="4740.6" y="525" class="st125" width="21.8" height="31.6"/>
<rect x="4794" y="516.9" class="st121" width="32.9" height="47.8"/>
<rect x="4799.6" y="525" class="st6" width="21.8" height="31.6"/>
<rect x="4997.8" y="515.5" class="st121" width="32.9" height="47.8"/>
<rect x="5003.3" y="523.4" class="st126" width="22.1" height="32"/>
<rect x="5056.8" y="515.5" class="st121" width="32.9" height="47.8"/>
<rect x="5062.2" y="523.4" class="st125" width="22.1" height="32"/>
<polygon class="st127" points="4045.8,651.9 4000.7,651.9 4011.7,633.3 4032.7,631.1 "/>
<polygon class="st128" points="4110.1,651.6 4037.3,651.9 4047.8,629.1 4091.4,618.5 "/>
<polygon class="st127" points="4506.1,642.6 4441.6,642.6 4457.3,616.1 4482.6,622.2 "/>
<polygon class="st128" points="4617.9,643.1 4579.8,643.1 4590.3,620.3 4603.4,618 "/>
<polygon class="st6" points="4199.9,441.4 4116.4,528.1 4133.2,557.4 "/>
<polygon class="st113" points="4189.6,417.8 4099.7,120.4 4239.5,398.6 "/>
<polygon class="st113" points="3946.8,607.3 4054.1,451 4118,528.2 4133.2,555.7 4199.9,439.6 4268.9,536 4335.7,555.7 
	4335.7,609.2 "/>
<path class="st79" d="M4089.5,555.2c-20.1,0-36.3,23.6-36.3,52.7h72.6C4125.8,578.8,4109.5,555.2,4089.5,555.2z"/>
<path class="st117" d="M4514.9,598.6c3.7-15.6,5.7-32.3,5.7-49.6c0-47.1-14.8-89.2-38.1-117.2c-23.3,27.9-38.1,70-38.1,117.2
	c0,17.4,2,34.1,5.7,49.6H4514.9z"/>
<path class="st118" d="M4482.6,431.8L4482.6,431.8l0,166.8h32.4c3.7-15.6,5.7-32.3,5.7-49.6C4520.7,501.9,4505.8,459.7,4482.6,431.8
	z"/>
<path class="st117" d="M4539.7,598.6c2.5-10.4-5.7-22.1-5.7-33.7c0-31.4,8.5-58.8-7-77.4c-15.5,18.6-25.4,46.7-25.4,78.1
	c0,11.6,1.4,22.7,3.8,33.1L4539.7,598.6z"/>
<path class="st118" d="M4527,487.6L4527,487.6l0,111.1h21.6c2.5-10.4,3.8-21.5,3.8-33.1C4552.4,534.2,4542.5,506.2,4527,487.6z"/>
<path class="st117" d="M5235.2,514.7L5235.2,514.7L5235.2,514.7c-11.6,13.9-18.9,34.8-18.9,58.1c0,8.6,1,16.9,2.9,24.6l16.1,0v0
	h16.1c1.8-7.7,2.8-16,2.8-24.6C5254.1,549.4,5246.8,528.5,5235.2,514.7z"/>
<polygon class="st6" points="3946.8,607.3 4054.1,451 3937.9,551.8 "/>
<path class="st78" d="M3937.2,536.5c-27.2,0-49.2,32-49.2,71.4h98.4C3986.4,568.4,3964.4,536.5,3937.2,536.5z"/>
<polygon class="st113" points="4284.2,549.6 4347.5,407.4 4410.8,448 4442.5,511.2 4446.8,591.1 "/>
<path class="st118" d="M4397.2,498c-42.3,0-76.7,49.8-76.7,111.3h153.3C4473.8,547.8,4439.5,498,4397.2,498z"/>
<polygon class="st129" points="5247.5,266.9 5155.5,371.4 5177.7,413.1 "/>
<path class="st86" d="M5415.2,513.8c-31.7,0-57.4,37.3-57.4,83.3h114.7C5472.6,551,5446.9,513.8,5415.2,513.8z"/>
<polygon class="st6" points="4020.3,278.6 4020.3,278.6 4047.1,266.3 4079.1,288.2 4116.4,260.3 4134.4,276.3 4169.6,259.5 
	4099.7,120.4 "/>
<polygon class="st130" points="4145.3,271.1 4169.6,259.5 4099.7,120.4 "/>
<polygon class="st6" points="4340.9,319.2 4360.1,311.5 4362.8,304.2 4324.9,228.6 4285.7,306.5 4301.5,309.3 4313.1,321.7 
	4329.6,301.3 "/>
<polygon class="st130" points="4324.9,228.6 4352.5,314.5 4360.1,311.5 4364.7,299.3 "/>
<polygon class="st130" points="5064.6,304 5076.7,318.9 5093.9,287.8 5114.4,300.2 5114.4,300.2 5054.9,193.8 5003.7,307.1 
	5008.6,310.4 5038.9,307.2 5051.6,288.8 "/>
<polygon class="st6" points="5004.3,307.5 5054.9,193.8 4986.2,294.9 "/>
<polygon class="st113" points="4594.9,288.3 4629.4,297.4 4646,289.1 4666.9,293 4655.8,266.9 4604,266.9 4594.9,284 "/>
<polygon class="st113" points="4896.4,306.2 4821.4,459.5 4797.8,425.6 "/>
<polygon class="st54" points="4928.4,360 4896.4,306.2 4859.5,353.8 4868.3,363.6 4886.7,361.2 4904.8,369.3 "/>
<polygon class="st6" points="4896.4,306.2 4857.8,352 4868.3,363.6 "/>
<polygon class="st119" points="4701.6,494.4 4782.2,367.7 4862.7,494.4 "/>
<polygon class="st123" points="4782.2,494.4 4862.7,494.4 4782.2,367.7 4782.2,367.7 "/>
<rect x="4701.6" y="493.6" class="st119" width="161.1" height="9.5"/>
<rect x="4963.2" y="490" class="st119" width="161.1" height="9.6"/>
<polygon class="st131" points="5342.8,640.8 5201.5,640.9 5240,563.3 5295.5,584.3 "/>
<polygon class="st131" points="5373.5,640.9 5312.1,641 5337,608.5 5356,612.1 "/>
<polygon class="st132" points="5222.7,641 5184.6,641 5195.6,615.5 5208.9,608.9 "/>
<polygon class="st132" points="5342.8,640.8 5295.5,584.3 5305.2,640.9 "/>
<rect x="4.2" y="670.6" class="st133" width="5546.8" height="352.1"/>
<rect x="21.5" y="819.4" class="st6" width="111.2" height="50.3"/>
<rect x="254" y="819.4" class="st6" width="111.2" height="50.3"/>
<rect x="483.6" y="819.4" class="st6" width="111.2" height="50.3"/>
<rect x="717.6" y="821.5" class="st6" width="111.2" height="50.3"/>
<rect x="967.4" y="819.4" class="st6" width="111.2" height="50.3"/>
<rect x="1199.9" y="819.4" class="st6" width="111.2" height="50.3"/>
<rect x="1438.2" y="821.5" class="st6" width="111.2" height="50.3"/>
<rect x="1682.2" y="821.5" class="st6" width="111.2" height="50.3"/>
<rect x="1933.5" y="821.5" class="st6" width="111.2" height="50.3"/>
<rect x="2207.9" y="819.4" class="st6" width="111.2" height="50.3"/>
<rect x="2450.5" y="821.5" class="st6" width="111.2" height="50.3"/>
<rect x="2683" y="821.5" class="st6" width="111.2" height="50.3"/>
<rect x="2912.6" y="821.5" class="st6" width="111.2" height="50.3"/>
<rect x="3146.6" y="823.6" class="st6" width="111.2" height="50.3"/>
<rect x="3396.4" y="821.5" class="st6" width="111.2" height="50.3"/>
<rect x="3628.9" y="821.5" class="st6" width="111.2" height="50.3"/>
<rect x="3867.2" y="823.6" class="st6" width="111.2" height="50.3"/>
<rect x="4111.2" y="823.6" class="st6" width="111.2" height="50.3"/>
<rect x="4362.5" y="823.6" class="st6" width="111.2" height="50.3"/>
<rect x="4636.9" y="821.5" class="st6" width="111.2" height="50.3"/>
<rect x="4917" y="823.6" class="st6" width="111.2" height="50.3"/>
<rect x="5161.1" y="823.6" class="st6" width="111.2" height="50.3"/>
<rect x="5412.4" y="823.6" class="st6" width="111.2" height="50.3"/>
<path class="st134" d="M3795.4,676.8H1856.9c-16.2,0-29.3,82.5-29.3,184.5c0,101.8,13.1,184.4,29.3,184.4h1938.5
	c16.2,0,29.3-82.6,29.3-184.4C3824.7,759.4,3811.6,676.8,3795.4,676.8z"/>
<path class="st6" d="M3248.8,666.9V528.1c30.1,39.3,50.8,87,54.6,138.7H3248.8z"/>
<polygon class="st135" points="3303.3,697.1 3239.6,697.1 3239.6,678.8 3311.1,678.8 "/>
<polygon class="st136" points="2139.3,699.3 2075.2,699.3 2075.2,680.6 2147.2,680.6 "/>
<path class="st6" d="M2134.5,675.5V544.6c-28.6,37.1-48.3,82.1-51.8,130.9H2134.5z"/>
<polygon class="st135" points="3198,696.3 3134.3,696.3 3134.3,678 3205.8,678 "/>
<path class="st6" d="M3146,666.9V528.1c30.1,39.3,50.9,87,54.6,138.7H3146z"/>
<polygon class="st137" points="2699.4,705.5 2831.4,705.5 2831.4,679.2 2683.1,679.2 "/>
<path class="st138" d="M2771.4,666.8v-174c37.9,49.3,64.1,109.1,68.9,174H2771.4z"/>
<polygon class="st6" points="2694.5,671.4 2757.3,652.8 2757.3,492.7 "/>
<polygon class="st6" points="4647,296.1 4666.2,288.4 4669,281.1 4631,205.5 4591.9,283.4 4607.6,286.2 4619.3,298.6 4635.7,278.2 
	"/>
<g onmouseup="buttonClick(evt)">	
<a xlink:href="https://www.w3.org/TR/SVG/"
	  target="_blank"><text style="z-index:99999999" transform="matrix(1 0 0 1 2218.1968 364.5893)" class="st6 st139 st140 st141">DANCE </text></a></g>
<text transform="matrix(1 0 0 1 2402.6865 440.9559)" class="st6 st139 st140 st141" onmouseover="alert(123)">DRAMATICS </text>
<text transform="matrix(1 0 0 1 2300.0439 282.5378)" class="st6 st139 st140 st141">FASHION</text>
<text transform="matrix(1 0 0 1 2876.0552 486.2368)" class="st6 st139 st140 st141">PHOTOGRAPHY</text>
<text transform="matrix(1 0 0 1 2588.1777 444.4911)" class="st6 st139 st140 st141">FINE ARTS</text>
<text transform="matrix(1 0 0 1 1873.7212 497.0313)" class="st6 st139 st140 st141 event-literature">LITERATURE</text>
<text transform="matrix(1 0 0 1 2795.5298 393.8407)" class="st6 st139 st140 st141">INFORMALS</text>
<text transform="matrix(1 0 0 1 2034.5298 422.9194)" class="st6 st139 st140 st141">MUSIC</text>

</svg>