<?xml version="1.0" encoding="utf-8"?>
<!-- Generator: Adobe Illustrator 18.1.1, SVG Export Plug-In . SVG Version: 6.00 Build 0)  -->
<svg version="1.1" id="Layer_1" xmlns="http://www.w3.org/2000/svg" xmlns:xlink="http://www.w3.org/1999/xlink" x="0px" y="0px"
	 viewBox="-499 101 2000 800" enable-background="new -499 101 2000 800" xml:space="preserve">
<g>
	<rect x="382.3" y="253.5" fill="#163544" width="95.6" height="489.9"/>
	<g>
		<rect x="424.1" y="269.3" fill="#0E2C38" width="42.2" height="8.3"/>
		<rect x="424.1" y="288.8" fill="#0E2C38" width="42.2" height="8.3"/>
		<rect x="424.1" y="308.4" fill="#0E2C38" width="42.2" height="8.3"/>
		<rect x="424.1" y="328" fill="#0E2C38" width="42.2" height="8.3"/>
		<rect x="424.1" y="347.6" fill="#0E2C38" width="42.2" height="8.3"/>
		<rect x="424.1" y="367.1" fill="#0E2C38" width="42.2" height="8.3"/>
		<rect x="424.1" y="386.7" fill="#0E2C38" width="42.2" height="8.3"/>
		<rect x="424.1" y="406.3" fill="#0E2C38" width="42.2" height="8.3"/>
		<rect x="424.1" y="425.9" fill="#0E2C38" width="42.2" height="8.3"/>
		<rect x="424.1" y="445.4" fill="#0E2C38" width="42.2" height="8.3"/>
		<rect x="424.1" y="465" fill="#0E2C38" width="42.2" height="8.3"/>
		<rect x="424.1" y="484.6" fill="#0E2C38" width="42.2" height="8.3"/>
		<rect x="424.1" y="504.1" fill="#0E2C38" width="42.2" height="8.3"/>
		<rect x="424.1" y="523.7" fill="#0E2C38" width="42.2" height="8.3"/>
		<rect x="424.1" y="543.3" fill="#0E2C38" width="42.2" height="8.3"/>
		<rect x="424.1" y="562.9" fill="#0E2C38" width="42.2" height="8.3"/>
		<rect x="424.1" y="582.4" fill="#0E2C38" width="42.2" height="8.3"/>
		<rect x="424.1" y="602" fill="#0E2C38" width="42.2" height="8.3"/>
		<rect x="424.1" y="621.6" fill="#0E2C38" width="42.2" height="8.3"/>
		<rect x="424.1" y="641.2" fill="#0E2C38" width="42.2" height="8.3"/>
		<rect x="424.1" y="660.7" fill="#0E2C38" width="42.2" height="8.3"/>
		<rect x="424.1" y="680.3" fill="#0E2C38" width="42.2" height="8.3"/>
		<rect x="424.1" y="699.9" fill="#0E2C38" width="42.2" height="8.3"/>
		<rect x="424.1" y="719.4" fill="#0E2C38" width="42.2" height="8.3"/>
	</g>
	<rect x="382.3" y="253.5" fill="#163544" width="6" height="490"/>
	<rect x="382.3" y="232.9" fill="#163544" width="13.7" height="20.6"/>
	<rect x="396" y="242.2" fill="#163544" width="13.7" height="11.3"/>
	<rect x="409.6" y="232.9" fill="#163544" width="13.7" height="20.6"/>
	<rect x="423.3" y="242.2" fill="#163544" width="13.7" height="11.3"/>
	<rect x="437" y="232.9" fill="#163544" width="13.7" height="20.6"/>
	<rect x="450.6" y="242.2" fill="#163544" width="13.7" height="11.3"/>
	<rect x="464.3" y="232.9" fill="#163544" width="13.7" height="20.6"/>
</g>
<rect x="-503" y="742.4" fill="#464949" width="2000.3" height="158.6"/>
<g>
	<polygon fill="#1C4859" points="-453.6,345 -453.6,313.2 -400.2,270.8 -346.8,313.2 -346.8,313.2 -346.8,345 -323.9,345 
		-323.9,742.1 -476.5,742.1 -476.5,345 	"/>
	<rect x="-463.5" y="369.2" fill="#163544" width="128.9" height="15.1"/>
	<rect x="-463.5" y="401.6" fill="#163544" width="128.9" height="15.1"/>
	<rect x="-463.5" y="434" fill="#163544" width="128.9" height="15.1"/>
	<rect x="-463.5" y="466.4" fill="#163544" width="128.9" height="15.1"/>
	<rect x="-463.5" y="498.8" fill="#163544" width="128.9" height="15.1"/>
	<rect x="-463.5" y="531.3" fill="#163544" width="128.9" height="15.1"/>
	<rect x="-463.5" y="563.7" fill="#163544" width="128.9" height="15.1"/>
	<rect x="-463.5" y="596.1" fill="#163544" width="128.9" height="15.1"/>
	<rect x="-463.5" y="628.5" fill="#163544" width="128.9" height="15.1"/>
	<rect x="-463.5" y="660.9" fill="#163544" width="128.9" height="15.1"/>
	<rect x="-415.3" y="692.4" fill="#163544" width="30.3" height="49.7"/>
	<g>
		<rect x="-369.2" y="692.4" fill="#163544" width="30.3" height="49.7"/>
		<rect x="-461.4" y="692.4" fill="#163544" width="30.3" height="49.7"/>
	</g>
	<rect x="-371.1" y="314.8" fill="#163544" width="15.1" height="28.8"/>
	<rect x="-397" y="314.8" fill="#163544" width="15.1" height="28.8"/>
	<rect x="-444.2" y="314.8" fill="#163544" width="15.1" height="28.8"/>
	<rect x="-420.4" y="314.8" fill="#163544" width="15.1" height="28.8"/>
</g>
<g>
	<polygon fill="#163544" points="217.1,379 217.1,348.8 217.1,348.8 164.7,318.5 112.2,348.8 112.2,348.8 112.2,379 88.3,379 
		88.3,742.1 241,742.1 241,379 	"/>
	<g>
		<rect x="103.2" y="401.6" fill="#0E2C38" width="19.2" height="39.5"/>
		<rect x="206.9" y="401.6" fill="#0E2C38" width="19.2" height="39.5"/>
		<rect x="138" y="401.6" fill="#0E2C38" width="19.2" height="39.5"/>
		<rect x="172.7" y="401.6" fill="#0E2C38" width="19.2" height="39.5"/>
	</g>
	<g>
		<rect x="103.2" y="454.9" fill="#C1C0AC" width="19.2" height="39.5"/>
		<rect x="206.9" y="454.9" fill="#0E2C38" width="19.2" height="39.5"/>
		<rect x="138" y="454.9" fill="#0E2C38" width="19.2" height="39.5"/>
		<rect x="172.7" y="454.9" fill="#0E2C38" width="19.2" height="39.5"/>
	</g>
	<g>
		<rect x="103.2" y="616.1" fill="#0E2C38" width="19.2" height="39.5"/>
		<rect x="206.9" y="616.1" fill="#0E2C38" width="19.2" height="39.5"/>
		<rect x="138" y="616.1" fill="#C1C0AC" width="19.2" height="39.5"/>
		<rect x="172.7" y="616.1" fill="#0E2C38" width="19.2" height="39.5"/>
	</g>
	<g>
		<rect x="103.2" y="508.2" fill="#0E2C38" width="19.2" height="39.5"/>
		<rect x="206.9" y="508.2" fill="#0E2C38" width="19.2" height="39.5"/>
		<rect x="138" y="508.2" fill="#0E2C38" width="19.2" height="39.5"/>
		<rect x="172.7" y="508.2" fill="#C1C0AC" width="19.2" height="39.5"/>
	</g>
	<g>
		<rect x="103.2" y="561.6" fill="#0E2C38" width="19.2" height="39.5"/>
		<rect x="206.9" y="561.6" fill="#0E2C38" width="19.2" height="39.5"/>
		<rect x="138" y="561.6" fill="#0E2C38" width="19.2" height="39.5"/>
		<rect x="172.7" y="561.6" fill="#0E2C38" width="19.2" height="39.5"/>
	</g>
	<g>
		<rect x="103.2" y="670.6" fill="#0E2C38" width="19.2" height="39.5"/>
		<rect x="206.9" y="670.6" fill="#0E2C38" width="19.2" height="39.5"/>
		<rect x="138" y="670.6" fill="#0E2C38" width="19.2" height="39.5"/>
		<rect x="172.7" y="670.6" fill="#0E2C38" width="19.2" height="39.5"/>
	</g>
</g>
<g>
	<path fill="#163544" d="M-48.4,654.3l0-0.3h0l0.7-57.8c0.4-3.4,2.9-5.4,7.5-5.9c0-1.6,0-3.1,0-4.7c-2.8,0-5.6,0-8.4,0l0.5-50
		c0.5-2.8,2.8-4.3,6.7-4.6c0-1.5,0-3,0-4.5c-2.1,0-4.3,0-6.4,0v-1.6v-0.2v-8c-0.6,0-11.2-0.3-14.5-0.3c-1.7-19.9-3.4-39.8-5-59.8
		c-0.9,0-1.7,0-2.6,0c-0.5,1.9-1,3.8-1.5,5.7c-3.5,0.1-5.4,0.1-8.8,0.1l-0.5,0c-0.6-16.7,0-28.8-0.4-48.2l24,0.2
		c-2.3-1.6-4.6-3.3-6.9-4.9c2.7-1.8,5.3-3.5,8-5.3c-5.8-0.1-14.2-0.1-25.4,0c0-0.9-0.1-1.8-0.1-2.7l0-0.3c-0.3-5.4-0.3-6-0.7,0.1
		c-1.4,21.7-0.7,40.6-1.1,61.1c-3.1,0-6.2,0-9.4-0.1c-0.5-1.9-1-3.8-1.5-5.7c-0.9,0-1.7,0-2.6,0c-1.7,19.9-3.4,39.8-5,59.8
		c-3.3,0-13.9,0.3-14.5,0.3v8v0.2v1.6c-2.1,0-4.3,0-6.4,0c0,1.5,0,3,0,4.5c3.9,0.3,6.1,1.8,6.7,4.6l0.5,50c-2.8,0-5.6,0-8.4,0
		c0,1.6,0,3.1,0,4.7c4.5,0.6,7,2.5,7.5,5.9l0.7,57.8h0l0,0.3c-3.3,0-6.5,0-9.8,0c0,2.4,0,4.8,0,7.2c3.8,0.7,5.5,3,5.3,7l0.1,73.8
		h38.5H-44l0.1-73.8c-0.2-4,1.5-6.3,5.3-7c0-2.4,0-4.8,0-7.2C-41.9,654.3-45.2,654.3-48.4,654.3z"/>
	<path fill="#FFF6E1" d="M-65.1,558.9c0-9.3-7.4-16.8-16.7-16.9c-0.1,0-0.2,0-0.3,0c-9.4,0-17,7.6-17,17c0,9.4,7.6,16.9,17,16.9
		c0.1,0,0.2,0,0.3,0C-72.5,575.7-65.1,568.1-65.1,558.9z M-71.4,558.4c-0.9,1.3-1.5,2-2.2,3.2c0-0.5-0.1-1.2,0-1.7
		c-2.9,0.1-9.8,0.2-10.5,0.2c0-0.7-0.1-1.4-0.1-2.1c0-2.3,0-9.8,0-10.7c-0.5,0.1-0.9-0.1-1.3,0c1.6-1.7,1.6-1.8,3-3.3
		c0.8,1.2,1.3,1.8,2.4,3.4c-0.5-0.1-0.8,0-1.5,0c0.2,4.1,0.2,6.5,0.4,10.4c2.6,0.1,4.3,0,7.1,0.1c-0.1-0.5,0.2-1.7,0.1-2.1
		C-73,556.7-72.6,557.1-71.4,558.4z"/>
	<path fill="#0E2C38" d="M-70.6,723.4v-30.3c0-7.3-5.1-13.1-11.5-13.1c-6.3,0-11.5,5.9-11.5,13.1v30.3H-70.6z"/>
	<path fill="#0E2C38" d="M-70.6,643.8v-30.3c0-7.3-5.1-13.1-11.5-13.1c-6.3,0-11.5,5.9-11.5,13.1v30.3H-70.6z"/>
</g>
<g>
	<polygon fill="#163544" points="-197.1,438.8 -197.1,425.2 -213.5,425.2 -213.5,411.7 -292.2,411.7 -292.2,425.2 -308.6,425.2 
		-308.6,438.8 -322.4,438.8 -322.4,742.4 -183.2,742.4 -183.2,438.8 	"/>
	<rect x="-285.9" y="493.9" fill="#C1C0AC" width="14.8" height="28.6"/>
	<rect x="-312.5" y="493.9" fill="#0E2C38" width="14.8" height="28.6"/>
	<rect x="-259.3" y="493.9" fill="#0E2C38" width="14.8" height="28.6"/>
	<rect x="-285.9" y="449.3" fill="#0E2C38" width="14.8" height="28.6"/>
	<rect x="-312.5" y="449.3" fill="#0E2C38" width="14.8" height="28.6"/>
	<rect x="-259.3" y="449.3" fill="#0E2C38" width="14.8" height="28.6"/>
	<rect x="-285.9" y="538.5" fill="#0E2C38" width="14.8" height="28.6"/>
	<rect x="-312.5" y="538.5" fill="#0E2C38" width="14.8" height="28.6"/>
	<rect x="-259.3" y="538.5" fill="#0E2C38" width="14.8" height="28.6"/>
	<rect x="-234.6" y="493.9" fill="#0E2C38" width="14.8" height="28.6"/>
	<rect x="-208" y="493.9" fill="#0E2C38" width="14.8" height="28.6"/>
	<rect x="-234.6" y="449.3" fill="#0E2C38" width="14.8" height="28.6"/>
	<rect x="-208" y="449.3" fill="#0E2C38" width="14.8" height="28.6"/>
	<rect x="-234.6" y="538.5" fill="#0E2C38" width="14.8" height="28.6"/>
	<rect x="-208" y="538.5" fill="#C1C0AC" width="14.8" height="28.6"/>
	<rect x="-285.9" y="587.1" fill="#0E2C38" width="14.8" height="28.6"/>
	<rect x="-312.5" y="587.1" fill="#C1C0AC" width="14.8" height="28.6"/>
	<rect x="-259.3" y="587.1" fill="#0E2C38" width="14.8" height="28.6"/>
	<rect x="-285.9" y="631.7" fill="#0E2C38" width="14.8" height="28.6"/>
	<rect x="-312.5" y="631.7" fill="#0E2C38" width="14.8" height="28.6"/>
	<rect x="-259.3" y="631.7" fill="#C1C0AC" width="14.8" height="28.6"/>
	<rect x="-234.6" y="587.1" fill="#0E2C38" width="14.8" height="28.6"/>
	<rect x="-208" y="587.1" fill="#0E2C38" width="14.8" height="28.6"/>
	<rect x="-234.6" y="631.7" fill="#0E2C38" width="14.8" height="28.6"/>
	<rect x="-208" y="631.7" fill="#0E2C38" width="14.8" height="28.6"/>
	<rect x="-285.9" y="668.9" fill="#0E2C38" width="14.8" height="73.2"/>
	<rect x="-312.5" y="668.9" fill="#0E2C38" width="14.8" height="73.2"/>
	<rect x="-259.3" y="668.9" fill="#0E2C38" width="14.8" height="73.2"/>
	<rect x="-234.6" y="668.9" fill="#0E2C38" width="14.8" height="73.2"/>
	<rect x="-208" y="668.9" fill="#0E2C38" width="14.8" height="73.2"/>
</g>
<g>
	<polygon fill="#163544" points="1113.7,438.8 1113.7,425.2 1097.3,425.2 1097.3,411.7 1018.6,411.7 1018.6,425.2 1002.2,425.2 
		1002.2,438.8 988.3,438.8 988.3,742.4 1127.5,742.4 1127.5,438.8 	"/>
	<rect x="1024.8" y="493.9" fill="#0E2C38" width="14.8" height="28.6"/>
	<rect x="998.2" y="493.9" fill="#0E2C38" width="14.8" height="28.6"/>
	<rect x="1051.5" y="493.9" fill="#0E2C38" width="14.8" height="28.6"/>
	<rect x="1024.8" y="449.3" fill="#0E2C38" width="14.8" height="28.6"/>
	<rect x="998.2" y="449.3" fill="#0E2C38" width="14.8" height="28.6"/>
	<rect x="1051.5" y="449.3" fill="#0E2C38" width="14.8" height="28.6"/>
	<rect x="1024.8" y="538.5" fill="#0E2C38" width="14.8" height="28.6"/>
	<rect x="998.2" y="538.5" fill="#0E2C38" width="14.8" height="28.6"/>
	<rect x="1051.5" y="538.5" fill="#C1C0AC" width="14.8" height="28.6"/>
	<rect x="1076.2" y="493.9" fill="#0E2C38" width="14.8" height="28.6"/>
	<rect x="1102.8" y="493.9" fill="#C1C0AC" width="14.8" height="28.6"/>
	<rect x="1076.2" y="449.3" fill="#C1C0AC" width="14.8" height="28.6"/>
	<rect x="1102.8" y="449.3" fill="#0E2C38" width="14.8" height="28.6"/>
	<rect x="1076.2" y="538.5" fill="#0E2C38" width="14.8" height="28.6"/>
	<rect x="1102.8" y="538.5" fill="#0E2C38" width="14.8" height="28.6"/>
	<rect x="1024.8" y="587.1" fill="#0E2C38" width="14.8" height="28.6"/>
	<rect x="998.2" y="587.1" fill="#0E2C38" width="14.8" height="28.6"/>
	<rect x="1051.5" y="587.1" fill="#0E2C38" width="14.8" height="28.6"/>
	<rect x="1024.8" y="631.7" fill="#0E2C38" width="14.8" height="28.6"/>
	<rect x="998.2" y="631.7" fill="#C1C0AC" width="14.8" height="28.6"/>
	<rect x="1051.5" y="631.7" fill="#0E2C38" width="14.8" height="28.6"/>
	<rect x="1076.2" y="587.1" fill="#0E2C38" width="14.8" height="28.6"/>
	<rect x="1102.8" y="587.1" fill="#C1C0AC" width="14.8" height="28.6"/>
	<rect x="1076.2" y="631.7" fill="#0E2C38" width="14.8" height="28.6"/>
	<rect x="1102.8" y="631.7" fill="#0E2C38" width="14.8" height="28.6"/>
	<rect x="1024.8" y="668.9" fill="#0E2C38" width="14.8" height="73.2"/>
	<rect x="998.2" y="668.9" fill="#0E2C38" width="14.8" height="73.2"/>
	<rect x="1051.5" y="668.9" fill="#0E2C38" width="14.8" height="73.2"/>
	<rect x="1076.2" y="668.9" fill="#0E2C38" width="14.8" height="73.2"/>
	<rect x="1102.8" y="668.9" fill="#0E2C38" width="14.8" height="73.2"/>
</g>
<g>
	<polygon fill="#113E4C" points="475.2,566.2 475.2,552.6 443.6,552.6 292,552.6 260.4,552.6 260.4,566.2 233.7,566.2 233.7,742.5 
		501.9,742.5 501.9,566.2 	"/>
	<g>
		<rect x="295.1" y="635.6" fill="#163544" width="23" height="28.6"/>
		<g>
			<rect x="253.9" y="635.6" fill="#163544" width="23" height="28.6"/>
			<rect x="336.3" y="635.6" fill="#163544" width="23" height="28.6"/>
		</g>
	</g>
	<g>
		<g>
			<rect x="295.1" y="591" fill="#163544" width="23" height="28.6"/>
			<g>
				<rect x="253.9" y="591" fill="#163544" width="23" height="28.6"/>
				<rect x="336.3" y="591" fill="#163544" width="23" height="28.6"/>
			</g>
		</g>
		<g>
			<rect x="295.1" y="680.3" fill="#C1C0AC" width="23" height="28.6"/>
			<g>
				<rect x="253.9" y="680.3" fill="#163544" width="23" height="28.6"/>
				<rect x="336.3" y="680.3" fill="#163544" width="23" height="28.6"/>
			</g>
		</g>
	</g>
	<g>
		<rect x="418.4" y="635.6" fill="#163544" width="23" height="28.6"/>
		<g>
			<rect x="377.2" y="635.6" fill="#163544" width="23" height="28.6"/>
			<rect x="459.6" y="635.6" fill="#163544" width="23" height="28.6"/>
		</g>
	</g>
	<g>
		<g>
			<rect x="418.4" y="591" fill="#C1C0AC" width="23" height="28.6"/>
			<g>
				<rect x="377.2" y="591" fill="#163544" width="23" height="28.6"/>
				<rect x="459.6" y="591" fill="#163544" width="23" height="28.6"/>
			</g>
		</g>
		<g>
			<rect x="418.4" y="680.3" fill="#163544" width="23" height="28.6"/>
			<g>
				<rect x="377.2" y="680.3" fill="#163544" width="23" height="28.6"/>
				<rect x="459.6" y="680.3" fill="#163544" width="23" height="28.6"/>
			</g>
		</g>
	</g>
</g>
<g>
	<rect x="784.4" y="554.5" fill="#163544" width="203.4" height="187.4"/>
	<polygon fill="#163544" points="978.5,530.1 999.8,574.3 772.4,574.3 793.6,530.1 	"/>
	<path fill="#163544" d="M899,501.8h7.2c1.2-8.3,9.9-14.6,20.4-14.6c10.5,0,19.2,6.4,20.4,14.6h7.2v8.1h-7.1v32.3H906v-32.3h-7.1
		L899,501.8L899,501.8z"/>
	<path fill="#163544" d="M804.3,501.8h7.2c1.2-8.3,9.9-14.6,20.4-14.6s19.2,6.4,20.4,14.6h7.2v8.1h-7.1v32.3h-41.2v-32.3h-7.1
		L804.3,501.8L804.3,501.8z"/>
	<g>
		<g>
			<rect x="942.1" y="576.3" fill="#0E2C38" width="29.8" height="38.6"/>
			<rect x="894.7" y="576.3" fill="#0E2C38" width="29.8" height="38.6"/>
			<rect x="849" y="576.3" fill="#0E2C38" width="29.8" height="38.6"/>
			<rect x="802.5" y="576.3" fill="#0E2C38" width="29.8" height="38.6"/>
		</g>
		<g>
			<rect x="942.1" y="631.8" fill="#0E2C38" width="29.8" height="38.6"/>
			<rect x="894.7" y="631.8" fill="#0E2C38" width="29.8" height="38.6"/>
			<rect x="849" y="631.8" fill="#0E2C38" width="29.8" height="38.6"/>
			<rect x="802.5" y="631.8" fill="#0E2C38" width="29.8" height="38.6"/>
		</g>
		<g>
			<rect x="942.1" y="684" fill="#0E2C38" width="29.8" height="38.6"/>
			<rect x="894.7" y="684" fill="#0E2C38" width="29.8" height="38.6"/>
			<rect x="849" y="684" fill="#0E2C38" width="29.8" height="38.6"/>
			<rect x="802.5" y="684" fill="#0E2C38" width="29.8" height="38.6"/>
		</g>
		<path fill="#C1C0AC" d="M913.6,504.3c0.5-5.9,6.1-10.5,13-10.5c6.9,0,12.5,4.6,13,10.5H913.6z"/>
		<rect x="914.9" y="519.3" fill="#C1C0AC" width="23.4" height="13"/>
		<path fill="#0E2C38" d="M819,504.3c0.5-5.9,6.1-10.5,13-10.5c6.9,0,12.5,4.6,13,10.5H819z"/>
		<rect x="820.3" y="519.3" fill="#0E2C38" width="23.4" height="13"/>
	</g>
</g>
<g>
	<rect x="1155.6" y="291.1" fill="#163544" width="319.7" height="451.4"/>
	<rect x="1171.8" y="344.1" fill="#0E2C38" width="287.2" height="12"/>
	<rect x="1171.8" y="371.7" fill="#0E2C38" width="287.2" height="12"/>
	<rect x="1171.8" y="398.4" fill="#0E2C38" width="287.2" height="12"/>
	<rect x="1171.8" y="426" fill="#0E2C38" width="287.2" height="12"/>
	<rect x="1171.8" y="452.6" fill="#0E2C38" width="287.2" height="12"/>
	<rect x="1171.8" y="480.3" fill="#0E2C38" width="287.2" height="12"/>
	<rect x="1171.8" y="506.9" fill="#0E2C38" width="287.2" height="12"/>
	<rect x="1171.8" y="534.5" fill="#0E2C38" width="287.2" height="12"/>
	<rect x="1171.8" y="562.2" fill="#0E2C38" width="287.2" height="12"/>
	<rect x="1171.8" y="589.8" fill="#0E2C38" width="287.2" height="12"/>
	<rect x="1171.8" y="616.5" fill="#0E2C38" width="287.2" height="12"/>
	<rect x="1171.8" y="644.1" fill="#0E2C38" width="287.2" height="12"/>
	<rect x="1171.8" y="670.7" fill="#0E2C38" width="287.2" height="12"/>
	<rect x="1171.8" y="698.4" fill="#0E2C38" width="287.2" height="12"/>
</g>
<g>
	<rect x="501.7" y="416.4" fill="#163544" width="217.9" height="325.4"/>
	<path fill="#163544" d="M611.1,350.9c-60,0-108.5,29.8-108.5,66.5h217.1C719.6,380.7,671,350.9,611.1,350.9z"/>
	<g>
		<path fill="#0E2C38" d="M668.5,399.6h40.2c-4.6-9-12.9-17.3-24.4-24.4c-8.3-5.1-17.7-9.1-28-12.2
			C660.2,373.2,664.6,385.7,668.5,399.6z"/>
		<path fill="#0E2C38" d="M565.1,363.1c-10.3,3-19.7,7.1-28,12.2c-11.5,7-19.8,15.4-24.5,24.4h40.2
			C556.7,385.7,561.1,373.2,565.1,363.1z"/>
		<path fill="#0E2C38" d="M559.7,399.6h101.8c-4.3-15.1-9.2-28.5-13.3-38.6c-11.8-2.8-24.5-4.2-37.6-4.2c-13.1,0-25.8,1.4-37.6,4.2
			C568.9,371.2,564,384.5,559.7,399.6z"/>
	</g>
	<g>
		<g>
			<rect x="510.3" y="435.4" fill="#0E2C38" width="24.9" height="24.9"/>
			<rect x="545.5" y="435.4" fill="#0E2C38" width="24.9" height="24.9"/>
			<rect x="580.6" y="435.4" fill="#0E2C38" width="24.9" height="24.9"/>
			<rect x="615.8" y="435.4" fill="#0E2C38" width="24.9" height="24.9"/>
			<rect x="650.9" y="435.4" fill="#0E2C38" width="24.9" height="24.9"/>
			<rect x="686.1" y="435.4" fill="#0E2C38" width="24.9" height="24.9"/>
		</g>
		<g>
			<rect x="510.3" y="473" fill="#0E2C38" width="24.9" height="24.9"/>
			<rect x="545.5" y="473" fill="#0E2C38" width="24.9" height="24.9"/>
			<rect x="580.6" y="473" fill="#C1C0AC" width="24.9" height="24.9"/>
			<rect x="615.8" y="473" fill="#0E2C38" width="24.9" height="24.9"/>
			<rect x="650.9" y="473" fill="#0E2C38" width="24.9" height="24.9"/>
			<rect x="686.1" y="473" fill="#0E2C38" width="24.9" height="24.9"/>
		</g>
		<g>
			<rect x="510.3" y="510.5" fill="#0E2C38" width="24.9" height="24.9"/>
			<rect x="545.5" y="510.5" fill="#0E2C38" width="24.9" height="24.9"/>
			<rect x="580.6" y="510.5" fill="#0E2C38" width="24.9" height="24.9"/>
			<rect x="615.8" y="510.5" fill="#0E2C38" width="24.9" height="24.9"/>
			<rect x="650.9" y="510.5" fill="#C1C0AC" width="24.9" height="24.9"/>
			<rect x="686.1" y="510.5" fill="#0E2C38" width="24.9" height="24.9"/>
		</g>
		<g>
			<rect x="510.3" y="548.1" fill="#0E2C38" width="24.9" height="24.9"/>
			<rect x="545.5" y="548.1" fill="#0E2C38" width="24.9" height="24.9"/>
			<rect x="580.6" y="548.1" fill="#0E2C38" width="24.9" height="24.9"/>
			<rect x="615.8" y="548.1" fill="#0E2C38" width="24.9" height="24.9"/>
			<rect x="650.9" y="548.1" fill="#0E2C38" width="24.9" height="24.9"/>
			<rect x="686.1" y="548.1" fill="#0E2C38" width="24.9" height="24.9"/>
		</g>
		<g>
			<rect x="510.3" y="585.6" fill="#0E2C38" width="24.9" height="24.9"/>
			<rect x="545.5" y="585.6" fill="#C1C0AC" width="24.9" height="24.9"/>
			<rect x="580.6" y="585.6" fill="#0E2C38" width="24.9" height="24.9"/>
			<rect x="615.8" y="585.6" fill="#0E2C38" width="24.9" height="24.9"/>
			<rect x="650.9" y="585.6" fill="#0E2C38" width="24.9" height="24.9"/>
			<rect x="686.1" y="585.6" fill="#0E2C38" width="24.9" height="24.9"/>
		</g>
		<g>
			<rect x="510.3" y="623.2" fill="#0E2C38" width="24.9" height="24.9"/>
			<rect x="545.5" y="623.2" fill="#0E2C38" width="24.9" height="24.9"/>
			<rect x="580.6" y="623.2" fill="#0E2C38" width="24.9" height="24.9"/>
			<rect x="615.8" y="623.2" fill="#0E2C38" width="24.9" height="24.9"/>
			<rect x="650.9" y="623.2" fill="#0E2C38" width="24.9" height="24.9"/>
			<rect x="686.1" y="623.2" fill="#0E2C38" width="24.9" height="24.9"/>
		</g>
		<g>
			<rect x="510.3" y="660.7" fill="#0E2C38" width="24.9" height="24.9"/>
			<rect x="545.5" y="660.7" fill="#0E2C38" width="24.9" height="24.9"/>
			<rect x="580.6" y="660.7" fill="#0E2C38" width="24.9" height="24.9"/>
			<rect x="615.8" y="660.7" fill="#0E2C38" width="24.9" height="24.9"/>
			<rect x="650.9" y="660.7" fill="#0E2C38" width="24.9" height="24.9"/>
			<rect x="686.1" y="660.7" fill="#0E2C38" width="24.9" height="24.9"/>
		</g>
		<g>
			<rect x="510.3" y="698.3" fill="#0E2C38" width="24.9" height="24.9"/>
			<rect x="545.5" y="698.3" fill="#0E2C38" width="24.9" height="24.9"/>
			<rect x="580.6" y="698.3" fill="#0E2C38" width="24.9" height="24.9"/>
			<rect x="615.8" y="698.3" fill="#0E2C38" width="24.9" height="24.9"/>
			<rect x="650.9" y="698.3" fill="#0E2C38" width="24.9" height="24.9"/>
			<rect x="686.1" y="698.3" fill="#0E2C38" width="24.9" height="24.9"/>
		</g>
	</g>
</g>
<g>
	<path fill="#9EB518" d="M31.9,703.2c0,18.4,5.5,20,12.3,20c6.8,0,12.3-1.6,12.3-20c0-18.4-5.5-33.3-12.3-33.3
		C37.4,669.9,31.9,684.8,31.9,703.2z"/>
	<path fill="#66411D" d="M42.8,741.6c0-0.1-0.1-0.3-0.1-0.6v-31.5l-4.5-7.4c0,0,0-0.2,0.2-0.2l0.5-0.3c0.1-0.1,0.2-0.1,0.2-0.1
		c0,0,0.1,0,0.1,0l2.5,4.1l1,1.7v-11.2c0-0.3,0.1-0.5,0.1-0.6h2.1c0.1,0.1,0.1,0.3,0.1,0.6v5.2l3.7-6c0,0,0,0,0,0c0,0,0,0,0.1,0
		c0.1,0,0.2,0,0.2,0.1l0.5,0.3c0.1,0.1,0.2,0.2,0.2,0.3l-4.7,7.6v6.6l6.3-3.3c0,0,0.2,0.1,0.2,0.2l0.3,0.5c0.1,0.2,0.1,0.3,0,0.3
		l-6.9,3.6V741c0,0.3-0.1,0.5-0.1,0.6L42.8,741.6L42.8,741.6L42.8,741.6L42.8,741.6z"/>
</g>
<g>
	<path fill="#9EB518" d="M439.8,706.6c0,16.7,5,18.2,11.2,18.2c6.2,0,11.2-1.4,11.2-18.2c0-16.7-5-30.3-11.2-30.3
		C444.8,676.3,439.8,689.9,439.8,706.6z"/>
	<path fill="#66411D" d="M449.7,741.6c0-0.1-0.1-0.2-0.1-0.5v-28.7l-4.1-6.7c0,0,0-0.1,0.2-0.2l0.4-0.3c0.1-0.1,0.2-0.1,0.2-0.1
		c0,0,0.1,0,0.1,0l2.3,3.7l0.9,1.5v-10.2c0-0.3,0.1-0.5,0.1-0.5h1.9c0.1,0.1,0.1,0.2,0.1,0.5v4.7l3.4-5.5c0,0,0,0,0,0c0,0,0,0,0.1,0
		c0.1,0,0.1,0,0.2,0.1l0.4,0.3c0.1,0.1,0.2,0.2,0.2,0.2l-4.3,6.9v6l5.8-3c0,0,0.1,0.1,0.2,0.2l0.2,0.5c0.1,0.1,0.1,0.3,0,0.3
		l-6.2,3.2v27c0,0.3-0.1,0.4-0.1,0.5L449.7,741.6L449.7,741.6z"/>
</g>
<g>
	<path fill="#9EB518" d="M233.5,720.8c0,10.3,3.1,11.2,6.9,11.2c3.8,0,6.9-0.9,6.9-11.2c0-10.3-3.1-18.7-6.9-18.7
		S233.5,710.5,233.5,720.8z"/>
	<path fill="#66411D" d="M239.6,742.4c0,0-0.1-0.1-0.1-0.3v-17.7l-2.5-4.1c0,0,0-0.1,0.1-0.1l0.3-0.2c0.1,0,0.1,0,0.1,0c0,0,0,0,0,0
		l1.4,2.3l0.6,0.9v-6.3c0-0.2,0-0.3,0.1-0.3h1.2c0,0,0.1,0.1,0.1,0.3v2.9l2.1-3.4l0,0c0,0,0,0,0,0c0,0,0.1,0,0.1,0l0.3,0.2
		c0.1,0,0.1,0.1,0.1,0.1l-2.6,4.3v3.7l3.6-1.8c0,0,0.1,0,0.1,0.1l0.1,0.3c0,0.1,0,0.2,0,0.2l-3.9,2v16.7c0,0.2,0,0.3-0.1,0.3
		L239.6,742.4L239.6,742.4z"/>
</g>
<g>
	<polygon fill="#1C4859" points="747.9,659.7 718.3,622.3 697.3,648.9 694.6,648.9 694.6,635.6 696.2,635.6 696.2,632.4 687,632.4 
		687,635.6 688.7,635.6 688.7,648.9 649.6,648.9 649.6,635.6 651.3,635.6 651.3,632.4 642,632.4 642,635.6 643.7,635.6 643.7,648.9 
		641.4,648.9 620.4,622.3 590.9,659.7 590.8,659.7 590.8,741.8 637.3,741.8 650,741.8 688.7,741.8 706.2,741.8 747.9,741.8 
		747.9,659.7 	"/>
	<g>
		<g>
			<rect x="598.7" y="664.8" fill="#163544" width="8" height="30.1"/>
			<rect x="609.6" y="664.8" fill="#163544" width="8" height="30.1"/>
		</g>
		<g>
			<g>
				<rect x="623.1" y="664.8" fill="#163544" width="8" height="30.1"/>
				<rect x="634.1" y="664.8" fill="#163544" width="8" height="30.1"/>
			</g>
			<rect x="598.7" y="707.3" fill="#163544" width="43.5" height="27.9"/>
		</g>
	</g>
	<path fill="#C1C0AC" d="M626,655.4v-10.3c0-1.8-2.5-3.3-5.6-3.3c-3.1,0-5.6,1.5-5.6,3.3v10.3H626z"/>
	<g>
		<g>
			<rect x="696.6" y="664.8" fill="#163544" width="8" height="30.1"/>
			<rect x="707.6" y="664.8" fill="#163544" width="8" height="30.1"/>
		</g>
		<g>
			<g>
				<rect x="721.1" y="664.8" fill="#C1C0AC" width="8" height="30.1"/>
				<rect x="732" y="664.8" fill="#C1C0AC" width="8" height="30.1"/>
			</g>
			<rect x="696.6" y="707.3" fill="#163544" width="43.5" height="27.9"/>
		</g>
	</g>
	<path fill="#163544" d="M723.9,655.4v-10.3c0-1.8-2.5-3.3-5.6-3.3c-3.1,0-5.6,1.5-5.6,3.3v10.3H723.9z"/>
	<path fill="#163544" d="M679.6,694.7v-20c0-3.5-4.4-6.4-9.9-6.4s-9.9,2.9-9.9,6.4v20H679.6z"/>
	<rect x="659.5" y="705" fill="#163544" width="19.9" height="36.8"/>
</g>
<g>
	<path fill="#1C4859" d="M-134.5,565.8c-0.7-20.9-17.8-37.7-39-37.7s-38.3,16.8-39,37.7h-19.7v176h117.3v-176H-134.5z"/>
	<g>
		<rect x="-223.1" y="572" fill="#163544" width="99.3" height="8.6"/>
		<rect x="-223.1" y="591" fill="#163544" width="99.3" height="8.6"/>
		<rect x="-223.1" y="610.6" fill="#163544" width="99.3" height="8.5"/>
		<rect x="-223.1" y="630.2" fill="#163544" width="99.3" height="8.6"/>
		<rect x="-223.1" y="649.9" fill="#163544" width="99.3" height="8.5"/>
		<rect x="-223.1" y="668.8" fill="#163544" width="99.3" height="8.6"/>
		<rect x="-223.1" y="688.5" fill="#163544" width="99.3" height="8.5"/>
		<rect x="-223.1" y="707.4" fill="#163544" width="99.3" height="8.5"/>
		<rect x="-223.1" y="727" fill="#163544" width="99.3" height="8.5"/>
	</g>
</g>
<g>
	<rect x="-502.2" y="742.4" fill="#464949" width="2018.2" height="158.6"/>
	<rect x="-502.2" y="742.4" opacity="0.5" fill="#0E2C38" enable-background="new    " width="2020.4" height="158.6"/>
</g>
</svg>
