<?xml version="1.0" encoding="utf-8"?>
<!-- Generator: Adobe Illustrator 16.0.0, SVG Export Plug-In . SVG Version: 6.00 Build 0)  -->
<!DOCTYPE svg PUBLIC "-//W3C//DTD SVG 1.1//EN" "http://www.w3.org/Graphics/SVG/1.1/DTD/svg11.dtd">
<svg version="1.1" id="Layer_1" xmlns="http://www.w3.org/2000/svg" xmlns:xlink="http://www.w3.org/1999/xlink" x="0px" y="0px"
	 width="2000px" height="800px" viewBox="0 0 2000 800" enable-background="new 0 0 2000 800" xml:space="preserve">
<g>
	<g>
		<rect x="881.27" y="152.466" fill="#EEDCF4" width="95.609" height="489.924"/>
		<g>
			<rect x="923.051" y="168.277" fill="#FFFFFF" width="42.163" height="8.278"/>
			<rect x="923.051" y="187.848" fill="#FFFFFF" width="42.163" height="8.288"/>
			<rect x="923.051" y="207.429" fill="#FFFFFF" width="42.163" height="8.276"/>
			<rect x="923.051" y="226.998" fill="#FFFFFF" width="42.163" height="8.282"/>
			<rect x="923.051" y="246.562" fill="#FFFFFF" width="42.163" height="8.29"/>
			<rect x="923.051" y="266.144" fill="#FFFFFF" width="42.163" height="8.277"/>
			<rect x="923.051" y="285.719" fill="#FFFFFF" width="42.163" height="8.271"/>
			<rect x="923.051" y="305.279" fill="#FFFFFF" width="42.163" height="8.282"/>
			<rect x="923.051" y="324.856" fill="#FFFFFF" width="42.163" height="8.283"/>
			<rect x="923.051" y="344.426" fill="#FFFFFF" width="42.163" height="8.278"/>
			<rect x="923.051" y="364.003" fill="#FFFFFF" width="42.163" height="8.277"/>
			<rect x="923.051" y="383.575" fill="#FFFFFF" width="42.163" height="8.275"/>
			<rect x="923.051" y="403.141" fill="#FFFFFF" width="42.163" height="8.284"/>
			<rect x="923.051" y="422.718" fill="#FFFFFF" width="42.163" height="8.277"/>
			<rect x="923.051" y="442.291" fill="#FFFFFF" width="42.163" height="8.285"/>
			<rect x="923.051" y="461.857" fill="#FFFFFF" width="42.163" height="8.282"/>
			<rect x="923.051" y="481.434" fill="#FFFFFF" width="42.163" height="8.285"/>
			<rect x="923.051" y="501.009" fill="#FFFFFF" width="42.163" height="8.277"/>
			<rect x="923.051" y="520.579" fill="#FFFFFF" width="42.163" height="8.28"/>
			<rect x="923.051" y="540.16" fill="#FFFFFF" width="42.163" height="8.274"/>
			<rect x="923.051" y="559.722" fill="#FFFFFF" width="42.163" height="8.277"/>
			<rect x="923.051" y="579.306" fill="#FFFFFF" width="42.163" height="8.271"/>
			<rect x="923.051" y="598.867" fill="#FFFFFF" width="42.163" height="8.276"/>
			<rect x="923.051" y="618.434" fill="#FFFFFF" width="42.163" height="8.292"/>
		</g>
		<rect x="881.27" y="152.466" fill="#C8B2CE" width="6.026" height="490.027"/>
		<rect x="881.27" y="131.895" fill="#C8B2CE" width="13.666" height="20.571"/>
		<rect x="894.936" y="141.182" fill="#C8B2CE" width="13.656" height="11.285"/>
		<rect x="908.592" y="131.895" fill="#C8B2CE" width="13.658" height="20.571"/>
		<rect x="922.25" y="141.182" fill="#C8B2CE" width="13.65" height="11.285"/>
		<rect x="935.9" y="131.895" fill="#C8B2CE" width="13.655" height="20.571"/>
		<rect x="949.557" y="141.182" fill="#C8B2CE" width="13.667" height="11.285"/>
		<rect x="963.224" y="131.895" fill="#C8B2CE" width="13.655" height="20.571"/>
	</g>
	<rect x="-6" y="641.354" fill="#464949" width="2012.297" height="158.646"/>
	<g>
		<polygon fill="#FCF9ED" points="45.375,244.037 45.375,212.161 98.753,169.844 152.128,212.161 152.133,212.161 152.133,244.037 
			175.018,244.037 175.018,641.11 22.49,641.11 22.49,244.037 		"/>
		<rect x="35.477" y="268.181" fill="#E5DFC6" width="128.943" height="15.129"/>
		<rect x="35.477" y="300.595" fill="#E5DFC6" width="128.943" height="15.131"/>
		<rect x="35.477" y="333.016" fill="#E5DFC6" width="128.943" height="15.124"/>
		<rect x="35.477" y="365.428" fill="#E5DFC6" width="128.943" height="15.131"/>
		<rect x="35.477" y="397.843" fill="#E5DFC6" width="128.943" height="15.129"/>
		<rect x="35.477" y="430.263" fill="#E5DFC6" width="128.943" height="15.124"/>
		<rect x="35.477" y="462.68" fill="#E5DFC6" width="128.943" height="15.126"/>
		<rect x="35.477" y="495.096" fill="#E5DFC6" width="128.943" height="15.13"/>
		<rect x="35.477" y="527.511" fill="#E5DFC6" width="128.943" height="15.127"/>
		<rect x="35.477" y="559.919" fill="#E5DFC6" width="128.943" height="15.13"/>
		<rect x="83.628" y="591.406" fill="#E5DFC6" width="30.255" height="49.704"/>
		<g>
			<rect x="129.729" y="591.406" fill="#E5DFC6" width="30.254" height="49.704"/>
			<rect x="37.524" y="591.406" fill="#E5DFC6" width="30.253" height="49.704"/>
		</g>
		<rect x="127.845" y="213.797" fill="#E5DFC6" width="15.129" height="28.811"/>
		<rect x="101.915" y="213.797" fill="#E5DFC6" width="15.126" height="28.811"/>
		<rect x="54.73" y="213.797" fill="#E5DFC6" width="15.128" height="28.811"/>
		<rect x="78.502" y="213.797" fill="#E5DFC6" width="15.125" height="28.811"/>
	</g>
	<g>
		<polygon fill="#DDD6B8" points="716.032,278.02 716.032,247.822 716.032,247.822 663.604,217.504 611.188,247.822 
			611.188,247.822 611.188,278.02 587.227,278.02 587.227,641.07 739.991,641.07 739.991,278.02 		"/>
		<g>
			<rect x="602.179" y="300.602" fill="#FAFDFF" width="19.17" height="39.545"/>
			<rect x="705.826" y="300.602" fill="#FAFDFF" width="19.173" height="39.545"/>
			<rect x="636.93" y="300.602" fill="#FAFDFF" width="19.167" height="39.545"/>
			<rect x="671.674" y="300.602" fill="#FAFDFF" width="19.174" height="39.545"/>
		</g>
		<g>
			<rect x="602.179" y="353.926" fill="#FAFDFF" width="19.17" height="39.538"/>
			<rect x="705.826" y="353.926" fill="#FAFDFF" width="19.173" height="39.538"/>
			<rect x="636.93" y="353.926" fill="#FAFDFF" width="19.167" height="39.538"/>
			<rect x="671.674" y="353.926" fill="#FAFDFF" width="19.174" height="39.538"/>
		</g>
		<g>
			<rect x="602.179" y="515.086" fill="#FAFDFF" width="19.17" height="39.542"/>
			<rect x="705.826" y="515.086" fill="#FAFDFF" width="19.173" height="39.542"/>
			<rect x="636.93" y="515.086" fill="#FAFDFF" width="19.167" height="39.542"/>
			<rect x="671.674" y="515.086" fill="#FAFDFF" width="19.174" height="39.542"/>
		</g>
		<g>
			<rect x="602.179" y="407.244" fill="#FAFDFF" width="19.17" height="39.543"/>
			<rect x="705.826" y="407.244" fill="#FAFDFF" width="19.173" height="39.543"/>
			<rect x="636.93" y="407.244" fill="#FAFDFF" width="19.167" height="39.543"/>
			<rect x="671.674" y="407.244" fill="#FAFDFF" width="19.174" height="39.543"/>
		</g>
		<g>
			<rect x="602.179" y="460.568" fill="#FAFDFF" width="19.17" height="39.544"/>
			<rect x="705.826" y="460.568" fill="#FAFDFF" width="19.173" height="39.544"/>
			<rect x="636.93" y="460.568" fill="#FAFDFF" width="19.167" height="39.544"/>
			<rect x="671.674" y="460.568" fill="#FAFDFF" width="19.174" height="39.544"/>
		</g>
		<g>
			<rect x="602.179" y="569.605" fill="#FAFDFF" width="19.17" height="39.539"/>
			<rect x="705.826" y="569.605" fill="#FAFDFF" width="19.173" height="39.539"/>
			<rect x="636.93" y="569.605" fill="#FAFDFF" width="19.167" height="39.539"/>
			<rect x="671.674" y="569.605" fill="#FAFDFF" width="19.174" height="39.539"/>
		</g>
	</g>
	<g>
		<path fill="#8BBC8D" d="M450.545,553.306l0.005-0.335h0.036l0.686-57.77c0.431-3.396,2.914-5.373,7.451-5.934
			c0-1.571,0-3.143,0-4.711c-2.789,0-5.576,0-8.367,0l0.466-49.954c0.545-2.772,2.766-4.295,6.67-4.567c0-1.498,0-2.989,0-4.482
			c-2.129,0-4.261,0-6.388,0v-1.646v-0.165v-7.961c-0.559-0.039-11.211-0.295-14.473-0.312c-1.676-19.922-3.352-39.841-5.027-59.758
			c-0.854,0-1.709,0-2.562,0c-0.506,1.913-1.012,3.832-1.518,5.747c-3.502,0.062-5.359,0.093-8.844,0.096l-0.504-0.007
			c-0.6-16.69,0.008-28.815-0.351-48.165l23.964,0.169c-2.285-1.645-4.567-3.295-6.853-4.939c2.653-1.75,5.312-3.503,7.969-5.258
			c-5.782-0.119-14.235-0.119-25.365,0c-0.037-0.918-0.078-1.826-0.119-2.724l-0.015-0.301c-0.26-5.396-0.273-5.957-0.665,0.086
			c-1.391,21.728-0.663,40.574-1.073,61.139c-3.112-0.007-6.226-0.04-9.352-0.096c-0.502-1.915-1.011-3.834-1.518-5.747
			c-0.852,0-1.707,0-2.562,0c-1.675,19.917-3.353,39.836-5.029,59.753c-3.26,0.022-13.909,0.278-14.466,0.317v7.961v0.165v1.646
			c-2.134,0-4.265,0-6.391,0c0,1.493,0,2.984,0,4.479c3.902,0.272,6.124,1.8,6.667,4.572l0.467,49.954c-2.788,0-5.576,0-8.367,0
			c0,1.568,0,3.14,0,4.711c4.539,0.558,7.024,2.537,7.453,5.934l0.687,57.766h0.035l0.006,0.339c-3.251,0-6.504,0-9.752,0
			c0,2.393,0,4.78,0,7.177c3.768,0.661,5.526,2.986,5.29,6.971l0.083,73.788h38.485h37.517l0.077-73.788
			c-0.237-3.983,1.526-6.31,5.293-6.971c0-2.396,0-4.784,0-7.177C457.045,553.306,453.792,553.306,450.545,553.306z"/>
		<path fill="#FFF6E1" d="M433.872,457.86c0-9.271-7.439-16.796-16.672-16.946c-0.091,0-0.187-0.007-0.276-0.007
			c-9.358,0-16.952,7.591-16.952,16.953c0,9.359,7.594,16.946,16.952,16.946c0.09,0,0.186-0.003,0.276-0.003
			C426.433,474.659,433.872,467.128,433.872,457.86z M427.6,457.374c-0.855,1.339-1.469,2.044-2.224,3.201
			c0.028-0.469-0.072-1.225-0.042-1.688c-2.938,0.136-9.761,0.152-10.479,0.248c-0.049-0.693-0.057-1.369-0.053-2.083
			c0.01-2.324,0.027-9.835,0.041-10.721c-0.472,0.061-0.868-0.086-1.334-0.023c1.554-1.734,1.64-1.827,2.982-3.286
			c0.839,1.242,1.327,1.816,2.44,3.375c-0.47-0.062-0.8,0-1.468,0.031c0.176,4.145,0.177,6.497,0.409,10.392
			c2.613,0.069,4.301,0.021,7.103,0.107c-0.062-0.46,0.197-1.664,0.136-2.129C425.954,455.686,426.355,456.085,427.6,457.374z"/>
		<path fill="#FFF6E1" d="M428.388,622.446v-30.282c0-7.261-5.136-13.146-11.464-13.146c-6.335,0-11.467,5.886-11.467,13.146v30.282
			H428.388z"/>
		<path fill="#FFF6E1" d="M428.388,542.786v-30.281c0-7.263-5.136-13.147-11.464-13.147c-6.335,0-11.467,5.886-11.467,13.147v30.281
			H428.388z"/>
	</g>
	<g>
		<polygon fill="#DDD6B8" points="301.859,337.793 301.859,324.209 285.466,324.209 285.466,310.745 206.777,310.745 
			206.777,324.209 190.386,324.209 190.386,337.793 176.537,337.793 176.537,641.394 315.707,641.394 315.707,337.793 		"/>
		<rect x="213.048" y="392.863" fill="#FAFDFF" width="14.842" height="28.604"/>
		<rect x="186.438" y="392.863" fill="#FAFDFF" width="14.842" height="28.604"/>
		<rect x="239.658" y="392.863" fill="#FAFDFF" width="14.842" height="28.604"/>
		<rect x="213.048" y="348.264" fill="#FAFDFF" width="14.842" height="28.606"/>
		<rect x="186.438" y="348.264" fill="#FAFDFF" width="14.842" height="28.606"/>
		<rect x="239.658" y="348.264" fill="#FAFDFF" width="14.842" height="28.606"/>
		<rect x="213.048" y="437.458" fill="#FAFDFF" width="14.842" height="28.605"/>
		<rect x="186.438" y="437.458" fill="#FAFDFF" width="14.842" height="28.605"/>
		<rect x="239.658" y="437.458" fill="#FAFDFF" width="14.842" height="28.605"/>
		<rect x="264.355" y="392.863" fill="#FAFDFF" width="14.84" height="28.604"/>
		<rect x="290.965" y="392.863" fill="#FAFDFF" width="14.837" height="28.604"/>
		<rect x="264.355" y="348.264" fill="#FAFDFF" width="14.84" height="28.606"/>
		<rect x="290.965" y="348.264" fill="#FAFDFF" width="14.837" height="28.606"/>
		<rect x="264.355" y="437.458" fill="#FAFDFF" width="14.84" height="28.605"/>
		<rect x="290.965" y="437.458" fill="#FAFDFF" width="14.837" height="28.605"/>
		<rect x="213.048" y="486.149" fill="#FAFDFF" width="14.842" height="28.612"/>
		<rect x="186.438" y="486.149" fill="#FAFDFF" width="14.842" height="28.612"/>
		<rect x="239.658" y="486.149" fill="#FAFDFF" width="14.842" height="28.612"/>
		<rect x="213.048" y="530.747" fill="#FAFDFF" width="14.842" height="28.611"/>
		<rect x="186.438" y="530.747" fill="#FAFDFF" width="14.842" height="28.611"/>
		<rect x="239.658" y="530.747" fill="#FAFDFF" width="14.842" height="28.611"/>
		<rect x="264.355" y="486.149" fill="#FAFDFF" width="14.84" height="28.612"/>
		<rect x="290.965" y="486.149" fill="#FAFDFF" width="14.837" height="28.612"/>
		<rect x="264.355" y="530.747" fill="#FAFDFF" width="14.84" height="28.611"/>
		<rect x="290.965" y="530.747" fill="#FAFDFF" width="14.837" height="28.611"/>
		<rect x="213.048" y="567.902" fill="#FAFDFF" width="14.842" height="73.186"/>
		<rect x="186.438" y="567.902" fill="#FAFDFF" width="14.842" height="73.186"/>
		<rect x="239.658" y="567.902" fill="#FAFDFF" width="14.842" height="73.186"/>
		<rect x="264.355" y="567.902" fill="#FAFDFF" width="14.84" height="73.186"/>
		<rect x="290.965" y="567.902" fill="#FAFDFF" width="14.837" height="73.186"/>
	</g>
	<g>
		<polygon fill="#DDD6B8" points="1612.614,337.793 1612.614,324.209 1596.22,324.209 1596.22,310.745 1517.534,310.745 
			1517.534,324.209 1501.139,324.209 1501.139,337.793 1487.292,337.793 1487.292,641.394 1626.463,641.394 1626.463,337.793 		"/>
		<rect x="1523.799" y="392.863" fill="#FAFDFF" width="14.844" height="28.604"/>
		<rect x="1497.189" y="392.863" fill="#FAFDFF" width="14.845" height="28.604"/>
		<rect x="1550.412" y="392.863" fill="#FAFDFF" width="14.842" height="28.604"/>
		<rect x="1523.799" y="348.264" fill="#FAFDFF" width="14.844" height="28.606"/>
		<rect x="1497.189" y="348.264" fill="#FAFDFF" width="14.845" height="28.606"/>
		<rect x="1550.412" y="348.264" fill="#FAFDFF" width="14.842" height="28.606"/>
		<rect x="1523.799" y="437.458" fill="#FAFDFF" width="14.844" height="28.605"/>
		<rect x="1497.189" y="437.458" fill="#FAFDFF" width="14.845" height="28.605"/>
		<rect x="1550.412" y="437.458" fill="#FAFDFF" width="14.842" height="28.605"/>
		<rect x="1575.105" y="392.863" fill="#FAFDFF" width="14.84" height="28.604"/>
		<rect x="1601.717" y="392.863" fill="#FAFDFF" width="14.842" height="28.604"/>
		<rect x="1575.105" y="348.264" fill="#FAFDFF" width="14.84" height="28.606"/>
		<rect x="1601.717" y="348.264" fill="#FAFDFF" width="14.842" height="28.606"/>
		<rect x="1575.105" y="437.458" fill="#FAFDFF" width="14.84" height="28.605"/>
		<rect x="1601.717" y="437.458" fill="#FAFDFF" width="14.842" height="28.605"/>
		<rect x="1523.799" y="486.149" fill="#FAFDFF" width="14.844" height="28.612"/>
		<rect x="1497.189" y="486.149" fill="#FAFDFF" width="14.845" height="28.612"/>
		<rect x="1550.412" y="486.149" fill="#FAFDFF" width="14.842" height="28.612"/>
		<rect x="1523.799" y="530.747" fill="#FAFDFF" width="14.844" height="28.611"/>
		<rect x="1497.189" y="530.747" fill="#FAFDFF" width="14.845" height="28.611"/>
		<rect x="1550.412" y="530.747" fill="#FAFDFF" width="14.842" height="28.611"/>
		<rect x="1575.105" y="486.149" fill="#FAFDFF" width="14.84" height="28.612"/>
		<rect x="1601.717" y="486.149" fill="#FAFDFF" width="14.842" height="28.612"/>
		<rect x="1575.105" y="530.747" fill="#FAFDFF" width="14.84" height="28.611"/>
		<rect x="1601.717" y="530.747" fill="#FAFDFF" width="14.842" height="28.611"/>
		<rect x="1523.799" y="567.902" fill="#FAFDFF" width="14.844" height="73.186"/>
		<rect x="1497.189" y="567.902" fill="#FAFDFF" width="14.845" height="73.186"/>
		<rect x="1550.412" y="567.902" fill="#FAFDFF" width="14.842" height="73.186"/>
		<rect x="1575.105" y="567.902" fill="#FAFDFF" width="14.84" height="73.186"/>
		<rect x="1601.717" y="567.902" fill="#FAFDFF" width="14.842" height="73.186"/>
	</g>
	<g>
		<polygon fill="#FCF9ED" points="974.12,465.158 974.12,451.56 942.533,451.56 790.917,451.56 759.323,451.56 759.323,465.158 
			732.645,465.158 732.645,641.503 1000.809,641.503 1000.809,465.158 		"/>
		<g>
			<rect x="794.028" y="534.608" fill="#E5DFC6" width="22.971" height="28.643"/>
			<g>
				<rect x="752.827" y="534.608" fill="#E5DFC6" width="22.978" height="28.643"/>
				<rect x="835.215" y="534.608" fill="#E5DFC6" width="22.98" height="28.643"/>
			</g>
		</g>
		<g>
			<g>
				<rect x="794.028" y="489.96" fill="#E5DFC6" width="22.971" height="28.643"/>
				<g>
					<rect x="752.827" y="489.96" fill="#E5DFC6" width="22.978" height="28.643"/>
					<rect x="835.215" y="489.96" fill="#E5DFC6" width="22.98" height="28.643"/>
				</g>
			</g>
			<g>
				<rect x="794.028" y="579.254" fill="#E5DFC6" width="22.971" height="28.646"/>
				<g>
					<rect x="752.827" y="579.254" fill="#E5DFC6" width="22.978" height="28.646"/>
					<rect x="835.215" y="579.254" fill="#E5DFC6" width="22.98" height="28.646"/>
				</g>
			</g>
		</g>
		<g>
			<rect x="917.389" y="534.608" fill="#E5DFC6" width="22.979" height="28.643"/>
			<g>
				<rect x="876.189" y="534.608" fill="#E5DFC6" width="22.979" height="28.643"/>
				<rect x="958.58" y="534.608" fill="#E5DFC6" width="22.979" height="28.643"/>
			</g>
		</g>
		<g>
			<g>
				<rect x="917.389" y="489.96" fill="#E5DFC6" width="22.979" height="28.643"/>
				<g>
					<rect x="876.189" y="489.96" fill="#E5DFC6" width="22.979" height="28.643"/>
					<rect x="958.58" y="489.96" fill="#E5DFC6" width="22.979" height="28.643"/>
				</g>
			</g>
			<g>
				<rect x="917.389" y="579.254" fill="#E5DFC6" width="22.979" height="28.646"/>
				<g>
					<rect x="876.189" y="579.254" fill="#E5DFC6" width="22.979" height="28.646"/>
					<rect x="958.58" y="579.254" fill="#E5DFC6" width="22.979" height="28.646"/>
				</g>
			</g>
		</g>
	</g>
	<g>
		<rect x="1283.309" y="453.481" fill="#FCF9ED" width="203.43" height="187.367"/>
		<polygon fill="#FCF9ED" points="1477.454,429.137 1498.706,473.266 1271.342,473.266 1292.594,429.137 		"/>
		<path fill="#FCF9ED" d="M1397.9,400.79h7.216c1.23-8.251,9.909-14.64,20.438-14.64c10.533,0,19.206,6.389,20.447,14.64h7.214v8.14
			h-7.06v32.27h-41.194v-32.27h-7.062v-8.14H1397.9z"/>
		<path fill="#FCF9ED" d="M1303.291,400.79h7.219c1.229-8.251,9.908-14.64,20.438-14.64s19.207,6.389,20.443,14.64h7.219v8.14
			h-7.064v32.27h-41.196v-32.27h-7.058L1303.291,400.79L1303.291,400.79z"/>
		<g>
			<g>
				<rect x="1440.999" y="475.327" fill="#E5DFC6" width="29.782" height="38.608"/>
				<rect x="1393.691" y="475.327" fill="#E5DFC6" width="29.781" height="38.608"/>
				<rect x="1347.99" y="475.327" fill="#E5DFC6" width="29.784" height="38.608"/>
				<rect x="1301.417" y="475.327" fill="#E5DFC6" width="29.784" height="38.608"/>
			</g>
			<g>
				<rect x="1440.999" y="530.823" fill="#E5DFC6" width="29.782" height="38.609"/>
				<rect x="1393.691" y="530.823" fill="#E5DFC6" width="29.781" height="38.609"/>
				<rect x="1347.99" y="530.823" fill="#E5DFC6" width="29.784" height="38.609"/>
				<rect x="1301.417" y="530.823" fill="#E5DFC6" width="29.784" height="38.609"/>
			</g>
			<g>
				<rect x="1440.999" y="583.023" fill="#E5DFC6" width="29.782" height="38.606"/>
				<rect x="1393.691" y="583.023" fill="#E5DFC6" width="29.781" height="38.606"/>
				<rect x="1347.99" y="583.023" fill="#E5DFC6" width="29.784" height="38.606"/>
				<rect x="1301.417" y="583.023" fill="#E5DFC6" width="29.784" height="38.606"/>
			</g>
			<path fill="#E5DFC6" d="M1412.553,403.309c0.499-5.874,6.127-10.506,13.002-10.506c6.878,0,12.51,4.632,13.005,10.506H1412.553z"
				/>
			<rect x="1413.877" y="418.267" fill="#E5DFC6" width="23.361" height="12.981"/>
			<path fill="#E5DFC6" d="M1317.948,403.309c0.489-5.874,6.124-10.506,12.999-10.506c6.879,0,12.51,4.632,13.003,10.506H1317.948z"
				/>
			<rect x="1319.267" y="418.267" fill="#E5DFC6" width="23.361" height="12.981"/>
		</g>
	</g>
	<g>
		<rect x="1654.501" y="190.118" fill="#FCF9ED" width="319.705" height="451.441"/>
		<rect x="1670.78" y="243.09" fill="#E5DFC6" width="287.157" height="12.03"/>
		<rect x="1670.78" y="270.721" fill="#E5DFC6" width="287.157" height="12.021"/>
		<rect x="1670.78" y="297.364" fill="#E5DFC6" width="287.157" height="12.032"/>
		<rect x="1670.78" y="324.994" fill="#E5DFC6" width="287.157" height="12.027"/>
		<rect x="1670.78" y="351.641" fill="#E5DFC6" width="287.157" height="12.028"/>
		<rect x="1670.78" y="379.269" fill="#E5DFC6" width="287.157" height="12.027"/>
		<rect x="1670.78" y="405.917" fill="#E5DFC6" width="287.157" height="12.024"/>
		<rect x="1670.78" y="433.547" fill="#E5DFC6" width="287.157" height="12.022"/>
		<rect x="1670.78" y="461.176" fill="#E5DFC6" width="287.157" height="12.025"/>
		<rect x="1670.78" y="488.81" fill="#E5DFC6" width="287.157" height="12.023"/>
		<rect x="1670.78" y="515.454" fill="#E5DFC6" width="287.157" height="12.022"/>
		<rect x="1670.78" y="543.077" fill="#E5DFC6" width="287.157" height="12.033"/>
		<rect x="1670.78" y="569.724" fill="#E5DFC6" width="287.157" height="12.024"/>
		<rect x="1670.78" y="597.356" fill="#E5DFC6" width="287.157" height="12.026"/>
	</g>
	<g>
		<rect x="1000.645" y="315.423" fill="#DDD6B8" width="217.947" height="325.406"/>
		<path fill="#DDD6B8" d="M1110.056,249.949c-59.952,0-108.536,29.777-108.536,66.506h217.072
			C1218.592,279.726,1169.996,249.949,1110.056,249.949z"/>
		<g>
			<path fill="#FFFFFF" d="M1167.429,298.634h40.23c-4.63-8.992-12.927-17.322-24.449-24.352
				c-8.271-5.056-17.729-9.143-27.993-12.176C1159.151,272.2,1163.55,284.692,1167.429,298.634z"/>
			<path fill="#FFFFFF" d="M1064.02,262.105c-10.27,3.033-19.729,7.12-28.002,12.176c-11.517,7.03-19.812,15.364-24.455,24.352
				h40.236C1055.681,284.692,1060.062,272.2,1064.02,262.105z"/>
			<path fill="#FFFFFF" d="M1058.694,298.634h101.849c-4.301-15.147-9.178-28.458-13.312-38.637
				c-11.811-2.783-24.522-4.226-37.61-4.226c-13.095,0-25.812,1.443-37.627,4.226
				C1067.869,270.176,1062.982,283.486,1058.694,298.634z"/>
		</g>
		<g>
			<g>
				<rect x="1009.288" y="334.396" fill="#FFFFFF" width="24.92" height="24.93"/>
				<rect x="1044.436" y="334.396" fill="#FFFFFF" width="24.928" height="24.93"/>
				<rect x="1079.573" y="334.396" fill="#FFFFFF" width="24.925" height="24.93"/>
				<rect x="1114.725" y="334.396" fill="#FFFFFF" width="24.922" height="24.93"/>
				<rect x="1149.869" y="334.396" fill="#FFFFFF" width="24.92" height="24.93"/>
				<rect x="1185.014" y="334.396" fill="#FFFFFF" width="24.924" height="24.93"/>
			</g>
			<g>
				<rect x="1009.288" y="371.956" fill="#FFFFFF" width="24.92" height="24.923"/>
				<rect x="1044.436" y="371.956" fill="#FFFFFF" width="24.928" height="24.923"/>
				<rect x="1079.573" y="371.956" fill="#FFFFFF" width="24.925" height="24.923"/>
				<rect x="1114.725" y="371.956" fill="#FFFFFF" width="24.922" height="24.923"/>
				<rect x="1149.869" y="371.956" fill="#FFFFFF" width="24.92" height="24.923"/>
				<rect x="1185.014" y="371.956" fill="#FFFFFF" width="24.924" height="24.923"/>
			</g>
			<g>
				<rect x="1009.288" y="409.505" fill="#FFFFFF" width="24.92" height="24.928"/>
				<rect x="1044.436" y="409.505" fill="#FFFFFF" width="24.928" height="24.928"/>
				<rect x="1079.573" y="409.505" fill="#FFFFFF" width="24.925" height="24.928"/>
				<rect x="1114.725" y="409.505" fill="#FFFFFF" width="24.922" height="24.928"/>
				<rect x="1149.869" y="409.505" fill="#FFFFFF" width="24.92" height="24.928"/>
				<rect x="1185.014" y="409.505" fill="#FFFFFF" width="24.924" height="24.928"/>
			</g>
			<g>
				<rect x="1009.288" y="447.066" fill="#FFFFFF" width="24.92" height="24.921"/>
				<rect x="1044.436" y="447.066" fill="#FFFFFF" width="24.928" height="24.921"/>
				<rect x="1079.573" y="447.066" fill="#FFFFFF" width="24.925" height="24.921"/>
				<rect x="1114.725" y="447.066" fill="#FFFFFF" width="24.922" height="24.921"/>
				<rect x="1149.869" y="447.066" fill="#FFFFFF" width="24.92" height="24.921"/>
				<rect x="1185.014" y="447.066" fill="#FFFFFF" width="24.924" height="24.921"/>
			</g>
			<g>
				<rect x="1009.288" y="484.615" fill="#FFFFFF" width="24.92" height="24.931"/>
				<rect x="1044.436" y="484.615" fill="#FFFFFF" width="24.928" height="24.931"/>
				<rect x="1079.573" y="484.615" fill="#FFFFFF" width="24.925" height="24.931"/>
				<rect x="1114.725" y="484.615" fill="#FFFFFF" width="24.922" height="24.931"/>
				<rect x="1149.869" y="484.615" fill="#FFFFFF" width="24.92" height="24.931"/>
				<rect x="1185.014" y="484.615" fill="#FFFFFF" width="24.924" height="24.931"/>
			</g>
			<g>
				<rect x="1009.288" y="522.169" fill="#FFFFFF" width="24.92" height="24.92"/>
				<rect x="1044.436" y="522.169" fill="#FFFFFF" width="24.928" height="24.92"/>
				<rect x="1079.573" y="522.169" fill="#FFFFFF" width="24.925" height="24.92"/>
				<rect x="1114.725" y="522.169" fill="#FFFFFF" width="24.922" height="24.92"/>
				<rect x="1149.869" y="522.169" fill="#FFFFFF" width="24.92" height="24.92"/>
				<rect x="1185.014" y="522.169" fill="#FFFFFF" width="24.924" height="24.92"/>
			</g>
			<g>
				<rect x="1009.288" y="559.722" fill="#FFFFFF" width="24.92" height="24.935"/>
				<rect x="1044.436" y="559.722" fill="#FFFFFF" width="24.928" height="24.935"/>
				<rect x="1079.573" y="559.722" fill="#FFFFFF" width="24.925" height="24.935"/>
				<rect x="1114.725" y="559.722" fill="#FFFFFF" width="24.922" height="24.935"/>
				<rect x="1149.869" y="559.722" fill="#FFFFFF" width="24.92" height="24.935"/>
				<rect x="1185.014" y="559.722" fill="#FFFFFF" width="24.924" height="24.935"/>
			</g>
			<g>
				<rect x="1009.288" y="597.28" fill="#FFFFFF" width="24.92" height="24.927"/>
				<rect x="1044.436" y="597.28" fill="#FFFFFF" width="24.928" height="24.927"/>
				<rect x="1079.573" y="597.28" fill="#FFFFFF" width="24.925" height="24.927"/>
				<rect x="1114.725" y="597.28" fill="#FFFFFF" width="24.922" height="24.927"/>
				<rect x="1149.869" y="597.28" fill="#FFFFFF" width="24.92" height="24.927"/>
				<rect x="1185.014" y="597.28" fill="#FFFFFF" width="24.924" height="24.927"/>
			</g>
		</g>
	</g>
	<g>
		<path fill="#9EB518" d="M530.852,602.164c0,18.379,5.5,19.972,12.285,19.972c6.782,0,12.282-1.593,12.282-19.972
			c0-18.381-5.5-33.282-12.282-33.282C536.35,568.882,530.852,583.783,530.852,602.164z"/>
		<path fill="#66411D" d="M541.741,640.568c-0.049-0.063-0.144-0.256-0.144-0.559V608.5l-4.515-7.361
			c-0.003-0.023,0.05-0.153,0.198-0.242l0.482-0.298c0.104-0.062,0.192-0.072,0.237-0.072c0.046,0,0.071,0.012,0.078,0.019
			l2.491,4.056l1.025,1.68v-11.201c0-0.305,0.094-0.492,0.144-0.56h2.129c0.054,0.066,0.146,0.255,0.146,0.56v5.168l3.693-6.024
			c0,0,0,0,0.003,0c0.004,0,0.028-0.011,0.071-0.011c0.072,0,0.156,0.028,0.233,0.077l0.486,0.298
			c0.146,0.088,0.196,0.219,0.189,0.251l-4.679,7.629v6.558l6.33-3.291c0.033,0.004,0.15,0.064,0.229,0.214l0.264,0.505
			c0.082,0.156,0.06,0.293,0.033,0.315l-6.854,3.562v29.683c0,0.304-0.093,0.492-0.147,0.559h-2.125V640.568z"/>
	</g>
	<g>
		<path fill="#9EB518" d="M938.735,605.604c0,16.735,5.004,18.183,11.182,18.183c6.173,0,11.183-1.446,11.183-18.183
			c0-16.733-5.01-30.298-11.183-30.298C943.739,575.307,938.735,588.87,938.735,605.604z"/>
		<path fill="#66411D" d="M948.65,640.568c-0.047-0.061-0.135-0.229-0.135-0.51v-28.683l-4.104-6.703
			c-0.005-0.022,0.037-0.139,0.177-0.225l0.443-0.267c0.093-0.062,0.171-0.067,0.213-0.067c0.041,0,0.064,0.009,0.071,0.014
			l2.267,3.697l0.936,1.524v-10.198c0-0.273,0.084-0.451,0.131-0.506h1.936c0.051,0.055,0.137,0.231,0.137,0.506v4.71l3.364-5.487
			c0,0.002,0,0.002,0,0.002c0.006,0,0.027-0.008,0.062-0.008c0.068,0,0.147,0.021,0.214,0.065l0.441,0.267
			c0.139,0.086,0.186,0.205,0.179,0.234l-4.262,6.947v5.961l5.762-2.992c0.031,0.004,0.139,0.062,0.212,0.194l0.236,0.462
			c0.072,0.143,0.055,0.269,0.03,0.291l-6.243,3.239v27.021c0,0.278-0.083,0.448-0.135,0.509L948.65,640.568L948.65,640.568z"/>
	</g>
	<g>
		<path fill="#9EB518" d="M732.441,619.823c0,10.325,3.087,11.217,6.899,11.217s6.898-0.892,6.898-11.217
			c0-10.327-3.087-18.698-6.898-18.698C735.528,601.125,732.441,609.496,732.441,619.823z"/>
		<path fill="#66411D" d="M738.561,641.396c-0.03-0.036-0.082-0.142-0.082-0.313v-17.697l-2.534-4.138
			c0-0.011,0.022-0.085,0.11-0.138l0.271-0.166c0.058-0.031,0.107-0.038,0.132-0.038c0.027,0,0.041,0.007,0.044,0.007l1.4,2.275
			l0.576,0.946v-6.292c0-0.169,0.05-0.278,0.08-0.313h1.195c0.031,0.035,0.079,0.146,0.079,0.313v2.901l2.077-3.382l0,0
			c0.004,0,0.02-0.007,0.043-0.007c0.039,0,0.087,0.017,0.131,0.037l0.271,0.171c0.084,0.049,0.112,0.123,0.109,0.142l-2.631,4.289
			v3.68l3.559-1.847c0.019,0.004,0.088,0.037,0.129,0.123l0.146,0.278c0.047,0.092,0.034,0.163,0.021,0.184l-3.854,1.995v16.675
			c0,0.173-0.049,0.276-0.081,0.313L738.561,641.396L738.561,641.396z"/>
	</g>
	<g>
		<polygon fill="#FFC655" points="1246.807,558.673 1217.271,521.284 1196.281,547.855 1193.506,547.855 1193.506,534.576 
			1195.184,534.576 1195.184,531.426 1185.944,531.426 1185.944,534.576 1187.623,534.576 1187.623,547.855 1148.54,547.855 
			1148.54,534.576 1150.223,534.576 1150.223,531.426 1140.979,531.426 1140.979,534.576 1142.661,534.576 1142.661,547.855 
			1140.344,547.855 1119.352,521.284 1089.814,558.673 1089.748,558.673 1089.748,640.783 1136.234,640.783 1148.949,640.783 
			1187.673,640.783 1205.182,640.783 1246.871,640.783 1246.871,558.673 		"/>
		<g>
			<g>
				<rect x="1097.616" y="563.847" fill="#FFF6E1" width="8.018" height="30.145"/>
				<rect x="1108.584" y="563.847" fill="#FFF6E1" width="8.016" height="30.145"/>
			</g>
			<g>
				<g>
					<rect x="1122.097" y="563.847" fill="#FFF6E1" width="8.017" height="30.145"/>
					<rect x="1133.064" y="563.847" fill="#FFF6E1" width="8.013" height="30.145"/>
				</g>
				<rect x="1097.616" y="606.312" fill="#FFF6E1" width="43.461" height="27.893"/>
			</g>
		</g>
		<path fill="#FFF6E1" d="M1124.952,554.352V544.06c0-1.812-2.508-3.286-5.601-3.286c-3.099,0-5.609,1.472-5.609,3.286v10.292
			H1124.952z"/>
		<g>
			<g>
				<rect x="1195.539" y="563.847" fill="#FFF6E1" width="8.017" height="30.145"/>
				<rect x="1206.509" y="563.847" fill="#FFF6E1" width="8.015" height="30.145"/>
			</g>
			<g>
				<g>
					<rect x="1220.02" y="563.847" fill="#FFF6E1" width="8.021" height="30.145"/>
					<rect x="1230.99" y="563.847" fill="#FFF6E1" width="8.016" height="30.145"/>
				</g>
				<rect x="1195.539" y="606.312" fill="#FFF6E1" width="43.467" height="27.893"/>
			</g>
		</g>
		<path fill="#FFF6E1" d="M1222.874,554.352V544.06c0-1.812-2.511-3.286-5.603-3.286c-3.097,0-5.604,1.472-5.604,3.286v10.292
			H1222.874z"/>
		<path fill="#FFF6E1" d="M1178.597,593.65v-20.016c0-3.536-4.45-6.396-9.938-6.396c-5.488,0-9.935,2.858-9.935,6.396v20.016
			H1178.597z"/>
		<rect x="1158.451" y="603.983" fill="#FFF6E1" width="19.869" height="36.8"/>
	</g>
	<polyline opacity="0.1" fill="#464949" enable-background="new    " points="178.292,241.037 296.051,646.334 177.713,646.334 	"/>
	<polyline opacity="0.1" fill="#464949" enable-background="new    " points="385.064,464.645 436.41,641.36 384.815,641.36 	"/>
	<polyline opacity="0.1" fill="#464949" enable-background="new    " points="1002.398,466.637 1053.822,643.021 1001.975,643.021 	
		"/>
	<polyline opacity="0.1" fill="#464949" enable-background="new    " points="1491.154,466.637 1542.58,643.021 1490.73,643.021 	
		"/>
	<g>
		<path fill="#FCF9ED" d="M364.43,464.811c-0.661-20.943-17.845-37.718-38.95-37.718s-38.288,16.773-38.953,37.718h-19.695v175.995
			h117.297V464.811H364.43z"/>
		<g>
			<rect x="275.828" y="471.02" fill="#E5DFC6" width="99.305" height="8.551"/>
			<rect x="275.828" y="489.96" fill="#E5DFC6" width="99.305" height="8.552"/>
			<rect x="275.828" y="509.604" fill="#E5DFC6" width="99.305" height="8.549"/>
			<rect x="275.828" y="529.24" fill="#E5DFC6" width="99.305" height="8.552"/>
			<rect x="275.828" y="548.885" fill="#E5DFC6" width="99.305" height="8.548"/>
			<rect x="275.828" y="567.82" fill="#E5DFC6" width="99.305" height="8.552"/>
			<rect x="275.828" y="587.464" fill="#E5DFC6" width="99.305" height="8.547"/>
			<rect x="275.828" y="606.406" fill="#E5DFC6" width="99.305" height="8.546"/>
			<rect x="275.828" y="626.043" fill="#E5DFC6" width="99.305" height="8.55"/>
		</g>
	</g>
</g>
</svg>
