<?xml version="1.0" encoding="utf-8"?>
<!-- Generator: Adobe Illustrator 21.1.0, SVG Export Plug-In . SVG Version: 6.00 Build 0)  -->
<svg version="1.1" id="Layer_1" xmlns="http://www.w3.org/2000/svg" xmlns:xlink="http://www.w3.org/1999/xlink" x="0px" y="0px"
	 viewBox="0 0 3350 800" style="enable-background:new 0 0 3350 800;" xml:space="preserve">
<style type="text/css">
	.st0{fill:#00A990;}
	.st1{fill:#007864;}
	.st2{fill:#90724F;}
	.st3{fill:#80B4C9;}
	.st4{fill:#79A7BD;}
	.st5{fill:#FFFFFF;}
	.st6{fill:#F4C41C;}
	.st7{fill:#FA911E;}
	.st8{fill:#003938;}
	.st9{fill:#EC6136;}
	.st10{fill:#98BC2A;}
	.st11{fill:#B8E332;}
	.st12{fill:#F5B85D;}
	.st13{fill:#934B02;}
	.st14{fill:#BB9965;}
	.st15{fill:#299B4A;}
	.st16{fill:#5F4325;}
	.st17{fill:#1E4B1F;}
	.st18{fill:#E7E3E5;}
	.st19{fill:#794719;}
	.st20{fill:#2BB34B;}
	.st21{fill:#A1C219;}
	.st22{fill:#A27343;}
	.st23{fill:#058246;}
	.st24{fill:#0EA752;}
	.st25{fill:#7E4919;}
	.st26{fill:#1A1A1A;}
	.st27{fill:#8E5D2C;}
	.st28{fill:#B98B5D;}
	.st29{fill:#43C753;}
</style>
<path class="st0" d="M2507.7,755.1c57.9,237.6,275,414.3,534,414.3s476.1-176.7,534-414.3H2507.7z"/>
<g>
	<path class="st1" d="M2769.9,1073.9c0.8-16.1,12.9-28.6,26.9-27.9l-179-9.2c14,0.7,24.7,14.4,23.9,30.5
		c-0.8,16.1-12.9,28.6-26.9,27.9l179,9.2C2779.8,1103.7,2769.1,1090.1,2769.9,1073.9z"/>
	<path class="st1" d="M3752,723.4l-1434.9-73.5c-14-0.7-26.1,11.8-26.9,27.9c-0.8,16.1,9.9,29.8,23.9,30.5l570.9,29.2
		c14,0.7,24.7,14.4,23.9,30.5c-0.8,16.1-12.9,28.6-26.9,27.9l-485.1-24.8c-14-0.7-26.1,11.8-26.9,27.9c-0.8,16.1,9.9,29.8,23.9,30.5
		l676.4,34.6c14,0.7,24.7,14.4,23.9,30.5c-0.8,16.1-12.9,28.6-26.9,27.9l-100.6-5.2c-14-0.7-26.1,11.8-26.9,27.9
		c-0.8,16.1,9.9,29.8,23.9,30.5l451.3,23.1c14,0.7,26.1-11.8,26.9-27.9c0.8-16.1-9.9-29.8-23.9-30.5l-42.7-2.2
		c-14-0.7-24.7-14.4-23.9-30.5c0.8-16.1,12.9-28.6,26.9-27.9l215.4,11c14,0.7,26.1-11.8,26.9-27.9c0.8-16.1-9.9-29.8-23.9-30.5
		l-184.2-9.4c-14-0.7-24.7-14.4-23.9-30.5c0.8-16.1,12.9-28.6,26.9-27.9l333.5,17.1c14,0.7,26.1-11.8,26.9-27.9
		C3776.7,737.8,3766,724.1,3752,723.4z"/>
	<path class="st1" d="M2998.8,1027.1c-0.8,16.1-12.9,28.6-26.9,27.9l-451.3-23.1c-14-0.7-24.7-14.4-23.9-30.5l0,0
		c0.8-16.1,12.9-28.6,26.9-27.9l451.3,23.1C2988.9,997.3,2999.6,1011,2998.8,1027.1L2998.8,1027.1z"/>
	<path class="st1" d="M2877.3,1138c-0.8,16.1-12.9,28.6-26.9,27.9l-262.9-13.5c-14-0.7-24.7-14.4-23.9-30.5l0,0
		c0.8-16.1,12.9-28.6,26.9-27.9l262.9,13.5C2867.4,1108.2,2878.1,1121.9,2877.3,1138L2877.3,1138z"/>
	<path class="st1" d="M3370.8,1163.3c-0.8,16.1-12.9,28.6-26.9,27.9l-262.9-13.5c-14-0.7-24.7-14.4-23.9-30.5l0,0
		c0.8-16.1,12.9-28.6,26.9-27.9l262.9,13.5C3361,1133.5,3371.7,1147.1,3370.8,1163.3L3370.8,1163.3z"/>
</g>
<polygon class="st2" points="647.9,750.4 1098.7,908.8 1283.3,832.8 1578.3,995.1 1738.1,841.5 1924.1,841.5 2028,749.3 "/>
<g>
	<polygon class="st3" points="1037.5,691.6 1438,9 1862,691.6 	"/>
	<polygon class="st4" points="1862,691.6 1438,9 1438,691.6 	"/>
	<polygon class="st5" points="1316.2,216.6 1369.3,195.4 1358.4,275.8 1413.2,214 1438,323.5 1483.3,193.1 1587.4,249.6 1555.4,198 
		1438,9 	"/>
</g>
<g>
	<polygon class="st6" points="1571.7,502.8 1497.2,502.8 1497.2,449.9 1534.4,424.4 1571.7,449.9 	"/>
	<rect x="1509.6" y="448.8" class="st7" width="42.6" height="21.9"/>
	<rect x="1533.6" y="451.5" class="st8" width="14.7" height="16.3"/>
	<rect x="1513.8" y="451.5" class="st8" width="14.7" height="16.3"/>
	<path class="st9" d="M1575.1,452.3c-1.4,0-2.8-0.4-4-1.2l-36.7-25.2l-36.7,25.2c-2.9,2-7.1,1.5-9.3-1.1c-2.2-2.6-1.7-6.4,1.3-8.4
		l40.7-27.9c2.4-1.6,5.7-1.6,8.1,0l40.7,27.9c2.9,2,3.5,5.8,1.3,8.4C1579.1,451.5,1577.1,452.3,1575.1,452.3z"/>
	<rect x="1561.3" y="417.8" class="st9" width="10.4" height="20.3"/>
	<rect x="1560.3" y="414.5" class="st9" width="12.4" height="3.9"/>
</g>
<path class="st10" d="M2000,729.8c0,12.5-5.4,22.7-12.1,22.7h-891.2c-6.7,0-12.1-10.2-12.1-22.7l0,0c0-12.5,5.4-22.7,12.1-22.7
	h891.2C1994.6,707.1,2000,717.2,2000,729.8L2000,729.8z"/>
<g>
	<path class="st11" d="M1105.9,707.1c0,0,131.1-30.2,197.8-85.4C1393.9,547,1441.9,487,1539.4,487c110.4,0,265.8,205.5,433.5,220.1
		C1527.2,707.1,1105.9,707.1,1105.9,707.1z"/>
	<path class="st10" d="M1648.4,707.1c102.5,0,212.7,0,324.5,0C1805.2,692.4,1649.7,487,1539.4,487c-47.7,0-83.5,14.4-118.3,37.8
		C1507.4,546.3,1623.4,651.1,1648.4,707.1z"/>
</g>
<g>
	<polygon class="st3" points="79.4,682.5 454.4,27 851.5,682.5 	"/>
	<polygon class="st4" points="851.5,682.5 454.4,27 454.4,682.5 	"/>
	<polygon class="st5" points="340.4,226.3 390.1,206 379.9,283.2 431.3,223.9 454.4,329.1 496.9,203.8 594.4,258 564.4,208.5 
		454.4,27 	"/>
</g>
<g>
	<polygon class="st3" points="589.5,682.5 944.2,177.3 1319.8,682.5 	"/>
	<polygon class="st4" points="1319.8,682.5 944.2,177.3 944.2,682.5 	"/>
	<polygon class="st5" points="836.3,330.9 883.4,315.3 873.7,374.7 922.3,329 944.2,410.1 984.3,313.5 1076.6,355.4 1048.2,317.2 
		944.2,177.3 	"/>
</g>
<path class="st10" d="M1495,726.9c0,12.5-9,22.7-20.2,22.7H-11.1c-11.1,0-20.2-10.2-20.2-22.7l0,0c0-12.5,9-22.7,20.2-22.7h1485.9
	C1486,704.2,1495,714.4,1495,726.9L1495,726.9z"/>
<g>
	<polygon class="st12" points="773.7,666.8 690.5,666.8 690.5,607.7 732.1,579.2 773.7,607.7 	"/>
	<rect x="704.3" y="606.4" class="st7" width="47.5" height="24.4"/>
	<rect x="731.2" y="609.5" class="st8" width="16.5" height="18.2"/>
	<rect x="709" y="609.5" class="st8" width="16.5" height="18.2"/>
	<path class="st13" d="M777.6,610.4c-1.6,0-3.1-0.4-4.5-1.4l-41-28.1l-41,28.1c-3.3,2.2-7.9,1.7-10.4-1.3c-2.5-2.9-1.9-7.1,1.4-9.4
		l45.5-31.2c2.7-1.8,6.3-1.8,9,0l45.5,31.2c3.3,2.2,3.9,6.4,1.4,9.4C782,609.4,779.8,610.4,777.6,610.4z"/>
	<rect x="762.1" y="571.8" class="st13" width="11.6" height="22.7"/>
	<rect x="760.9" y="568.1" class="st13" width="13.9" height="4.3"/>
</g>
<g>
	<polygon class="st6" points="460.8,504.2 386.3,504.2 386.3,451.3 423.5,425.8 460.8,451.3 	"/>
	<rect x="398.7" y="450.2" class="st7" width="42.6" height="21.9"/>
	<rect x="422.7" y="452.9" class="st8" width="14.7" height="16.3"/>
	<rect x="402.9" y="452.9" class="st8" width="14.7" height="16.3"/>
	<path class="st9" d="M464.2,453.7c-1.4,0-2.8-0.4-4-1.2l-36.7-25.2l-36.7,25.2c-2.9,2-7.1,1.5-9.3-1.1c-2.2-2.6-1.7-6.4,1.3-8.4
		l40.7-27.9c2.4-1.6,5.7-1.6,8.1,0l40.7,27.9c2.9,2,3.5,5.8,1.3,8.4C468.2,452.9,466.2,453.7,464.2,453.7z"/>
	<rect x="450.4" y="419.2" class="st9" width="10.4" height="20.3"/>
	<rect x="449.4" y="415.9" class="st9" width="12.4" height="3.9"/>
</g>
<polygon class="st2" points="-182,750.7 322.3,909.2 528.7,833.2 858.8,995.5 1037.5,841.8 1245.6,841.8 1361.8,749.6 "/>
<g>
	<g>
		<g>
			<polygon class="st14" points="414,833.2 335.3,866.3 454.4,909.2 508.5,886.4 			"/>
		</g>
		<g>
			<polygon class="st14" points="1141,749.8 1039.8,841.8 858.1,841.8 782.4,916.4 922.7,995.5 1078.8,841.8 1260.4,841.8 
				1361.8,749.6 			"/>
		</g>
	</g>
</g>
<g>
	<path class="st11" d="M-10,704.2c0,0,131.1-30.2,197.8-85.4c90.3-74.7,138.3-134.8,235.7-134.8c110.4,0,265.8,205.5,433.5,220.1
		C411.3,704.2-10,704.2-10,704.2z"/>
	<path class="st10" d="M532.5,704.2c102.5,0,212.7,0,324.5,0c-167.7-14.7-323.2-220.1-433.5-220.1c-47.7,0-83.5,14.4-118.3,37.8
		C391.5,543.4,507.5,648.3,532.5,704.2z"/>
</g>
<g>
	<path class="st11" d="M591.1,704.2c0,0,134.3-29.9,202.6-84.6c92.5-74,141.7-133.4,241.5-133.4c113.1,0,272.4,203.5,444.2,218
		C1022.8,704.2,591.1,704.2,591.1,704.2z"/>
	<path class="st10" d="M1146.9,704.2c105,0,218,0,332.5,0c-171.8-14.5-331.1-218-444.2-218c-48.8,0-85.6,14.3-121.2,37.4
		C1002.4,545,1121.3,648.8,1146.9,704.2z"/>
</g>
<g>
	<polygon class="st15" points="932.9,602.5 993,602.5 960.8,533 	"/>
	<rect x="955.9" y="602.5" class="st16" width="10" height="7.1"/>
	<polygon class="st17" points="960.8,602.5 993,602.5 960.8,533.1 	"/>
</g>
<g>
	<polygon class="st15" points="1156.2,687.6 1216.3,687.6 1184.2,618.1 	"/>
	<rect x="1179.2" y="687.6" class="st16" width="10" height="7.1"/>
	<polygon class="st17" points="1184.2,687.6 1216.3,687.6 1184.2,618.2 	"/>
</g>
<g>
	<polygon class="st15" points="323.6,640.8 383.8,640.8 351.6,571.3 	"/>
	<rect x="346.6" y="640.8" class="st16" width="10" height="7.1"/>
	<polygon class="st17" points="351.6,640.8 383.8,640.8 351.6,571.3 	"/>
</g>
<g>
	<polygon class="st15" points="316.6,515.3 376.7,515.3 344.5,445.8 	"/>
	<rect x="339.6" y="515.3" class="st16" width="10" height="7.1"/>
	<polygon class="st17" points="344.5,515.3 376.7,515.3 344.5,445.9 	"/>
</g>
<g>
	<polygon class="st15" points="537.4,655.5 597.5,655.5 565.4,586 	"/>
	<rect x="560.4" y="655.5" class="st16" width="10" height="7.1"/>
	<polygon class="st17" points="565.4,655.5 597.5,655.5 565.4,586 	"/>
</g>
<g>
	<polygon class="st18" points="1050.4,507.8 975.9,507.8 975.9,454.9 1013.2,429.3 1050.4,454.9 	"/>
	<rect x="1010.8" y="460.2" class="st19" width="23.6" height="38.3"/>
	<rect x="1015.9" y="465" class="st8" width="14.7" height="28.5"/>
	<rect x="988.7" y="465" class="st8" width="14.7" height="13.1"/>
	<path class="st13" d="M1053.9,457.3c-1.4,0-2.8-0.4-4-1.2h-73.4c-2.9,2-7.1,1.5-9.3-1.1c-2.2-2.6-1.7-6.4,1.3-8.4l40.7-27.9
		c2.4-1.6,5.7-1.6,8.1,0l40.7,27.9c2.9,2,3.5,5.8,1.3,8.4C1057.9,456.4,1055.9,457.3,1053.9,457.3z"/>
	<rect x="1040" y="422.7" class="st13" width="10.4" height="20.3"/>
	<rect x="1039" y="419.4" class="st13" width="12.4" height="3.9"/>
</g>
<g>
	<polygon class="st15" points="1031.1,538.8 1104.1,538.8 1065.1,447.7 	"/>
	<rect x="1059" y="538.8" class="st16" width="12.1" height="9.3"/>
	<polygon class="st17" points="1065.1,538.8 1104.1,538.8 1065.1,447.8 	"/>
</g>
<g>
	<ellipse class="st20" cx="898.3" cy="494.5" rx="41.3" ry="37.1"/>
	<polygon class="st16" points="895.6,564.1 895.9,524.2 876,503.1 876,503.1 895.6,517.6 898.6,501 902.3,518.9 924.1,504.7 
		902.3,524.2 902,564.1 	"/>
</g>
<g>
	<ellipse class="st20" cx="597.5" cy="538.2" rx="41.3" ry="37.1"/>
	<polygon class="st16" points="594.8,607.8 595.1,567.8 575.2,546.7 575.2,546.7 594.8,561.3 597.8,544.7 601.5,562.6 623.3,548.4 
		601.5,567.8 601.2,607.8 	"/>
</g>
<g>
	<ellipse class="st20" cx="195.3" cy="585.2" rx="41.3" ry="37.1"/>
	<polygon class="st16" points="192.6,654.8 192.8,614.9 173,593.8 173,593.8 192.6,608.3 195.5,591.7 199.3,609.6 221.1,595.4 
		199.3,614.9 199,654.8 	"/>
</g>
<g>
	<g>
		<g>
			<g>
				<path class="st13" d="M1113.7,664.5c1.5,0,2.7-1.1,2.7-2.4v-26.6c0-1.3-1.2-2.4-2.7-2.4c-1.5,0-2.7,1.1-2.7,2.4v26.6
					C1111.1,663.4,1112.2,664.5,1113.7,664.5z"/>
			</g>
			<g>
				<path class="st13" d="M1127.6,639.7c1.5,0,2.7-1.1,2.7-2.4v-26.6c0-1.3-1.2-2.4-2.7-2.4c-1.5,0-2.7,1.1-2.7,2.4v26.6
					C1125,638.6,1126.2,639.7,1127.6,639.7z"/>
			</g>
			<g>
				<path class="st13" d="M1117.9,608.4c1.5,0,2.7-1.1,2.7-2.4v-26.6c0-1.3-1.2-2.4-2.7-2.4c-1.5,0-2.7,1.1-2.7,2.4V606
					C1115.2,607.3,1116.4,608.4,1117.9,608.4z"/>
			</g>
			<g>
				<path class="st13" d="M1087.2,661.3c1.5,0,2.7-1.1,2.7-2.4v-26.6c0-1.3-1.2-2.4-2.7-2.4c-1.5,0-2.7,1.1-2.7,2.4v26.6
					C1084.6,660.2,1085.8,661.3,1087.2,661.3z"/>
			</g>
			<g>
				<path class="st13" d="M1065.9,651.2c1.5,0,2.7-1.1,2.7-2.4v-26.6c0-1.3-1.2-2.4-2.7-2.4c-1.5,0-2.7,1.1-2.7,2.4v26.6
					C1063.3,650.1,1064.5,651.2,1065.9,651.2z"/>
			</g>
			<g>
				<path class="st13" d="M1034.8,651.2c1.5,0,2.7-1.1,2.7-2.4v-26.6c0-1.3-1.2-2.4-2.7-2.4c-1.5,0-2.7,1.1-2.7,2.4v26.6
					C1032.2,650.1,1033.4,651.2,1034.8,651.2z"/>
			</g>
			<g>
				<path class="st13" d="M1005.8,661.3c1.5,0,2.7-1.1,2.7-2.4v-26.6c0-1.3-1.2-2.4-2.7-2.4c-1.5,0-2.7,1.1-2.7,2.4v26.6
					C1003.2,660.2,1004.4,661.3,1005.8,661.3z"/>
			</g>
			<g>
				<path class="st13" d="M973.2,651.2c1.5,0,2.7-1.1,2.7-2.4v-26.6c0-1.3-1.2-2.4-2.7-2.4c-1.5,0-2.7,1.1-2.7,2.4v26.6
					C970.5,650.1,971.7,651.2,973.2,651.2z"/>
			</g>
			<g>
				<path class="st13" d="M946.6,648c1.5,0,2.7-1.1,2.7-2.4V619c0-1.3-1.2-2.4-2.7-2.4c-1.5,0-2.7,1.1-2.7,2.4v26.6
					C943.9,646.9,945.1,648,946.6,648z"/>
			</g>
			<g>
				<path class="st13" d="M918.9,651.2c1.5,0,2.7-1.1,2.7-2.4v-26.6c0-1.3-1.2-2.4-2.7-2.4c-1.5,0-2.7,1.1-2.7,2.4v26.6
					C916.3,650.1,917.5,651.2,918.9,651.2z"/>
			</g>
		</g>
	</g>
	<g>
		<path class="st13" d="M1115.2,651.2c0.5,0,1-0.3,1.2-0.7l12.4-24c0.1-0.2,0.2-0.5,0.1-0.8l-9.8-36.8c-0.2-0.6-0.9-1-1.6-0.9
			c-0.7,0.2-1.2,0.8-1,1.4l9.7,36.4l-11.8,22.8l-26.8-4.2l-21.1-10c-0.2-0.1-0.4-0.1-0.6-0.1h-30c-0.1,0-0.2,0-0.3,0l-30,6.9
			l-32-10.1c-0.1,0-0.3-0.1-0.4-0.1h-26.5l-27.8,3.2c-0.7,0.1-1.2,0.7-1.2,1.3c0.1,0.7,0.8,1.1,1.5,1l27.7-3.2l26.2,0l32.2,10.2
			c0.2,0.1,0.5,0.1,0.8,0l30.2-7h29.5l21,10c0.1,0.1,0.3,0.1,0.4,0.1l28,4.4C1115,651.2,1115.1,651.2,1115.2,651.2z"/>
	</g>
</g>
<g>
	<g>
		<g>
			<g>
				<path class="st13" d="M186.3,691.6c-1.5,0-2.7-1.1-2.7-2.4v-26.6c0-1.3,1.2-2.4,2.7-2.4c1.5,0,2.7,1.1,2.7,2.4v26.6
					C189,690.6,187.8,691.6,186.3,691.6z"/>
			</g>
			<g>
				<path class="st13" d="M172.4,666.8c-1.5,0-2.7-1.1-2.7-2.4v-26.6c0-1.3,1.2-2.4,2.7-2.4c1.5,0,2.7,1.1,2.7,2.4v26.6
					C175.1,665.8,173.9,666.8,172.4,666.8z"/>
			</g>
			<g>
				<path class="st13" d="M182.2,635.5c-1.5,0-2.7-1.1-2.7-2.4v-26.6c0-1.3,1.2-2.4,2.7-2.4c1.5,0,2.7,1.1,2.7,2.4v26.6
					C184.8,634.5,183.6,635.5,182.2,635.5z"/>
			</g>
			<g>
				<path class="st13" d="M212.8,688.4c-1.5,0-2.7-1.1-2.7-2.4v-26.6c0-1.3,1.2-2.4,2.7-2.4c1.5,0,2.7,1.1,2.7,2.4V686
					C215.5,687.4,214.3,688.4,212.8,688.4z"/>
			</g>
			<g>
				<path class="st13" d="M234.1,678.3c-1.5,0-2.7-1.1-2.7-2.4v-26.6c0-1.3,1.2-2.4,2.7-2.4c1.5,0,2.7,1.1,2.7,2.4v26.6
					C236.8,677.3,235.6,678.3,234.1,678.3z"/>
			</g>
			<g>
				<path class="st13" d="M265.2,678.3c-1.5,0-2.7-1.1-2.7-2.4v-26.6c0-1.3,1.2-2.4,2.7-2.4c1.5,0,2.7,1.1,2.7,2.4v26.6
					C267.9,677.3,266.7,678.3,265.2,678.3z"/>
			</g>
			<g>
				<path class="st13" d="M294.2,688.4c-1.5,0-2.7-1.1-2.7-2.4v-26.6c0-1.3,1.2-2.4,2.7-2.4c1.5,0,2.7,1.1,2.7,2.4V686
					C296.9,687.4,295.7,688.4,294.2,688.4z"/>
			</g>
			<g>
				<path class="st13" d="M326.9,678.3c-1.5,0-2.7-1.1-2.7-2.4v-26.6c0-1.3,1.2-2.4,2.7-2.4s2.7,1.1,2.7,2.4v26.6
					C329.6,677.3,328.4,678.3,326.9,678.3z"/>
			</g>
			<g>
				<path class="st13" d="M353.4,675.1c-1.5,0-2.7-1.1-2.7-2.4v-26.6c0-1.3,1.2-2.4,2.7-2.4c1.5,0,2.7,1.1,2.7,2.4v26.6
					C356.1,674.1,354.9,675.1,353.4,675.1z"/>
			</g>
			<g>
				<path class="st13" d="M381.1,678.3c-1.5,0-2.7-1.1-2.7-2.4v-26.6c0-1.3,1.2-2.4,2.7-2.4c1.5,0,2.7,1.1,2.7,2.4v26.6
					C383.8,677.3,382.6,678.3,381.1,678.3z"/>
			</g>
		</g>
	</g>
	<g>
		<path class="st13" d="M184.8,678.3c-0.5,0-1-0.3-1.2-0.7l-12.4-24c-0.1-0.2-0.2-0.5-0.1-0.8l9.8-36.8c0.2-0.6,0.9-1,1.6-0.9
			c0.7,0.2,1.2,0.8,1,1.4l-9.7,36.4l11.8,22.8l26.8-4.2l21.1-10c0.2-0.1,0.4-0.1,0.6-0.1h30c0.1,0,0.2,0,0.3,0l30,6.9l32-10.1
			c0.1,0,0.3-0.1,0.4-0.1h26.5l27.8,3.2c0.7,0.1,1.2,0.7,1.2,1.3c-0.1,0.7-0.8,1.1-1.5,1l-27.7-3.2l-26.2,0l-32.2,10.2
			c-0.2,0.1-0.5,0.1-0.8,0l-30.2-7h-29.5l-21,10c-0.1,0.1-0.3,0.1-0.4,0.1l-28,4.4C185,678.3,184.9,678.3,184.8,678.3z"/>
	</g>
</g>
<g>
	<polygon class="st15" points="1434.5,639.4 1494.6,639.4 1462.5,569.9 	"/>
	<rect x="1457.5" y="639.4" class="st16" width="10" height="7.1"/>
	<polygon class="st17" points="1462.5,639.4 1494.6,639.4 1462.5,570 	"/>
</g>
<g>
	<polygon class="st15" points="1427.5,513.9 1487.6,513.9 1455.4,444.5 	"/>
	<rect x="1450.5" y="513.9" class="st16" width="10" height="7.1"/>
	<polygon class="st17" points="1455.4,513.9 1487.6,513.9 1455.4,444.5 	"/>
</g>
<g>
	<polygon class="st15" points="1648.3,654.1 1708.4,654.1 1676.3,584.6 	"/>
	<rect x="1671.3" y="654.1" class="st16" width="10" height="7.1"/>
	<polygon class="st17" points="1676.3,654.1 1708.4,654.1 1676.3,584.7 	"/>
</g>
<g>
	<ellipse class="st20" cx="1708.4" cy="536.8" rx="41.3" ry="37.1"/>
	<polygon class="st16" points="1705.7,606.4 1705.9,566.5 1686.1,545.3 1686.1,545.3 1705.7,559.9 1708.6,543.3 1712.4,561.2 
		1734.2,547 1712.4,566.5 1712.1,606.4 	"/>
</g>
<g>
	<ellipse class="st20" cx="1306.2" cy="583.9" rx="41.3" ry="37.1"/>
	<polygon class="st16" points="1303.5,653.5 1303.7,613.5 1283.9,592.4 1283.9,592.4 1303.5,607 1306.4,590.4 1310.2,608.2 
		1331.9,594.1 1310.2,613.5 1309.9,653.5 	"/>
</g>
<g>
	<g>
		<g>
			<g>
				<path class="st13" d="M1297.2,690.3c-1.5,0-2.7-1.1-2.7-2.4v-26.6c0-1.3,1.2-2.4,2.7-2.4c1.5,0,2.7,1.1,2.7,2.4v26.6
					C1299.9,689.2,1298.7,690.3,1297.2,690.3z"/>
			</g>
			<g>
				<path class="st13" d="M1283.3,665.4c-1.5,0-2.7-1.1-2.7-2.4v-26.6c0-1.3,1.2-2.4,2.7-2.4c1.5,0,2.7,1.1,2.7,2.4V663
					C1286,664.4,1284.8,665.4,1283.3,665.4z"/>
			</g>
			<g>
				<path class="st13" d="M1293.1,634.2c-1.5,0-2.7-1.1-2.7-2.4v-26.6c0-1.3,1.2-2.4,2.7-2.4c1.5,0,2.7,1.1,2.7,2.4v26.6
					C1295.7,633.1,1294.5,634.2,1293.1,634.2z"/>
			</g>
			<g>
				<path class="st13" d="M1323.7,687.1c-1.5,0-2.7-1.1-2.7-2.4v-26.6c0-1.3,1.2-2.4,2.7-2.4c1.5,0,2.7,1.1,2.7,2.4v26.6
					C1326.4,686,1325.2,687.1,1323.7,687.1z"/>
			</g>
			<g>
				<path class="st13" d="M1345,676.9c-1.5,0-2.7-1.1-2.7-2.4v-26.6c0-1.3,1.2-2.4,2.7-2.4c1.5,0,2.7,1.1,2.7,2.4v26.6
					C1347.7,675.9,1346.5,676.9,1345,676.9z"/>
			</g>
			<g>
				<path class="st13" d="M1376.1,676.9c-1.5,0-2.7-1.1-2.7-2.4v-26.6c0-1.3,1.2-2.4,2.7-2.4c1.5,0,2.7,1.1,2.7,2.4v26.6
					C1378.7,675.9,1377.6,676.9,1376.1,676.9z"/>
			</g>
			<g>
				<path class="st13" d="M1405.1,687.1c-1.5,0-2.7-1.1-2.7-2.4v-26.6c0-1.3,1.2-2.4,2.7-2.4c1.5,0,2.7,1.1,2.7,2.4v26.6
					C1407.7,686,1406.6,687.1,1405.1,687.1z"/>
			</g>
			<g>
				<path class="st13" d="M1437.8,676.9c-1.5,0-2.7-1.1-2.7-2.4v-26.6c0-1.3,1.2-2.4,2.7-2.4c1.5,0,2.7,1.1,2.7,2.4v26.6
					C1440.4,675.9,1439.3,676.9,1437.8,676.9z"/>
			</g>
			<g>
				<path class="st13" d="M1464.3,673.8c-1.5,0-2.7-1.1-2.7-2.4v-26.6c0-1.3,1.2-2.4,2.7-2.4c1.5,0,2.7,1.1,2.7,2.4v26.6
					C1467,672.7,1465.8,673.8,1464.3,673.8z"/>
			</g>
			<g>
				<path class="st13" d="M1492,676.9c-1.5,0-2.7-1.1-2.7-2.4v-26.6c0-1.3,1.2-2.4,2.7-2.4c1.5,0,2.7,1.1,2.7,2.4v26.6
					C1494.6,675.9,1493.5,676.9,1492,676.9z"/>
			</g>
		</g>
	</g>
	<g>
		<path class="st13" d="M1295.7,677c-0.5,0-1-0.3-1.2-0.7l-12.4-24c-0.1-0.2-0.2-0.5-0.1-0.8l9.8-36.8c0.2-0.6,0.9-1,1.6-0.9
			c0.7,0.2,1.2,0.8,1,1.4l-9.7,36.4l11.8,22.8l26.8-4.2l21.1-10c0.2-0.1,0.4-0.1,0.6-0.1h30c0.1,0,0.2,0,0.3,0l30,6.9l32-10.1
			c0.1,0,0.3-0.1,0.4-0.1h26.5l27.8,3.2c0.7,0.1,1.2,0.7,1.2,1.3c-0.1,0.7-0.8,1.1-1.5,1l-27.7-3.2l-26.2,0l-32.2,10.2
			c-0.2,0.1-0.5,0.1-0.8,0l-30.2-7h-29.5l-21,10c-0.1,0.1-0.3,0.1-0.4,0.1l-28,4.4C1295.9,677,1295.8,677,1295.7,677z"/>
	</g>
</g>
<path class="st0" d="M1960.7,740.7c57.9,237.6,275,414.3,534,414.3s476.1-176.7,534-414.3H1960.7z"/>
<path class="st1" d="M2344.4,1064.2c0-12.1,8.6-21.9,19.3-21.9h-135.9c10.7,0,19.3,9.8,19.3,21.9c0,12.1-8.6,21.9-19.3,21.9h135.9
	C2353,1086.1,2344.4,1076.3,2344.4,1064.2z"/>
<path class="st1" d="M3074.3,764.8H1985.2c-10.7,0-19.3,11.4-19.3,25.6c0,14.1,8.6,25.6,19.3,25.6h433.3c10.7,0,19.3,11.4,19.3,25.6
	c0,14.1-8.6,25.6-19.3,25.6h-368.2c-10.7,0-19.3,11.4-19.3,25.6c0,14.1,8.6,25.6,19.3,25.6h513.4c10.6,0,19.3,11.4,19.3,25.6
	c0,14.1-8.6,25.6-19.3,25.6h-76.3c-10.6,0-19.3,11.4-19.3,25.6c0,14.1,8.6,25.6,19.3,25.6h342.5c10.7,0,19.3-11.4,19.3-25.6
	c0-14.1-8.6-25.6-19.3-25.6h-32.4c-10.6,0-19.3-11.4-19.3-25.6c0-14.1,8.6-25.6,19.3-25.6H2961c10.7,0,19.3-11.4,19.3-25.6
	c0-14.1-8.6-25.6-19.3-25.6h-139.8c-10.6,0-19.3-11.4-19.3-25.6c0-14.1,8.6-25.6,19.3-25.6h253.1c10.7,0,19.3-11.4,19.3-25.6
	C3093.5,776.3,3084.9,764.8,3074.3,764.8z"/>
<path class="st1" d="M2515.8,1020.5c0,12.1-8.6,21.9-19.3,21.9H2154c-10.7,0-19.3-9.8-19.3-21.9l0,0c0-12.1,8.6-21.9,19.3-21.9
	h342.5C2507.2,998.6,2515.8,1008.4,2515.8,1020.5L2515.8,1020.5z"/>
<path class="st1" d="M2428.1,1108c0,12.1-8.6,21.9-19.3,21.9h-199.5c-10.7,0-19.3-9.8-19.3-21.9l0,0c0-12.1,8.6-21.9,19.3-21.9
	h199.5C2419.5,1086.1,2428.1,1095.9,2428.1,1108L2428.1,1108z"/>
<path class="st1" d="M2802.8,1108c0,12.1-8.6,21.9-19.3,21.9h-199.5c-10.6,0-19.3-9.8-19.3-21.9l0,0c0-12.1,8.6-21.9,19.3-21.9
	h199.5C2794.1,1086.1,2802.8,1095.9,2802.8,1108L2802.8,1108z"/>
<g>
	<path class="st21" d="M2226.6,710.6c0,0,107.4-8.4,162-23.6c74-20.7,113.3-37.3,193.1-37.3c90.4,0,217.8,56.8,355.2,60.9
		C2571.7,710.6,2226.6,710.6,2226.6,710.6z"/>
</g>
<path class="st10" d="M3058.8,730.7c0,12-6.8,21.8-15.2,21.8H1945.8c-8.4,0-15.2-9.8-15.2-21.8l0,0c0-12,6.8-21.8,15.2-21.8h1097.8
	C3052,708.8,3058.8,718.6,3058.8,730.7L3058.8,730.7z"/>
<g>
	<path class="st11" d="M1964.1,710.6c0,0,107.4-8.4,162-23.6c74-20.7,113.3-37.3,193.1-37.3c90.4,0,217.8,56.8,355.2,60.9
		C2309.2,710.6,1964.1,710.6,1964.1,710.6z"/>
</g>
<g>
	<path class="st11" d="M2544,710.6c0,0,76.8-7.4,115.9-20.9c52.9-18.3,81-33,138.1-33c64.7,0,155.8,50.3,254,53.9
		C2790.9,710.6,2544,710.6,2544,710.6z"/>
</g>
<path class="st5" d="M2716.5,374.2c0,0,9.4-16.9,26.8-6.9c11.8-10.7,24.8,3.7,26.1,4.8c-1.4-7.6-17.8-18.4-26.4-9.5
	C2732.9,358.2,2720.5,362.4,2716.5,374.2z"/>
<path class="st5" d="M2613.4,421.8c0,0,9.4-16.9,26.8-6.9c11.8-10.7,24.8,3.7,26.1,4.8c-1.4-7.5-17.8-18.4-26.4-9.5
	C2629.9,405.7,2617.5,409.9,2613.4,421.8z"/>
<path class="st5" d="M2629.8,389c0,0,9.4-16.9,26.8-6.9c11.8-10.7,24.8,3.7,26.1,4.8c-1.4-7.6-17.8-18.4-26.4-9.5
	C2646.3,372.9,2633.8,377.1,2629.8,389z"/>
<path class="st5" d="M2754.8,414.3c0,0,9.4-16.9,26.8-6.9c11.8-10.7,24.8,3.7,26.1,4.8c-1.4-7.5-17.8-18.4-26.4-9.5
	C2771.2,398.2,2758.8,402.5,2754.8,414.3z"/>
<path class="st5" d="M2682.7,421.8c0,0,9.4-16.9,26.8-6.9c11.8-10.7,24.8,3.7,26.1,4.8c-1.4-7.5-17.8-18.4-26.4-9.5
	C2699.2,405.7,2686.7,409.9,2682.7,421.8z"/>
<path class="st5" d="M2649.8,451.9c0,0,9.4-16.9,26.8-6.9c11.8-10.7,24.8,3.7,26.1,4.8c-1.4-7.5-17.8-18.4-26.4-9.5
	C2666.3,435.8,2653.9,440,2649.8,451.9z"/>
<path class="st5" d="M2722.1,451.9c0,0,9.4-16.9,26.8-6.9c11.8-10.7,24.8,3.7,26.1,4.8c-1.4-7.5-17.8-18.4-26.4-9.5
	C2738.6,435.8,2726.1,440,2722.1,451.9z"/>
<path class="st5" d="M2676.3,348.4c0,0,9.4-16.9,26.8-6.9c11.8-10.7,24.8,3.7,26.1,4.8c-1.4-7.5-17.8-18.4-26.4-9.5
	C2692.7,332.3,2680.3,336.5,2676.3,348.4z"/>
<g>
	<g>
		<g>
			<path class="st22" d="M2316,570.7c0,0-4.1,10.7-4.8,10.9c-0.7,0.2-5.3-1.9-5.3-2.8c0-0.9,5-9.5,6.4-9.6
				C2313.7,569.1,2315.9,569.9,2316,570.7z"/>
			<path class="st22" d="M2310.7,584.2c0.3,1.1-2.1,5.9-3,5.9c-0.9,0-6.1-2.1-6.1-3.2c-0.1-1.1,1.1-5.6,2.3-6
				C2305,580.5,2310.5,583.4,2310.7,584.2z"/>
			<path class="st22" d="M2307.7,592c0.9,1.7-3.6,9.7-5.4,10.3c-1.8,0.6-7.5-1.8-7.7-3.4c-0.2-1.6,2.7-10.5,4.1-10.8
				C2300,587.9,2307.7,592,2307.7,592z"/>
			<path class="st22" d="M2302.2,605.5c0.6,1.5-3.9,8.8-5,9.2c-1.1,0.4-8.5-2.1-8.7-3.4c-0.2-1.3,2.6-9,4.2-9.7
				C2294.3,600.9,2301.7,604.3,2302.2,605.5z"/>
			<path class="st22" d="M2297.6,618.2c0.5,1-3.3,9.6-5.1,10.3c-1.8,0.6-9.8-1.2-10.3-2.8c-0.5-1.6,1.2-11.7,2.6-12.2
				C2286.3,613,2296.8,616.5,2297.6,618.2z"/>
			<path class="st22" d="M2294.3,632c1.8,1.7-3.7,10.9-5.2,11.4c-1.5,0.6-11.4,0.6-12-1.5c-0.6-2.2,0.7-13.8,3.1-14.8
				C2282.6,626.1,2292.9,630.6,2294.3,632z"/>
			<path class="st22" d="M2290.3,646.4c1.2,0.8-3.8,14.7-5.1,15.2c-1.3,0.5-12.9-1.5-13.1-2.8c-0.2-1.3-1-13.7,1-15
				C2275,642.5,2288.5,645.1,2290.3,646.4z"/>
			<path class="st22" d="M2286.9,664c1.2,1.2-3.6,14.5-5.3,15.2c-1.7,0.7-13.9-0.6-14.5-2.2c-0.6-1.5-1.2-15.6,0.8-16.4
				C2269.9,659.8,2285.6,662.7,2286.9,664z"/>
		</g>
		<path class="st23" d="M2316.9,566.3c0,0,24.3-43.7,52.9-14.3l-8.2,0.6l2.7,2.2l-7.8-0.3l1.9,1.5l-6.5-0.7l1.6,2.3l-7.6-1l2.1,3
			l-8.1-1.2l1.5,2.2c0,0-3.9-1.3-6.8,1.2c0,0-16,12.3-18.6,7.4c0,0-12.7-21.4-14.3-26.1l1.1-1.8l-6-2.6l1.7-1.1l-4.7-3.3l3.1,0
			l-6.7-4.5l3.7,0.3l-6.8-5.3C2287,524.7,2327.8,522.2,2316.9,566.3z"/>
		<path class="st24" d="M2315.7,566.8c0,0-2-52.6-47.2-19.8c0,0,7.9,1.6,8.7,1.1l-2.9,2.9l7.4-0.8l-2.2,1.6l7.4,0.7l-2.6,1.6
			l7.2-0.3l-2.1,2.2l9.3-1.4l-2.1,2.4c0,0,9.6-1.3,10.4,2.3c0,0-39.5,4.9-37,26.3l7-4.7l-1.5,4.5l6.6-5.8l-1.1,2.7l6.2-4.2l-1.8,3.3
			l6.2-5.7l-0.5,3.3l5.9-5.9l0,3.7c0,0,6.3-6.3,8.2-6.6l-0.1,2c0,0,7.1-6.8,9.8-4c0,0,3.2,5.5,1,10.1l2.4-0.3l-2,7.4l2.6-1l-1.8,7
			l2-1.4l-1,4.9l2.3-0.3l-1.4,6.7l3-2l-1.4,8.1c0,0,18.8-9.7,8.1-36.6l2.3,2.1l1.6-2.8l6,8.7l0.8-2.6c0,0,3.6,6.6,3.5,6.5
			c-0.1-0.1,0.9-1.7,0.9-1.7l4,5.4l1.4-1.6c0,0,2.3,4.7,3.1,4.9l0.8-2.6l3.3,6.2l0.7-3.9l4.7,6.8
			C2361.7,596.3,2366.1,546.7,2315.7,566.8z"/>
		<g>
			<g>
				<path class="st25" d="M2324.1,566.5c2,2.5,1.5,6.1-1.1,8.1c-2.6,1.9-6.2,1.5-8.2-1c-2-2.5-1.5-6.1,1.1-8.1
					C2318.4,563.5,2322.1,564,2324.1,566.5z"/>
				<path class="st26" d="M2318.5,573.5c0.2,0.2,0.1,0.6-0.1,0.8c-0.2,0.2-0.6,0.1-0.8-0.1c-0.2-0.2-0.1-0.6,0.1-0.8
					C2318,573.3,2318.4,573.3,2318.5,573.5z"/>
				<path class="st26" d="M2319.6,570.8c0.2,0.3,0.2,0.7-0.1,1c-0.3,0.2-0.7,0.2-1-0.1c-0.2-0.3-0.2-0.7,0.1-1
					C2319,570.4,2319.4,570.5,2319.6,570.8z"/>
				<path class="st26" d="M2322.3,572.3c0.3,0.3,0.2,0.8-0.1,1.1c-0.3,0.3-0.8,0.2-1.1-0.1c-0.3-0.3-0.2-0.8,0.1-1.1
					C2321.6,571.9,2322.1,572,2322.3,572.3z"/>
			</g>
			<g>
				<path class="st27" d="M2316.6,573c-2.3,2.8-6.4,3.2-9.2,1c-2.8-2.2-3.3-6.3-1-9.1c2.3-2.8,6.4-3.2,9.2-1
					C2318.4,566.2,2318.9,570.2,2316.6,573z"/>
				<path class="st26" d="M2314.9,569.9c-0.2,0.3-0.6,0.3-0.9,0.1c-0.3-0.2-0.3-0.6-0.1-0.8c0.2-0.3,0.6-0.3,0.9-0.1
					C2315.1,569.3,2315.2,569.6,2314.9,569.9z"/>
				<path class="st26" d="M2315.5,573.2c-0.3,0.3-0.8,0.4-1.1,0.1c-0.3-0.3-0.4-0.8-0.1-1.1c0.3-0.4,0.8-0.4,1.1-0.1
					C2315.8,572.4,2315.8,572.9,2315.5,573.2z"/>
				<path class="st26" d="M2312.8,573.3c-0.2,0.3-0.7,0.3-0.9,0.1c-0.3-0.2-0.3-0.6-0.1-0.9c0.2-0.3,0.6-0.3,0.9-0.1
					C2312.9,572.6,2313,573,2312.8,573.3z"/>
			</g>
		</g>
	</g>
	<g>
		<path class="st28" d="M2210.1,526.3c0,0,4.1,10.7,4.8,10.9c0.7,0.2,5.3-1.9,5.3-2.8c0-0.9-4.9-9.5-6.4-9.6
			C2212.4,524.7,2210.2,525.5,2210.1,526.3z"/>
		<path class="st28" d="M2215.4,539.8c-0.3,1.1,2.1,5.9,3,5.9c0.9,0,6.1-2.1,6.1-3.2c0.1-1.1-1.1-5.6-2.3-6
			C2221.1,536.1,2215.6,539,2215.4,539.8z"/>
		<path class="st28" d="M2218.3,547.7c-0.9,1.7,3.6,9.7,5.4,10.3c1.8,0.6,7.5-1.8,7.7-3.4c0.2-1.6-2.7-10.5-4.1-10.8
			C2226,543.5,2218.3,547.7,2218.3,547.7z"/>
		<path class="st28" d="M2223.9,561.1c-0.6,1.5,3.9,8.8,5,9.2c1.1,0.4,8.5-2.1,8.7-3.4c0.2-1.3-2.6-9-4.2-9.7
			C2231.8,556.5,2224.4,559.9,2223.9,561.1z"/>
		<path class="st28" d="M2228.4,573.8c-0.5,1,3.3,9.6,5.1,10.3c1.8,0.6,9.8-1.2,10.3-2.8c0.5-1.6-1.2-11.7-2.6-12.2
			C2239.7,568.6,2229.3,572.2,2228.4,573.8z"/>
		<path class="st28" d="M2231.8,587.6c-1.8,1.7,3.7,10.9,5.2,11.4c1.5,0.6,11.4,0.7,12-1.5c0.6-2.2-0.7-13.8-3.1-14.8
			C2243.5,581.8,2233.1,586.3,2231.8,587.6z"/>
		<path class="st28" d="M2235.8,602c-1.2,0.8,3.8,14.7,5.1,15.2c1.3,0.5,12.9-1.5,13.1-2.8c0.2-1.3,0.9-13.7-1-15
			C2251.1,598.1,2237.6,600.8,2235.8,602z"/>
		<path class="st28" d="M2239.1,619.6c-1.2,1.2,3.6,14.5,5.3,15.2c1.7,0.7,13.9-0.6,14.5-2.2c0.6-1.5,1.3-15.6-0.8-16.4
			C2256.1,615.4,2240.5,618.3,2239.1,619.6z"/>
		<path class="st28" d="M2242.8,637.2c-0.8,0.9,3.2,15,4.9,15.4c1.7,0.4,15.1-0.3,15.6-1.6c0.5-1.3,0.7-15.2-0.5-16.4
			C2261.6,633.3,2244.6,635.3,2242.8,637.2z"/>
		<path class="st28" d="M2245.8,654.9c-1.8,1.4,1.7,15.5,3.1,16.3c1.4,0.8,17.9,0.5,18.8-1.1c0.9-1.6,1-16.2-0.7-17.3
			C2265.4,651.6,2247.5,653.6,2245.8,654.9z"/>
		<path class="st28" d="M2248.1,673.8c-1.6,1,0.7,13.3,2.3,14.6c1.6,1.2,20.1,1.1,21.2-0.6c1.1-1.7-0.2-14.3-2.4-15.3
			C2267.1,671.6,2251.7,671.5,2248.1,673.8z"/>
		<g>
			<path class="st24" d="M2212,523.6c0,0-30.4-58.7,23.5-67.6l-5.4,9.2l4.5-1.2l-6.1,8.2l3.1-0.9l-5.6,6.5h3.7l-6.8,7.4h4.9
				l-7.4,7.9h3.5c0,0-4.3,3.2-3.7,8.2c0,0,1.8,26.4-5.6,25.5c0,0-33.2-2.2-39.6-4l-1.2-2.5l-7.4,4.5V522l-7.2,2.6l2.3-3.3l-10,3.8
				l3.1-3.8l-10.9,3.4C2143.6,524.8,2171.2,479,2212,523.6z"/>
			<path class="st29" d="M2211.6,525.2c0,0-59.8-36.9-57.1,36.1c0,0,7.7-7.3,7.7-8.5l1.1,5.4l4.7-8.6l0.2,3.5l6.3-7.4l-0.2,4l5.1-8
				l0.9,4l5.4-11.1l1.1,4.1c0,0,5.7-11.3,10.3-9.5c0,0-23.9,46.2,1.7,59.4v-11l3.9,5l-1.5-11.4l2.2,3.2v-9.8l2.4,4.4l-1.7-11l3.2,3
				l-2.2-10.8l4.2,2.8c0,0-2.3-11.5-1.2-13.7l2.2,1.7c0,0-2.3-12.8,2.9-13.6c0,0,8.5,0.7,11.9,6.4l1.4-2.8l6.7,7.6l0.9-3.5l6.4,7.1
				v-3.2l4.8,4.7l1.5-2.7l6.3,6.5v-4.8l7.9,7.5c0,0,3.2-27.4-34.6-35.9l4-0.9l-1.9-3.8h14.1l-2.3-2.8c0,0,10,1,9.9,1
				c-0.1,0-1.3-2.2-1.3-2.2l8.9-0.2l-0.7-2.7c0,0,6.9,1,7.7,0.4l-2.3-2.8l9.3,1.1l-3.9-3.7h11C2278.6,497.7,2226.8,456,2211.6,525.2
				z"/>
			<g>
				<g>
					<path class="st25" d="M2209.4,525.1c1,3.3-0.9,6.9-4.2,7.9c-3.4,1-7-0.8-8-4.2c-1-3.3,0.9-6.9,4.2-7.9
						C2204.8,519.9,2208.4,521.8,2209.4,525.1z"/>
					<path class="st26" d="M2201,530.2c0.1,0.3-0.1,0.7-0.4,0.8c-0.3,0.1-0.7-0.1-0.8-0.4c-0.1-0.3,0.1-0.7,0.4-0.8
						C2200.6,529.7,2200.9,529.9,2201,530.2z"/>
					<path class="st26" d="M2203.2,527.8c0.1,0.4-0.1,0.8-0.5,0.9c-0.4,0.1-0.8-0.1-0.9-0.5c-0.1-0.4,0.1-0.8,0.5-0.9
						C2202.7,527.1,2203.1,527.4,2203.2,527.8z"/>
					<path class="st26" d="M2205.4,530.4c0.1,0.5-0.1,0.9-0.6,1.1c-0.5,0.1-0.9-0.1-1.1-0.6c-0.1-0.4,0.1-0.9,0.6-1.1
						C2204.7,529.7,2205.2,530,2205.4,530.4z"/>
				</g>
				<g>
					<path class="st25" d="M2219.9,515.5c3.5-0.2,6.6,2.4,6.8,5.9c0.2,3.5-2.5,6.5-6,6.7c-3.5,0.2-6.6-2.5-6.8-5.9
						C2213.7,518.7,2216.3,515.7,2219.9,515.5z"/>
					<path class="st26" d="M2222.9,524.7c0.3,0,0.6,0.2,0.7,0.6c0,0.3-0.2,0.6-0.6,0.6c-0.3,0-0.6-0.2-0.6-0.6
						C2222.3,525,2222.6,524.7,2222.9,524.7z"/>
					<path class="st26" d="M2221,522.1c0.4,0,0.8,0.3,0.8,0.7c0,0.4-0.3,0.8-0.7,0.8c-0.4,0-0.8-0.3-0.8-0.7
						C2220.3,522.4,2220.6,522.1,2221,522.1z"/>
					<path class="st26" d="M2224.2,520.6c0.5,0,0.9,0.3,0.9,0.8c0,0.5-0.3,0.9-0.8,0.9c-0.5,0-0.9-0.3-0.9-0.8
						C2223.3,521.1,2223.7,520.7,2224.2,520.6z"/>
				</g>
				<g>
					<path class="st27" d="M2221.3,526.1c1.2,3.7-1,7.7-4.7,8.8c-3.8,1.1-7.8-0.9-9-4.7c-1.2-3.7,1-7.7,4.7-8.8
						C2216.1,520.3,2220.1,522.4,2221.3,526.1z"/>
					<path class="st26" d="M2217.4,525.7c0.1,0.3-0.1,0.7-0.4,0.8c-0.3,0.1-0.7-0.1-0.8-0.4c-0.1-0.3,0.1-0.7,0.4-0.8
						C2216.9,525.2,2217.3,525.4,2217.4,525.7z"/>
					<path class="st26" d="M2220.8,527.2c0.1,0.5-0.1,1-0.6,1.1c-0.5,0.1-1-0.1-1.1-0.6c-0.1-0.5,0.1-1,0.6-1.1
						C2220.1,526.5,2220.6,526.7,2220.8,527.2z"/>
					<path class="st26" d="M2219.1,529.7c0.1,0.4-0.1,0.8-0.5,0.9c-0.4,0.1-0.8-0.1-0.9-0.5c-0.1-0.4,0.1-0.8,0.5-0.9
						C2218.6,529.2,2219,529.4,2219.1,529.7z"/>
				</g>
			</g>
		</g>
	</g>
	<g>
		<path class="st28" d="M2840.1,467.5c0,0-1.9,13.5-2.6,13.9c-0.8,0.5-6.6-0.8-6.9-1.9c-0.3-1.1,3.2-12.3,4.8-12.8
			C2837,466.2,2839.8,466.6,2840.1,467.5z"/>
		<path class="st28" d="M2837.6,484.5c0.6,1.1-0.9,7.4-1.9,7.6c-1,0.2-7.6-0.8-8-2.1c-0.4-1.2-0.3-6.7,1-7.5
			C2830,481.7,2837.1,483.6,2837.6,484.5z"/>
		<path class="st28" d="M2836.3,494.4c1.5,1.7-1.6,12.2-3.5,13.4c-1.9,1.1-9.2-0.1-9.8-1.9c-0.6-1.8,0.3-12.9,1.8-13.6
			C2826.3,491.6,2836.3,494.4,2836.3,494.4z"/>
		<path class="st28" d="M2833.5,511.4c1.1,1.6-2.1,11.2-3.3,12c-1.2,0.8-10.4-0.2-11-1.7c-0.6-1.4,0.6-11.1,2.3-12.3
			C2823.2,508.2,2832.6,510.1,2833.5,511.4z"/>
		<path class="st28" d="M2831.7,527.3c0.9,1-1.2,12-3.1,13.2c-1.9,1.2-11.6,1.2-12.7-0.5c-1-1.7-1.8-13.8-0.3-14.8
			C2817.2,524.2,2830.3,525.6,2831.7,527.3z"/>
		<path class="st28" d="M2831.6,544.2c2.5,1.5-1.4,13.5-2.9,14.6c-1.6,1.1-13,3.7-14.3,1.4c-1.3-2.4-2.9-16.2-0.4-17.9
			C2816.4,540.5,2829.6,543,2831.6,544.2z"/>
		<path class="st28" d="M2830.7,561.9c1.7,0.7-0.5,18-1.8,18.9c-1.4,0.9-15.3,1.7-15.9,0.2c-0.6-1.4-4.8-15.6-2.9-17.6
			C2812,561.4,2828.3,560.9,2830.7,561.9z"/>
		<path class="st28" d="M2831.6,583.2c1.7,1.1-0.3,17.7-2,19c-1.7,1.3-16.3,2.9-17.4,1.3c-1.1-1.6-5.7-17.7-3.5-19.2
			C2810.8,582.8,2829.8,582,2831.6,583.2z"/>
		<path class="st28" d="M2832.1,604.5c1.2,0.8,0.4,18.2-1.5,19.2c-1.9,0.9-17.5,3.6-18.5,2.2c-0.9-1.4-4.9-17.4-3.8-19.2
			C2809.4,604.9,2829.6,602.7,2832.1,604.5z"/>
		<path class="st28" d="M2833.4,625.8c2.5,1.2,2.3,18.4,0.8,19.6c-1.5,1.3-20.6,5.2-22.1,3.6c-1.5-1.6-5.5-18.5-3.9-20.2
			C2809.8,627.1,2831.1,624.7,2833.4,625.8z"/>
		<path class="st28" d="M2835.9,648.3c2.2,0.8,2.8,15.6,1.2,17.5c-1.5,1.9-23,6.6-24.7,4.9c-1.7-1.7-3.6-16.7-1.4-18.3
			C2813.3,650.7,2831.2,646.6,2835.9,648.3z"/>
		<g>
			<path class="st24" d="M2837.2,464.8c0,0,19.3-75.9-45.4-72.1l8.7,9.3l-5.5-0.2l9.3,7.9l-3.8-0.2l8.2,6.1l-4.3,1l9.8,6.8l-5.7,1.3
				l10.7,7.2l-4,0.9c0,0,5.9,2.6,6.5,8.5c0,0,5,31,13.4,28.1c0,0,37.9-11.3,44.7-15l0.8-3.3l9.8,3.3l-0.7-3l9.1,1.1l-3.6-3.2
				l12.6,1.8l-4.6-3.6l13.6,1.1C2916.7,448.4,2872.4,402.5,2837.2,464.8z"/>
			<path class="st29" d="M2838,466.6c0,0,59.3-58.5,75.8,26.8c0,0-10.9-6.4-11.2-7.9l0.2,6.5l-7.7-8.7l0.7,4.2l-9.3-6.9l1.3,4.6
				l-8-7.9l0.1,4.8l-9.3-11.4l-0.2,5c0,0-9.6-11.5-14.5-8.3c0,0,40.2,47.3,14,69.2l-3-12.8l-3.2,6.8l-1.3-13.6l-1.6,4.3l-2.6-11.3
				l-1.5,5.7l-0.9-13.2l-2.9,4.3l-0.4-13.1l-4.1,4.3c0,0-0.4-14-2.3-16.2l-2.1,2.5c0,0-0.8-15.4-7-15c0,0-9.7,3.1-12.1,10.5
				l-2.4-2.9l-5.7,10.6l-2-3.9l-5.5,9.9l-0.9-3.7l-4.2,6.7l-2.4-2.7l-5.6,9.2l-1.3-5.6l-7.2,10.8c0,0-11.2-30.9,30.4-50.7l-4.9,0
				l1.1-4.9l-16.3,3.7l1.9-3.8c0,0-11.3,3.8-11.2,3.8c0.2,0,0.9-2.9,0.9-2.9l-10.4,2.1l0.1-3.4c0,0-7.7,3-8.8,2.4l2-3.9l-10.5,3.7
				l3.5-5.3l-12.8,2.9C2753,452.3,2801.7,390.4,2838,466.6z"/>
			<g>
				<g>
					<path class="st25" d="M2840.6,465.9c-0.3,4.1,2.9,7.7,7.1,8c4.2,0.3,7.8-2.8,8.1-6.9c0.3-4.1-2.9-7.7-7.1-8
						C2844.5,458.7,2840.9,461.8,2840.6,465.9z"/>
					<path class="st26" d="M2851.6,469.6c0,0.4,0.3,0.7,0.7,0.8c0.4,0,0.8-0.3,0.8-0.7c0-0.4-0.3-0.7-0.7-0.8
						C2852,468.9,2851.7,469.2,2851.6,469.6z"/>
					<path class="st26" d="M2848.5,467.4c0,0.5,0.3,0.9,0.8,1c0.5,0,0.9-0.3,1-0.8c0-0.5-0.3-0.9-0.8-0.9
						C2848.9,466.5,2848.5,466.9,2848.5,467.4z"/>
					<path class="st26" d="M2846.7,471c0,0.6,0.4,1,0.9,1.1c0.6,0,1-0.4,1.1-0.9c0-0.5-0.4-1-0.9-1.1
						C2847.2,470,2846.7,470.5,2846.7,471z"/>
				</g>
				<g>
					<path class="st25" d="M2825.8,457.6c-4.1,0.7-6.9,4.6-6.2,8.6c0.7,4.1,4.6,6.8,8.8,6.2c4.2-0.7,6.9-4.6,6.3-8.6
						C2833.9,459.6,2830,456.9,2825.8,457.6z"/>
					<path class="st26" d="M2824.8,469c-0.4,0.1-0.7,0.4-0.6,0.8c0.1,0.4,0.4,0.7,0.8,0.6c0.4-0.1,0.7-0.4,0.6-0.8
						C2825.6,469.2,2825.2,469,2824.8,469z"/>
					<path class="st26" d="M2826.3,465.5c-0.5,0.1-0.8,0.5-0.7,1c0.1,0.5,0.5,0.8,1,0.7c0.5-0.1,0.8-0.5,0.7-1
						C2827.2,465.7,2826.8,465.4,2826.3,465.5z"/>
					<path class="st26" d="M2822.3,464.6c-0.6,0.1-0.9,0.6-0.8,1.2c0.1,0.5,0.6,0.9,1.2,0.8c0.6-0.1,0.9-0.6,0.8-1.2
						C2823.4,464.9,2822.8,464.5,2822.3,464.6z"/>
				</g>
				<g>
					<path class="st27" d="M2827.1,470.3c-0.3,4.6,3.2,8.6,7.9,9c4.7,0.3,8.8-3.1,9.1-7.8c0.3-4.6-3.2-8.6-7.9-9
						C2831.5,462.2,2827.4,465.6,2827.1,470.3z"/>
					<path class="st26" d="M2831.5,468.7c0,0.4,0.3,0.8,0.7,0.8c0.4,0,0.8-0.3,0.8-0.7c0-0.4-0.3-0.8-0.7-0.8
						C2831.9,468,2831.5,468.3,2831.5,468.7z"/>
					<path class="st26" d="M2828,471.4c0,0.6,0.4,1.1,1,1.1c0.6,0,1.1-0.4,1.1-1c0-0.6-0.4-1.1-1-1.1
						C2828.5,470.3,2828,470.8,2828,471.4z"/>
					<path class="st26" d="M2830.6,473.9c0,0.5,0.3,0.9,0.8,0.9c0.5,0,0.9-0.3,0.9-0.8c0-0.5-0.3-0.9-0.8-0.9
						C2831,473,2830.6,473.4,2830.6,473.9z"/>
				</g>
			</g>
		</g>
	</g>
</g>
<g>
	<g>
		<g>
			<path class="st22" d="M2616.6,598c0,0-2.2,5.8-2.6,5.9c-0.4,0.1-2.9-1-2.9-1.5c0-0.5,2.7-5.1,3.4-5.2
				C2615.4,597.1,2616.6,597.6,2616.6,598z"/>
			<path class="st22" d="M2613.8,605.2c0.2,0.6-1.2,3.2-1.6,3.2c-0.5,0-3.3-1.1-3.3-1.7c0-0.6,0.6-3,1.2-3.2
				C2610.7,603.2,2613.7,604.8,2613.8,605.2z"/>
			<path class="st22" d="M2612.2,609.5c0.5,0.9-2,5.2-2.9,5.6c-1,0.3-4-1-4.1-1.8c-0.1-0.9,1.4-5.7,2.2-5.8
				C2608,607.2,2612.2,609.5,2612.2,609.5z"/>
			<path class="st22" d="M2609.2,616.7c0.3,0.8-2.1,4.7-2.7,5c-0.6,0.2-4.6-1.1-4.7-1.8c-0.1-0.7,1.4-4.8,2.3-5.2
				C2605,614.2,2608.9,616,2609.2,616.7z"/>
			<path class="st22" d="M2606.8,623.5c0.3,0.5-1.8,5.2-2.7,5.5c-1,0.3-5.3-0.6-5.5-1.5c-0.3-0.9,0.6-6.3,1.4-6.6
				C2600.7,620.7,2606.3,622.6,2606.8,623.5z"/>
			<path class="st22" d="M2605,631c0.9,0.9-2,5.8-2.8,6.2c-0.8,0.3-6.1,0.3-6.4-0.8c-0.3-1.2,0.4-7.4,1.7-8
				C2598.7,627.8,2604.2,630.2,2605,631z"/>
			<path class="st22" d="M2602.8,638.7c0.7,0.5-2.1,7.9-2.8,8.1c-0.7,0.3-6.9-0.8-7.1-1.5c-0.1-0.7-0.5-7.4,0.5-8.1
				C2594.6,636.6,2601.8,638,2602.8,638.7z"/>
			<path class="st22" d="M2601,648.2c0.7,0.6-2,7.8-2.9,8.2c-0.9,0.4-7.5-0.4-7.8-1.2c-0.3-0.8-0.7-8.4,0.4-8.8
				C2591.8,645.9,2600.3,647.5,2601,648.2z"/>
		</g>
		<path class="st23" d="M2617.1,595.6c0,0,13.1-23.5,28.5-7.7l-4.4,0.3l1.4,1.2l-4.2-0.2l1,0.8l-3.5-0.4l0.8,1.2l-4.1-0.5l1.1,1.6
			l-4.4-0.7l0.8,1.2c0,0-2.1-0.7-3.6,0.7c0,0-8.6,6.6-10,4c0,0-6.8-11.5-7.7-14l0.6-1l-3.2-1.4l0.9-0.6l-2.6-1.8l1.7,0l-3.6-2.4
			l2,0.1l-3.7-2.8C2601,573.2,2623,571.9,2617.1,595.6z"/>
		<path class="st24" d="M2616.5,595.9c0,0-1.1-28.3-25.4-10.7c0,0,4.2,0.9,4.7,0.6l-1.6,1.6l4-0.4l-1.2,0.9l4,0.4l-1.4,0.9l3.9-0.1
			l-1.2,1.2l5-0.7l-1.1,1.3c0,0,5.1-0.7,5.6,1.2c0,0-21.3,2.7-19.9,14.2l3.8-2.5l-0.8,2.4l3.5-3.1l-0.6,1.4l3.3-2.2l-1,1.8l3.3-3.1
			l-0.3,1.8l3.2-3.2l0,2c0,0,3.4-3.4,4.4-3.5l-0.1,1.1c0,0,3.8-3.7,5.3-2.2c0,0,1.7,3,0.5,5.4l1.3-0.2l-1.1,4l1.4-0.5l-1,3.8
			l1.1-0.7l-0.5,2.7l1.3-0.1l-0.8,3.6l1.6-1.1l-0.7,4.3c0,0,10.1-5.2,4.3-19.7l1.2,1.1l0.9-1.5l3.2,4.7l0.4-1.4c0,0,1.9,3.5,1.9,3.5
			c0,0,0.5-0.9,0.5-0.9l2.1,2.9l0.8-0.9c0,0,1.2,2.5,1.6,2.6l0.4-1.4l1.8,3.3l0.4-2.1l2.5,3.7
			C2641.2,611.8,2643.6,585.1,2616.5,595.9z"/>
		<g>
			<g>
				<path class="st25" d="M2621,595.7c1.1,1.4,0.8,3.3-0.6,4.4c-1.4,1-3.4,0.8-4.4-0.6c-1.1-1.4-0.8-3.3,0.6-4.3
					C2617.9,594.1,2619.9,594.4,2621,595.7z"/>
				<path class="st26" d="M2618,599.5c0.1,0.1,0.1,0.3-0.1,0.4c-0.1,0.1-0.3,0.1-0.4-0.1c-0.1-0.1-0.1-0.3,0.1-0.4
					C2617.7,599.4,2617.9,599.4,2618,599.5z"/>
				<path class="st26" d="M2618.6,598c0.1,0.2,0.1,0.4-0.1,0.5c-0.2,0.1-0.4,0.1-0.5-0.1c-0.1-0.2-0.1-0.4,0.1-0.5
					C2618.2,597.8,2618.5,597.9,2618.6,598z"/>
				<path class="st26" d="M2620,598.9c0.1,0.2,0.1,0.4-0.1,0.6c-0.2,0.1-0.5,0.1-0.6-0.1c-0.1-0.2-0.1-0.4,0.1-0.6
					C2619.6,598.7,2619.9,598.7,2620,598.9z"/>
			</g>
			<g>
				<path class="st27" d="M2617,599.2c-1.2,1.5-3.4,1.7-4.9,0.5c-1.5-1.2-1.8-3.4-0.6-4.9c1.2-1.5,3.4-1.7,4.9-0.5
					C2617.9,595.6,2618.2,597.7,2617,599.2z"/>
				<path class="st26" d="M2616.1,597.6c-0.1,0.1-0.3,0.2-0.5,0.1c-0.1-0.1-0.2-0.3,0-0.5c0.1-0.1,0.3-0.2,0.5-0.1
					C2616.2,597.2,2616.2,597.4,2616.1,597.6z"/>
				<path class="st26" d="M2616.4,599.3c-0.2,0.2-0.4,0.2-0.6,0.1c-0.2-0.2-0.2-0.4-0.1-0.6c0.2-0.2,0.4-0.2,0.6-0.1
					C2616.5,598.9,2616.5,599.2,2616.4,599.3z"/>
				<path class="st26" d="M2614.9,599.4c-0.1,0.2-0.4,0.2-0.5,0.1c-0.2-0.1-0.2-0.3-0.1-0.5c0.1-0.2,0.4-0.2,0.5-0.1
					C2615,599,2615,599.2,2614.9,599.4z"/>
			</g>
		</g>
	</g>
	<g>
		<path class="st28" d="M2559.6,574.1c0,0,2.2,5.8,2.6,5.9c0.4,0.1,2.9-1,2.9-1.5c0-0.5-2.7-5.1-3.4-5.2
			C2560.9,573.2,2559.7,573.7,2559.6,574.1z"/>
		<path class="st28" d="M2562.5,581.4c-0.2,0.6,1.2,3.2,1.6,3.2c0.5,0,3.3-1.1,3.3-1.7c0-0.6-0.6-3-1.2-3.2
			C2565.6,579.4,2562.6,580.9,2562.5,581.4z"/>
		<path class="st28" d="M2564.1,585.6c-0.5,0.9,2,5.2,2.9,5.6c1,0.3,4-1,4.1-1.8c0.1-0.9-1.4-5.7-2.2-5.8
			C2568.2,583.3,2564.1,585.6,2564.1,585.6z"/>
		<path class="st28" d="M2567.1,592.8c-0.3,0.8,2.1,4.7,2.7,5c0.6,0.2,4.6-1.1,4.7-1.8c0.1-0.7-1.4-4.8-2.3-5.2
			C2571.3,590.4,2567.3,592.2,2567.1,592.8z"/>
		<path class="st28" d="M2569.5,599.7c-0.3,0.5,1.8,5.2,2.7,5.5c1,0.3,5.3-0.6,5.5-1.5c0.3-0.9-0.6-6.3-1.4-6.6
			C2575.6,596.8,2570,598.8,2569.5,599.7z"/>
		<path class="st28" d="M2571.3,607.1c-0.9,0.9,2,5.8,2.8,6.2c0.8,0.3,6.1,0.3,6.4-0.8c0.3-1.2-0.4-7.4-1.7-8
			C2577.6,603.9,2572.1,606.4,2571.3,607.1z"/>
		<path class="st28" d="M2573.5,614.8c-0.7,0.5,2.1,7.9,2.8,8.1c0.7,0.3,6.9-0.8,7.1-1.5c0.1-0.7,0.5-7.4-0.6-8.1
			C2581.7,612.7,2574.5,614.2,2573.5,614.8z"/>
		<path class="st28" d="M2575.3,624.3c-0.6,0.6,2,7.8,2.9,8.2c0.9,0.4,7.5-0.3,7.8-1.2c0.3-0.8,0.7-8.4-0.4-8.8
			C2584.4,622.1,2576,623.6,2575.3,624.3z"/>
		<path class="st28" d="M2577.3,633.7c-0.4,0.5,1.7,8.1,2.6,8.3c0.9,0.2,8.1-0.2,8.4-0.9c0.3-0.7,0.4-8.2-0.3-8.8
			C2587.3,631.7,2578.2,632.7,2577.3,633.7z"/>
		<path class="st28" d="M2578.9,643.3c-1,0.8,0.9,8.3,1.7,8.8c0.8,0.4,9.6,0.3,10.1-0.6c0.5-0.9,0.5-8.7-0.4-9.3
			C2589.4,641.5,2579.8,642.6,2578.9,643.3z"/>
		<path class="st28" d="M2580.1,653.5c-0.9,0.6,0.4,7.2,1.3,7.8c0.9,0.7,10.8,0.6,11.4-0.3c0.6-0.9-0.1-7.7-1.3-8.2
			C2590.3,652.3,2582,652.2,2580.1,653.5z"/>
		<g>
			<path class="st24" d="M2560.7,572.6c0,0-16.3-31.6,12.6-36.4l-2.9,5l2.4-0.7l-3.3,4.4l1.7-0.5l-3,3.5h2l-3.6,4h2.6l-4,4.2h1.9
				c0,0-2.3,1.7-2,4.4c0,0,1,14.2-3,13.7c0,0-17.9-1.2-21.3-2.2l-0.7-1.4l-4,2.4v-1.4l-3.9,1.4l1.2-1.8l-5.4,2l1.6-2l-5.9,1.9
				C2523.9,573.3,2538.7,548.6,2560.7,572.6z"/>
			<path class="st29" d="M2560.5,573.5c0,0-32.2-19.9-30.7,19.4c0,0,4.1-3.9,4.1-4.6l0.6,2.9l2.5-4.6l0.1,1.9l3.4-4l-0.1,2.2
				l2.7-4.3l0.5,2.1l2.9-6l0.6,2.2c0,0,3-6.1,5.5-5.1c0,0-12.9,24.9,0.9,32v-5.9l2.1,2.7l-0.8-6.1l1.2,1.7v-5.3l1.3,2.4l-0.9-5.9
				l1.7,1.6l-1.2-5.8l2.2,1.5c0,0-1.2-6.2-0.7-7.4l1.2,0.9c0,0-1.2-6.9,1.6-7.3c0,0,4.6,0.4,6.4,3.4l0.8-1.5l3.6,4.1l0.5-1.9
				l3.4,3.8V581l2.6,2.5l0.8-1.5l3.4,3.5V583l4.3,4c0,0,1.7-14.7-18.6-19.3l2.2-0.5l-1-2h7.6l-1.2-1.5c0,0,5.4,0.5,5.3,0.6
				c-0.1,0-0.7-1.2-0.7-1.2l4.8-0.1l-0.4-1.5c0,0,3.7,0.5,4.2,0.2l-1.3-1.5l5,0.6l-2.1-2h5.9
				C2596.5,558.7,2568.7,536.2,2560.5,573.5z"/>
			<g>
				<g>
					<path class="st25" d="M2559.3,573.4c0.6,1.8-0.5,3.7-2.3,4.2c-1.8,0.5-3.7-0.5-4.3-2.2c-0.6-1.8,0.5-3.7,2.3-4.2
						C2556.8,570.6,2558.7,571.7,2559.3,573.4z"/>
					<path class="st26" d="M2554.8,576.2c0.1,0.2,0,0.4-0.2,0.4c-0.2,0.1-0.4,0-0.4-0.2c-0.1-0.2,0-0.4,0.2-0.4
						C2554.5,575.9,2554.7,576,2554.8,576.2z"/>
					<path class="st26" d="M2555.9,574.9c0.1,0.2-0.1,0.4-0.3,0.5s-0.4-0.1-0.5-0.3c-0.1-0.2,0.1-0.4,0.3-0.5
						C2555.7,574.5,2555.9,574.7,2555.9,574.9z"/>
					
						<ellipse transform="matrix(0.9569 -0.2905 0.2905 0.9569 -57.1968 767.5958)" class="st26" cx="2556.7" cy="576.4" rx="0.5" ry="0.5"/>
				</g>
				<g>
					<path class="st25" d="M2564.9,568.3c1.9-0.1,3.5,1.3,3.7,3.2c0.1,1.9-1.3,3.5-3.2,3.6c-1.9,0.1-3.5-1.3-3.6-3.2
						C2561.6,570,2563,568.4,2564.9,568.3z"/>
					<path class="st26" d="M2566.6,573.2c0.2,0,0.3,0.1,0.4,0.3c0,0.2-0.1,0.3-0.3,0.3c-0.2,0-0.3-0.1-0.3-0.3
						C2566.2,573.4,2566.4,573.3,2566.6,573.2z"/>
					<path class="st26" d="M2565.5,571.8c0.2,0,0.4,0.2,0.4,0.4c0,0.2-0.2,0.4-0.4,0.4c-0.2,0-0.4-0.2-0.4-0.4
						C2565.1,572,2565.3,571.8,2565.5,571.8z"/>
					<path class="st26" d="M2567.2,571c0.3,0,0.5,0.2,0.5,0.4c0,0.3-0.2,0.5-0.4,0.5c-0.3,0-0.5-0.2-0.5-0.4
						C2566.8,571.3,2567,571.1,2567.2,571z"/>
				</g>
				<g>
					<path class="st27" d="M2565.7,574c0.6,2-0.5,4.1-2.6,4.7c-2,0.6-4.2-0.5-4.8-2.5c-0.6-2,0.5-4.1,2.6-4.8
						C2562.9,570.9,2565,572,2565.7,574z"/>
					<path class="st26" d="M2563.6,573.8c0.1,0.2-0.1,0.4-0.2,0.4c-0.2,0.1-0.4,0-0.4-0.2c-0.1-0.2,0-0.4,0.2-0.4
						C2563.3,573.5,2563.5,573.6,2563.6,573.8z"/>
					<path class="st26" d="M2565.4,574.6c0.1,0.2-0.1,0.5-0.3,0.6c-0.3,0.1-0.5-0.1-0.6-0.3c-0.1-0.2,0.1-0.5,0.3-0.6
						C2565.1,574.2,2565.3,574.3,2565.4,574.6z"/>
					<path class="st26" d="M2564.5,576c0.1,0.2-0.1,0.4-0.3,0.5c-0.2,0.1-0.4-0.1-0.5-0.3c-0.1-0.2,0-0.4,0.3-0.5
						C2564.2,575.6,2564.4,575.7,2564.5,576z"/>
				</g>
			</g>
		</g>
	</g>
</g>
<g>
	<path class="st21" d="M2776.4,753.2c0,0,107.4-8.5,162-24.1c74-21.1,113.3-38,193.1-38c90.4,0,217.8,57.9,355.2,62.1
		C3121.6,753.2,2776.4,753.2,2776.4,753.2z"/>
</g>
<g>
	<g>
		<path class="st22" d="M2931.6,604.7c0,0-4.1,10.7-4.8,10.9c-0.7,0.2-5.3-1.9-5.3-2.8c0-0.9,5-9.5,6.4-9.6
			C2929.3,603,2931.5,603.9,2931.6,604.7z"/>
		<path class="st22" d="M2926.3,618.1c0.3,1.1-2.1,5.9-3,5.9c-0.9,0-6.1-2.1-6.1-3.2c-0.1-1.1,1.1-5.6,2.3-6
			C2920.6,614.4,2926,617.3,2926.3,618.1z"/>
		<path class="st22" d="M2923.3,626c0.9,1.7-3.6,9.7-5.4,10.3c-1.8,0.6-7.5-1.8-7.7-3.4c-0.2-1.6,2.7-10.5,4.1-10.8
			C2915.6,621.8,2923.3,626,2923.3,626z"/>
		<path class="st22" d="M2917.7,639.5c0.6,1.5-3.9,8.8-5,9.2c-1.1,0.4-8.5-2.1-8.7-3.4c-0.2-1.3,2.6-9,4.2-9.7
			C2909.9,634.9,2917.3,638.2,2917.7,639.5z"/>
		<path class="st22" d="M2913.2,652.1c0.5,1-3.3,9.6-5.1,10.3c-1.8,0.6-9.8-1.2-10.3-2.8c-0.5-1.6,1.2-11.7,2.6-12.2
			C2901.9,646.9,2912.4,650.5,2913.2,652.1z"/>
		<path class="st22" d="M2909.9,665.9c1.8,1.7-3.7,10.9-5.2,11.4c-1.5,0.6-11.4,0.6-12-1.5c-0.6-2.2,0.7-13.8,3.1-14.8
			C2898.2,660.1,2908.5,664.6,2909.9,665.9z"/>
		<path class="st22" d="M2905.8,680.3c1.2,0.8-3.8,14.7-5.1,15.2c-1.3,0.5-12.9-1.5-13.1-2.8c-0.2-1.3-1-13.7,1-15
			C2890.6,676.5,2904,679.1,2905.8,680.3z"/>
		<path class="st22" d="M2902.5,697.9c1.2,1.2-3.6,14.5-5.3,15.2c-1.7,0.7-13.9-0.6-14.5-2.2c-0.6-1.5-1.2-15.6,0.8-16.4
			C2885.5,693.8,2901.2,696.7,2902.5,697.9z"/>
	</g>
	<path class="st23" d="M2932.4,600.3c0,0,24.3-43.7,52.9-14.3l-8.2,0.6l2.7,2.2l-7.8-0.3l1.9,1.5l-6.5-0.7l1.6,2.3l-7.6-1l2.1,3
		l-8.1-1.2l1.5,2.2c0,0-3.9-1.3-6.8,1.2c0,0-16,12.3-18.6,7.4c0,0-12.7-21.4-14.3-26.1l1.1-1.8l-6-2.6l1.7-1.1l-4.7-3.3l3.1,0
		l-6.7-4.5l3.7,0.3l-6.8-5.3C2902.5,558.7,2943.4,556.2,2932.4,600.3z"/>
	<path class="st24" d="M2931.2,600.7c0,0-2-52.6-47.2-19.8c0,0,7.9,1.6,8.7,1.1l-2.9,2.9l7.4-0.8l-2.2,1.6l7.4,0.7l-2.6,1.6l7.2-0.3
		l-2.1,2.2l9.3-1.4l-2.1,2.4c0,0,9.6-1.3,10.4,2.3c0,0-39.5,4.9-37,26.3l7-4.7l-1.5,4.5l6.6-5.8l-1.1,2.7l6.2-4.2l-1.8,3.3l6.2-5.7
		l-0.5,3.3l5.9-5.9l0,3.7c0,0,6.3-6.3,8.2-6.6l-0.1,2c0,0,7.1-6.8,9.8-4c0,0,3.2,5.5,1,10.1l2.4-0.3l-2,7.4l2.6-1l-1.8,7l2-1.4
		l-1,4.9l2.3-0.3l-1.4,6.7l3-2l-1.4,8.1c0,0,18.8-9.7,8.1-36.6l2.3,2.1l1.6-2.8l6,8.7l0.8-2.6c0,0,3.6,6.6,3.5,6.5
		c-0.1-0.1,0.9-1.7,0.9-1.7l4,5.4l1.4-1.6c0,0,2.3,4.7,3.1,4.9l0.8-2.6l3.3,6.2l0.7-3.9l4.7,6.8
		C2977.2,630.3,2981.7,580.6,2931.2,600.7z"/>
	<g>
		<g>
			<path class="st25" d="M2939.6,600.5c2,2.5,1.5,6.1-1.1,8.1c-2.6,1.9-6.2,1.5-8.2-1c-2-2.5-1.5-6.1,1.1-8.1
				C2934,597.5,2937.6,598,2939.6,600.5z"/>
			<path class="st26" d="M2934.1,607.5c0.2,0.2,0.1,0.6-0.1,0.8c-0.2,0.2-0.6,0.1-0.8-0.1c-0.2-0.2-0.1-0.6,0.1-0.8
				C2933.6,607.2,2933.9,607.3,2934.1,607.5z"/>
			<path class="st26" d="M2935.2,604.7c0.2,0.3,0.2,0.7-0.1,1c-0.3,0.2-0.7,0.2-1-0.1c-0.2-0.3-0.2-0.7,0.1-1
				C2934.5,604.4,2935,604.4,2935.2,604.7z"/>
			<path class="st26" d="M2937.9,606.3c0.3,0.3,0.2,0.8-0.1,1.1c-0.3,0.3-0.8,0.2-1.1-0.1c-0.3-0.3-0.2-0.8,0.1-1.1
				C2937.1,605.9,2937.6,606,2937.9,606.3z"/>
		</g>
		<g>
			<path class="st27" d="M2932.2,607c-2.3,2.8-6.4,3.2-9.2,1c-2.8-2.2-3.3-6.3-1-9.1c2.3-2.8,6.4-3.2,9.2-1
				C2934,600.2,2934.4,604.2,2932.2,607z"/>
			<path class="st26" d="M2930.5,603.9c-0.2,0.3-0.6,0.3-0.9,0.1c-0.3-0.2-0.3-0.6-0.1-0.8c0.2-0.3,0.6-0.3,0.9-0.1
				C2930.7,603.2,2930.7,603.6,2930.5,603.9z"/>
			<path class="st26" d="M2931.1,607.2c-0.3,0.3-0.8,0.4-1.1,0.1c-0.3-0.3-0.4-0.8-0.1-1.1c0.3-0.4,0.8-0.4,1.1-0.1
				C2931.3,606.3,2931.4,606.8,2931.1,607.2z"/>
			<path class="st26" d="M2928.3,607.3c-0.2,0.3-0.7,0.3-0.9,0.1c-0.3-0.2-0.3-0.6-0.1-0.9c0.2-0.3,0.6-0.3,0.9-0.1
				C2928.5,606.6,2928.6,607,2928.3,607.3z"/>
		</g>
	</g>
</g>
<g>
	<path class="st28" d="M2825.6,560.3c0,0,4.1,10.7,4.8,10.9c0.7,0.2,5.3-1.9,5.3-2.8c0-0.9-4.9-9.5-6.4-9.6
		C2828,558.7,2825.7,559.5,2825.6,560.3z"/>
	<path class="st28" d="M2830.9,573.8c-0.3,1.1,2.1,5.9,3,5.9c0.9,0,6.1-2.1,6.1-3.2c0.1-1.1-1.1-5.6-2.3-6
		C2836.7,570.1,2831.2,572.9,2830.9,573.8z"/>
	<path class="st28" d="M2833.9,581.6c-0.9,1.7,3.6,9.7,5.4,10.3c1.8,0.6,7.5-1.8,7.7-3.4c0.2-1.6-2.7-10.5-4.1-10.8
		C2841.6,577.5,2833.9,581.6,2833.9,581.6z"/>
	<path class="st28" d="M2839.5,595.1c-0.6,1.5,3.9,8.8,5,9.2c1.1,0.4,8.5-2.1,8.7-3.4c0.2-1.3-2.6-9-4.2-9.7
		C2847.3,590.5,2839.9,593.8,2839.5,595.1z"/>
	<path class="st28" d="M2844,607.8c-0.5,1,3.3,9.6,5.1,10.3c1.8,0.6,9.8-1.2,10.3-2.8c0.5-1.6-1.2-11.7-2.6-12.2
		C2855.3,602.5,2844.8,606.1,2844,607.8z"/>
	<path class="st28" d="M2847.3,621.6c-1.8,1.7,3.7,10.9,5.2,11.4c1.5,0.6,11.4,0.7,12-1.5c0.6-2.2-0.7-13.8-3.1-14.8
		C2859,615.7,2848.7,620.2,2847.3,621.6z"/>
	<path class="st28" d="M2851.4,636c-1.2,0.8,3.8,14.7,5.1,15.2c1.3,0.5,12.9-1.5,13.1-2.8c0.2-1.3,0.9-13.7-1-15
		C2866.6,632.1,2853.2,634.7,2851.4,636z"/>
	<path class="st28" d="M2854.7,653.6c-1.2,1.2,3.6,14.5,5.3,15.2c1.7,0.7,13.9-0.6,14.5-2.2c0.6-1.5,1.3-15.6-0.8-16.4
		C2871.7,649.4,2856,652.3,2854.7,653.6z"/>
	<path class="st28" d="M2858.4,671.1c-0.8,0.9,3.2,15,4.9,15.4c1.7,0.4,15.1-0.3,15.6-1.6c0.5-1.3,0.7-15.2-0.5-16.4
		C2877.1,667.3,2860.1,669.3,2858.4,671.1z"/>
	<path class="st28" d="M2861.4,688.9c-1.8,1.4,1.7,15.5,3.1,16.3c1.4,0.8,17.9,0.5,18.8-1.1c0.9-1.6,1-16.2-0.7-17.3
		C2881,685.6,2863.1,687.6,2861.4,688.9z"/>
	<path class="st28" d="M2863.7,707.8c-1.6,1,0.7,13.3,2.3,14.6c1.6,1.2,20.1,1.1,21.2-0.6c1.1-1.7-0.2-14.3-2.4-15.3
		C2882.7,705.5,2867.2,705.5,2863.7,707.8z"/>
	<g>
		<path class="st24" d="M2827.6,557.5c0,0-30.4-58.7,23.5-67.6l-5.4,9.2l4.5-1.2l-6.1,8.2l3.1-0.9l-5.6,6.5h3.7l-6.8,7.4h4.9
			l-7.4,7.9h3.5c0,0-4.3,3.2-3.7,8.2c0,0,1.8,26.4-5.6,25.5c0,0-33.2-2.2-39.6-4l-1.2-2.5l-7.4,4.5V556l-7.2,2.6l2.3-3.3l-10,3.8
			l3.1-3.8l-10.9,3.4C2759.2,558.8,2786.8,512.9,2827.6,557.5z"/>
		<path class="st29" d="M2827.2,559.1c0,0-59.8-36.9-57.1,36.1c0,0,7.7-7.3,7.7-8.5l1.1,5.4l4.7-8.6l0.2,3.5l6.3-7.4l-0.2,4l5.1-8
			l0.9,4l5.4-11.1l1.1,4.1c0,0,5.7-11.3,10.3-9.5c0,0-23.9,46.2,1.7,59.4v-11l3.9,5l-1.5-11.4l2.2,3.2v-9.8l2.4,4.4l-1.7-11l3.2,3
			l-2.2-10.8l4.2,2.8c0,0-2.3-11.5-1.2-13.7l2.2,1.7c0,0-2.3-12.8,2.9-13.6c0,0,8.5,0.7,11.9,6.4l1.4-2.8l6.7,7.6l0.9-3.5l6.4,7.1
			V573l4.8,4.7l1.5-2.7l6.3,6.5v-4.8l7.9,7.5c0,0,3.2-27.4-34.6-35.9l4-0.9l-1.9-3.8h14.1l-2.3-2.8c0,0,10,1,9.9,1
			c-0.1,0-1.3-2.2-1.3-2.2l8.9-0.2l-0.7-2.7c0,0,6.9,1,7.7,0.4l-2.3-2.8l9.3,1.1l-3.9-3.7h11
			C2894.2,531.6,2842.4,489.9,2827.2,559.1z"/>
		<g>
			<g>
				<path class="st25" d="M2825,559.1c1,3.3-0.9,6.9-4.2,7.9c-3.4,1-7-0.8-8-4.2c-1-3.3,0.9-6.9,4.2-7.9
					C2820.3,553.9,2823.9,555.7,2825,559.1z"/>
				<path class="st26" d="M2816.6,564.2c0.1,0.3-0.1,0.7-0.4,0.8c-0.3,0.1-0.7-0.1-0.8-0.4c-0.1-0.3,0.1-0.7,0.4-0.8
					C2816.2,563.7,2816.5,563.8,2816.6,564.2z"/>
				<path class="st26" d="M2818.8,561.7c0.1,0.4-0.1,0.8-0.5,0.9c-0.4,0.1-0.8-0.1-0.9-0.5c-0.1-0.4,0.1-0.8,0.5-0.9
					C2818.2,561.1,2818.7,561.3,2818.8,561.7z"/>
				<path class="st26" d="M2820.9,564.4c0.1,0.5-0.1,0.9-0.6,1.1c-0.5,0.1-0.9-0.1-1.1-0.6c-0.1-0.4,0.1-0.9,0.6-1.1
					C2820.3,563.7,2820.8,563.9,2820.9,564.4z"/>
			</g>
			<g>
				<path class="st25" d="M2835.4,549.5c3.5-0.2,6.6,2.4,6.8,5.9c0.2,3.5-2.5,6.5-6,6.7c-3.5,0.2-6.6-2.5-6.8-5.9
					C2829.2,552.7,2831.9,549.7,2835.4,549.5z"/>
				<path class="st26" d="M2838.5,558.7c0.3,0,0.6,0.2,0.7,0.6c0,0.3-0.2,0.6-0.6,0.6c-0.3,0-0.6-0.2-0.6-0.6
					C2837.9,559,2838.2,558.7,2838.5,558.7z"/>
				<path class="st26" d="M2836.6,556c0.4,0,0.8,0.3,0.8,0.7c0,0.4-0.3,0.8-0.7,0.8c-0.4,0-0.8-0.3-0.8-0.7
					C2835.9,556.4,2836.2,556.1,2836.6,556z"/>
				<path class="st26" d="M2839.7,554.6c0.5,0,0.9,0.3,0.9,0.8c0,0.5-0.3,0.9-0.8,0.9c-0.5,0-0.9-0.3-0.9-0.8
					C2838.9,555,2839.3,554.6,2839.7,554.6z"/>
			</g>
			<g>
				<path class="st27" d="M2836.8,560.1c1.2,3.7-1,7.7-4.7,8.8c-3.8,1.1-7.8-0.9-9-4.7c-1.2-3.7,1-7.7,4.7-8.8
					C2831.7,554.3,2835.7,556.4,2836.8,560.1z"/>
				<path class="st26" d="M2832.9,559.7c0.1,0.3-0.1,0.7-0.4,0.8c-0.3,0.1-0.7-0.1-0.8-0.4c-0.1-0.3,0.1-0.7,0.4-0.8
					C2832.5,559.1,2832.8,559.3,2832.9,559.7z"/>
				<path class="st26" d="M2836.4,561.2c0.1,0.5-0.1,1-0.6,1.1c-0.5,0.1-1-0.1-1.1-0.6c-0.1-0.5,0.1-1,0.6-1.1
					C2835.7,560.4,2836.2,560.7,2836.4,561.2z"/>
				<path class="st26" d="M2834.7,563.7c0.1,0.4-0.1,0.8-0.5,0.9c-0.4,0.1-0.8-0.1-0.9-0.5c-0.1-0.4,0.1-0.8,0.5-0.9
					C2834.2,563.1,2834.6,563.3,2834.7,563.7z"/>
			</g>
		</g>
	</g>
</g>
<g>
	<path class="st28" d="M3109.2,510.1c0,0-1.9,13.5-2.6,13.9c-0.8,0.5-6.6-0.8-6.9-1.9c-0.3-1.1,3.2-12.3,4.8-12.8
		C3106.1,508.8,3108.8,509.2,3109.2,510.1z"/>
	<path class="st28" d="M3106.7,527.1c0.6,1.1-0.9,7.4-1.9,7.6c-1,0.2-7.6-0.8-8-2.1c-0.4-1.2-0.3-6.7,1-7.5
		C3099.1,524.3,3106.2,526.2,3106.7,527.1z"/>
	<path class="st28" d="M3105.4,537c1.5,1.7-1.6,12.2-3.5,13.4c-1.9,1.1-9.2-0.1-9.8-1.9c-0.6-1.8,0.3-12.9,1.8-13.6
		C3095.3,534.2,3105.4,537,3105.4,537z"/>
	<path class="st28" d="M3102.6,554c1.1,1.6-2.1,11.2-3.3,12c-1.2,0.8-10.4-0.2-11-1.7c-0.6-1.4,0.6-11.1,2.3-12.3
		C3092.2,550.8,3101.7,552.7,3102.6,554z"/>
	<path class="st28" d="M3100.7,569.9c0.9,1-1.2,12-3.1,13.2c-1.9,1.2-11.6,1.2-12.7-0.5c-1-1.7-1.8-13.8-0.3-14.8
		C3086.2,566.8,3099.3,568.2,3100.7,569.9z"/>
	<path class="st28" d="M3100.6,586.7c2.5,1.5-1.4,13.5-2.9,14.6c-1.6,1.1-13,3.7-14.3,1.4c-1.3-2.4-2.9-16.2-0.4-17.9
		C3085.5,583,3098.6,585.5,3100.6,586.7z"/>
	<path class="st28" d="M3099.8,604.5c1.7,0.7-0.5,18-1.8,18.9c-1.4,0.9-15.3,1.7-15.9,0.2c-0.6-1.4-4.8-15.6-2.9-17.6
		C3081.1,604,3097.4,603.5,3099.8,604.5z"/>
	<path class="st28" d="M3100.7,625.7c1.7,1.1-0.3,17.7-2,19c-1.7,1.3-16.3,2.9-17.4,1.3c-1.1-1.6-5.7-17.7-3.5-19.2
		C3079.9,625.4,3098.8,624.6,3100.7,625.7z"/>
	<path class="st28" d="M3101.1,647.1c1.2,0.8,0.4,18.2-1.5,19.2c-1.9,0.9-17.5,3.6-18.5,2.2c-0.9-1.4-4.9-17.4-3.8-19.2
		C3078.4,647.5,3098.6,645.3,3101.1,647.1z"/>
	<path class="st28" d="M3102.5,668.4c2.5,1.2,2.3,18.4,0.8,19.6c-1.5,1.3-20.6,5.2-22.1,3.6c-1.5-1.6-5.5-18.5-3.9-20.2
		C3078.9,669.7,3100.2,667.3,3102.5,668.4z"/>
	<path class="st28" d="M3105,690.9c2.2,0.8,2.8,15.6,1.2,17.5c-1.5,1.9-23,6.6-24.7,4.9c-1.7-1.7-3.6-16.7-1.4-18.3
		C3082.3,693.3,3100.2,689.1,3105,690.9z"/>
	<g>
		<path class="st24" d="M3106.2,507.4c0,0,19.3-75.9-45.4-72.1l8.7,9.3l-5.5-0.2l9.3,7.9l-3.8-0.2l8.2,6.1l-4.3,1l9.8,6.8l-5.7,1.3
			l10.7,7.2l-4,0.9c0,0,5.9,2.6,6.5,8.5c0,0,5,31,13.4,28.1c0,0,37.9-11.3,44.7-15l0.8-3.3l9.8,3.3l-0.7-3l9.1,1.1l-3.6-3.2
			l12.6,1.8l-4.6-3.6l13.6,1.1C3185.7,490.9,3141.4,445.1,3106.2,507.4z"/>
		<path class="st29" d="M3107.1,509.2c0,0,59.3-58.5,75.8,26.8c0,0-10.9-6.4-11.2-7.9l0.2,6.5l-7.7-8.7l0.7,4.2l-9.3-6.9l1.3,4.6
			l-8-7.9l0.1,4.8l-9.3-11.4l-0.2,5c0,0-9.6-11.5-14.5-8.3c0,0,40.2,47.3,14,69.2l-3-12.8l-3.2,6.8l-1.3-13.6l-1.6,4.3l-2.6-11.3
			l-1.5,5.7l-0.9-13.2l-2.9,4.3l-0.4-13.1l-4.1,4.3c0,0-0.4-14-2.3-16.2l-2.1,2.5c0,0-0.8-15.4-7-15c0,0-9.7,3.1-12.1,10.5l-2.4-2.9
			l-5.7,10.6l-2-3.9l-5.5,9.9l-0.9-3.7l-4.2,6.7l-2.4-2.7l-5.6,9.2l-1.3-5.6l-7.2,10.8c0,0-11.2-30.9,30.4-50.7l-4.9,0l1.1-4.9
			l-16.3,3.7l1.9-3.8c0,0-11.3,3.8-11.2,3.8c0.2,0,0.9-2.9,0.9-2.9l-10.4,2.1l0.1-3.4c0,0-7.7,3-8.8,2.4l2-3.9l-10.5,3.7l3.5-5.3
			l-12.8,2.9C3022.1,494.9,3070.8,433,3107.1,509.2z"/>
		<g>
			<g>
				<path class="st25" d="M3109.6,508.5c-0.3,4.1,2.9,7.7,7.1,8c4.2,0.3,7.8-2.8,8.1-6.9c0.3-4.1-2.9-7.7-7.1-8
					C3113.6,501.3,3109.9,504.4,3109.6,508.5z"/>
				<path class="st26" d="M3120.7,512.2c0,0.4,0.3,0.7,0.7,0.8c0.4,0,0.8-0.3,0.8-0.7c0-0.4-0.3-0.7-0.7-0.8
					C3121.1,511.5,3120.7,511.8,3120.7,512.2z"/>
				<path class="st26" d="M3117.5,510c0,0.5,0.3,0.9,0.8,1c0.5,0,0.9-0.3,1-0.8c0-0.5-0.3-0.9-0.8-0.9
					C3118,509.1,3117.5,509.5,3117.5,510z"/>
				<path class="st26" d="M3115.7,513.6c0,0.6,0.4,1,0.9,1.1c0.6,0,1-0.4,1.1-0.9c0-0.5-0.4-1-0.9-1.1
					C3116.3,512.6,3115.8,513,3115.7,513.6z"/>
			</g>
			<g>
				<path class="st25" d="M3094.9,500.1c-4.1,0.7-6.9,4.6-6.2,8.6c0.7,4.1,4.6,6.8,8.8,6.2c4.2-0.7,6.9-4.6,6.3-8.6
					C3103,502.2,3099,499.5,3094.9,500.1z"/>
				<path class="st26" d="M3093.9,511.6c-0.4,0.1-0.7,0.4-0.6,0.8c0.1,0.4,0.4,0.7,0.8,0.6c0.4-0.1,0.7-0.4,0.6-0.8
					C3094.6,511.8,3094.2,511.6,3093.9,511.6z"/>
				<path class="st26" d="M3095.3,508c-0.5,0.1-0.8,0.5-0.7,1c0.1,0.5,0.5,0.8,1,0.7c0.5-0.1,0.8-0.5,0.7-1
					C3096.3,508.3,3095.8,508,3095.3,508z"/>
				<path class="st26" d="M3091.3,507.2c-0.6,0.1-0.9,0.6-0.8,1.2c0.1,0.5,0.6,0.9,1.2,0.8c0.6-0.1,0.9-0.6,0.8-1.2
					C3092.4,507.5,3091.9,507.1,3091.3,507.2z"/>
			</g>
			<g>
				<path class="st27" d="M3096.2,512.8c-0.3,4.6,3.2,8.6,7.9,9c4.7,0.3,8.8-3.1,9.1-7.8c0.3-4.6-3.2-8.6-7.9-9
					C3100.6,504.7,3096.5,508.2,3096.2,512.8z"/>
				<path class="st26" d="M3100.6,511.3c0,0.4,0.3,0.8,0.7,0.8c0.4,0,0.8-0.3,0.8-0.7c0-0.4-0.3-0.8-0.7-0.8
					C3101,510.5,3100.6,510.9,3100.6,511.3z"/>
				<path class="st26" d="M3097,513.9c0,0.6,0.4,1.1,1,1.1c0.6,0,1.1-0.4,1.1-1c0-0.6-0.4-1.1-1-1.1
					C3097.6,512.9,3097.1,513.4,3097,513.9z"/>
				<path class="st26" d="M3099.6,516.4c0,0.5,0.3,0.9,0.8,0.9c0.5,0,0.9-0.3,0.9-0.8c0-0.5-0.3-0.9-0.8-0.9
					C3100.1,515.6,3099.6,516,3099.6,516.4z"/>
			</g>
		</g>
	</g>
</g>
<g>
	<g>
		<g>
			<path class="st22" d="M3226.2,644c0,0-2.2,5.8-2.6,5.9c-0.4,0.1-2.9-1-2.9-1.5c0-0.5,2.7-5.1,3.4-5.2
				C3225,643.1,3226.1,643.5,3226.2,644z"/>
			<path class="st22" d="M3223.4,651.2c0.2,0.6-1.2,3.2-1.6,3.2c-0.5,0-3.3-1.1-3.3-1.7c0-0.6,0.6-3,1.2-3.2
				C3220.3,649.2,3223.2,650.8,3223.4,651.2z"/>
			<path class="st22" d="M3221.8,655.4c0.5,0.9-2,5.2-2.9,5.6c-1,0.3-4-1-4.1-1.8c-0.1-0.9,1.4-5.7,2.2-5.8
				C3217.6,653.2,3221.8,655.4,3221.8,655.4z"/>
			<path class="st22" d="M3218.8,662.7c0.3,0.8-2.1,4.7-2.7,5c-0.6,0.2-4.6-1.1-4.7-1.8c-0.1-0.7,1.4-4.8,2.3-5.2
				C3214.5,660.2,3218.5,662,3218.8,662.7z"/>
			<path class="st22" d="M3216.3,669.5c0.3,0.5-1.8,5.2-2.7,5.5c-1,0.3-5.3-0.6-5.5-1.5c-0.3-0.9,0.6-6.3,1.4-6.6
				C3210.2,666.7,3215.9,668.6,3216.3,669.5z"/>
			<path class="st22" d="M3214.5,676.9c0.9,0.9-2,5.8-2.8,6.2c-0.8,0.3-6.1,0.3-6.4-0.8c-0.3-1.2,0.4-7.4,1.7-8
				C3208.2,673.8,3213.8,676.2,3214.5,676.9z"/>
			<path class="st22" d="M3212.4,684.7c0.7,0.5-2.1,7.9-2.8,8.1c-0.7,0.3-6.9-0.8-7.1-1.5c-0.1-0.7-0.5-7.4,0.5-8.1
				C3204.1,682.6,3211.4,684,3212.4,684.7z"/>
			<path class="st22" d="M3210.6,694.1c0.7,0.6-2,7.8-2.9,8.2c-0.9,0.4-7.5-0.4-7.8-1.2c-0.3-0.8-0.7-8.4,0.4-8.8
				C3201.4,691.9,3209.8,693.4,3210.6,694.1z"/>
		</g>
		<path class="st23" d="M3226.7,641.6c0,0,13.1-23.5,28.5-7.7l-4.4,0.3l1.4,1.2l-4.2-0.2l1,0.8l-3.5-0.4l0.8,1.2l-4.1-0.5l1.1,1.6
			l-4.4-0.7l0.8,1.2c0,0-2.1-0.7-3.6,0.7c0,0-8.6,6.6-10,4c0,0-6.8-11.5-7.7-14l0.6-1l-3.2-1.4l0.9-0.6l-2.6-1.8l1.7,0l-3.6-2.4
			l2,0.1l-3.7-2.8C3210.6,619.2,3232.6,617.8,3226.7,641.6z"/>
		<path class="st24" d="M3226,641.8c0,0-1.1-28.3-25.4-10.7c0,0,4.2,0.9,4.7,0.6l-1.6,1.6l4-0.4l-1.2,0.9l4,0.4l-1.4,0.9l3.9-0.1
			l-1.2,1.2l5-0.7l-1.1,1.3c0,0,5.1-0.7,5.6,1.2c0,0-21.3,2.7-19.9,14.2l3.8-2.5l-0.8,2.4l3.5-3.1l-0.6,1.4l3.3-2.2l-1,1.8l3.3-3.1
			l-0.3,1.8l3.2-3.2l0,2c0,0,3.4-3.4,4.4-3.5l-0.1,1.1c0,0,3.8-3.7,5.3-2.2c0,0,1.7,3,0.5,5.4l1.3-0.2l-1.1,4l1.4-0.5l-1,3.8
			l1.1-0.7l-0.5,2.7l1.3-0.1l-0.8,3.6l1.6-1.1l-0.7,4.3c0,0,10.1-5.2,4.3-19.7l1.2,1.1l0.9-1.5l3.2,4.7l0.4-1.4c0,0,1.9,3.5,1.9,3.5
			c0,0,0.5-0.9,0.5-0.9l2.1,2.9l0.8-0.9c0,0,1.2,2.5,1.6,2.6l0.4-1.4l1.8,3.3l0.4-2.1l2.5,3.7C3250.8,657.7,3253.2,631,3226,641.8z"
			/>
		<g>
			<g>
				<path class="st25" d="M3230.5,641.7c1.1,1.4,0.8,3.3-0.6,4.4c-1.4,1-3.4,0.8-4.4-0.6c-1.1-1.4-0.8-3.3,0.6-4.3
					C3227.5,640.1,3229.5,640.4,3230.5,641.7z"/>
				<path class="st26" d="M3227.6,645.5c0.1,0.1,0.1,0.3-0.1,0.4c-0.1,0.1-0.3,0.1-0.4-0.1c-0.1-0.1-0.1-0.3,0.1-0.4
					C3227.3,645.3,3227.5,645.3,3227.6,645.5z"/>
				<path class="st26" d="M3228.2,644c0.1,0.2,0.1,0.4-0.1,0.5c-0.2,0.1-0.4,0.1-0.5-0.1c-0.1-0.2-0.1-0.4,0.1-0.5
					C3227.8,643.8,3228,643.8,3228.2,644z"/>
				<path class="st26" d="M3229.6,644.8c0.1,0.2,0.1,0.4-0.1,0.6c-0.2,0.1-0.5,0.1-0.6-0.1c-0.1-0.2-0.1-0.4,0.1-0.6
					C3229.2,644.6,3229.5,644.7,3229.6,644.8z"/>
			</g>
			<g>
				<path class="st27" d="M3226.5,645.2c-1.2,1.5-3.4,1.7-4.9,0.5c-1.5-1.2-1.8-3.4-0.6-4.9c1.2-1.5,3.4-1.7,4.9-0.5
					C3227.5,641.5,3227.8,643.7,3226.5,645.2z"/>
				<path class="st26" d="M3225.6,643.5c-0.1,0.1-0.3,0.2-0.5,0.1c-0.1-0.1-0.2-0.3,0-0.5c0.1-0.1,0.3-0.2,0.5-0.1
					C3225.7,643.2,3225.8,643.4,3225.6,643.5z"/>
				<path class="st26" d="M3226,645.3c-0.2,0.2-0.4,0.2-0.6,0.1c-0.2-0.2-0.2-0.4-0.1-0.6c0.2-0.2,0.4-0.2,0.6-0.1
					C3226.1,644.8,3226.1,645.1,3226,645.3z"/>
				<path class="st26" d="M3224.5,645.3c-0.1,0.2-0.4,0.2-0.5,0.1c-0.2-0.1-0.2-0.3-0.1-0.5c0.1-0.2,0.4-0.2,0.5-0.1
					C3224.6,645,3224.6,645.2,3224.5,645.3z"/>
			</g>
		</g>
	</g>
	<g>
		<path class="st28" d="M3169.2,620.1c0,0,2.2,5.8,2.6,5.9c0.4,0.1,2.9-1,2.9-1.5c0-0.5-2.7-5.1-3.4-5.2
			C3170.5,619.2,3169.3,619.6,3169.2,620.1z"/>
		<path class="st28" d="M3172.1,627.3c-0.2,0.6,1.2,3.2,1.6,3.2c0.5,0,3.3-1.1,3.3-1.7s-0.6-3-1.2-3.2
			C3175.1,625.3,3172.2,626.9,3172.1,627.3z"/>
		<path class="st28" d="M3173.7,631.6c-0.5,0.9,2,5.2,2.9,5.6c1,0.3,4-1,4.1-1.8c0.1-0.9-1.4-5.7-2.2-5.8
			C3177.8,629.3,3173.7,631.6,3173.7,631.6z"/>
		<path class="st28" d="M3176.6,638.8c-0.3,0.8,2.1,4.7,2.7,5c0.6,0.2,4.6-1.1,4.7-1.8c0.1-0.7-1.4-4.8-2.3-5.2
			C3180.9,636.3,3176.9,638.1,3176.6,638.8z"/>
		<path class="st28" d="M3179.1,645.6c-0.3,0.5,1.8,5.2,2.7,5.5c1,0.3,5.3-0.6,5.5-1.5c0.3-0.9-0.6-6.3-1.4-6.6
			C3185.2,642.8,3179.5,644.7,3179.1,645.6z"/>
		<path class="st28" d="M3180.9,653c-0.9,0.9,2,5.8,2.8,6.2c0.8,0.3,6.1,0.3,6.4-0.8c0.3-1.2-0.4-7.4-1.7-8
			C3187.2,649.9,3181.6,652.3,3180.9,653z"/>
		<path class="st28" d="M3183.1,660.8c-0.7,0.5,2.1,7.9,2.8,8.1c0.7,0.3,6.9-0.8,7.1-1.5c0.1-0.7,0.5-7.4-0.6-8.1
			C3191.3,658.7,3184,660.1,3183.1,660.8z"/>
		<path class="st28" d="M3184.9,670.3c-0.6,0.6,2,7.8,2.9,8.2c0.9,0.4,7.5-0.3,7.8-1.2c0.3-0.8,0.7-8.4-0.4-8.8
			C3194,668,3185.6,669.6,3184.9,670.3z"/>
		<path class="st28" d="M3186.8,679.7c-0.4,0.5,1.7,8.1,2.6,8.3c0.9,0.2,8.1-0.2,8.4-0.9c0.3-0.7,0.4-8.2-0.3-8.8
			C3196.9,677.6,3187.8,678.7,3186.8,679.7z"/>
		<path class="st28" d="M3188.4,689.3c-1,0.8,0.9,8.3,1.7,8.8c0.8,0.4,9.6,0.3,10.1-0.6c0.5-0.9,0.5-8.7-0.4-9.3
			S3189.3,688.6,3188.4,689.3z"/>
		<path class="st28" d="M3189.7,699.4c-0.9,0.6,0.4,7.2,1.3,7.8c0.9,0.7,10.8,0.6,11.4-0.3c0.6-0.9-0.1-7.7-1.3-8.2
			C3199.9,698.2,3191.6,698.2,3189.7,699.4z"/>
		<g>
			<path class="st24" d="M3170.2,618.6c0,0-16.3-31.6,12.6-36.4l-2.9,5l2.4-0.7l-3.3,4.4l1.7-0.5l-3,3.5h2l-3.6,4h2.6l-4,4.2h1.9
				c0,0-2.3,1.7-2,4.4c0,0,1,14.2-3,13.7c0,0-17.9-1.2-21.3-2.2l-0.7-1.4l-4,2.4v-1.4l-3.9,1.4l1.2-1.8l-5.4,2l1.6-2l-5.9,1.9
				C3133.5,619.3,3148.3,594.6,3170.2,618.6z"/>
			<path class="st29" d="M3170,619.5c0,0-32.2-19.9-30.7,19.4c0,0,4.1-3.9,4.1-4.6l0.6,2.9l2.5-4.6l0.1,1.9l3.4-4l-0.1,2.2l2.7-4.3
				l0.5,2.1l2.9-6l0.6,2.2c0,0,3-6.1,5.5-5.1c0,0-12.9,24.9,0.9,32v-5.9l2.1,2.7l-0.8-6.1l1.2,1.7v-5.3l1.3,2.4l-0.9-5.9l1.7,1.6
				l-1.2-5.8l2.2,1.5c0,0-1.2-6.2-0.7-7.4l1.2,0.9c0,0-1.2-6.9,1.6-7.3c0,0,4.6,0.4,6.4,3.4l0.8-1.5l3.6,4.1l0.5-1.9l3.4,3.8v-1.7
				l2.6,2.5l0.8-1.5l3.4,3.5v-2.6l4.3,4c0,0,1.7-14.7-18.6-19.3l2.2-0.5l-1-2h7.6l-1.2-1.5c0,0,5.4,0.5,5.3,0.6
				c-0.1,0-0.7-1.2-0.7-1.2l4.8-0.1l-0.4-1.5c0,0,3.7,0.5,4.2,0.2l-1.3-1.5l5,0.6l-2.1-2h5.9C3206.1,604.6,3178.2,582.2,3170,619.5z
				"/>
			<g>
				<g>
					<path class="st25" d="M3168.9,619.4c0.6,1.8-0.5,3.7-2.3,4.2c-1.8,0.5-3.7-0.5-4.3-2.2c-0.6-1.8,0.5-3.7,2.3-4.2
						C3166.4,616.6,3168.3,617.6,3168.9,619.4z"/>
					<path class="st26" d="M3164.3,622.2c0.1,0.2,0,0.4-0.2,0.4c-0.2,0.1-0.4,0-0.4-0.2c-0.1-0.2,0-0.4,0.2-0.4
						C3164.1,621.9,3164.3,622,3164.3,622.2z"/>
					<path class="st26" d="M3165.5,620.8c0.1,0.2-0.1,0.4-0.3,0.5s-0.4-0.1-0.5-0.3c-0.1-0.2,0.1-0.4,0.3-0.5
						C3165.2,620.5,3165.5,620.6,3165.5,620.8z"/>
					
						<ellipse transform="matrix(0.9569 -0.2905 0.2905 0.9569 -44.2602 946.664)" class="st26" cx="3166.2" cy="622.4" rx="0.5" ry="0.5"/>
				</g>
				<g>
					<path class="st25" d="M3174.5,614.2c1.9-0.1,3.5,1.3,3.7,3.2c0.1,1.9-1.3,3.5-3.2,3.6c-1.9,0.1-3.5-1.3-3.6-3.2
						C3171.1,616,3172.6,614.4,3174.5,614.2z"/>
					<path class="st26" d="M3176.1,619.2c0.2,0,0.3,0.1,0.4,0.3c0,0.2-0.1,0.3-0.3,0.3c-0.2,0-0.3-0.1-0.3-0.3
						C3175.8,619.4,3175.9,619.2,3176.1,619.2z"/>
					<path class="st26" d="M3175.1,617.8c0.2,0,0.4,0.2,0.4,0.4c0,0.2-0.2,0.4-0.4,0.4c-0.2,0-0.4-0.2-0.4-0.4
						C3174.7,618,3174.9,617.8,3175.1,617.8z"/>
					<path class="st26" d="M3176.8,617c0.3,0,0.5,0.2,0.5,0.4c0,0.3-0.2,0.5-0.4,0.5c-0.3,0-0.5-0.2-0.5-0.4
						C3176.3,617.2,3176.5,617,3176.8,617z"/>
				</g>
				<g>
					<path class="st27" d="M3175.2,620c0.6,2-0.5,4.1-2.6,4.7c-2,0.6-4.2-0.5-4.8-2.5c-0.6-2,0.5-4.1,2.6-4.8
						C3172.5,616.8,3174.6,618,3175.2,620z"/>
					<path class="st26" d="M3173.1,619.7c0.1,0.2-0.1,0.4-0.2,0.4c-0.2,0.1-0.4,0-0.4-0.2c-0.1-0.2,0-0.4,0.2-0.4
						C3172.9,619.4,3173.1,619.6,3173.1,619.7z"/>
					<path class="st26" d="M3175,620.5c0.1,0.2-0.1,0.5-0.3,0.6c-0.3,0.1-0.5-0.1-0.6-0.3c-0.1-0.2,0.1-0.5,0.3-0.6
						C3174.6,620.2,3174.9,620.3,3175,620.5z"/>
					<path class="st26" d="M3174.1,621.9c0.1,0.2-0.1,0.4-0.3,0.5c-0.2,0.1-0.4-0.1-0.5-0.3c-0.1-0.2,0-0.4,0.3-0.5
						C3173.8,621.6,3174,621.7,3174.1,621.9z"/>
				</g>
			</g>
		</g>
	</g>
</g>
</svg>
