<svg version="1.1" id="Layer_2" xmlns="http://www.w3.org/2000/svg" xmlns:xlink="http://www.w3.org/1999/xlink" viewBox="0 192.454 600 315.11">
<g>
  <path fill="#EFBEB1" d="M539.774,376.656c56.26,2.084,79.173,64.578,27.09,91.664c-39.587,22.922-87.503,27.09-131.258,27.09
    c-81.248,2.084-206.255,12.5-264.589-52.088C77.265,337.069,221.021,209.983,321.024,195.4
    c54.167-8.333,126.429,4.046,154.166,31.256c27.739,27.209,68.753,83.333,68.753,143.749L539.774,376.656z"/>
  <g>
    <path fill="#772309" d="M325.089,475.863c-41.101-20.707-32.141-76.955,15.979-79.406c23.153-1.184,44.526,5.559,67.458-0.908
      c1.873-0.527,3.574-2.844,2.748-4.84c-3.982-9.629-10.752-15.752-18.562-22.586c-2.982-2.508-5.869-5.119-8.665-7.834
      c6.41-14.743,15.081-19.419,26.021-14.029c12.355,3.509,24.259,11.638,35.376,17.976c18.062,10.289,72.689,31.357,31.292,58.02
      c-17.814,11.473-41.844,16.566-62.49,20.396c-4.982,0.922-2.866,8.502,2.09,7.584c15.874-2.941,117.087-29.447,81.798-64.055
      c-18.487-18.123-47.158-28.369-69.86-40.487c-14.512-7.75-30.321-14.759-44.449-0.63c-9.923,9.924-8.904,17.447-1.206,24.666
      c4.409,4.131,9.108,7.955,13.521,12.094c11.119,10.436-26.535,8.82-25.71,8.875c-16.84-1.111-32.356-2.889-49.046,0.217
      c-47.351,8.811-33.219,75.139-0.264,91.738C325.637,484.932,329.623,478.146,325.089,475.863L325.089,475.863z"/>
  </g>
  <path fill="#FDE1B8" d="M26.262,289.041c21.728-9.089,46.552,1.788,68.041-3.58c28.656-5.374,53.724-19.697,78.794-30.445
    c37.601-12.531,94.905-28.647,134.299-19.69c23.278,5.365,44.764,26.855,35.813,53.714c-7.16,23.276-41.186,34.025-62.676,39.396
    c-44.767,8.95-85.952-1.794-127.136-8.951c-48.346-8.954-91.328,0-136.089-1.797C17.308,317.688-6.57,302.77,26.262,289.041z"/>
  <path fill="#EFAE7A" d="M320.502,195.4c0,0-240.634,47.101-159.96,238.301c53.277,126.271,384.983,59.816,425.8,20.555
    c28.349-27.266,0.701-79.756-34.18-79.301c0,0,38.188-63.345-69.858-142.617C409.628,179.016,320.502,195.4,320.502,195.4z"/>
  <path fill="#FDE1B8" d="M19.274,354.219c21.727-9.088,46.552,1.787,68.04-3.578c28.656-5.375,53.724-19.698,78.796-30.445
    c37.6-12.531,94.904-28.648,134.297-19.69c23.279,5.364,44.765,26.855,35.815,53.713c-7.161,23.275-41.186,34.025-62.677,39.395
    c-44.767,8.953-85.951-1.793-127.136-8.949c-48.346-8.953-91.328,0-136.09-1.797C10.319,382.867-13.559,367.949,19.274,354.219z"/>
  <path fill="#FDE1B8" d="M448.131,318.489c0,0,36.859,28.677,30.348,53.489c-6.512,24.816-76.503,67.422-3.766,75.848
    c72.741,8.424,52.656-87.121,24.864-107.174c-27.788-20.053-68.984-45.211-68.984-45.211S409.102,311.114,448.131,318.489z"/>
</g>
</svg>
