<svg version="1.1" id="Layer_2" xmlns="http://www.w3.org/2000/svg" xmlns:xlink="http://www.w3.org/1999/xlink" viewBox="0 192.454 600 315.11">
<g>
  <g>
    <path fill="#772309" d="M324.813,474.103c-41.066-20.691-32.113-76.889,15.966-79.339c23.134-1.183,44.488,5.553,67.401-0.908
      c1.871-0.524,3.57-2.841,2.745-4.835c-3.979-9.623-10.742-15.739-18.548-22.566c-2.979-2.506-5.863-5.115-8.658-7.827
      c6.405-14.73,15.069-19.404,26-14.018c12.345,3.506,24.237,11.628,35.346,17.96c18.046,10.282,72.628,31.331,31.266,57.97
      c-17.799,11.465-41.809,16.555-62.438,20.38c-4.979,0.921-2.863,8.495,2.089,7.579c15.86-2.939,116.987-29.425,81.728-64.003
      c-18.471-18.107-47.118-28.343-69.801-40.452c-14.501-7.741-30.297-14.746-44.412-0.629c-9.914,9.917-8.896,17.433-1.205,24.646
      c4.406,4.128,9.102,7.948,13.511,12.083c11.109,10.427-26.513,8.814-25.688,8.866c-16.825-1.106-32.33-2.886-49.003,0.22
      c-47.311,8.802-33.192,75.073-0.265,91.659C325.36,483.162,329.343,476.382,324.813,474.103L324.813,474.103z"/>
  </g>
  <path fill="#EFAE7A" d="M304.76,226.047c0,0-10.245-27.137-42.036-13.679c-65.417,27.69-156.561,91.047-102.317,219.608
    c53.232,126.165,384.655,59.766,425.437,20.539c28.325-27.246,3.456-68.322-34.15-79.235c0,0,14.526-30.583-14.192-79.168
    c-6.628-11.213-5.635,29.159-17.578,16.184c-7.96-8.648-8.45-31.793-19.823-23.127c-10.208,7.777-19.898,5.519-33.038-0.413
    c-10.904-4.923-39.697,16.973-50.384,14.455c-8.873-2.093-20.562-13.188-32.626-16.106c-15.093-3.652-30.533,1.048-39.059,1.238
    c-11.522,0.257-25.092-16.689-39.82-26.844C291.933,250.369,304.76,226.047,304.76,226.047z"/>
  <path fill="#FDE1B8" d="M19.258,352.562c21.71-9.081,46.513,1.787,67.982-3.577c28.632-5.368,53.679-19.68,78.728-30.418
    c37.569-12.521,94.825-28.623,134.184-19.674c23.259,5.361,44.726,26.833,35.783,53.669c-7.153,23.256-41.15,33.995-62.622,39.362
    c-44.729,8.942-85.879-1.794-127.028-8.943c-48.306-8.946-91.251,0-135.974-1.796C10.312,381.185-13.546,366.278,19.258,352.562z"
    />
</g>
</svg>
