<svg version="1.1" id="Layer_2" xmlns="http://www.w3.org/2000/svg" xmlns:xlink="http://www.w3.org/1999/xlink" viewBox="0 192.454 600 315.11">
<g>
  <g>
    <path fill="#772309" d="M324.813,474.476c-41.066-20.691-32.114-76.889,15.966-79.339c23.134-1.183,44.487,5.553,67.401-0.908
      c1.871-0.524,3.57-2.841,2.745-4.835c-3.979-9.623-10.742-15.739-18.548-22.567c-2.979-2.505-5.863-5.115-8.658-7.827
      c6.405-14.73,15.069-19.403,26-14.017c12.344,3.506,24.237,11.629,35.346,17.96c18.046,10.282,72.628,31.331,31.266,57.97
      c-17.799,11.465-41.809,16.555-62.438,20.38c-4.979,0.921-2.863,8.495,2.089,7.578c15.859-2.938,116.987-29.425,81.727-64.002
      c-18.471-18.106-47.117-28.343-69.8-40.452c-14.501-7.743-30.297-14.746-44.412-0.63c-9.914,9.917-8.896,17.433-1.205,24.645
      c4.406,4.129,9.101,7.948,13.511,12.084c11.109,10.427-26.513,8.814-25.688,8.866c-16.825-1.106-32.33-2.886-49.003,0.22
      c-47.312,8.802-33.191,75.073-0.265,91.659C325.359,483.535,329.343,476.755,324.813,474.476L324.813,474.476z"/>
  </g>
  <path fill="#FDE1B8" d="M26.241,287.812c21.709-9.082,46.513,1.787,67.982-3.577c28.632-5.37,53.679-19.68,78.728-30.419
    c37.569-12.52,94.824-28.623,134.184-19.673c23.259,5.361,44.726,26.833,35.784,53.669c-7.154,23.256-41.15,33.996-62.623,39.362
    c-44.729,8.943-85.878-1.793-127.028-8.944c-48.305-8.947-91.25,0-135.974-1.795C17.294,316.435-6.563,301.529,26.241,287.812z"/>
  <path fill="#EFAE7A" d="M320.229,194.25c0,0-240.427,47.061-159.823,238.098c53.232,126.166,384.655,59.767,425.437,20.54
    c28.325-27.246,3.456-68.322-34.15-79.235c0,0,27.847-58.628-69.799-142.496c-12.217-10.493-29.45-2.521-42.59-8.454
    c-10.904-4.923-21.112-10.284-31.8-12.802c-19.973-4.708-35.454,9.982-50.795,10.324
    C334.831,220.712,320.229,194.25,320.229,194.25z"/>
  <path fill="#FDE1B8" d="M471.898,353.055c0,0-15.831,43.894-41.418,45.389c-25.591,1.497-87.735-51.803-73.219,19.905
    c14.517,71.71,99.065,23.05,109.51-9.562c10.446-32.605,21.592-79.529,21.592-79.529S466.821,313.694,471.898,353.055z"/>
  <path fill="#FDE1B8" d="M19.258,352.935c21.71-9.082,46.513,1.786,67.982-3.577c28.632-5.37,53.679-19.681,78.728-30.419
    c21.604-7.2,49.716-15.584,77.193-19.708c20.306-3.047,36.687,19.334,53.414,23.138c23.259,5.36,48.303,3.729,39.36,30.566
    c-7.154,23.256-41.15,33.995-62.622,39.362c-44.729,8.942-85.879-1.794-127.028-8.943c-48.305-8.946-91.25,0-135.974-1.796
    C10.312,381.558-13.546,366.651,19.258,352.935z"/>
</g>
</svg>
