<svg version="1.1" id="Layer_1" xmlns="http://www.w3.org/2000/svg" xmlns:xlink="http://www.w3.org/1999/xlink" viewBox="0 192.454 600 315.11">
<g>
  <path fill="#EFBEB1" d="M540.637,376.743c56.459,2.091,79.456,64.812,27.187,91.994c-39.729,23.003-87.818,27.188-131.73,27.188
    c-81.54,2.092-206.996,12.543-265.538-52.275c-94.09-106.635,50.183-234.179,150.544-248.813
    c54.361-8.363,126.886,4.061,154.721,31.368c27.839,27.307,69,83.633,69,144.266L540.637,376.743z"/>
  <g>
    <path fill="#772309" d="M325.18,476.308c-41.249-20.781-32.257-77.231,16.036-79.692c23.236-1.187,44.686,5.579,67.701-0.912
      c1.879-0.526,3.586-2.854,2.757-4.855c-3.996-9.666-10.79-15.81-18.63-22.668c-2.991-2.517-5.889-5.138-8.697-7.862
      c6.434-14.796,15.137-19.489,26.116-14.079c12.399,3.522,24.346,11.681,35.502,18.04c18.127,10.329,72.951,31.472,31.405,58.229
      c-17.878,11.515-41.995,16.627-62.715,20.471c-5.002,0.925-2.876,8.533,2.099,7.61c15.93-2.951,117.507-29.555,82.089-64.286
      c-18.553-18.187-47.326-28.469-70.109-40.631c-14.565-7.777-30.432-14.812-44.609-0.632c-9.959,9.959-8.936,17.51-1.211,24.753
      c4.426,4.147,9.142,7.984,13.57,12.139c11.159,10.472-26.63,8.853-25.802,8.905c-16.9-1.112-32.474-2.899-49.221,0.219
      c-47.521,8.843-33.34,75.409-0.266,92.068C325.728,485.408,329.729,478.598,325.18,476.308L325.18,476.308z"/>
  </g>
  <path fill="#FFD9D2" d="M25.278,288.814c21.807-9.122,46.72,1.794,68.285-3.593c28.76-5.394,53.917-19.767,79.078-30.554
    c37.736-12.576,95.246-28.75,134.78-19.76c23.362,5.384,44.924,26.951,35.942,53.908c-7.186,23.359-41.334,34.146-62.9,39.537
    c-44.928,8.982-86.261-1.801-127.593-8.984c-48.52-8.986-91.657,0-136.579-1.803C16.292,317.564-7.671,302.591,25.278,288.814z"/>
  <path fill="#EFBEB1" d="M320.575,194.836c0,0-241.497,47.27-160.535,239.158c53.469,126.725,386.366,60.03,427.33,20.629
    c28.451-27.366,0.704-80.042-34.303-79.587c0,0,38.325-63.573-70.109-143.13C410.021,178.393,320.575,194.836,320.575,194.836z"/>
  <path fill="#FFD9D2" d="M18.265,354.226c21.806-9.121,46.72,1.795,68.285-3.591c28.759-5.395,53.917-19.769,79.078-30.556
    c37.736-12.576,95.246-28.751,134.781-19.76c23.362,5.384,44.923,26.952,35.942,53.907c-7.186,23.359-41.333,34.147-62.9,39.537
    c-44.928,8.983-86.261-1.801-127.593-8.981c-48.521-8.987-91.657,0-136.579-1.805C9.278,382.977-14.685,368.004,18.265,354.226z"/>
  <path fill="#FFD9D2" d="M448.663,318.368c0,0,36.991,28.78,30.457,53.682c-6.535,24.904-76.78,67.664-3.779,76.119
    c73.001,8.454,52.846-87.435,24.952-107.559c-27.888-20.125-69.23-45.373-69.23-45.373S409.493,310.965,448.663,318.368z"/>
</g>
</svg>
