<svg version="1.1" id="Layer_1" xmlns="http://www.w3.org/2000/svg" xmlns:xlink="http://www.w3.org/1999/xlink" viewBox="0 0 114 114">
<g>
  <circle fill="#FFFFFF" cx="57" cy="57" r="54.25"/>
  <g>
    <g>
      <path fill="#2E2E2E" d="M57,113.938c-7.686,0-15.143-1.506-22.164-4.477c-6.78-2.867-12.869-6.973-18.097-12.201
        c-5.229-5.228-9.334-11.316-12.202-18.098C1.567,72.142,0.062,64.686,0.062,57s1.505-15.143,4.475-22.164
        c2.868-6.78,6.974-12.869,12.202-18.098c5.228-5.228,11.316-9.333,18.097-12.201C41.857,1.567,49.314,0.062,57,0.062
        s15.143,1.506,22.164,4.476c6.779,2.868,12.869,6.974,18.098,12.201c5.228,5.229,9.333,11.317,12.201,18.098
        c2.969,7.021,4.475,14.479,4.475,22.164s-1.506,15.142-4.475,22.163c-2.868,6.781-6.974,12.87-12.201,18.098
        c-5.229,5.229-11.318,9.334-18.098,12.201C72.143,112.433,64.686,113.938,57,113.938z M57,5.438
        C28.568,5.438,5.438,28.568,5.438,57c0,28.431,23.13,51.562,51.562,51.562S108.562,85.431,108.562,57
        C108.562,28.568,85.432,5.438,57,5.438z"/>
    </g>
    <g>
      <path fill="#E3E3E3" d="M57,106.729c-13.283,0-25.771-5.173-35.163-14.565S7.271,70.283,7.271,57s5.173-25.771,14.565-35.163
        C31.229,12.444,43.717,7.271,57,7.271s25.771,5.173,35.164,14.565c9.393,9.392,14.564,21.88,14.564,35.163
        c0,13.282-5.172,25.771-14.564,35.163S70.283,106.729,57,106.729z M57,9.119C30.599,9.119,9.119,30.599,9.119,57
        S30.599,104.881,57,104.881c26.402,0,47.881-21.479,47.881-47.881S83.402,9.119,57,9.119z"/>
    </g>
    <g>
      <g>
        <circle fill="#E3E3E3" cx="57" cy="57" r="4.468"/>
      </g>
      <g>
        <circle fill="#FFFFFF" cx="57" cy="57" r="0.941"/>
      </g>
    </g>
  </g>
</g>
</svg>
