<svg version="1.1" id="Layer_1" xmlns="http://www.w3.org/2000/svg" xmlns:xlink="http://www.w3.org/1999/xlink" viewBox="37.632 185.676 530 325">
<path opacity="0.7" fill="#FFFFFF" enable-background="new    " d="M491.672,331.262c-0.86,0-1.708,0.036-2.561,0.064
	c-3.088-44.756-40.352-80.116-85.896-80.116c-9.464,0-18.564,1.548-27.08,4.368c-16-40.304-55.316-68.816-101.32-68.816
	c-44.628,0-82.968,26.832-99.832,65.236c-8.192-4.448-17.58-6.976-27.56-6.976c-31.948,0-57.844,25.9-57.844,57.848
	c0,0.904,0.028,1.8,0.068,2.696c-30.772,15.332-51.924,47.092-51.924,83.808c0,51.7,41.912,93.608,93.608,93.608
	c9.624,0,18.912-1.456,27.652-4.156c15.796,18.804,39.476,30.764,65.956,30.764c22.672,0,43.284-8.771,58.668-23.092
	c10.292,4.348,21.608,6.752,33.484,6.752c15.696,0,30.396-4.22,43.068-11.552c12.672,7.332,27.367,11.552,43.063,11.552
	c20.272,0,38.9-7.024,53.612-18.752c10.432,5.412,22.275,8.479,34.84,8.479c41.9,0,75.864-33.968,75.864-75.859
	C567.532,365.227,533.567,331.262,491.672,331.262z"/>
</svg>
