<?xml version="1.0" encoding="utf-8"?>
<!-- Generator: Adobe Illustrator 18.1.1, SVG Export Plug-In . SVG Version: 6.00 Build 0)  -->
<svg version="1.1" id="Layer_1" xmlns="http://www.w3.org/2000/svg" xmlns:xlink="http://www.w3.org/1999/xlink" x="0px" y="0px"
	 viewBox="0 0 100 100" enable-background="new 0 0 100 100" xml:space="preserve">
<g>
	<path fill-rule="evenodd" clip-rule="evenodd" fill="#E63724" d="M22.4,22c6.5-2.2,14.6-0.7,18.6-2c4-1.4,9.5-7.5,15.9-9.7
		c9.2-3.1,17-0.8,23.3,4.2c16.5,13.1,19,39.4,5.8,69.2c-1.7,3.8-5.2,7.3-9.2,8.7c-4.1,1.4-8.7,0.8-10.8,1.5c-2.1,0.7-5.4,4-9.5,5.4
		c-4,1.4-8.9,0.7-12.6-1.3C15.5,82.4,1.4,60,6.5,39.6C8.4,31.8,13.2,25.2,22.4,22L22.4,22z"/>
	<path fill="#5E3F3C" d="M38.8,20.7c2,1.5,3.6-0.4,1.9-2.1C36.1,14,35.2,8.4,37.1,2.8c0.8-2.3-4.1-4-4.9-1.8
		C29.7,8.4,33.5,16.9,38.8,20.7L38.8,20.7z"/>
	<path fill-rule="evenodd" clip-rule="evenodd" fill="#FFFFFF" d="M27.4,25.4c-10.6,6.8-14,19.9-12.4,29.8
		C8.6,45.2,9.8,27.7,27.4,25.4L27.4,25.4z"/>
</g>
</svg>
