<?xml version="1.0" encoding="utf-8"?>
<!-- Generator: Adobe Illustrator 18.1.1, SVG Export Plug-In . SVG Version: 6.00 Build 0)  -->
<svg version="1.1" id="Layer_1" xmlns="http://www.w3.org/2000/svg" xmlns:xlink="http://www.w3.org/1999/xlink" x="0px" y="0px"
	 viewBox="0 0 100 100" enable-background="new 0 0 100 100" xml:space="preserve">
<g>
	<path fill="#F59F17" d="M60.1,64.9c-6.5,5.1-13.3,9.9-20.3,14.2c-5.7,3.5-11.6,6.8-17.9,9.3c-2.4,1-4.9,1.8-7.4,2.4
		c-2,0.5-4.1,0.8-6.2,0.7c-1.6-0.1-3.2-0.4-4.6-1.2c-2.2-1.2-3.4-3.5-3.7-6c-0.3-2.4,0.1-4.8,0.7-7.1c0.8-3.1,2.1-6,3.5-8.8
		c1.8-3.5,3.9-6.8,6.2-10c0.3-0.4,0.6-0.8,0.9-1.3c0.3-0.4,0.6-0.9,1-1.2c0.8-0.7,1.5-1.4,2.1-2.2c0.6-0.7,1.3-1.5,1.8-2.4
		c0.2-0.4,0.4-0.8,0.7-1.2c0.4-0.4,0.7-0.8,1.1-1.2c1.4-1.6,2.8-3.1,4.3-4.6c0.7-0.8,1.5-1.5,2.2-2.2c0.4-0.4,0.7-0.8,1.1-1
		c0.5-0.3,0.9-0.5,1.3-0.8c0.8-0.5,1.5-1.2,2.2-1.9c0.3-0.3,0.6-0.7,0.8-1c0.1-0.2,0.2-0.3,0.3-0.5c0.1-0.3,0.3-0.4,0.5-0.6
		c1.6-1.4,3.3-2.8,4.9-4.1c1.6-1.3,3.3-2.5,5-3.8c0.2-0.1,0.3-0.2,0.5-0.4c0.2-0.1,0.4-0.1,0.7-0.2c0.5-0.2,1-0.4,1.4-0.6
		c0.9-0.5,1.8-1.1,2.6-1.7c0.4-0.3,0.8-0.6,1.1-1c0.4-0.3,0.7-0.8,1.1-1.1c0.9-0.6,1.8-1.1,2.7-1.6c1.8-1.1,3.6-2.1,5.4-3.1
		c0.5-0.3,1-0.6,1.6-0.8c0.3-0.1,0.5-0.3,0.8-0.4c0.2-0.1,0.4-0.3,0.6-0.3c0.6-0.1,1.2-0.2,1.8-0.4c2.1-0.6,4.1-1.6,5.7-3.1
		c-0.1,0-0.2,0.1-0.3,0.1c1.9-0.8,3.9-1.5,5.9-2.2c2-0.7,4.1-1.2,6.1-1.7c3.8-0.9,7.8-1.5,11.8-1.1c3.1,0.3,6.4,1.2,8.3,3.9
		c0.8,1.2,1.2,2.6,1.3,4c0.1,1.7-0.3,3.5-0.8,5.1c-0.7,2.1-1.7,4.1-2.8,6c-2.9,5.1-6.7,9.6-10.7,13.9c-5,5.5-10.5,10.6-16.2,15.4
		C66.4,59.9,63.3,62.4,60.1,64.9C35.7,83.9,87,44,60.1,64.9z"/>
	<path fill="#EE8604" d="M98.7,12.8c-1.5-2.2-4.3-3.5-8.1-3.9c0.6,0.5,1.1,1,1.5,1.6c6.5,9.2-11.7,31.2-38.6,52.1
		C33,78.6,13.3,89.3,2.3,89.2c7.5,7.5,31.9-4.2,57.8-24.3C87,44,105.1,22,98.7,12.8z"/>
	<path fill="#FBC456" d="M31.6,64.6c-7.5-5.6-12.1-8.5-18.9-8.9c0.6-0.5,1.1-1.1,1.6-1.7c1-1.1,1.9-2.3,2.4-3.4
		C21.2,51,27.6,56,31.6,64.6z"/>
	<path fill="#EE8604" d="M31.6,64.6c-8.4-5.7-12.9-8.8-19.3-8.5c0.1-0.1,0.3-0.3,0.4-0.4c0.6-0.5,1.1-1.1,1.6-1.7
		C18.7,53.8,24.7,56.8,31.6,64.6z"/>
	<path fill="#FBC456" d="M46.9,52.7c-7.2-6.9-11.1-8.2-21.3-11.5c0.9-0.5,1.8-1.1,2.6-1.7c1.1-0.9,1.9-1.8,2.5-2.9
		C35.1,36.9,42.7,43.8,46.9,52.7z"/>
	<path fill="#EE8604" d="M46.9,52.7c-7.2-6.9-11.1-8.2-21.3-11.5c0.9-0.5,1.8-1.1,2.6-1.7C32.8,40.1,40.7,44,46.9,52.7z"/>
	<path fill="#FBC456" d="M62.3,40.2c-3.2-6.7-10.6-15.4-14.2-16.7c0,0,0,0,0,0c0,0,0,0,0,0c-1,1-2,1.9-3.1,2.7
		c-1.2,0.8-2.4,1.5-3.7,1.9c8.8,3,14.4,5.9,21.1,12.5C62.4,40.4,62.4,40.3,62.3,40.2z"/>
	<path fill="#EE8604" d="M62.5,40.5c-6.7-6.6-12.3-9.4-21.1-12.5c1.2-0.4,2.5-1,3.7-1.9c3.9,1.6,14.1,7.7,17.3,14
		C62.4,40.3,62.4,40.4,62.5,40.5z"/>
	<path fill="#FBC456" d="M75.2,26c-6.1-5.1-10.4-7.5-15.9-8.7c0,0,0,0,0,0l0,0c1.5-0.2,2.9-0.6,4-1.1c1.5-0.6,2.6-1.5,3.6-2.3
		c0,0,0,0,0,0l0,0C71.1,16.7,73.2,21.8,75.2,26z"/>
	<path fill="#EE8604" d="M59.3,17.2C59.3,17.2,59.3,17.2,59.3,17.2c5.5,1.2,9.8,3.7,15.9,8.7c-1.7-3.8-8-8.5-11.9-9.8
		C61.1,17.1,59.4,17.2,59.3,17.2z"/>
</g>
</svg>
