<?xml version="1.0" encoding="utf-8"?>
<!-- Generator: Adobe Illustrator 18.1.1, SVG Export Plug-In . SVG Version: 6.00 Build 0)  -->
<svg version="1.1" id="Layer_1" xmlns="http://www.w3.org/2000/svg" xmlns:xlink="http://www.w3.org/1999/xlink" x="0px" y="0px"
	 viewBox="0 0 100 100" enable-background="new 0 0 100 100" xml:space="preserve">
<g>
	<g>
		<path fill="#71841F" d="M51.8,36.4c-1.3,2.7-2.1,2.5-1.6-0.5c1.1-7,2.6-14,4.6-20.8c0.9-2.9,2.5-4.3,3.7-3.9c0,0,0.1,0,0.1,0
			c1.2,0.4,1.8,2.4,0.9,5.3C57.3,23.3,54.7,30,51.8,36.4z"/>
		<circle fill="#71841F" cx="49.6" cy="9.3" r="3.1"/>
		<circle fill="#71841F" cx="56.1" cy="3" r="3.1"/>
		<circle fill="#71841F" cx="64" cy="7.7" r="3.1"/>
		<circle fill="#71841F" cx="60.3" cy="8" r="4.3"/>
		<circle fill="#71841F" cx="52.7" cy="13.4" r="5.2"/>
		<circle fill="#71841F" cx="55.4" cy="7.8" r="5.2"/>
		<circle fill="#71841F" cx="60" cy="13.8" r="5.2"/>
	</g>
	<g>
		<path fill="#879C29" d="M45.7,41.8c-0.7,2.9-1.5,2.8-1.7-0.1c-0.4-7.1-0.4-14.2,0.1-21.3c0.3-3,1.5-4.7,2.8-4.6c0,0,0.1,0,0.1,0
			c1.3,0.1,2.2,2,2,5C48.4,27.8,47.3,34.9,45.7,41.8z"/>
		<circle fill="#879C29" cx="38.3" cy="14.7" r="3.1"/>
		<circle fill="#879C29" cx="45.7" cy="8.5" r="3.1"/>
		<circle fill="#879C29" cx="51.6" cy="11.1" r="3.1"/>
		<circle fill="#879C29" cx="48.1" cy="12.3" r="4.3"/>
		<path fill="#879C29" d="M47,19.5c-0.2,2.9-2.7,5-5.6,4.7c-2.9-0.2-5-2.7-4.7-5.6c0.2-2.9,2.7-5,5.6-4.7
			C45.1,14.1,47.2,16.6,47,19.5z"/>
		<path fill="#879C29" d="M48.4,13.5c-0.2,2.9-2.7,5-5.6,4.7c-2.9-0.2-5-2.7-4.7-5.6c0.2-2.9,2.7-5,5.6-4.7
			C46.6,8.2,48.7,10.7,48.4,13.5z"/>
		<circle fill="#879C29" cx="49.1" cy="18" r="5.2"/>
	</g>
	<g>
		<path fill="#879C29" d="M50.5,45.1c-1.1,2.8-0.3,3.2,1.5,0.8c4.3-5.7,8.2-11.7,11.7-17.8c1.4-2.6,1.3-4.8,0.2-5.4
			c0,0-0.1,0-0.1-0.1c-1.1-0.6-3,0.4-4.4,3C56,31.9,53,38.5,50.5,45.1z"/>
		<circle fill="#879C29" cx="71.7" cy="26.6" r="3.1"/>
		<circle fill="#879C29" cx="69" cy="17.4" r="3.1"/>
		<circle fill="#879C29" cx="62.6" cy="16.3" r="3.1"/>
		<circle fill="#879C29" cx="64.9" cy="19.2" r="4.3"/>
		<circle fill="#879C29" cx="66.4" cy="28.3" r="5.2"/>
		<circle fill="#879C29" cx="68.4" cy="22.5" r="5.2"/>
		<circle fill="#879C29" cx="60.9" cy="23.4" r="5.2"/>
	</g>
	<g>
		<path fill="#FBAB18" d="M35.2,95.4c-3.3,6.5-5.3,5.9-4.4-1.3l6.1-51.5c0.9-7.2,7.3-11.4,14.2-9.3l0.7,0.2c7,2.1,10,9.1,6.7,15.6
			L35.2,95.4z"/>
		<path fill="#E39910" d="M51.9,33.5l-0.4-0.1L31.4,99.9c0.8,0.3,2.1-1.2,3.8-4.5l23.4-46.3C61.9,42.6,58.9,35.6,51.9,33.5z"/>
		<g>
			<defs>
				<path id="SVGID_1_" d="M35.2,95.4c-3.3,6.5-5.3,5.9-4.4-1.3l6.1-51.5c0.9-7.2,7.3-11.4,14.2-9.3l0.7,0.2c7,2.1,10,9.1,6.7,15.6
					L35.2,95.4z"/>
			</defs>
			<clipPath id="SVGID_2_">
				<use xlink:href="#SVGID_1_"  overflow="visible"/>
			</clipPath>
			<g clip-path="url(#SVGID_2_)">
				<path fill="#FBAB18" d="M56.9,49.4c-6.8-2.4-6.6-3,0.4-1.3l49.6,12.2c7,1.7,12.2,4.8,11.6,6.8l-0.1,0.2c-0.6,2-6.6,1.7-13.4-0.7
					L56.9,49.4z"/>
				<path fill="#FBAB18" d="M48.3,70.1c-6.8-2.4-6.6-3,0.4-1.3L98.3,81c7,1.7,12.2,4.8,11.6,6.8l-0.1,0.2c-0.6,2-6.6,1.7-13.4-0.7
					L48.3,70.1z"/>
				<path fill="#FBAB18" d="M44,81.4c-6.8-2.4-6.6-3,0.4-1.3L94,92.4c7,1.7,12.2,4.8,11.6,6.8l-0.1,0.2c-0.6,2-6.6,1.7-13.4-0.7
					L44,81.4z"/>
				<path fill="#E39910" d="M40.8,54.4c7,1.7,7.1,1.1,0.4-1.3L-6.9,35.9c-6.8-2.4-12.8-2.8-13.4-0.7l-0.1,0.2
					c-0.6,2,4.6,5.1,11.6,6.8L40.8,54.4z"/>
				<path fill="#E39910" d="M35.4,62.5c7,1.7,7.1,1.1,0.4-1.3l-48.1-17.3c-6.8-2.4-12.8-2.8-13.4-0.7l-0.1,0.2
					c-0.6,2,4.6,5.1,11.6,6.8L35.4,62.5z"/>
				<path fill="#E39910" d="M29.4,89.3c7,1.7,7.1,1.1,0.4-1.3l-48.1-17.3c-6.8-2.4-12.8-2.8-13.4-0.7l-0.1,0.2
					c-0.6,2,4.6,5.1,11.6,6.8L29.4,89.3z"/>
				<g>
					<path fill="#E39910" d="M49.7,50.4c0.7,0.1,0.7,0,0.1-0.3l-4.5-2c-0.6-0.3-1.3-0.1-1.4,0.4l0,0.1c-0.1,0.5,0.3,1,1,1.1
						L49.7,50.4z"/>
					<path fill="#E39910" d="M39.7,47.4c-0.6-0.3-0.6-0.4,0.1-0.3l4.9,0.8c0.7,0.1,1.1,0.6,1,1.1l0,0.1c-0.1,0.5-0.8,0.6-1.4,0.4
						L39.7,47.4z"/>
				</g>
				<g>
					<path fill="#E39910" d="M52.1,62.2c0.7,0.1,0.7,0,0.1-0.3l-4.5-2c-0.6-0.3-1.3-0.1-1.4,0.4l0,0.1c-0.1,0.5,0.3,1,1,1.1
						L52.1,62.2z"/>
					<path fill="#E39910" d="M42.2,59.2c-0.6-0.3-0.6-0.4,0.1-0.3l4.9,0.8c0.7,0.1,1.1,0.6,1,1.1l0,0.1c-0.1,0.5-0.8,0.6-1.4,0.4
						L42.2,59.2z"/>
				</g>
				<g>
					<path fill="#FBAB18" d="M52.2,62.2c0.6,0.1,0.6,0,0.1-0.3l-3.9-1.8c-0.6-0.3-1.1-0.1-1.3,0.4l0,0.1c-0.1,0.5,0.2,0.9,0.8,1
						L52.2,62.2z"/>
					<path fill="#FBAB18" d="M43.4,59.6c-0.6-0.3-0.5-0.4,0.1-0.3l4.3,0.6c0.6,0.1,1,0.6,0.8,1l0,0.1c-0.1,0.5-0.7,0.7-1.3,0.4
						L43.4,59.6z"/>
				</g>
				<g>
					<path fill="#E39910" d="M39.1,74.6c0.7,0.1,0.7,0,0.1-0.3l-4.5-2c-0.6-0.3-1.3-0.1-1.4,0.4l0,0c-0.1,0.5,0.3,1,1,1.1L39.1,74.6
						z"/>
					<path fill="#E39910" d="M29.2,71.6c-0.6-0.3-0.6-0.4,0.1-0.3l4.9,0.8c0.7,0.1,1.1,0.6,1,1.1l0,0c-0.1,0.5-0.8,0.6-1.4,0.4
						L29.2,71.6z"/>
				</g>
				<g>
					<path fill="#E39910" d="M38.8,83.8c0.7,0.1,0.7,0,0.1-0.3l-4.5-2c-0.6-0.3-1.3-0.1-1.4,0.4l0,0c-0.1,0.5,0.3,1,1,1.1L38.8,83.8
						z"/>
					<path fill="#E39910" d="M28.9,80.8c-0.6-0.3-0.6-0.4,0.1-0.3l4.9,0.8c0.7,0.1,1.1,0.6,1,1.1l0,0c-0.1,0.5-0.8,0.6-1.4,0.4
						L28.9,80.8z"/>
				</g>
				<path fill="#FBAB18" d="M49.8,50.1l-3-1.3l-0.3,1.1l3.2,0.5C50.3,50.5,50.4,50.4,49.8,50.1z"/>
			</g>
		</g>
	</g>
</g>
</svg>
