<?xml version="1.0" encoding="utf-8"?>
<!-- Generator: Adobe Illustrator 18.1.1, SVG Export Plug-In . SVG Version: 6.00 Build 0)  -->
<svg version="1.1" id="Layer_1" xmlns="http://www.w3.org/2000/svg" xmlns:xlink="http://www.w3.org/1999/xlink" x="0px" y="0px"
	 viewBox="0 0 100 100" enable-background="new 0 0 100 100" xml:space="preserve">
<g>
	<path fill-rule="evenodd" clip-rule="evenodd" fill="#F1C40F" d="M95.7,88.5c0,1.4,0.5,2.3-0.3,3.4C90.9,97,81.8,99.3,75,100
		c-11.4,1.1-37.7-5.9-52.3-19.4C6.2,65.3-4.2,34.9,14.3,17.5c0.2-0.2,0.5-0.4,0.9-0.6c3.1-4.1,6.6-10.3,4.9-15.8
		c1.4-0.2,3.9,0.8,5.2,0.8c-12.6,45.5-3,77.5,70.4,83.1C96.2,86,95.7,86.7,95.7,88.5L95.7,88.5z"/>
	<path fill-rule="evenodd" clip-rule="evenodd" fill="#FFD630" d="M25.3,1.9c0.9,0.4,1.6,1.6,2.6,1.9c-2.6,6-3.5,10.1-3.5,13.5
		c0,0.9,0.6,1.2,0.7,2.2c1.3,16,1.8,28.8,15.8,41.6c15,13.7,31.4,13.9,38.6,16.1c5.1,1.6,11.9,3.1,16.2,7.8c0.1,0.2,0.2,0.4,0.2,0.6
		c-2.5,0.9-6,1.5-10.7,1.8C73.8,88,47.7,82,32.5,69.2C16.6,55.7,11.2,34.4,19.9,16.8C21.4,13.8,23.3,6.8,25.3,1.9L25.3,1.9z"/>
	<path fill-rule="evenodd" clip-rule="evenodd" d="M95.4,91.9c-0.2-0.3-0.3-0.6-0.3-1c0-0.9,0.2-1.6,0.2-2.5c0-0.7-0.4-1.4-0.3-2
		c0.1-0.5,0.5-0.9,0.7-1.3c0.4-0.2,0.7-0.1,0.8,0c0,0.1-0.4,1-0.3,1.3c0.3,0.7,0.8,1,0.9,1.8c0.1,0.6-0.2,1.1-0.3,1.7
		c-0.1,0.5,0.1,1.2,0.1,1.4C96.8,91.5,96.1,92.1,95.4,91.9L95.4,91.9z"/>
</g>
</svg>
