<?xml version="1.0" encoding="utf-8"?>
<!-- Generator: Adobe Illustrator 18.1.1, SVG Export Plug-In . SVG Version: 6.00 Build 0)  -->
<svg version="1.1" id="Layer_1" xmlns="http://www.w3.org/2000/svg" xmlns:xlink="http://www.w3.org/1999/xlink" x="0px" y="0px"
	 viewBox="0 0 200 200" enable-background="new 0 0 200 200" xml:space="preserve">
<g>
	<path fill="#FEC00F" d="M168.6,101.2c0,66.9-30.7,98.7-68.6,98.7c-37.9,0-68.6-31.8-68.6-98.7C31.4,34.3,62.1,0.1,100,0.1
		C137.9,0.1,168.6,34.3,168.6,101.2z"/>
	<path fill="#ED9F18" d="M168.6,101.2c0-66.9-30.7-101.2-68.6-101.2v199.8C137.9,199.9,168.6,168.2,168.6,101.2z"/>
	<path fill="#C56F68" d="M70.9,136.6H55.7c-2.1,0-3.9-1.7-3.9-3.9s1.7-3.9,3.9-3.9h15.2c2.1,0,3.9,1.7,3.9,3.9
		S73.1,136.6,70.9,136.6z"/>
	<path fill="#C56F68" d="M105.8,108.3H90.5c-2.1,0-3.9-1.7-3.9-3.9c0-2.1,1.7-3.9,3.9-3.9h15.2c2.1,0,3.9,1.7,3.9,3.9
		C109.6,106.5,107.9,108.3,105.8,108.3z"/>
	<path fill="#C56F68" d="M102.1,66.4h-8.6c-2.1,0-3.9-1.7-3.9-3.9s1.7-3.9,3.9-3.9h8.6c2.1,0,3.9,1.7,3.9,3.9S104.2,66.4,102.1,66.4
		z"/>
	<path fill="#C56F68" d="M59.2,101.1h-8.6c-2.1,0-3.9-1.7-3.9-3.9c0-2.1,1.7-3.9,3.9-3.9h8.6c2.1,0,3.9,1.7,3.9,3.9
		C63,99.4,61.3,101.1,59.2,101.1z"/>
	<path fill="#C56F68" d="M150,111h-8.6c-2.1,0-3.9-1.7-3.9-3.9c0-2.1,1.7-3.9,3.9-3.9h8.6c2.1,0,3.9,1.7,3.9,3.9
		C153.9,109.3,152.1,111,150,111z"/>
	<path fill="#C56F68" d="M145.4,147.5h-15.2c-2.1,0-3.9-1.7-3.9-3.9s1.7-3.9,3.9-3.9h15.2c2.1,0,3.9,1.7,3.9,3.9
		S147.6,147.5,145.4,147.5z"/>
	<path fill="#FFE6A2" d="M87.1,26.3c0,0-19.1-4.1-28.7,16.4C48.9,63.1,57,74,57,74s4.8-14.7,12.3-25.9
		C77.5,35.8,87.1,26.3,87.1,26.3z"/>
</g>
</svg>
