<svg version="1.1" id="Layer_1" xmlns="http://www.w3.org/2000/svg" xmlns:xlink="http://www.w3.org/1999/xlink" viewBox="0 0 40 52">
<g>
  <path fill-rule="evenodd" clip-rule="evenodd" fill="#D9CAB9" d="M38.661,11.079l-7.734,40.797c-7.285,0-14.569,0-21.854,0
    L1.338,11.079c-0.972-5.132,11.305-0.711,10.107-5.601h-0.345c-0.061,0-0.11-0.052-0.11-0.109V3.331c0-0.06,0.05-0.11,0.11-0.11
    c5.931,0,11.866,0,17.797,0c0.061,0,0.11,0.051,0.11,0.11v2.038c0,0.058-0.05,0.109-0.11,0.109h-0.343
    C27.355,10.368,39.633,5.947,38.661,11.079L38.661,11.079z"/>
  <path fill-rule="evenodd" clip-rule="evenodd" fill="#E9DFD4" d="M28.085,4.556V4.143c-5.39,0-10.779,0-16.17,0v0.413h0.255
    l0.172,0.705c0.188,0.767,0.156,1.562-0.304,2.233c-1.049,1.532-3.916,1.53-5.589,1.62c-0.895,0.048-3.526,0.119-4.101,0.908
    c-0.181,0.248-0.156,0.599-0.101,0.884l7.593,40.047c6.773,0,13.547,0,20.322,0l7.592-40.047c0.056-0.285,0.08-0.636-0.102-0.884
    c-0.574-0.789-3.205-0.86-4.101-0.908c-2.394-0.126-6.787-0.203-5.894-3.854l0.173-0.705H28.085L28.085,4.556z"/>
  <path fill-rule="evenodd" clip-rule="evenodd" fill="#E20613" d="M10.639,0.124h18.724c0.679,0,1.232,0.706,1.232,1.567v1.287
    c0,0.861-0.554,1.566-1.232,1.566H10.639c-0.679,0-1.233-0.705-1.233-1.566V1.691C9.406,0.83,9.959,0.124,10.639,0.124
    L10.639,0.124z"/>
  <path fill-rule="evenodd" clip-rule="evenodd" fill="#D19360" d="M2.519,12.351c11.777-1.91,23.426-1.878,34.942,0.091l-7.3,38.512
    c-6.774,0-13.549,0-20.322,0L2.519,12.351L2.519,12.351z"/>
  <path fill-rule="evenodd" clip-rule="evenodd" fill="#BC7A53" d="M34.191,11.936c1.092,0.152,2.183,0.322,3.27,0.506l-7.3,38.512
    c-6.774,0-13.549,0-20.322,0l-0.403-2.118h17.761L34.191,11.936L34.191,11.936z"/>
  <path fill-rule="evenodd" clip-rule="evenodd" fill="#FFFADB" d="M7.606,16.315c8.349-1.355,16.606-1.331,24.77,0.065l-1.491,7.865
    c-7.19-1.081-14.454-1.101-21.786-0.053L7.606,16.315L7.606,16.315z"/>
  <path fill-rule="evenodd" clip-rule="evenodd" fill="#E20613" d="M7.729,16.955c8.259-1.252,16.432-1.228,24.525,0.064
    l-0.191,1.012c-7.967-1.252-16.013-1.271-24.141-0.059L7.729,16.955L7.729,16.955z"/>
  <path fill-rule="evenodd" clip-rule="evenodd" fill="#E20613" d="M8.778,22.486c7.551-1.11,15.028-1.093,22.429,0.054l-0.181,0.96
    c-7.284-1.108-14.638-1.128-22.069-0.055L8.778,22.486L8.778,22.486z"/>
  <path fill-rule="evenodd" clip-rule="evenodd" fill="#854935" d="M19.528,17.891c1.789-0.608,3.468-0.436,3.748,0.389
    c0.28,0.821-0.946,1.982-2.735,2.591c-1.79,0.608-3.469,0.436-3.75-0.386C16.511,19.661,17.738,18.501,19.528,17.891L19.528,17.891
    z"/>
  <path fill-rule="evenodd" clip-rule="evenodd" fill="#46281F" d="M16.787,19.989l6.524-1.558c0.013,0.109,0.002,0.223-0.03,0.338
    l-6.525,1.558C16.746,20.219,16.755,20.105,16.787,19.989L16.787,19.989z"/>
  <path fill-rule="evenodd" clip-rule="evenodd" fill="#854935" d="M12.017,18.771c1.326-0.45,2.564-0.32,2.771,0.286
    c0.207,0.608-0.699,1.465-2.022,1.915c-1.323,0.452-2.564,0.32-2.77-0.286C9.789,20.079,10.693,19.222,12.017,18.771L12.017,18.771
    z"/>
  <path fill-rule="evenodd" clip-rule="evenodd" fill="#46281F" d="M9.993,20.321l4.82-1.151c0.009,0.08,0.003,0.163-0.021,0.251
    l-4.822,1.151C9.959,20.489,9.969,20.407,9.993,20.321L9.993,20.321z"/>
  <path fill-rule="evenodd" clip-rule="evenodd" fill="#854935" d="M27.652,18.771c1.324-0.45,2.565-0.32,2.772,0.286
    c0.205,0.608-0.699,1.465-2.023,1.915c-1.324,0.452-2.563,0.32-2.771-0.286C25.425,20.079,26.33,19.222,27.652,18.771
    L27.652,18.771z"/>
  <path fill-rule="evenodd" clip-rule="evenodd" fill="#46281F" d="M25.627,20.321l4.822-1.151c0.008,0.08,0.003,0.163-0.022,0.251
    l-4.822,1.151C25.597,20.489,25.604,20.407,25.627,20.321L25.627,20.321z"/>
</g>
</svg>
