<svg version="1.1" id="Layer_2" xmlns="http://www.w3.org/2000/svg" xmlns:xlink="http://www.w3.org/1999/xlink" viewBox="0 307.533 600 128.726">
<g>
  <g>
    <path fill="#6FA82E" d="M68.137,319.18c4.458,0,8.375,5.033,10.626,12.631c2.042-0.852,4.287-1.324,6.645-1.324
      c2.479,0,4.826,0.533,6.949,1.469c2.943-7.642,8.396-12.775,14.642-12.775c6.6,0,12.315,5.735,15.119,14.104
      c2.605-1.326,5.607-2.092,8.81-2.092c5.535,0,10.48,2.262,13.78,5.814c1.961-2.747,4.479-4.399,7.228-4.399
      c2.232,0,4.307,1.104,6.06,2.982c2.857-6.896,7.817-11.462,13.463-11.462c4.618,0,8.776,3.056,11.702,7.942
      c1.042-0.558,2.194-0.876,3.411-0.876c3.408,0,6.331,2.436,7.622,5.917c2.253-1.064,4.794-1.676,7.491-1.676
      c0.689,0,1.362,0.052,2.03,0.127c2.094-3.963,5.242-6.487,8.765-6.487c3.692,0,6.966,2.782,9.053,7.08
      c2.667-1.364,5.664-2.134,8.834-2.134c4.754,0,9.118,1.724,12.555,4.598c2.133-4.02,5.559-6.639,9.433-6.639
      c2.164,0,4.183,0.828,5.924,2.245c1.76-5.602,4.802-9.311,8.264-9.311c4.019,0,7.469,4.994,9.009,12.151
      c1.555-1.438,3.326-2.259,5.208-2.259c2.326,0,4.481,1.246,6.263,3.367c1.473-6.948,5.004-11.846,9.13-11.846
      c4.028,0,7.488,4.674,9.023,11.363c2.205-4.353,5.494-7.125,9.174-7.125c6.643,0,12.029,9.008,12.029,20.117
      c0,11.11-5.387,20.117-12.029,20.117c-4.969,0-9.23-5.038-11.066-12.226c-1.797,3.637-4.324,5.912-7.13,5.912
      c-1.919,0-3.704-1.075-5.221-2.908c-1.697,6.822-5.609,11.604-10.172,11.604c-4.11,0-7.691-3.895-9.603-9.664
      c-1.377,1.516-2.945,2.383-4.614,2.383c-2.542,0-4.852-2.012-6.601-5.289c-2.046,2.413-4.69,3.875-7.587,3.875
      c-1.325,0-2.595-0.32-3.784-0.883c-3.18,7.149-10.131,12.109-18.203,12.109c-7.5,0-14.036-4.286-17.473-10.633
      c-0.139,0.008-0.274,0.033-0.414,0.033c-0.941,0-1.85-0.199-2.724-0.539c-2.393,1.242-5.141,1.953-8.071,1.953
      c-6.69,0-12.444-3.691-15.092-9.004c-2.193,9.771-8.138,16.778-15.134,16.778c-4.765,0-9.043-3.255-11.979-8.415
      c-2.005,3.023-4.642,4.882-7.543,4.882c-4.402,0-8.208-4.246-10.08-10.431c-3.031,2.102-6.812,3.363-10.928,3.363
      c-3.908,0-7.513-1.138-10.463-3.05c-3.101,6.147-7.979,10.117-13.466,10.117c-5.253,0-9.948-3.635-13.061-9.337
      c-2.508,1.434-5.417,2.27-8.53,2.27c-2.432,0-4.739-0.511-6.832-1.414c-2.277,7.252-6.102,12.015-10.439,12.015
      c-6.985,0-12.646-12.341-12.646-27.562C55.491,331.52,61.152,319.18,68.137,319.18z"/>
    <circle fill="#FACD33" cx="286.037" cy="345.333" r="18.969"/>
    <circle fill="#AC2021" cx="264.392" cy="360.497" r="18.968"/>
    <circle fill="#AC2021" cx="202.051" cy="359.283" r="18.969"/>
    <circle fill="#AC2021" cx="149.693" cy="351.075" r="13.261"/>
    <circle fill="#FACD33" cx="221.267" cy="356.743" r="13.113"/>
    <circle fill="#FACD33" cx="185.42" cy="351.744" r="15.238"/>
    <circle fill="#FACD33" cx="131.593" cy="346.231" r="17.397"/>
    <circle fill="#FACD33" cx="93.749" cy="353.125" r="14.373"/>
    <circle fill="#AC2021" cx="75.565" cy="355.545" r="17.732"/>
  </g>
  <g>
    <path fill="#6FA82E" d="M298.561,319.18c4.458,0,8.375,5.033,10.626,12.631c2.043-0.852,4.285-1.324,6.646-1.324
      c2.479,0,4.824,0.533,6.947,1.469c2.943-7.642,8.396-12.775,14.643-12.775c6.6,0,12.314,5.735,15.117,14.104
      c2.607-1.326,5.607-2.092,8.812-2.092c5.533,0,10.479,2.262,13.779,5.814c1.959-2.747,4.479-4.399,7.227-4.399
      c2.232,0,4.307,1.104,6.059,2.982c2.859-6.896,7.818-11.462,13.465-11.462c4.617,0,8.775,3.056,11.701,7.942
      c1.043-0.558,2.195-0.876,3.412-0.876c3.406,0,6.33,2.436,7.621,5.917c2.254-1.064,4.795-1.676,7.492-1.676
      c0.688,0,1.363,0.052,2.029,0.127c2.094-3.963,5.242-6.487,8.766-6.487c3.691,0,6.967,2.782,9.053,7.08
      c2.666-1.364,5.664-2.134,8.834-2.134c4.754,0,9.117,1.724,12.555,4.598c2.133-4.02,5.559-6.639,9.434-6.639
      c2.162,0,4.182,0.828,5.922,2.245c1.762-5.602,4.803-9.311,8.266-9.311c4.018,0,7.469,4.994,9.008,12.151
      c1.555-1.438,3.326-2.259,5.209-2.259c2.324,0,4.48,1.246,6.262,3.367c1.473-6.948,5.004-11.846,9.131-11.846
      c4.027,0,7.486,4.674,9.021,11.363c2.205-4.353,5.496-7.125,9.174-7.125c6.645,0,12.029,9.008,12.029,20.117
      c0,11.11-5.385,20.117-12.029,20.117c-4.969,0-9.23-5.038-11.064-12.226c-1.799,3.637-4.324,5.912-7.131,5.912
      c-1.92,0-3.705-1.075-5.223-2.908c-1.695,6.822-5.609,11.604-10.17,11.604c-4.111,0-7.693-3.895-9.604-9.664
      c-1.377,1.516-2.947,2.383-4.613,2.383c-2.543,0-4.854-2.012-6.602-5.289c-2.047,2.413-4.691,3.875-7.586,3.875
      c-1.328,0-2.596-0.32-3.785-0.883c-3.18,7.149-10.131,12.109-18.203,12.109c-7.5,0-14.037-4.286-17.473-10.633
      c-0.139,0.008-0.275,0.033-0.414,0.033c-0.941,0-1.85-0.199-2.725-0.539c-2.393,1.242-5.141,1.953-8.07,1.953
      c-6.691,0-12.445-3.691-15.094-9.004c-2.191,9.771-8.137,16.778-15.133,16.778c-4.766,0-9.043-3.255-11.98-8.415
      c-2.004,3.023-4.641,4.882-7.543,4.882c-4.402,0-8.207-4.246-10.08-10.431c-3.031,2.102-6.811,3.363-10.926,3.363
      c-3.908,0-7.514-1.138-10.465-3.05c-3.1,6.147-7.977,10.117-13.465,10.117c-5.254,0-9.949-3.635-13.062-9.337
      c-2.508,1.434-5.416,2.27-8.527,2.27c-2.434,0-4.74-0.511-6.834-1.414c-2.275,7.252-6.102,12.015-10.439,12.015
      c-6.985,0-12.646-12.341-12.646-27.562C285.916,331.52,291.576,319.18,298.561,319.18z"/>
    <circle fill="#FACD33" cx="516.46" cy="345.333" r="18.968"/>
    <path fill="#AC2021" d="M475.848,360.497c0,10.477,8.492,18.969,18.967,18.969c10.479,0,18.969-8.492,18.969-18.969
      c0-10.476-8.49-18.968-18.969-18.968C484.34,341.529,475.848,350.021,475.848,360.497z"/>
    <circle fill="#AC2021" cx="432.475" cy="359.283" r="18.969"/>
    <circle fill="#AC2021" cx="380.117" cy="351.075" r="13.262"/>
    <circle fill="#FACD33" cx="451.691" cy="356.743" r="13.113"/>
    <circle fill="#FACD33" cx="415.844" cy="351.744" r="15.238"/>
    <circle fill="#FACD33" cx="362.018" cy="346.231" r="17.396"/>
    <circle fill="#FACD33" cx="324.173" cy="353.125" r="14.372"/>
    <circle fill="#AC2021" cx="305.989" cy="355.545" r="17.732"/>
  </g>
  <g>
    <path fill="#D5D3D3" d="M86.155,416.306c0,11.021,12.335,19.953,27.548,19.953h372.596c15.213,0,27.545-8.933,27.545-19.953l0,0
      c0-11.02-12.332-19.953-27.545-19.953H113.703C98.49,396.353,86.155,405.286,86.155,416.306L86.155,416.306z"/>
    <path fill="#E9E9E9" d="M538.584,394.177c-0.014,0.029-0.031,0.055-0.045,0.084c-3.318,13.844-15.746,24.145-30.605,24.145H92.066
      c-14.243,0-26.266-9.455-30.164-22.428c-0.351-0.571-0.692-1.163-1.015-1.801c-1.577-3.121-3.401-5.881-5.396-8.326h488.487
      C541.986,388.296,540.162,391.056,538.584,394.177z"/>
    <path fill="#E9E9E9" d="M12.998,366.947h-0.745c-0.042,0-0.086-0.005-0.129-0.005c-0.261,0.001-0.397,0.005-0.397,0.005
      l0.003-0.025c-5.264-0.274-9.453-4.618-9.453-9.95c0-5.511,4.466-9.978,9.976-9.978h575.492c5.512,0,9.979,4.467,9.979,9.978
      c0,5.51-4.467,9.976-9.979,9.976h-1.27c-5.561,0.094-28.359,1.569-42.496,18.903H55.491
      C41.355,368.517,18.557,367.041,12.998,366.947z"/>
  </g>
</g>
</svg>
