<svg version="1.1" id="Layer_2" xmlns="http://www.w3.org/2000/svg" xmlns:xlink="http://www.w3.org/1999/xlink" viewBox="0 307.533 600 128.726">
<g>
  <g>
    <path fill="#6FA82E" d="M68.137,320.733c4.459,0,8.375,5.033,10.627,12.631c2.042-0.852,4.286-1.324,6.645-1.324
      c2.479,0,4.826,0.532,6.948,1.468c2.944-7.641,8.397-12.775,14.642-12.775c6.601,0,12.316,5.735,15.119,14.104
      c2.605-1.326,5.607-2.092,8.812-2.092c5.534,0,10.479,2.262,13.779,5.814c1.96-2.747,4.479-4.399,7.228-4.399
      c2.231,0,4.307,1.103,6.06,2.981c2.858-6.896,7.817-11.462,13.463-11.462c4.618,0,8.776,3.057,11.703,7.942
      c1.042-0.558,2.193-0.876,3.411-0.876c3.407,0,6.331,2.436,7.621,5.917c2.254-1.063,4.793-1.676,7.491-1.676
      c0.688,0,1.363,0.052,2.029,0.127c2.094-3.963,5.242-6.487,8.766-6.487c3.693,0,6.967,2.782,9.054,7.08
      c2.665-1.364,5.663-2.133,8.834-2.133c4.754,0,9.117,1.723,12.554,4.598c2.133-4.02,5.559-6.639,9.434-6.639
      c2.163,0,4.183,0.829,5.923,2.246c1.761-5.603,4.803-9.312,8.265-9.312c4.019,0,7.469,4.994,9.009,12.151
      c1.554-1.438,3.326-2.259,5.209-2.259c2.325,0,4.479,1.246,6.261,3.367c1.473-6.948,5.005-11.846,9.13-11.846
      c4.028,0,7.488,4.674,9.022,11.363c2.206-4.353,5.495-7.124,9.174-7.124c6.644,0,12.029,9.007,12.029,20.117
      s-5.386,20.117-12.029,20.117c-4.968,0-9.23-5.038-11.064-12.227c-1.798,3.638-4.324,5.913-7.132,5.913
      c-1.919,0-3.704-1.076-5.221-2.908c-1.697,6.822-5.609,11.604-10.17,11.604c-4.112,0-7.693-3.896-9.604-9.664
      c-1.377,1.514-2.945,2.382-4.613,2.382c-2.542,0-4.852-2.012-6.602-5.288c-2.046,2.412-4.69,3.875-7.586,3.875
      c-1.326,0-2.596-0.321-3.784-0.883c-3.18,7.148-10.132,12.109-18.203,12.109c-7.501,0-14.037-4.287-17.474-10.633
      c-0.139,0.008-0.274,0.033-0.414,0.033c-0.941,0-1.851-0.199-2.725-0.539c-2.392,1.24-5.141,1.953-8.07,1.953
      c-6.69,0-12.444-3.691-15.093-9.005c-2.192,9.771-8.138,16.778-15.134,16.778c-4.765,0-9.043-3.254-11.979-8.415
      c-2.005,3.024-4.642,4.882-7.543,4.882c-4.402,0-8.208-4.245-10.081-10.43c-3.03,2.102-6.811,3.362-10.926,3.362
      c-3.908,0-7.514-1.138-10.465-3.05c-3.1,6.148-7.977,10.117-13.466,10.117c-5.253,0-9.948-3.634-13.061-9.336
      c-2.508,1.434-5.416,2.269-8.529,2.269c-2.433,0-4.739-0.511-6.831-1.413c-2.277,7.252-6.104,12.014-10.44,12.014
      c-6.984,0-12.646-12.34-12.646-27.561C55.491,333.073,61.152,320.733,68.137,320.733z"/>
  </g>
  <g>
    <path fill="#6FA82E" d="M298.562,320.733c4.458,0,8.376,5.033,10.626,12.631c2.042-0.852,4.287-1.324,6.645-1.324
      c2.479,0,4.826,0.532,6.949,1.468c2.943-7.641,8.396-12.775,14.642-12.775c6.6,0,12.315,5.735,15.119,14.104
      c2.605-1.326,5.607-2.092,8.811-2.092c5.534,0,10.479,2.262,13.779,5.814c1.961-2.747,4.479-4.399,7.229-4.399
      c2.231,0,4.307,1.103,6.059,2.981c2.858-6.896,7.818-11.462,13.464-11.462c4.618,0,8.775,3.057,11.702,7.942
      c1.042-0.558,2.194-0.876,3.411-0.876c3.408,0,6.331,2.436,7.622,5.917c2.253-1.063,4.793-1.676,7.491-1.676
      c0.688,0,1.363,0.052,2.029,0.127c2.093-3.963,5.242-6.487,8.766-6.487c3.692,0,6.966,2.782,9.054,7.08
      c2.665-1.364,5.663-2.133,8.834-2.133c4.754,0,9.117,1.723,12.553,4.598c2.134-4.02,5.56-6.639,9.434-6.639
      c2.164,0,4.184,0.829,5.924,2.246c1.761-5.603,4.802-9.312,8.265-9.312c4.018,0,7.469,4.994,9.009,12.151
      c1.554-1.438,3.325-2.259,5.209-2.259c2.324,0,4.479,1.246,6.261,3.367c1.473-6.948,5.005-11.846,9.13-11.846
      c4.028,0,7.488,4.674,9.022,11.363c2.206-4.353,5.495-7.124,9.174-7.124c6.644,0,12.029,9.007,12.029,20.117
      s-5.386,20.117-12.029,20.117c-4.968,0-9.23-5.038-11.065-12.227c-1.797,3.638-4.323,5.913-7.131,5.913
      c-1.919,0-3.704-1.076-5.221-2.908c-1.697,6.822-5.609,11.604-10.17,11.604c-4.112,0-7.693-3.896-9.604-9.664
      c-1.377,1.514-2.945,2.382-4.613,2.382c-2.542,0-4.852-2.012-6.602-5.288c-2.046,2.412-4.69,3.875-7.587,3.875
      c-1.325,0-2.595-0.321-3.783-0.883c-3.181,7.148-10.132,12.109-18.203,12.109c-7.501,0-14.037-4.287-17.475-10.633
      c-0.139,0.008-0.273,0.033-0.413,0.033c-0.941,0-1.851-0.199-2.726-0.539c-2.391,1.24-5.14,1.953-8.069,1.953
      c-6.69,0-12.444-3.691-15.094-9.005c-2.191,9.771-8.138,16.778-15.133,16.778c-4.765,0-9.043-3.254-11.979-8.415
      c-2.005,3.024-4.642,4.882-7.543,4.882c-4.402,0-8.209-4.245-10.081-10.43c-3.03,2.102-6.811,3.362-10.927,3.362
      c-3.908,0-7.514-1.138-10.464-3.05c-3.101,6.148-7.978,10.117-13.466,10.117c-5.254,0-9.948-3.634-13.061-9.336
      c-2.509,1.434-5.416,2.269-8.53,2.269c-2.433,0-4.738-0.511-6.83-1.413c-2.278,7.252-6.104,12.014-10.44,12.014
      c-6.985,0-12.646-12.34-12.646-27.561C285.916,333.073,291.576,320.733,298.562,320.733z"/>
  </g>
  <g>
    <path fill="#D5D3D3" d="M86.154,416.307c0,11.02,12.336,19.952,27.549,19.952h372.596c15.213,0,27.545-8.933,27.545-19.952l0,0
      c0-11.02-12.332-19.954-27.545-19.954H113.703C98.49,396.353,86.154,405.287,86.154,416.307L86.154,416.307z"/>
    <path fill="#E9E9E9" d="M538.586,394.177c-0.016,0.029-0.032,0.056-0.048,0.085c-3.318,13.844-15.745,24.145-30.605,24.145H92.066
      c-14.243,0-26.266-9.454-30.164-22.428c-0.351-0.571-0.691-1.162-1.016-1.802c-1.576-3.12-3.401-5.88-5.396-8.326h488.488
      C541.987,388.297,540.161,391.057,538.586,394.177z"/>
    <path fill="#E9E9E9" d="M12.997,366.947h-0.745c-0.042,0-0.085-0.005-0.129-0.005c-0.26,0.001-0.396,0.005-0.396,0.005
      l0.003-0.025c-5.264-0.273-9.452-4.617-9.452-9.949c0-5.511,4.467-9.979,9.975-9.979h575.493c5.511,0,9.978,4.468,9.978,9.979
      c0,5.51-4.467,9.975-9.978,9.975h-1.271c-5.56,0.095-28.359,1.57-42.495,18.903H55.491
      C41.354,368.518,18.557,367.042,12.997,366.947z"/>
  </g>
</g>
</svg>
