<svg version="1.1" id="Layer_2" xmlns="http://www.w3.org/2000/svg" xmlns:xlink="http://www.w3.org/1999/xlink" viewBox="0 307.533 600 128.726">
<g>
  <g>
    <path fill="#6FA82E" d="M68.201,307.533c4.457,0,8.375,5.034,10.625,12.631c2.042-0.853,4.287-1.324,6.645-1.324
      c2.479,0,4.826,0.532,6.948,1.468c2.944-7.641,8.397-12.775,14.642-12.775c6.601,0,12.316,5.736,15.119,14.105
      c2.606-1.326,5.608-2.092,8.811-2.092c5.535,0,10.48,2.262,13.78,5.813c1.961-2.746,4.479-4.399,7.229-4.399
      c2.232,0,4.306,1.104,6.059,2.982c2.858-6.895,7.818-11.461,13.463-11.461c4.618,0,8.776,3.056,11.703,7.941
      c1.042-0.558,2.194-0.876,3.411-0.876c3.408,0,6.332,2.435,7.623,5.917c2.253-1.062,4.793-1.676,7.491-1.676
      c0.688,0,1.363,0.051,2.029,0.127c2.093-3.965,5.242-6.487,8.765-6.487c3.693,0,6.967,2.78,9.053,7.08
      c2.666-1.364,5.664-2.134,8.835-2.134c4.753,0,9.117,1.723,12.553,4.599c2.134-4.02,5.56-6.639,9.434-6.639
      c2.163,0,4.183,0.828,5.923,2.246c1.761-5.603,4.802-9.312,8.264-9.312c4.019,0,7.47,4.995,9.009,12.151
      c1.553-1.438,3.325-2.259,5.208-2.259c2.325,0,4.48,1.246,6.261,3.366c1.474-6.948,5.005-11.846,9.131-11.846
      c4.028,0,7.488,4.676,9.021,11.365c2.206-4.354,5.496-7.125,9.174-7.125c6.645,0,12.029,9.008,12.029,20.117
      c0,11.11-5.385,20.118-12.029,20.118c-4.968,0-9.23-5.04-11.064-12.227c-1.798,3.638-4.324,5.912-7.131,5.912
      c-1.919,0-3.705-1.075-5.221-2.907c-1.697,6.822-5.61,11.603-10.17,11.603c-4.112,0-7.693-3.895-9.604-9.665
      c-1.377,1.515-2.946,2.383-4.614,2.383c-2.542,0-4.852-2.011-6.601-5.288c-2.046,2.413-4.692,3.875-7.587,3.875
      c-1.326,0-2.596-0.32-3.784-0.883c-3.179,7.15-10.131,12.11-18.203,12.11c-7.5,0-14.037-4.286-17.474-10.633
      c-0.139,0.008-0.274,0.033-0.414,0.033c-0.941,0-1.85-0.2-2.724-0.538c-2.392,1.239-5.141,1.951-8.07,1.951
      c-6.691,0-12.445-3.69-15.093-9.005c-2.193,9.773-8.138,16.78-15.134,16.78c-4.765,0-9.042-3.253-11.979-8.416
      c-2.004,3.024-4.642,4.883-7.543,4.883c-4.403,0-8.208-4.246-10.081-10.43c-3.03,2.1-6.811,3.363-10.927,3.363
      c-3.908,0-7.513-1.138-10.463-3.05c-3.101,6.148-7.978,10.118-13.467,10.118c-5.253,0-9.948-3.634-13.06-9.336
      c-2.508,1.433-5.417,2.269-8.53,2.269c-2.432,0-4.739-0.51-6.831-1.413c-2.277,7.251-6.103,12.014-10.439,12.014
      c-6.985,0-12.646-12.341-12.646-27.56C55.555,319.873,61.216,307.533,68.201,307.533z"/>
    <circle fill="#FACD33" cx="286.1" cy="333.686" r="18.969"/>
    <circle fill="#AC2021" cx="264.455" cy="348.851" r="18.968"/>
    <circle fill="#AC2021" cx="202.115" cy="347.638" r="18.969"/>
    <circle fill="#AC2021" cx="149.756" cy="339.429" r="13.261"/>
    <circle fill="#FACD33" cx="221.331" cy="345.096" r="13.113"/>
    <circle fill="#FACD33" cx="185.483" cy="340.099" r="15.238"/>
    <circle fill="#FACD33" cx="131.656" cy="334.585" r="17.397"/>
    <circle fill="#FACD33" cx="93.812" cy="341.479" r="14.373"/>
    <circle fill="#AC2021" cx="75.629" cy="343.9" r="17.732"/>
  </g>
  <g>
    <path fill="#6FA82E" d="M298.625,307.533c4.458,0,8.376,5.034,10.626,12.631c2.042-0.853,4.287-1.324,6.646-1.324
      c2.479,0,4.826,0.532,6.948,1.468c2.944-7.641,8.397-12.775,14.643-12.775c6.6,0,12.316,5.736,15.119,14.105
      c2.605-1.326,5.607-2.092,8.811-2.092c5.534,0,10.479,2.262,13.778,5.813c1.961-2.746,4.48-4.399,7.229-4.399
      c2.232,0,4.307,1.104,6.06,2.982c2.858-6.895,7.817-11.461,13.464-11.461c4.617,0,8.774,3.056,11.702,7.941
      c1.043-0.558,2.193-0.876,3.41-0.876c3.408,0,6.333,2.435,7.622,5.917c2.254-1.062,4.794-1.676,7.492-1.676
      c0.688,0,1.362,0.051,2.029,0.127c2.094-3.965,5.241-6.487,8.765-6.487c3.692,0,6.968,2.78,9.054,7.08
      c2.665-1.364,5.663-2.134,8.834-2.134c4.755,0,9.118,1.723,12.554,4.599c2.135-4.02,5.56-6.639,9.434-6.639
      c2.163,0,4.183,0.828,5.924,2.246c1.761-5.603,4.802-9.312,8.264-9.312c4.019,0,7.47,4.995,9.009,12.151
      c1.555-1.438,3.326-2.259,5.209-2.259c2.325,0,4.479,1.246,6.261,3.366c1.475-6.948,5.006-11.846,9.13-11.846
      c4.029,0,7.489,4.676,9.022,11.365c2.207-4.354,5.496-7.125,9.175-7.125c6.644,0,12.029,9.008,12.029,20.117
      c0,11.11-5.386,20.118-12.029,20.118c-4.967,0-9.23-5.04-11.065-12.227c-1.798,3.638-4.324,5.912-7.132,5.912
      c-1.918,0-3.704-1.075-5.221-2.907c-1.697,6.822-5.609,11.603-10.17,11.603c-4.112,0-7.692-3.895-9.604-9.665
      c-1.376,1.515-2.945,2.383-4.614,2.383c-2.542,0-4.852-2.011-6.601-5.288c-2.046,2.413-4.69,3.875-7.587,3.875
      c-1.325,0-2.595-0.32-3.784-0.883c-3.179,7.15-10.132,12.11-18.203,12.11c-7.499,0-14.036-4.286-17.473-10.633
      c-0.14,0.008-0.274,0.033-0.415,0.033c-0.941,0-1.85-0.2-2.724-0.538c-2.392,1.239-5.141,1.951-8.07,1.951
      c-6.69,0-12.445-3.69-15.094-9.005c-2.192,9.773-8.138,16.78-15.133,16.78c-4.766,0-9.044-3.253-11.98-8.416
      c-2.005,3.024-4.641,4.883-7.543,4.883c-4.402,0-8.208-4.246-10.081-10.43c-3.029,2.1-6.811,3.363-10.926,3.363
      c-3.909,0-7.515-1.138-10.464-3.05c-3.102,6.148-7.978,10.118-13.466,10.118c-5.255,0-9.948-3.634-13.062-9.336
      c-2.508,1.433-5.416,2.269-8.529,2.269c-2.433,0-4.739-0.51-6.831-1.413c-2.277,7.251-6.103,12.014-10.44,12.014
      c-6.985,0-12.646-12.341-12.646-27.56C285.979,319.873,291.64,307.533,298.625,307.533z"/>
    <circle fill="#FACD33" cx="516.525" cy="333.686" r="18.968"/>
    <circle fill="#AC2021" cx="494.88" cy="348.851" r="18.968"/>
    <circle fill="#AC2021" cx="432.54" cy="347.638" r="18.968"/>
    <circle fill="#AC2021" cx="380.181" cy="339.429" r="13.262"/>
    <circle fill="#FACD33" cx="451.756" cy="345.096" r="13.113"/>
    <circle fill="#FACD33" cx="415.908" cy="340.099" r="15.238"/>
    <path fill="#FACD33" d="M344.686,334.585c0,9.607,7.787,17.396,17.395,17.396c9.61,0,17.397-7.789,17.397-17.396
      c0-9.607-7.787-17.396-17.397-17.396C352.473,317.189,344.686,324.978,344.686,334.585z"/>
    <circle fill="#FACD33" cx="324.238" cy="341.479" r="14.373"/>
    <path fill="#AC2021" d="M288.322,343.9c0,9.792,7.938,17.732,17.73,17.732c9.796,0,17.733-7.939,17.733-17.732
      c0-9.793-7.938-17.732-17.733-17.732C296.259,326.167,288.322,334.106,288.322,343.9z"/>
  </g>
  <g>
    <path fill="#D5D3D3" d="M86.218,416.306c0,11.02,12.336,19.953,27.548,19.953h372.596c15.214,0,27.546-8.934,27.546-19.953l0,0
      c0-11.02-12.332-19.953-27.546-19.953H113.766C98.554,396.353,86.218,405.286,86.218,416.306L86.218,416.306z"/>
    <path fill="#E9E9E9" d="M538.649,394.177c-0.014,0.028-0.031,0.054-0.047,0.085c-3.318,13.842-15.746,24.145-30.605,24.145H92.129
      c-14.243,0-26.265-9.455-30.164-22.429c-0.35-0.572-0.691-1.163-1.015-1.801c-1.577-3.121-3.402-5.882-5.396-8.326h488.488
      C542.051,388.295,540.225,391.056,538.649,394.177z"/>
    <path fill="#E9E9E9" d="M13.061,366.947h-0.745c-0.042,0-0.086-0.007-0.129-0.007c-0.26,0.002-0.397,0.007-0.397,0.007
      l0.003-0.025c-5.264-0.274-9.452-4.617-9.452-9.952c0-5.509,4.467-9.977,9.975-9.977h575.493c5.511,0,9.979,4.468,9.979,9.977
      c0,5.511-4.468,9.978-9.979,9.978h-1.269c-5.561,0.094-28.36,1.57-42.497,18.903H55.555
      C41.419,368.518,18.621,367.041,13.061,366.947z"/>
  </g>
</g>
</svg>
