<svg version="1.1" id="Layer_1" xmlns="http://www.w3.org/2000/svg" xmlns:xlink="http://www.w3.org/1999/xlink" viewBox="0 0 384 315" >
<g id="Shopping_Cart">
	<path fill="#552A11" d="M201.03,287.964c1.426,2.605,2.241,5.593,2.241,8.771c0,10.086-8.18,18.265-18.266,18.265
		s-18.266-8.179-18.266-18.265c0-3.179,0.813-6.166,2.243-8.771c3.103-5.658,9.115-9.498,16.023-9.498
		C191.915,278.466,197.926,282.306,201.03,287.964 M185.064,286.317c-5.974,0-10.817,4.841-10.817,10.812
		c0,5.975,4.843,10.817,10.817,10.817c5.971,0,10.813-4.843,10.813-10.817C195.877,291.158,191.035,286.317,185.064,286.317"/>
	<path fill="#D6D6D6" d="M174.246,297.131c0,5.973,4.845,10.816,10.817,10.816c5.972,0,10.814-4.844,10.814-10.816
		s-4.842-10.812-10.814-10.812C179.091,286.318,174.246,291.158,174.246,297.131"/>
	<path fill="#552A11" d="M301.879,287.965c1.512,2.661,2.387,5.728,2.387,9.007c0,10.084-8.18,18.266-18.268,18.266
		c-10.086,0-18.266-8.182-18.266-18.266c0-3.279,0.874-6.346,2.386-9.007c3.141-5.526,9.071-9.261,15.88-9.261
		C292.809,278.704,298.738,282.438,301.879,287.965 M286.056,286.551c-5.974,0-10.814,4.843-10.814,10.817
		c0,5.971,4.841,10.813,10.814,10.813c5.973,0,10.814-4.843,10.814-10.813C296.87,291.394,292.028,286.551,286.056,286.551"/>
	<path fill="#D6D6D6" d="M275.241,297.368c0,5.972,4.842,10.813,10.814,10.813c5.974,0,10.815-4.842,10.815-10.813
		c0-5.974-4.842-10.817-10.815-10.817C280.083,286.551,275.241,291.395,275.241,297.368"/>
	<path fill="#EE8555" d="M55.347,6.177c0-0.521-0.119-1.011-0.296-1.48c-0.723-1.927-2.794-3.332-5.265-3.332H7.389
		c-3.071,0-5.561,2.155-5.561,4.812v10.226c0,2.658,2.489,4.812,5.561,4.812h42.397c2.529,0,4.644-1.473,5.317-3.48
		c0.144-0.426,0.243-0.867,0.243-1.332V6.177z"/>
	<path fill="#FFFFFF" d="M331.842,222.284H141.181l15.788,51.007h164.948v14.674H301.88c-3.141-5.526-9.07-9.263-15.882-9.263
		c-6.81,0-12.738,3.736-15.881,9.263h-69.088c-3.104-5.658-9.115-9.499-16.025-9.499c-6.908,0-12.919,3.841-16.021,9.499h-18.914
		v-0.362l-1.11,0.443L65.304,17.735H55.103c0.144-0.424,0.243-0.866,0.243-1.331V6.177c0-0.52-0.119-1.011-0.296-1.48h18.663v0.073
		l0.136-0.054l15.266,49.333l293.056-0.138L331.842,222.284z M125.298,170.961h35.271l-5.973-25.721h-37.26L125.298,170.961z
		 M201.661,145.24l3.01,25.721h24.006l-0.021-25.721H201.661z M228.647,137.314l-0.028-29.79H197.25l3.485,29.79H228.647z
		 M236.604,170.961h22.48l2.336-25.721h-24.838L236.604,170.961z M262.142,137.314l2.708-29.79h-28.303l0.026,29.79H262.142z
		 M265.568,99.601l2.805-30.876h-31.859l0.026,30.876H265.568z M228.587,68.724h-35.872l3.61,30.876h32.29L228.587,68.724z
		 M184.733,68.724h-39.768l7.168,30.876h36.209L184.733,68.724z M153.974,107.525l6.919,29.79h31.862l-3.484-29.79H153.974z
		 M145.838,107.525h-40.168l9.216,29.79h37.872L145.838,107.525z M168.706,170.961h27.984l-3.005-25.721h-30.952L168.706,170.961z
		 M170.546,178.887l6.669,28.723h23.761l-3.358-28.723H170.546z M208.955,207.609h19.753l-0.026-28.723h-23.086L208.955,207.609z
		 M236.635,207.609h19.119l2.611-28.723h-21.754L236.635,207.609z M263.713,207.609h21.088l6.813-28.723h-25.292L263.713,207.609z
		 M293.493,170.961l6.101-25.721H269.38l-2.337,25.721H293.493z M301.637,170.961h32.816l7.638-25.721h-34.353L301.637,170.961z
		 M344.446,137.314l8.849-29.79h-36.61l-7.066,29.79H344.446z M308.54,107.525h-35.734l-2.706,29.79h31.375L308.54,107.525z
		 M310.421,99.601l7.324-30.876h-41.414l-2.805,30.876H310.421z M93.658,68.724l9.557,30.876h40.784l-7.168-30.876H93.658z
		 M136.641,207.609h32.438l-6.67-28.723h-34.657L136.641,207.609z M332.097,178.887h-32.339l-6.813,28.723h30.62L332.097,178.887z
		 M364.822,68.724h-38.935l-7.324,30.876h37.086L364.822,68.724z"/>
</g>
</svg>
